STARTFONT 2.1
FONT -pebble-chikarego2-medium-r-normal--48-480-75-75-P-0-iso10646-1
SIZE 48 75 75
FONTBOUNDINGBOX 33 48 0 -12
COMMENT "Giles Booth; BitFontMaker2 gallery 3780"
COMMENT "Creative Commons Attribution (version unspecified by source)"
COMMENT "U+2026 derived by repeating U+002E"
STARTPROPERTIES 8
FAMILY_NAME "ChiKareGo2"
WEIGHT_NAME "Medium"
SLANT "R"
PIXEL_SIZE 48
FONT_ASCENT 36
FONT_DESCENT 12
SPACING "P"
CHARSET_REGISTRY "ISO10646"
ENDPROPERTIES
CHARS 177
STARTCHAR uni0020
ENCODING 32
SWIDTH 312 0
DWIDTH 15 0
BBX 3 3 0 0
BITMAP
00
00
00
ENDCHAR
STARTCHAR uni0021
ENCODING 33
SWIDTH 188 0
DWIDTH 9 0
BBX 6 27 0 0
BITMAP
FC
FC
FC
FC
FC
FC
FC
FC
FC
FC
FC
FC
FC
FC
FC
FC
FC
FC
00
00
00
FC
FC
FC
FC
FC
FC
ENDCHAR
STARTCHAR uni0022
ENCODING 34
SWIDTH 312 0
DWIDTH 15 0
BBX 12 9 0 18
BITMAP
E070
E070
E070
E070
E070
E070
E070
E070
E070
ENDCHAR
STARTCHAR uni0023
ENCODING 35
SWIDTH 562 0
DWIDTH 27 0
BBX 24 24 0 6
BITMAP
007038
007038
007038
007038
007038
007038
1FFFFF
1FFFFF
1FFFFF
0381C0
0381C0
0381C0
0381C0
0381C0
0381C0
FFFFF8
FFFFF8
FFFFF8
1C0E00
1C0E00
1C0E00
1C0E00
1C0E00
1C0E00
ENDCHAR
STARTCHAR uni0024
ENCODING 36
SWIDTH 375 0
DWIDTH 18 0
BBX 15 33 0 -3
BITMAP
0380
0380
0380
1FF0
1FF0
1FF0
E38E
E38E
E38E
FF80
FF80
FF80
FF80
FF80
FF80
1FF0
1FF0
1FF0
03FE
03FE
03FE
03FE
03FE
03FE
E38E
E38E
E38E
1FF0
1FF0
1FF0
0380
0380
0380
ENDCHAR
STARTCHAR uni0025
ENCODING 37
SWIDTH 625 0
DWIDTH 30 0
BBX 27 30 0 0
BITMAP
1F8FF800
1F8FF800
1F8FF800
E0703800
E0703800
E0703800
E071C000
E071C000
E071C000
1F81C000
1F81C000
1F81C000
000E0000
000E0000
000E0000
000E0000
000E0000
000E0000
00703F00
00703F00
00703F00
0071C0E0
0071C0E0
0071C0E0
0381C0E0
0381C0E0
0381C0E0
03803F00
03803F00
03803F00
ENDCHAR
STARTCHAR uni0026
ENCODING 38
SWIDTH 562 0
DWIDTH 27 0
BBX 24 27 0 0
BITMAP
1FFE00
1FFE00
1FFE00
FC0FC0
FC0FC0
FC0FC0
FC0FC7
FC0FC7
FC0FC7
1F8007
1F8007
1F8007
FC0FF8
FC0FF8
FC0FF8
FC0FC0
FC0FC0
FC0FC0
FC0FC0
FC0FC0
FC0FC0
FC0FC0
FC0FC0
FC0FC0
1FFE00
1FFE00
1FFE00
ENDCHAR
STARTCHAR uni0027
ENCODING 39
SWIDTH 125 0
DWIDTH 6 0
BBX 3 9 0 18
BITMAP
E0
E0
E0
E0
E0
E0
E0
E0
E0
ENDCHAR
STARTCHAR uni0028
ENCODING 40
SWIDTH 250 0
DWIDTH 12 0
BBX 9 33 0 -3
BITMAP
0380
0380
0380
1C00
1C00
1C00
FC00
FC00
FC00
FC00
FC00
FC00
FC00
FC00
FC00
FC00
FC00
FC00
FC00
FC00
FC00
FC00
FC00
FC00
FC00
FC00
FC00
1C00
1C00
1C00
0380
0380
0380
ENDCHAR
STARTCHAR uni0029
ENCODING 41
SWIDTH 250 0
DWIDTH 12 0
BBX 9 33 0 -3
BITMAP
E000
E000
E000
1C00
1C00
1C00
1F80
1F80
1F80
1F80
1F80
1F80
1F80
1F80
1F80
1F80
1F80
1F80
1F80
1F80
1F80
1F80
1F80
1F80
1F80
1F80
1F80
1C00
1C00
1C00
E000
E000
E000
ENDCHAR
STARTCHAR uni002A
ENCODING 42
SWIDTH 375 0
DWIDTH 18 0
BBX 15 15 0 12
BITMAP
0380
0380
0380
E38E
E38E
E38E
1FF0
1FF0
1FF0
E38E
E38E
E38E
0380
0380
0380
ENDCHAR
STARTCHAR uni002B
ENCODING 43
SWIDTH 375 0
DWIDTH 18 0
BBX 15 15 0 6
BITMAP
0380
0380
0380
0380
0380
0380
FFFE
FFFE
FFFE
0380
0380
0380
0380
0380
0380
ENDCHAR
STARTCHAR uni002C
ENCODING 44
SWIDTH 188 0
DWIDTH 9 0
BBX 6 12 0 -6
BITMAP
FC
FC
FC
FC
FC
FC
1C
1C
1C
E0
E0
E0
ENDCHAR
STARTCHAR uni002D
ENCODING 45
SWIDTH 375 0
DWIDTH 18 0
BBX 15 3 0 12
BITMAP
FFFE
FFFE
FFFE
ENDCHAR
STARTCHAR uni002E
ENCODING 46
SWIDTH 188 0
DWIDTH 9 0
BBX 6 6 0 0
BITMAP
FC
FC
FC
FC
FC
FC
ENDCHAR
STARTCHAR uni002F
ENCODING 47
SWIDTH 375 0
DWIDTH 18 0
BBX 15 30 0 0
BITMAP
000E
000E
000E
000E
000E
000E
0070
0070
0070
0070
0070
0070
0380
0380
0380
0380
0380
0380
1C00
1C00
1C00
1C00
1C00
1C00
E000
E000
E000
E000
E000
E000
ENDCHAR
STARTCHAR uni0030
ENCODING 48
SWIDTH 438 0
DWIDTH 21 0
BBX 18 27 0 0
BITMAP
1FFE00
1FFE00
1FFE00
FC0FC0
FC0FC0
FC0FC0
FC0FC0
FC0FC0
FC0FC0
FC0FC0
FC0FC0
FC0FC0
FC0FC0
FC0FC0
FC0FC0
FC0FC0
FC0FC0
FC0FC0
FC0FC0
FC0FC0
FC0FC0
FC0FC0
FC0FC0
FC0FC0
1FFE00
1FFE00
1FFE00
ENDCHAR
STARTCHAR uni0031
ENCODING 49
SWIDTH 250 0
DWIDTH 12 0
BBX 9 27 0 0
BITMAP
1F80
1F80
1F80
FF80
FF80
FF80
1F80
1F80
1F80
1F80
1F80
1F80
1F80
1F80
1F80
1F80
1F80
1F80
1F80
1F80
1F80
1F80
1F80
1F80
1F80
1F80
1F80
ENDCHAR
STARTCHAR uni0032
ENCODING 50
SWIDTH 438 0
DWIDTH 21 0
BBX 18 27 0 0
BITMAP
1FFE00
1FFE00
1FFE00
E00FC0
E00FC0
E00FC0
000FC0
000FC0
000FC0
000FC0
000FC0
000FC0
007E00
007E00
007E00
03F000
03F000
03F000
1F8000
1F8000
1F8000
FC0000
FC0000
FC0000
FFFFC0
FFFFC0
FFFFC0
ENDCHAR
STARTCHAR uni0033
ENCODING 51
SWIDTH 438 0
DWIDTH 21 0
BBX 18 27 0 0
BITMAP
FFFFC0
FFFFC0
FFFFC0
007E00
007E00
007E00
03F000
03F000
03F000
1FFE00
1FFE00
1FFE00
000FC0
000FC0
000FC0
000FC0
000FC0
000FC0
000FC0
000FC0
000FC0
E00FC0
E00FC0
E00FC0
1FFE00
1FFE00
1FFE00
ENDCHAR
STARTCHAR uni0034
ENCODING 52
SWIDTH 500 0
DWIDTH 24 0
BBX 21 27 0 0
BITMAP
000FC0
000FC0
000FC0
007FC0
007FC0
007FC0
038FC0
038FC0
038FC0
1C0FC0
1C0FC0
1C0FC0
E00FC0
E00FC0
E00FC0
FFFFF8
FFFFF8
FFFFF8
000FC0
000FC0
000FC0
000FC0
000FC0
000FC0
000FC0
000FC0
000FC0
ENDCHAR
STARTCHAR uni0035
ENCODING 53
SWIDTH 438 0
DWIDTH 21 0
BBX 18 27 0 0
BITMAP
FFFFC0
FFFFC0
FFFFC0
FC0000
FC0000
FC0000
FC0000
FC0000
FC0000
FFFE00
FFFE00
FFFE00
000FC0
000FC0
000FC0
000FC0
000FC0
000FC0
000FC0
000FC0
000FC0
E00FC0
E00FC0
E00FC0
1FFE00
1FFE00
1FFE00
ENDCHAR
STARTCHAR uni0036
ENCODING 54
SWIDTH 438 0
DWIDTH 21 0
BBX 18 27 0 0
BITMAP
03FE00
03FE00
03FE00
1F8000
1F8000
1F8000
FC0000
FC0000
FC0000
FFFE00
FFFE00
FFFE00
FC0FC0
FC0FC0
FC0FC0
FC0FC0
FC0FC0
FC0FC0
FC0FC0
FC0FC0
FC0FC0
FC0FC0
FC0FC0
FC0FC0
1FFE00
1FFE00
1FFE00
ENDCHAR
STARTCHAR uni0037
ENCODING 55
SWIDTH 438 0
DWIDTH 21 0
BBX 18 27 0 0
BITMAP
FFFFC0
FFFFC0
FFFFC0
000FC0
000FC0
000FC0
000FC0
000FC0
000FC0
000FC0
000FC0
000FC0
007E00
007E00
007E00
03F000
03F000
03F000
03F000
03F000
03F000
03F000
03F000
03F000
03F000
03F000
03F000
ENDCHAR
STARTCHAR uni0038
ENCODING 56
SWIDTH 438 0
DWIDTH 21 0
BBX 18 27 0 0
BITMAP
1FFE00
1FFE00
1FFE00
FC0FC0
FC0FC0
FC0FC0
FC0FC0
FC0FC0
FC0FC0
1FFE00
1FFE00
1FFE00
FC0FC0
FC0FC0
FC0FC0
FC0FC0
FC0FC0
FC0FC0
FC0FC0
FC0FC0
FC0FC0
FC0FC0
FC0FC0
FC0FC0
1FFE00
1FFE00
1FFE00
ENDCHAR
STARTCHAR uni0039
ENCODING 57
SWIDTH 438 0
DWIDTH 21 0
BBX 18 27 0 0
BITMAP
1FFE00
1FFE00
1FFE00
FC0FC0
FC0FC0
FC0FC0
FC0FC0
FC0FC0
FC0FC0
FC0FC0
FC0FC0
FC0FC0
FC0FC0
FC0FC0
FC0FC0
1FFFC0
1FFFC0
1FFFC0
000FC0
000FC0
000FC0
007E00
007E00
007E00
1FF000
1FF000
1FF000
ENDCHAR
STARTCHAR uni003A
ENCODING 58
SWIDTH 188 0
DWIDTH 9 0
BBX 6 15 0 0
BITMAP
FC
FC
FC
FC
FC
FC
00
00
00
FC
FC
FC
FC
FC
FC
ENDCHAR
STARTCHAR uni003B
ENCODING 59
SWIDTH 188 0
DWIDTH 9 0
BBX 6 21 0 -6
BITMAP
FC
FC
FC
FC
FC
FC
00
00
00
FC
FC
FC
FC
FC
FC
1C
1C
1C
E0
E0
E0
ENDCHAR
STARTCHAR uni003C
ENCODING 60
SWIDTH 375 0
DWIDTH 18 0
BBX 15 21 0 3
BITMAP
007E
007E
007E
03F0
03F0
03F0
1F80
1F80
1F80
FC00
FC00
FC00
1F80
1F80
1F80
03F0
03F0
03F0
007E
007E
007E
ENDCHAR
STARTCHAR uni003D
ENCODING 61
SWIDTH 438 0
DWIDTH 21 0
BBX 18 9 0 9
BITMAP
FFFFC0
FFFFC0
FFFFC0
000000
000000
000000
FFFFC0
FFFFC0
FFFFC0
ENDCHAR
STARTCHAR uni003E
ENCODING 62
SWIDTH 375 0
DWIDTH 18 0
BBX 15 21 0 3
BITMAP
FC00
FC00
FC00
1F80
1F80
1F80
03F0
03F0
03F0
007E
007E
007E
03F0
03F0
03F0
1F80
1F80
1F80
FC00
FC00
FC00
ENDCHAR
STARTCHAR uni003F
ENCODING 63
SWIDTH 438 0
DWIDTH 21 0
BBX 18 27 0 0
BITMAP
1FFE00
1FFE00
1FFE00
E00FC0
E00FC0
E00FC0
000FC0
000FC0
000FC0
007E00
007E00
007E00
03F000
03F000
03F000
03F000
03F000
03F000
000000
000000
000000
03F000
03F000
03F000
03F000
03F000
03F000
ENDCHAR
STARTCHAR uni0040
ENCODING 64
SWIDTH 625 0
DWIDTH 30 0
BBX 27 24 0 0
BITMAP
03FFF800
03FFF800
03FFF800
1C000700
1C000700
1C000700
E07FC0E0
E07FC0E0
E07FC0E0
E381C0E0
E381C0E0
E381C0E0
E381F8E0
E381F8E0
E381F8E0
E07E3F00
E07E3F00
E07E3F00
1C000000
1C000000
1C000000
03FFF800
03FFF800
03FFF800
ENDCHAR
STARTCHAR uni0041
ENCODING 65
SWIDTH 438 0
DWIDTH 21 0
BBX 18 27 0 0
BITMAP
1FFE00
1FFE00
1FFE00
FC0FC0
FC0FC0
FC0FC0
FC0FC0
FC0FC0
FC0FC0
FC0FC0
FC0FC0
FC0FC0
FFFFC0
FFFFC0
FFFFC0
FC0FC0
FC0FC0
FC0FC0
FC0FC0
FC0FC0
FC0FC0
FC0FC0
FC0FC0
FC0FC0
FC0FC0
FC0FC0
FC0FC0
ENDCHAR
STARTCHAR uni0042
ENCODING 66
SWIDTH 438 0
DWIDTH 21 0
BBX 18 27 0 0
BITMAP
FFFE00
FFFE00
FFFE00
FC0FC0
FC0FC0
FC0FC0
FC0FC0
FC0FC0
FC0FC0
FC0FC0
FC0FC0
FC0FC0
FFFE00
FFFE00
FFFE00
FC0FC0
FC0FC0
FC0FC0
FC0FC0
FC0FC0
FC0FC0
FC0FC0
FC0FC0
FC0FC0
FFFE00
FFFE00
FFFE00
ENDCHAR
STARTCHAR uni0043
ENCODING 67
SWIDTH 438 0
DWIDTH 21 0
BBX 18 27 0 0
BITMAP
1FFE00
1FFE00
1FFE00
FC01C0
FC01C0
FC01C0
FC0000
FC0000
FC0000
FC0000
FC0000
FC0000
FC0000
FC0000
FC0000
FC0000
FC0000
FC0000
FC0000
FC0000
FC0000
FC01C0
FC01C0
FC01C0
1FFE00
1FFE00
1FFE00
ENDCHAR
STARTCHAR uni0044
ENCODING 68
SWIDTH 438 0
DWIDTH 21 0
BBX 18 27 0 0
BITMAP
FFFE00
FFFE00
FFFE00
FC0FC0
FC0FC0
FC0FC0
FC0FC0
FC0FC0
FC0FC0
FC0FC0
FC0FC0
FC0FC0
FC0FC0
FC0FC0
FC0FC0
FC0FC0
FC0FC0
FC0FC0
FC0FC0
FC0FC0
FC0FC0
FC0FC0
FC0FC0
FC0FC0
FFFE00
FFFE00
FFFE00
ENDCHAR
STARTCHAR uni0045
ENCODING 69
SWIDTH 438 0
DWIDTH 21 0
BBX 18 27 0 0
BITMAP
FFFFC0
FFFFC0
FFFFC0
FC0000
FC0000
FC0000
FC0000
FC0000
FC0000
FC0000
FC0000
FC0000
FFFE00
FFFE00
FFFE00
FC0000
FC0000
FC0000
FC0000
FC0000
FC0000
FC0000
FC0000
FC0000
FFFFC0
FFFFC0
FFFFC0
ENDCHAR
STARTCHAR uni0046
ENCODING 70
SWIDTH 438 0
DWIDTH 21 0
BBX 18 27 0 0
BITMAP
FFFFC0
FFFFC0
FFFFC0
FC0000
FC0000
FC0000
FC0000
FC0000
FC0000
FC0000
FC0000
FC0000
FFFE00
FFFE00
FFFE00
FC0000
FC0000
FC0000
FC0000
FC0000
FC0000
FC0000
FC0000
FC0000
FC0000
FC0000
FC0000
ENDCHAR
STARTCHAR uni0047
ENCODING 71
SWIDTH 438 0
DWIDTH 21 0
BBX 18 27 0 0
BITMAP
1FFE00
1FFE00
1FFE00
FC01C0
FC01C0
FC01C0
FC0000
FC0000
FC0000
FC0000
FC0000
FC0000
FC7FC0
FC7FC0
FC7FC0
FC0FC0
FC0FC0
FC0FC0
FC0FC0
FC0FC0
FC0FC0
FC0FC0
FC0FC0
FC0FC0
1FFE00
1FFE00
1FFE00
ENDCHAR
STARTCHAR uni0048
ENCODING 72
SWIDTH 438 0
DWIDTH 21 0
BBX 18 27 0 0
BITMAP
FC0FC0
FC0FC0
FC0FC0
FC0FC0
FC0FC0
FC0FC0
FC0FC0
FC0FC0
FC0FC0
FC0FC0
FC0FC0
FC0FC0
FFFFC0
FFFFC0
FFFFC0
FC0FC0
FC0FC0
FC0FC0
FC0FC0
FC0FC0
FC0FC0
FC0FC0
FC0FC0
FC0FC0
FC0FC0
FC0FC0
FC0FC0
ENDCHAR
STARTCHAR uni0049
ENCODING 73
SWIDTH 188 0
DWIDTH 9 0
BBX 6 27 0 0
BITMAP
FC
FC
FC
FC
FC
FC
FC
FC
FC
FC
FC
FC
FC
FC
FC
FC
FC
FC
FC
FC
FC
FC
FC
FC
FC
FC
FC
ENDCHAR
STARTCHAR uni004A
ENCODING 74
SWIDTH 438 0
DWIDTH 21 0
BBX 18 27 0 0
BITMAP
000FC0
000FC0
000FC0
000FC0
000FC0
000FC0
000FC0
000FC0
000FC0
000FC0
000FC0
000FC0
000FC0
000FC0
000FC0
FC0FC0
FC0FC0
FC0FC0
FC0FC0
FC0FC0
FC0FC0
FC0FC0
FC0FC0
FC0FC0
1FFE00
1FFE00
1FFE00
ENDCHAR
STARTCHAR uni004B
ENCODING 75
SWIDTH 500 0
DWIDTH 24 0
BBX 21 27 0 0
BITMAP
FC01F8
FC01F8
FC01F8
FC0FC0
FC0FC0
FC0FC0
FC7E00
FC7E00
FC7E00
FFF000
FFF000
FFF000
FF8000
FF8000
FF8000
FFF000
FFF000
FFF000
FC7E00
FC7E00
FC7E00
FC0FC0
FC0FC0
FC0FC0
FC01F8
FC01F8
FC01F8
ENDCHAR
STARTCHAR uni004C
ENCODING 76
SWIDTH 375 0
DWIDTH 18 0
BBX 15 27 0 0
BITMAP
FC00
FC00
FC00
FC00
FC00
FC00
FC00
FC00
FC00
FC00
FC00
FC00
FC00
FC00
FC00
FC00
FC00
FC00
FC00
FC00
FC00
FC00
FC00
FC00
FFFE
FFFE
FFFE
ENDCHAR
STARTCHAR uni004D
ENCODING 77
SWIDTH 688 0
DWIDTH 33 0
BBX 30 27 0 0
BITMAP
E00000FC
E00000FC
E00000FC
FC0007FC
FC0007FC
FC0007FC
FF803FFC
FF803FFC
FF803FFC
FFF1FFFC
FFF1FFFC
FFF1FFFC
E3FFF8FC
E3FFF8FC
E3FFF8FC
E07FC0FC
E07FC0FC
E07FC0FC
E00E00FC
E00E00FC
E00E00FC
E00000FC
E00000FC
E00000FC
E00000FC
E00000FC
E00000FC
ENDCHAR
STARTCHAR uni004E
ENCODING 78
SWIDTH 562 0
DWIDTH 27 0
BBX 24 27 0 0
BITMAP
E00007
E00007
E00007
FC0007
FC0007
FC0007
FF8007
FF8007
FF8007
E3F007
E3F007
E3F007
E07E07
E07E07
E07E07
E00FC7
E00FC7
E00FC7
E001FF
E001FF
E001FF
E0003F
E0003F
E0003F
E00007
E00007
E00007
ENDCHAR
STARTCHAR uni004F
ENCODING 79
SWIDTH 438 0
DWIDTH 21 0
BBX 18 27 0 0
BITMAP
1FFE00
1FFE00
1FFE00
FC0FC0
FC0FC0
FC0FC0
FC0FC0
FC0FC0
FC0FC0
FC0FC0
FC0FC0
FC0FC0
FC0FC0
FC0FC0
FC0FC0
FC0FC0
FC0FC0
FC0FC0
FC0FC0
FC0FC0
FC0FC0
FC0FC0
FC0FC0
FC0FC0
1FFE00
1FFE00
1FFE00
ENDCHAR
STARTCHAR uni0050
ENCODING 80
SWIDTH 438 0
DWIDTH 21 0
BBX 18 27 0 0
BITMAP
FFFE00
FFFE00
FFFE00
FC0FC0
FC0FC0
FC0FC0
FC0FC0
FC0FC0
FC0FC0
FC0FC0
FC0FC0
FC0FC0
FFFE00
FFFE00
FFFE00
FC0000
FC0000
FC0000
FC0000
FC0000
FC0000
FC0000
FC0000
FC0000
FC0000
FC0000
FC0000
ENDCHAR
STARTCHAR uni0051
ENCODING 81
SWIDTH 438 0
DWIDTH 21 0
BBX 18 30 0 -3
BITMAP
1FFE00
1FFE00
1FFE00
FC0FC0
FC0FC0
FC0FC0
FC0FC0
FC0FC0
FC0FC0
FC0FC0
FC0FC0
FC0FC0
FC0FC0
FC0FC0
FC0FC0
FC0FC0
FC0FC0
FC0FC0
FC0FC0
FC0FC0
FC0FC0
FC0FC0
FC0FC0
FC0FC0
1FFE00
1FFE00
1FFE00
000FC0
000FC0
000FC0
ENDCHAR
STARTCHAR uni0052
ENCODING 82
SWIDTH 438 0
DWIDTH 21 0
BBX 18 27 0 0
BITMAP
FFFE00
FFFE00
FFFE00
FC0FC0
FC0FC0
FC0FC0
FC0FC0
FC0FC0
FC0FC0
FC0FC0
FC0FC0
FC0FC0
FFFE00
FFFE00
FFFE00
FC0FC0
FC0FC0
FC0FC0
FC0FC0
FC0FC0
FC0FC0
FC0FC0
FC0FC0
FC0FC0
FC0FC0
FC0FC0
FC0FC0
ENDCHAR
STARTCHAR uni0053
ENCODING 83
SWIDTH 375 0
DWIDTH 18 0
BBX 15 27 0 0
BITMAP
1FF0
1FF0
1FF0
FC0E
FC0E
FC0E
FC00
FC00
FC00
FF80
FF80
FF80
1FF0
1FF0
1FF0
03FE
03FE
03FE
007E
007E
007E
E07E
E07E
E07E
1FF0
1FF0
1FF0
ENDCHAR
STARTCHAR uni0054
ENCODING 84
SWIDTH 438 0
DWIDTH 21 0
BBX 18 27 0 0
BITMAP
FFFFC0
FFFFC0
FFFFC0
03F000
03F000
03F000
03F000
03F000
03F000
03F000
03F000
03F000
03F000
03F000
03F000
03F000
03F000
03F000
03F000
03F000
03F000
03F000
03F000
03F000
03F000
03F000
03F000
ENDCHAR
STARTCHAR uni0055
ENCODING 85
SWIDTH 438 0
DWIDTH 21 0
BBX 18 27 0 0
BITMAP
FC0FC0
FC0FC0
FC0FC0
FC0FC0
FC0FC0
FC0FC0
FC0FC0
FC0FC0
FC0FC0
FC0FC0
FC0FC0
FC0FC0
FC0FC0
FC0FC0
FC0FC0
FC0FC0
FC0FC0
FC0FC0
FC0FC0
FC0FC0
FC0FC0
FC0FC0
FC0FC0
FC0FC0
1FFE00
1FFE00
1FFE00
ENDCHAR
STARTCHAR uni0056
ENCODING 86
SWIDTH 438 0
DWIDTH 21 0
BBX 18 27 0 0
BITMAP
FC0FC0
FC0FC0
FC0FC0
FC0FC0
FC0FC0
FC0FC0
FC0FC0
FC0FC0
FC0FC0
FC0FC0
FC0FC0
FC0FC0
FC0FC0
FC0FC0
FC0FC0
FC0FC0
FC0FC0
FC0FC0
FC0FC0
FC0FC0
FC0FC0
FC0E00
FC0E00
FC0E00
FFFE00
FFFE00
FFFE00
ENDCHAR
STARTCHAR uni0057
ENCODING 87
SWIDTH 688 0
DWIDTH 33 0
BBX 30 27 0 0
BITMAP
FC0FC0FC
FC0FC0FC
FC0FC0FC
FC0FC0FC
FC0FC0FC
FC0FC0FC
FC0FC0FC
FC0FC0FC
FC0FC0FC
FC0FC0FC
FC0FC0FC
FC0FC0FC
FC0FC0FC
FC0FC0FC
FC0FC0FC
FC0FC0FC
FC0FC0FC
FC0FC0FC
FC0FC0FC
FC0FC0FC
FC0FC0FC
FC0FC0E0
FC0FC0E0
FC0FC0E0
FFFFFF00
FFFFFF00
FFFFFF00
ENDCHAR
STARTCHAR uni0058
ENCODING 88
SWIDTH 438 0
DWIDTH 21 0
BBX 18 27 0 0
BITMAP
FC0FC0
FC0FC0
FC0FC0
FC0FC0
FC0FC0
FC0FC0
FC0FC0
FC0FC0
FC0FC0
FC0FC0
FC0FC0
FC0FC0
1FFE00
1FFE00
1FFE00
FC0FC0
FC0FC0
FC0FC0
FC0FC0
FC0FC0
FC0FC0
FC0FC0
FC0FC0
FC0FC0
FC0FC0
FC0FC0
FC0FC0
ENDCHAR
STARTCHAR uni0059
ENCODING 89
SWIDTH 438 0
DWIDTH 21 0
BBX 18 27 0 0
BITMAP
FC0FC0
FC0FC0
FC0FC0
FC0FC0
FC0FC0
FC0FC0
FC0FC0
FC0FC0
FC0FC0
FC0FC0
FC0FC0
FC0FC0
1FFE00
1FFE00
1FFE00
03F000
03F000
03F000
03F000
03F000
03F000
03F000
03F000
03F000
03F000
03F000
03F000
ENDCHAR
STARTCHAR uni005A
ENCODING 90
SWIDTH 438 0
DWIDTH 21 0
BBX 18 27 0 0
BITMAP
FFFFC0
FFFFC0
FFFFC0
000FC0
000FC0
000FC0
000FC0
000FC0
000FC0
007E00
007E00
007E00
03F000
03F000
03F000
1F8000
1F8000
1F8000
FC0000
FC0000
FC0000
FC0000
FC0000
FC0000
FFFFC0
FFFFC0
FFFFC0
ENDCHAR
STARTCHAR uni005B
ENCODING 91
SWIDTH 250 0
DWIDTH 12 0
BBX 9 33 0 -3
BITMAP
FF80
FF80
FF80
FC00
FC00
FC00
FC00
FC00
FC00
FC00
FC00
FC00
FC00
FC00
FC00
FC00
FC00
FC00
FC00
FC00
FC00
FC00
FC00
FC00
FC00
FC00
FC00
FC00
FC00
FC00
FF80
FF80
FF80
ENDCHAR
STARTCHAR uni005C
ENCODING 92
SWIDTH 375 0
DWIDTH 18 0
BBX 15 30 0 0
BITMAP
E000
E000
E000
E000
E000
E000
1C00
1C00
1C00
1C00
1C00
1C00
0380
0380
0380
0380
0380
0380
0070
0070
0070
0070
0070
0070
000E
000E
000E
000E
000E
000E
ENDCHAR
STARTCHAR uni005D
ENCODING 93
SWIDTH 250 0
DWIDTH 12 0
BBX 9 33 0 -3
BITMAP
FF80
FF80
FF80
1F80
1F80
1F80
1F80
1F80
1F80
1F80
1F80
1F80
1F80
1F80
1F80
1F80
1F80
1F80
1F80
1F80
1F80
1F80
1F80
1F80
1F80
1F80
1F80
1F80
1F80
1F80
FF80
FF80
FF80
ENDCHAR
STARTCHAR uni005E
ENCODING 94
SWIDTH 375 0
DWIDTH 18 0
BBX 15 9 0 21
BITMAP
0380
0380
0380
1C70
1C70
1C70
E00E
E00E
E00E
ENDCHAR
STARTCHAR uni005F
ENCODING 95
SWIDTH 562 0
DWIDTH 27 0
BBX 24 3 0 0
BITMAP
FFFFFF
FFFFFF
FFFFFF
ENDCHAR
STARTCHAR uni0060
ENCODING 96
SWIDTH 250 0
DWIDTH 12 0
BBX 9 9 0 18
BITMAP
E000
E000
E000
1C00
1C00
1C00
0380
0380
0380
ENDCHAR
STARTCHAR uni0061
ENCODING 97
SWIDTH 438 0
DWIDTH 21 0
BBX 18 21 0 0
BITMAP
1FFE00
1FFE00
1FFE00
E00FC0
E00FC0
E00FC0
1FFFC0
1FFFC0
1FFFC0
FC0FC0
FC0FC0
FC0FC0
FC0FC0
FC0FC0
FC0FC0
FC0FC0
FC0FC0
FC0FC0
1FFFC0
1FFFC0
1FFFC0
ENDCHAR
STARTCHAR uni0062
ENCODING 98
SWIDTH 438 0
DWIDTH 21 0
BBX 18 27 0 0
BITMAP
FC0000
FC0000
FC0000
FC0000
FC0000
FC0000
FFFE00
FFFE00
FFFE00
FC0FC0
FC0FC0
FC0FC0
FC0FC0
FC0FC0
FC0FC0
FC0FC0
FC0FC0
FC0FC0
FC0FC0
FC0FC0
FC0FC0
FC0FC0
FC0FC0
FC0FC0
FFFE00
FFFE00
FFFE00
ENDCHAR
STARTCHAR uni0063
ENCODING 99
SWIDTH 375 0
DWIDTH 18 0
BBX 15 21 0 0
BITMAP
1FF0
1FF0
1FF0
FC0E
FC0E
FC0E
FC00
FC00
FC00
FC00
FC00
FC00
FC00
FC00
FC00
FC0E
FC0E
FC0E
1FF0
1FF0
1FF0
ENDCHAR
STARTCHAR uni0064
ENCODING 100
SWIDTH 438 0
DWIDTH 21 0
BBX 18 27 0 0
BITMAP
000FC0
000FC0
000FC0
000FC0
000FC0
000FC0
1FFFC0
1FFFC0
1FFFC0
FC0FC0
FC0FC0
FC0FC0
FC0FC0
FC0FC0
FC0FC0
FC0FC0
FC0FC0
FC0FC0
FC0FC0
FC0FC0
FC0FC0
FC0FC0
FC0FC0
FC0FC0
1FFFC0
1FFFC0
1FFFC0
ENDCHAR
STARTCHAR uni0065
ENCODING 101
SWIDTH 438 0
DWIDTH 21 0
BBX 18 21 0 0
BITMAP
1FFE00
1FFE00
1FFE00
FC0FC0
FC0FC0
FC0FC0
FC0FC0
FC0FC0
FC0FC0
FFFFC0
FFFFC0
FFFFC0
FC0000
FC0000
FC0000
FC01C0
FC01C0
FC01C0
1FFE00
1FFE00
1FFE00
ENDCHAR
STARTCHAR uni0066
ENCODING 102
SWIDTH 375 0
DWIDTH 18 0
BBX 15 27 0 0
BITMAP
03FE
03FE
03FE
1F80
1F80
1F80
FFF0
FFF0
FFF0
1F80
1F80
1F80
1F80
1F80
1F80
1F80
1F80
1F80
1F80
1F80
1F80
1F80
1F80
1F80
1F80
1F80
1F80
ENDCHAR
STARTCHAR uni0067
ENCODING 103
SWIDTH 438 0
DWIDTH 21 0
BBX 18 30 0 -9
BITMAP
1FFFC0
1FFFC0
1FFFC0
FC0FC0
FC0FC0
FC0FC0
FC0FC0
FC0FC0
FC0FC0
FC0FC0
FC0FC0
FC0FC0
FC0FC0
FC0FC0
FC0FC0
FC0FC0
FC0FC0
FC0FC0
1FFFC0
1FFFC0
1FFFC0
000FC0
000FC0
000FC0
E00FC0
E00FC0
E00FC0
1FFE00
1FFE00
1FFE00
ENDCHAR
STARTCHAR uni0068
ENCODING 104
SWIDTH 438 0
DWIDTH 21 0
BBX 18 27 0 0
BITMAP
FC0000
FC0000
FC0000
FC0000
FC0000
FC0000
FFFE00
FFFE00
FFFE00
FC0FC0
FC0FC0
FC0FC0
FC0FC0
FC0FC0
FC0FC0
FC0FC0
FC0FC0
FC0FC0
FC0FC0
FC0FC0
FC0FC0
FC0FC0
FC0FC0
FC0FC0
FC0FC0
FC0FC0
FC0FC0
ENDCHAR
STARTCHAR uni0069
ENCODING 105
SWIDTH 188 0
DWIDTH 9 0
BBX 6 27 0 0
BITMAP
FC
FC
FC
00
00
00
FC
FC
FC
FC
FC
FC
FC
FC
FC
FC
FC
FC
FC
FC
FC
FC
FC
FC
FC
FC
FC
ENDCHAR
STARTCHAR uni006A
ENCODING 106
SWIDTH 375 0
DWIDTH 18 0
BBX 15 33 0 -6
BITMAP
007E
007E
007E
0000
0000
0000
007E
007E
007E
007E
007E
007E
007E
007E
007E
007E
007E
007E
007E
007E
007E
007E
007E
007E
007E
007E
007E
E07E
E07E
E07E
1FF0
1FF0
1FF0
ENDCHAR
STARTCHAR uni006B
ENCODING 107
SWIDTH 438 0
DWIDTH 21 0
BBX 18 27 0 0
BITMAP
FC0000
FC0000
FC0000
FC0000
FC0000
FC0000
FC0FC0
FC0FC0
FC0FC0
FC7E00
FC7E00
FC7E00
FFF000
FFF000
FFF000
FC0000
FC0000
FC0000
FFF000
FFF000
FFF000
FC7E00
FC7E00
FC7E00
FC0FC0
FC0FC0
FC0FC0
ENDCHAR
STARTCHAR uni006C
ENCODING 108
SWIDTH 188 0
DWIDTH 9 0
BBX 6 27 0 0
BITMAP
FC
FC
FC
FC
FC
FC
FC
FC
FC
FC
FC
FC
FC
FC
FC
FC
FC
FC
FC
FC
FC
FC
FC
FC
FC
FC
FC
ENDCHAR
STARTCHAR uni006D
ENCODING 109
SWIDTH 688 0
DWIDTH 33 0
BBX 30 21 0 0
BITMAP
FFFE3FE0
FFFE3FE0
FFFE3FE0
FC0FC0FC
FC0FC0FC
FC0FC0FC
FC0FC0FC
FC0FC0FC
FC0FC0FC
FC0FC0FC
FC0FC0FC
FC0FC0FC
FC0FC0FC
FC0FC0FC
FC0FC0FC
FC0FC0FC
FC0FC0FC
FC0FC0FC
FC0FC0FC
FC0FC0FC
FC0FC0FC
ENDCHAR
STARTCHAR uni006E
ENCODING 110
SWIDTH 438 0
DWIDTH 21 0
BBX 18 21 0 0
BITMAP
FFFE00
FFFE00
FFFE00
FC0FC0
FC0FC0
FC0FC0
FC0FC0
FC0FC0
FC0FC0
FC0FC0
FC0FC0
FC0FC0
FC0FC0
FC0FC0
FC0FC0
FC0FC0
FC0FC0
FC0FC0
FC0FC0
FC0FC0
FC0FC0
ENDCHAR
STARTCHAR uni006F
ENCODING 111
SWIDTH 438 0
DWIDTH 21 0
BBX 18 21 0 0
BITMAP
1FFE00
1FFE00
1FFE00
FC0FC0
FC0FC0
FC0FC0
FC0FC0
FC0FC0
FC0FC0
FC0FC0
FC0FC0
FC0FC0
FC0FC0
FC0FC0
FC0FC0
FC0FC0
FC0FC0
FC0FC0
1FFE00
1FFE00
1FFE00
ENDCHAR
STARTCHAR uni0070
ENCODING 112
SWIDTH 438 0
DWIDTH 21 0
BBX 18 27 0 -6
BITMAP
FFFE00
FFFE00
FFFE00
FC0FC0
FC0FC0
FC0FC0
FC0FC0
FC0FC0
FC0FC0
FC0FC0
FC0FC0
FC0FC0
FC0FC0
FC0FC0
FC0FC0
FC0FC0
FC0FC0
FC0FC0
FFFE00
FFFE00
FFFE00
FC0000
FC0000
FC0000
FC0000
FC0000
FC0000
ENDCHAR
STARTCHAR uni0071
ENCODING 113
SWIDTH 438 0
DWIDTH 21 0
BBX 18 27 0 -6
BITMAP
1FFFC0
1FFFC0
1FFFC0
FC0FC0
FC0FC0
FC0FC0
FC0FC0
FC0FC0
FC0FC0
FC0FC0
FC0FC0
FC0FC0
FC0FC0
FC0FC0
FC0FC0
FC0FC0
FC0FC0
FC0FC0
1FFFC0
1FFFC0
1FFFC0
000FC0
000FC0
000FC0
000FC0
000FC0
000FC0
ENDCHAR
STARTCHAR uni0072
ENCODING 114
SWIDTH 375 0
DWIDTH 18 0
BBX 15 21 0 0
BITMAP
FC7E
FC7E
FC7E
FFFE
FFFE
FFFE
FC00
FC00
FC00
FC00
FC00
FC00
FC00
FC00
FC00
FC00
FC00
FC00
FC00
FC00
FC00
ENDCHAR
STARTCHAR uni0073
ENCODING 115
SWIDTH 375 0
DWIDTH 18 0
BBX 15 21 0 0
BITMAP
1FF0
1FF0
1FF0
FC0E
FC0E
FC0E
FF80
FF80
FF80
1FF0
1FF0
1FF0
03FE
03FE
03FE
E07E
E07E
E07E
1FF0
1FF0
1FF0
ENDCHAR
STARTCHAR uni0074
ENCODING 116
SWIDTH 312 0
DWIDTH 15 0
BBX 12 27 0 0
BITMAP
1F80
1F80
1F80
1F80
1F80
1F80
FFF0
FFF0
FFF0
1F80
1F80
1F80
1F80
1F80
1F80
1F80
1F80
1F80
1F80
1F80
1F80
1F80
1F80
1F80
03F0
03F0
03F0
ENDCHAR
STARTCHAR uni0075
ENCODING 117
SWIDTH 438 0
DWIDTH 21 0
BBX 18 21 0 0
BITMAP
FC0FC0
FC0FC0
FC0FC0
FC0FC0
FC0FC0
FC0FC0
FC0FC0
FC0FC0
FC0FC0
FC0FC0
FC0FC0
FC0FC0
FC0FC0
FC0FC0
FC0FC0
FC0FC0
FC0FC0
FC0FC0
1FFFC0
1FFFC0
1FFFC0
ENDCHAR
STARTCHAR uni0076
ENCODING 118
SWIDTH 438 0
DWIDTH 21 0
BBX 18 21 0 0
BITMAP
FC0FC0
FC0FC0
FC0FC0
FC0FC0
FC0FC0
FC0FC0
FC0FC0
FC0FC0
FC0FC0
FC0FC0
FC0FC0
FC0FC0
FC0FC0
FC0FC0
FC0FC0
FC0E00
FC0E00
FC0E00
FFF000
FFF000
FFF000
ENDCHAR
STARTCHAR uni0077
ENCODING 119
SWIDTH 688 0
DWIDTH 33 0
BBX 30 21 0 0
BITMAP
FC0FC0FC
FC0FC0FC
FC0FC0FC
FC0FC0FC
FC0FC0FC
FC0FC0FC
FC0FC0FC
FC0FC0FC
FC0FC0FC
FC0FC0FC
FC0FC0FC
FC0FC0FC
FC0FC0FC
FC0FC0FC
FC0FC0FC
FC0FC0E0
FC0FC0E0
FC0FC0E0
FFFFFF00
FFFFFF00
FFFFFF00
ENDCHAR
STARTCHAR uni0078
ENCODING 120
SWIDTH 438 0
DWIDTH 21 0
BBX 18 21 0 0
BITMAP
FC0FC0
FC0FC0
FC0FC0
FC0FC0
FC0FC0
FC0FC0
FC0FC0
FC0FC0
FC0FC0
03F000
03F000
03F000
FC0FC0
FC0FC0
FC0FC0
FC0FC0
FC0FC0
FC0FC0
FC0FC0
FC0FC0
FC0FC0
ENDCHAR
STARTCHAR uni0079
ENCODING 121
SWIDTH 438 0
DWIDTH 21 0
BBX 18 30 0 -9
BITMAP
FC0FC0
FC0FC0
FC0FC0
FC0FC0
FC0FC0
FC0FC0
FC0FC0
FC0FC0
FC0FC0
FC0FC0
FC0FC0
FC0FC0
FC0FC0
FC0FC0
FC0FC0
FC0FC0
FC0FC0
FC0FC0
1FFFC0
1FFFC0
1FFFC0
000FC0
000FC0
000FC0
E00FC0
E00FC0
E00FC0
1FFE00
1FFE00
1FFE00
ENDCHAR
STARTCHAR uni007A
ENCODING 122
SWIDTH 438 0
DWIDTH 21 0
BBX 18 21 0 0
BITMAP
FFFFC0
FFFFC0
FFFFC0
000E00
000E00
000E00
007000
007000
007000
038000
038000
038000
1C0000
1C0000
1C0000
FC0000
FC0000
FC0000
FFFFC0
FFFFC0
FFFFC0
ENDCHAR
STARTCHAR uni007B
ENCODING 123
SWIDTH 250 0
DWIDTH 12 0
BBX 9 33 0 -3
BITMAP
0380
0380
0380
1C00
1C00
1C00
1C00
1C00
1C00
1C00
1C00
1C00
1C00
1C00
1C00
E000
E000
E000
1C00
1C00
1C00
1C00
1C00
1C00
1C00
1C00
1C00
1C00
1C00
1C00
0380
0380
0380
ENDCHAR
STARTCHAR uni007C
ENCODING 124
SWIDTH 125 0
DWIDTH 6 0
BBX 3 33 0 -3
BITMAP
E0
E0
E0
E0
E0
E0
E0
E0
E0
E0
E0
E0
E0
E0
E0
E0
E0
E0
E0
E0
E0
E0
E0
E0
E0
E0
E0
E0
E0
E0
E0
E0
E0
ENDCHAR
STARTCHAR uni007D
ENCODING 125
SWIDTH 250 0
DWIDTH 12 0
BBX 9 33 0 -3
BITMAP
E000
E000
E000
1C00
1C00
1C00
1C00
1C00
1C00
1C00
1C00
1C00
1C00
1C00
1C00
0380
0380
0380
1C00
1C00
1C00
1C00
1C00
1C00
1C00
1C00
1C00
1C00
1C00
1C00
E000
E000
E000
ENDCHAR
STARTCHAR uni007E
ENCODING 126
SWIDTH 438 0
DWIDTH 21 0
BBX 18 6 0 15
BITMAP
1F81C0
1F81C0
1F81C0
E07E00
E07E00
E07E00
ENDCHAR
STARTCHAR uni00A1
ENCODING 161
SWIDTH 188 0
DWIDTH 9 0
BBX 6 27 0 0
BITMAP
FC
FC
FC
FC
FC
FC
00
00
00
FC
FC
FC
FC
FC
FC
FC
FC
FC
FC
FC
FC
FC
FC
FC
FC
FC
FC
ENDCHAR
STARTCHAR uni00A2
ENCODING 162
SWIDTH 375 0
DWIDTH 18 0
BBX 15 24 0 6
BITMAP
0380
0380
0380
1FF0
1FF0
1FF0
E38E
E38E
E38E
E380
E380
E380
E380
E380
E380
E38E
E38E
E38E
1FF0
1FF0
1FF0
0380
0380
0380
ENDCHAR
STARTCHAR uni00A3
ENCODING 163
SWIDTH 500 0
DWIDTH 24 0
BBX 21 27 0 0
BITMAP
03FE00
03FE00
03FE00
1F81C0
1F81C0
1F81C0
1F8000
1F8000
1F8000
1F8000
1F8000
1F8000
FFF000
FFF000
FFF000
1F8000
1F8000
1F8000
1F8000
1F8000
1F8000
1F8038
1F8038
1F8038
FFFFC0
FFFFC0
FFFFC0
ENDCHAR
STARTCHAR uni00A4
ENCODING 164
SWIDTH 625 0
DWIDTH 30 0
BBX 27 33 0 0
BITMAP
0001F800
0001F800
0001F800
000FC000
000FC000
000FC000
000E0000
000E0000
000E0000
1FF1FF00
1FF1FF00
1FF1FF00
FFFFFFE0
FFFFFFE0
FFFFFFE0
FFFFF800
FFFFF800
FFFFF800
FFFFF800
FFFFF800
FFFFF800
FFFFFFE0
FFFFFFE0
FFFFFFE0
FFFFFFE0
FFFFFFE0
FFFFFFE0
1FFFFF00
1FFFFF00
1FFFFF00
03F1F800
03F1F800
03F1F800
ENDCHAR
STARTCHAR uni00A5
ENCODING 165
SWIDTH 562 0
DWIDTH 27 0
BBX 24 27 0 0
BITMAP
FC003F
FC003F
FC003F
1F81F8
1F81F8
1F81F8
FFFFFF
FFFFFF
FFFFFF
007E00
007E00
007E00
FFFFFF
FFFFFF
FFFFFF
007E00
007E00
007E00
007E00
007E00
007E00
007E00
007E00
007E00
007E00
007E00
007E00
ENDCHAR
STARTCHAR uni00A6
ENCODING 166
SWIDTH 125 0
DWIDTH 6 0
BBX 3 27 0 0
BITMAP
E0
E0
E0
E0
E0
E0
E0
E0
E0
E0
E0
E0
00
00
00
E0
E0
E0
E0
E0
E0
E0
E0
E0
E0
E0
E0
ENDCHAR
STARTCHAR uni00A7
ENCODING 167
SWIDTH 375 0
DWIDTH 18 0
BBX 15 36 0 -6
BITMAP
1FF0
1FF0
1FF0
E00E
E00E
E00E
FC00
FC00
FC00
1F80
1F80
1F80
E3F0
E3F0
E3F0
E07E
E07E
E07E
FC0E
FC0E
FC0E
1F8E
1F8E
1F8E
03F0
03F0
03F0
007E
007E
007E
E00E
E00E
E00E
1FF0
1FF0
1FF0
ENDCHAR
STARTCHAR uni00A8
ENCODING 168
SWIDTH 375 0
DWIDTH 18 0
BBX 15 6 0 24
BITMAP
FC7E
FC7E
FC7E
FC7E
FC7E
FC7E
ENDCHAR
STARTCHAR uni00A9
ENCODING 169
SWIDTH 562 0
DWIDTH 27 0
BBX 24 27 0 0
BITMAP
03FFC0
03FFC0
03FFC0
1C0038
1C0038
1C0038
E07E07
E07E07
E07E07
E381C7
E381C7
E381C7
E38007
E38007
E38007
E381C7
E381C7
E381C7
E07E07
E07E07
E07E07
1C0038
1C0038
1C0038
03FFC0
03FFC0
03FFC0
ENDCHAR
STARTCHAR uni00AA
ENCODING 170
SWIDTH 750 0
DWIDTH 36 0
BBX 33 33 0 -3
BITMAP
FFFFFFFF80
FFFFFFFF80
FFFFFFFF80
E000000380
E000000380
E000000380
E000000380
E000000380
E000000380
E000000380
E000000380
E000000380
E000000380
E000000380
E000000380
E000000380
E000000380
E000000380
E000000380
E000000380
E000000380
E000000380
E000000380
E000000380
E000000380
E000000380
E000000380
E000000380
E000000380
E000000380
FFFFFFFF80
FFFFFFFF80
FFFFFFFF80
ENDCHAR
STARTCHAR uni00AB
ENCODING 171
SWIDTH 500 0
DWIDTH 24 0
BBX 21 21 0 0
BITMAP
007038
007038
007038
0381C0
0381C0
0381C0
1C0E00
1C0E00
1C0E00
E07000
E07000
E07000
1C0E00
1C0E00
1C0E00
0381C0
0381C0
0381C0
007038
007038
007038
ENDCHAR
STARTCHAR uni00AC
ENCODING 172
SWIDTH 438 0
DWIDTH 21 0
BBX 18 33 0 -3
BITMAP
FFFFC0
FFFFC0
FFFFC0
000000
000000
000000
FFFFC0
FFFFC0
FFFFC0
000000
000000
000000
FFFFC0
FFFFC0
FFFFC0
000000
000000
000000
FFFFC0
FFFFC0
FFFFC0
000000
000000
000000
FFFFC0
FFFFC0
FFFFC0
000000
000000
000000
FFFFC0
FFFFC0
FFFFC0
ENDCHAR
STARTCHAR uni00AE
ENCODING 174
SWIDTH 562 0
DWIDTH 27 0
BBX 24 27 0 0
BITMAP
03FFC0
03FFC0
03FFC0
1C0038
1C0038
1C0038
E3FE07
E3FE07
E3FE07
E381C7
E381C7
E381C7
E3FE07
E3FE07
E3FE07
E381C7
E381C7
E381C7
E381C7
E381C7
E381C7
1C0038
1C0038
1C0038
03FFC0
03FFC0
03FFC0
ENDCHAR
STARTCHAR uni00B0
ENCODING 176
SWIDTH 312 0
DWIDTH 15 0
BBX 12 12 0 18
BITMAP
1F80
1F80
1F80
E070
E070
E070
E070
E070
E070
1F80
1F80
1F80
ENDCHAR
STARTCHAR uni00B1
ENCODING 177
SWIDTH 188 0
DWIDTH 9 0
BBX 6 12 0 15
BITMAP
1C
1C
1C
E0
E0
E0
FC
FC
FC
FC
FC
FC
ENDCHAR
STARTCHAR uni00B2
ENCODING 178
SWIDTH 375 0
DWIDTH 18 0
BBX 15 12 0 15
BITMAP
1C0E
1C0E
1C0E
E070
E070
E070
FC7E
FC7E
FC7E
FC7E
FC7E
FC7E
ENDCHAR
STARTCHAR uni00B3
ENCODING 179
SWIDTH 188 0
DWIDTH 9 0
BBX 6 12 0 15
BITMAP
FC
FC
FC
FC
FC
FC
1C
1C
1C
E0
E0
E0
ENDCHAR
STARTCHAR uni00B4
ENCODING 180
SWIDTH 375 0
DWIDTH 18 0
BBX 15 12 0 15
BITMAP
FC7E
FC7E
FC7E
FC7E
FC7E
FC7E
1C0E
1C0E
1C0E
E070
E070
E070
ENDCHAR
STARTCHAR uni00B5
ENCODING 181
SWIDTH 562 0
DWIDTH 27 0
BBX 24 27 0 -6
BITMAP
1F81F8
1F81F8
1F81F8
1F81F8
1F81F8
1F81F8
1F81F8
1F81F8
1F81F8
1F81F8
1F81F8
1F81F8
1F81F8
1F81F8
1F81F8
1F81F8
1F81F8
1F81F8
1FFFC7
1FFFC7
1FFFC7
1C0000
1C0000
1C0000
E00000
E00000
E00000
ENDCHAR
STARTCHAR uni00B6
ENCODING 182
SWIDTH 500 0
DWIDTH 24 0
BBX 21 27 0 0
BITMAP
1FFFF8
1FFFF8
1FFFF8
FC0E38
FC0E38
FC0E38
FC0E38
FC0E38
FC0E38
FC0E38
FC0E38
FC0E38
1FFE38
1FFE38
1FFE38
000E38
000E38
000E38
000E38
000E38
000E38
000E38
000E38
000E38
000E38
000E38
000E38
ENDCHAR
STARTCHAR uni00B8
ENCODING 184
SWIDTH 750 0
DWIDTH 36 0
BBX 33 33 0 -3
BITMAP
E38E38E380
E38E38E380
E38E38E380
1C71C71C00
1C71C71C00
1C71C71C00
E38E38E380
E38E38E380
E38E38E380
1C71C71C00
1C71C71C00
1C71C71C00
E38E38E380
E38E38E380
E38E38E380
1C71C71C00
1C71C71C00
1C71C71C00
E38E38E380
E38E38E380
E38E38E380
1C71C71C00
1C71C71C00
1C71C71C00
E38E38E380
E38E38E380
E38E38E380
1C71C71C00
1C71C71C00
1C71C71C00
E38E38E380
E38E38E380
E38E38E380
ENDCHAR
STARTCHAR uni00B9
ENCODING 185
SWIDTH 750 0
DWIDTH 36 0
BBX 33 33 0 -3
BITMAP
E00E00E000
E00E00E000
E00E00E000
0380380380
0380380380
0380380380
E00E00E000
E00E00E000
E00E00E000
0380380380
0380380380
0380380380
E00E00E000
E00E00E000
E00E00E000
0380380380
0380380380
0380380380
E00E00E000
E00E00E000
E00E00E000
0380380380
0380380380
0380380380
E00E00E000
E00E00E000
E00E00E000
0380380380
0380380380
0380380380
E00E00E000
E00E00E000
E00E00E000
ENDCHAR
STARTCHAR uni00BA
ENCODING 186
SWIDTH 312 0
DWIDTH 15 0
BBX 12 12 0 15
BITMAP
1F80
1F80
1F80
E070
E070
E070
E070
E070
E070
1F80
1F80
1F80
ENDCHAR
STARTCHAR uni00BB
ENCODING 187
SWIDTH 500 0
DWIDTH 24 0
BBX 21 21 0 0
BITMAP
E07000
E07000
E07000
1C0E00
1C0E00
1C0E00
0381C0
0381C0
0381C0
007038
007038
007038
0381C0
0381C0
0381C0
1C0E00
1C0E00
1C0E00
E07000
E07000
E07000
ENDCHAR
STARTCHAR uni00BF
ENCODING 191
SWIDTH 438 0
DWIDTH 21 0
BBX 18 27 0 0
BITMAP
03F000
03F000
03F000
03F000
03F000
03F000
000000
000000
000000
03F000
03F000
03F000
03F000
03F000
03F000
1F8000
1F8000
1F8000
FC0000
FC0000
FC0000
FC01C0
FC01C0
FC01C0
1FFE00
1FFE00
1FFE00
ENDCHAR
STARTCHAR uni00C0
ENCODING 192
SWIDTH 438 0
DWIDTH 21 0
BBX 18 36 0 0
BITMAP
1C0000
1C0000
1C0000
038000
038000
038000
007000
007000
007000
1FFE00
1FFE00
1FFE00
FC0FC0
FC0FC0
FC0FC0
FC0FC0
FC0FC0
FC0FC0
FC0FC0
FC0FC0
FC0FC0
FFFFC0
FFFFC0
FFFFC0
FC0FC0
FC0FC0
FC0FC0
FC0FC0
FC0FC0
FC0FC0
FC0FC0
FC0FC0
FC0FC0
FC0FC0
FC0FC0
FC0FC0
ENDCHAR
STARTCHAR uni00C1
ENCODING 193
SWIDTH 438 0
DWIDTH 21 0
BBX 18 36 0 0
BITMAP
007000
007000
007000
038000
038000
038000
1C0000
1C0000
1C0000
1FFE00
1FFE00
1FFE00
FC0FC0
FC0FC0
FC0FC0
FC0FC0
FC0FC0
FC0FC0
FC0FC0
FC0FC0
FC0FC0
FFFFC0
FFFFC0
FFFFC0
FC0FC0
FC0FC0
FC0FC0
FC0FC0
FC0FC0
FC0FC0
FC0FC0
FC0FC0
FC0FC0
FC0FC0
FC0FC0
FC0FC0
ENDCHAR
STARTCHAR uni00C2
ENCODING 194
SWIDTH 438 0
DWIDTH 21 0
BBX 18 36 0 0
BITMAP
03F000
03F000
03F000
1C0E00
1C0E00
1C0E00
E001C0
E001C0
E001C0
1FFE00
1FFE00
1FFE00
FC0FC0
FC0FC0
FC0FC0
FC0FC0
FC0FC0
FC0FC0
FC0FC0
FC0FC0
FC0FC0
FFFFC0
FFFFC0
FFFFC0
FC0FC0
FC0FC0
FC0FC0
FC0FC0
FC0FC0
FC0FC0
FC0FC0
FC0FC0
FC0FC0
FC0FC0
FC0FC0
FC0FC0
ENDCHAR
STARTCHAR uni00C3
ENCODING 195
SWIDTH 438 0
DWIDTH 21 0
BBX 18 36 0 0
BITMAP
1F81C0
1F81C0
1F81C0
E07E00
E07E00
E07E00
000000
000000
000000
1FFE00
1FFE00
1FFE00
FC0FC0
FC0FC0
FC0FC0
FC0FC0
FC0FC0
FC0FC0
FC0FC0
FC0FC0
FC0FC0
FFFFC0
FFFFC0
FFFFC0
FC0FC0
FC0FC0
FC0FC0
FC0FC0
FC0FC0
FC0FC0
FC0FC0
FC0FC0
FC0FC0
FC0FC0
FC0FC0
FC0FC0
ENDCHAR
STARTCHAR uni00C4
ENCODING 196
SWIDTH 438 0
DWIDTH 21 0
BBX 18 36 0 0
BITMAP
1C0E00
1C0E00
1C0E00
1C0E00
1C0E00
1C0E00
000000
000000
000000
1FFE00
1FFE00
1FFE00
FC0FC0
FC0FC0
FC0FC0
FC0FC0
FC0FC0
FC0FC0
FC0FC0
FC0FC0
FC0FC0
FFFFC0
FFFFC0
FFFFC0
FC0FC0
FC0FC0
FC0FC0
FC0FC0
FC0FC0
FC0FC0
FC0FC0
FC0FC0
FC0FC0
FC0FC0
FC0FC0
FC0FC0
ENDCHAR
STARTCHAR uni00C5
ENCODING 197
SWIDTH 438 0
DWIDTH 21 0
BBX 18 36 0 0
BITMAP
03F000
03F000
03F000
1C0E00
1C0E00
1C0E00
1C0E00
1C0E00
1C0E00
1FFE00
1FFE00
1FFE00
FC0FC0
FC0FC0
FC0FC0
FC0FC0
FC0FC0
FC0FC0
FC0FC0
FC0FC0
FC0FC0
FFFFC0
FFFFC0
FFFFC0
FC0FC0
FC0FC0
FC0FC0
FC0FC0
FC0FC0
FC0FC0
FC0FC0
FC0FC0
FC0FC0
FC0FC0
FC0FC0
FC0FC0
ENDCHAR
STARTCHAR uni00C6
ENCODING 198
SWIDTH 625 0
DWIDTH 30 0
BBX 27 27 0 0
BITMAP
1FFFFFE0
1FFFFFE0
1FFFFFE0
FC0FC000
FC0FC000
FC0FC000
FC0FC000
FC0FC000
FC0FC000
FC0FC000
FC0FC000
FC0FC000
FFFFFF00
FFFFFF00
FFFFFF00
FC0FC000
FC0FC000
FC0FC000
FC0FC000
FC0FC000
FC0FC000
FC0FC000
FC0FC000
FC0FC000
FC0FFFE0
FC0FFFE0
FC0FFFE0
ENDCHAR
STARTCHAR uni00C7
ENCODING 199
SWIDTH 438 0
DWIDTH 21 0
BBX 18 36 0 -9
BITMAP
1FFE00
1FFE00
1FFE00
FC01C0
FC01C0
FC01C0
FC0000
FC0000
FC0000
FC0000
FC0000
FC0000
FC0000
FC0000
FC0000
FC0000
FC0000
FC0000
FC0000
FC0000
FC0000
FC01C0
FC01C0
FC01C0
1FFE00
1FFE00
1FFE00
03F000
03F000
03F000
007000
007000
007000
038000
038000
038000
ENDCHAR
STARTCHAR uni00C8
ENCODING 200
SWIDTH 438 0
DWIDTH 21 0
BBX 18 36 0 0
BITMAP
1C0000
1C0000
1C0000
038000
038000
038000
007000
007000
007000
FFFFC0
FFFFC0
FFFFC0
FC0000
FC0000
FC0000
FC0000
FC0000
FC0000
FC0000
FC0000
FC0000
FFFE00
FFFE00
FFFE00
FC0000
FC0000
FC0000
FC0000
FC0000
FC0000
FC0000
FC0000
FC0000
FFFFC0
FFFFC0
FFFFC0
ENDCHAR
STARTCHAR uni00C9
ENCODING 201
SWIDTH 438 0
DWIDTH 21 0
BBX 18 36 0 0
BITMAP
000E00
000E00
000E00
007000
007000
007000
038000
038000
038000
FFFFC0
FFFFC0
FFFFC0
FC0000
FC0000
FC0000
FC0000
FC0000
FC0000
FC0000
FC0000
FC0000
FFFE00
FFFE00
FFFE00
FC0000
FC0000
FC0000
FC0000
FC0000
FC0000
FC0000
FC0000
FC0000
FFFFC0
FFFFC0
FFFFC0
ENDCHAR
STARTCHAR uni00CA
ENCODING 202
SWIDTH 438 0
DWIDTH 21 0
BBX 18 36 0 0
BITMAP
03F000
03F000
03F000
1C0E00
1C0E00
1C0E00
000000
000000
000000
FFFFC0
FFFFC0
FFFFC0
FC0000
FC0000
FC0000
FC0000
FC0000
FC0000
FC0000
FC0000
FC0000
FFFE00
FFFE00
FFFE00
FC0000
FC0000
FC0000
FC0000
FC0000
FC0000
FC0000
FC0000
FC0000
FFFFC0
FFFFC0
FFFFC0
ENDCHAR
STARTCHAR uni00CB
ENCODING 203
SWIDTH 438 0
DWIDTH 21 0
BBX 18 36 0 0
BITMAP
1C0E00
1C0E00
1C0E00
1C0E00
1C0E00
1C0E00
000000
000000
000000
FFFFC0
FFFFC0
FFFFC0
FC0000
FC0000
FC0000
FC0000
FC0000
FC0000
FC0000
FC0000
FC0000
FFFE00
FFFE00
FFFE00
FC0000
FC0000
FC0000
FC0000
FC0000
FC0000
FC0000
FC0000
FC0000
FFFFC0
FFFFC0
FFFFC0
ENDCHAR
STARTCHAR uni00CC
ENCODING 204
SWIDTH 188 0
DWIDTH 9 0
BBX 6 36 0 0
BITMAP
E0
E0
E0
1C
1C
1C
00
00
00
FC
FC
FC
FC
FC
FC
FC
FC
FC
FC
FC
FC
FC
FC
FC
FC
FC
FC
FC
FC
FC
FC
FC
FC
FC
FC
FC
ENDCHAR
STARTCHAR uni00CD
ENCODING 205
SWIDTH 188 0
DWIDTH 9 0
BBX 6 36 0 0
BITMAP
1C
1C
1C
E0
E0
E0
00
00
00
FC
FC
FC
FC
FC
FC
FC
FC
FC
FC
FC
FC
FC
FC
FC
FC
FC
FC
FC
FC
FC
FC
FC
FC
FC
FC
FC
ENDCHAR
STARTCHAR uni00CE
ENCODING 206
SWIDTH 312 0
DWIDTH 15 0
BBX 12 36 0 0
BITMAP
1F80
1F80
1F80
E070
E070
E070
0000
0000
0000
1F80
1F80
1F80
1F80
1F80
1F80
1F80
1F80
1F80
1F80
1F80
1F80
1F80
1F80
1F80
1F80
1F80
1F80
1F80
1F80
1F80
1F80
1F80
1F80
1F80
1F80
1F80
ENDCHAR
STARTCHAR uni00CF
ENCODING 207
SWIDTH 312 0
DWIDTH 15 0
BBX 12 33 0 0
BITMAP
E070
E070
E070
0000
0000
0000
1F80
1F80
1F80
1F80
1F80
1F80
1F80
1F80
1F80
1F80
1F80
1F80
1F80
1F80
1F80
1F80
1F80
1F80
1F80
1F80
1F80
1F80
1F80
1F80
1F80
1F80
1F80
ENDCHAR
STARTCHAR uni00D1
ENCODING 209
SWIDTH 562 0
DWIDTH 27 0
BBX 24 33 0 0
BITMAP
03F038
03F038
03F038
1C0FC0
1C0FC0
1C0FC0
E00007
E00007
E00007
FC0007
FC0007
FC0007
FF8007
FF8007
FF8007
E3F007
E3F007
E3F007
E07E07
E07E07
E07E07
E00FC7
E00FC7
E00FC7
E001FF
E001FF
E001FF
E0003F
E0003F
E0003F
E00007
E00007
E00007
ENDCHAR
STARTCHAR uni00D2
ENCODING 210
SWIDTH 438 0
DWIDTH 21 0
BBX 18 36 0 0
BITMAP
038000
038000
038000
007000
007000
007000
000000
000000
000000
1FFE00
1FFE00
1FFE00
FC0FC0
FC0FC0
FC0FC0
FC0FC0
FC0FC0
FC0FC0
FC0FC0
FC0FC0
FC0FC0
FC0FC0
FC0FC0
FC0FC0
FC0FC0
FC0FC0
FC0FC0
FC0FC0
FC0FC0
FC0FC0
FC0FC0
FC0FC0
FC0FC0
1FFE00
1FFE00
1FFE00
ENDCHAR
STARTCHAR uni00D3
ENCODING 211
SWIDTH 438 0
DWIDTH 21 0
BBX 18 36 0 0
BITMAP
007000
007000
007000
038000
038000
038000
000000
000000
000000
1FFE00
1FFE00
1FFE00
FC0FC0
FC0FC0
FC0FC0
FC0FC0
FC0FC0
FC0FC0
FC0FC0
FC0FC0
FC0FC0
FC0FC0
FC0FC0
FC0FC0
FC0FC0
FC0FC0
FC0FC0
FC0FC0
FC0FC0
FC0FC0
FC0FC0
FC0FC0
FC0FC0
1FFE00
1FFE00
1FFE00
ENDCHAR
STARTCHAR uni00D4
ENCODING 212
SWIDTH 438 0
DWIDTH 21 0
BBX 18 36 0 0
BITMAP
03F000
03F000
03F000
1C0E00
1C0E00
1C0E00
000000
000000
000000
1FFE00
1FFE00
1FFE00
FC0FC0
FC0FC0
FC0FC0
FC0FC0
FC0FC0
FC0FC0
FC0FC0
FC0FC0
FC0FC0
FC0FC0
FC0FC0
FC0FC0
FC0FC0
FC0FC0
FC0FC0
FC0FC0
FC0FC0
FC0FC0
FC0FC0
FC0FC0
FC0FC0
1FFE00
1FFE00
1FFE00
ENDCHAR
STARTCHAR uni00D5
ENCODING 213
SWIDTH 438 0
DWIDTH 21 0
BBX 18 36 0 0
BITMAP
1F81C0
1F81C0
1F81C0
E07E00
E07E00
E07E00
000000
000000
000000
1FFE00
1FFE00
1FFE00
FC0FC0
FC0FC0
FC0FC0
FC0FC0
FC0FC0
FC0FC0
FC0FC0
FC0FC0
FC0FC0
FC0FC0
FC0FC0
FC0FC0
FC0FC0
FC0FC0
FC0FC0
FC0FC0
FC0FC0
FC0FC0
FC0FC0
FC0FC0
FC0FC0
1FFE00
1FFE00
1FFE00
ENDCHAR
STARTCHAR uni00D6
ENCODING 214
SWIDTH 438 0
DWIDTH 21 0
BBX 18 33 0 0
BITMAP
1C0E00
1C0E00
1C0E00
000000
000000
000000
1FFE00
1FFE00
1FFE00
FC0FC0
FC0FC0
FC0FC0
FC0FC0
FC0FC0
FC0FC0
FC0FC0
FC0FC0
FC0FC0
FC0FC0
FC0FC0
FC0FC0
FC0FC0
FC0FC0
FC0FC0
FC0FC0
FC0FC0
FC0FC0
FC0FC0
FC0FC0
FC0FC0
1FFE00
1FFE00
1FFE00
ENDCHAR
STARTCHAR uni00D7
ENCODING 215
SWIDTH 438 0
DWIDTH 21 0
BBX 15 15 3 6
BITMAP
E00E
E00E
E00E
1C70
1C70
1C70
0380
0380
0380
1C70
1C70
1C70
E00E
E00E
E00E
ENDCHAR
STARTCHAR uni00D8
ENCODING 216
SWIDTH 625 0
DWIDTH 30 0
BBX 27 27 0 0
BITMAP
007FF8E0
007FF8E0
007FF8E0
03F03F00
03F03F00
03F03F00
03F03F00
03F03F00
03F03F00
03F1FF00
03F1FF00
03F1FF00
03FE3F00
03FE3F00
03FE3F00
03F03F00
03F03F00
03F03F00
03F03F00
03F03F00
03F03F00
1FF03F00
1FF03F00
1FF03F00
E07FF800
E07FF800
E07FF800
ENDCHAR
STARTCHAR uni00D9
ENCODING 217
SWIDTH 438 0
DWIDTH 21 0
BBX 18 36 0 0
BITMAP
038000
038000
038000
007000
007000
007000
000000
000000
000000
FC0FC0
FC0FC0
FC0FC0
FC0FC0
FC0FC0
FC0FC0
FC0FC0
FC0FC0
FC0FC0
FC0FC0
FC0FC0
FC0FC0
FC0FC0
FC0FC0
FC0FC0
FC0FC0
FC0FC0
FC0FC0
FC0FC0
FC0FC0
FC0FC0
FC0FC0
FC0FC0
FC0FC0
1FFE00
1FFE00
1FFE00
ENDCHAR
STARTCHAR uni00DA
ENCODING 218
SWIDTH 438 0
DWIDTH 21 0
BBX 18 36 0 0
BITMAP
007000
007000
007000
038000
038000
038000
000000
000000
000000
FC0FC0
FC0FC0
FC0FC0
FC0FC0
FC0FC0
FC0FC0
FC0FC0
FC0FC0
FC0FC0
FC0FC0
FC0FC0
FC0FC0
FC0FC0
FC0FC0
FC0FC0
FC0FC0
FC0FC0
FC0FC0
FC0FC0
FC0FC0
FC0FC0
FC0FC0
FC0FC0
FC0FC0
1FFE00
1FFE00
1FFE00
ENDCHAR
STARTCHAR uni00DB
ENCODING 219
SWIDTH 438 0
DWIDTH 21 0
BBX 18 36 0 0
BITMAP
03F000
03F000
03F000
1C0E00
1C0E00
1C0E00
000000
000000
000000
FC0FC0
FC0FC0
FC0FC0
FC0FC0
FC0FC0
FC0FC0
FC0FC0
FC0FC0
FC0FC0
FC0FC0
FC0FC0
FC0FC0
FC0FC0
FC0FC0
FC0FC0
FC0FC0
FC0FC0
FC0FC0
FC0FC0
FC0FC0
FC0FC0
FC0FC0
FC0FC0
FC0FC0
1FFE00
1FFE00
1FFE00
ENDCHAR
STARTCHAR uni00DC
ENCODING 220
SWIDTH 438 0
DWIDTH 21 0
BBX 18 33 0 0
BITMAP
1C0E00
1C0E00
1C0E00
000000
000000
000000
FC0FC0
FC0FC0
FC0FC0
FC0FC0
FC0FC0
FC0FC0
FC0FC0
FC0FC0
FC0FC0
FC0FC0
FC0FC0
FC0FC0
FC0FC0
FC0FC0
FC0FC0
FC0FC0
FC0FC0
FC0FC0
FC0FC0
FC0FC0
FC0FC0
FC0FC0
FC0FC0
FC0FC0
1FFE00
1FFE00
1FFE00
ENDCHAR
STARTCHAR uni00DF
ENCODING 223
SWIDTH 500 0
DWIDTH 24 0
BBX 21 27 0 0
BITMAP
03FFC0
03FFC0
03FFC0
1F81F8
1F81F8
1F81F8
1F81F8
1F81F8
1F81F8
1F8FC0
1F8FC0
1F8FC0
1F81F8
1F81F8
1F81F8
1F81F8
1F81F8
1F81F8
1F81F8
1F81F8
1F81F8
1F81F8
1F81F8
1F81F8
FF8FC0
FF8FC0
FF8FC0
ENDCHAR
STARTCHAR uni00E0
ENCODING 224
SWIDTH 438 0
DWIDTH 21 0
BBX 18 33 0 0
BITMAP
038000
038000
038000
007000
007000
007000
000E00
000E00
000E00
000000
000000
000000
1FFE00
1FFE00
1FFE00
E00FC0
E00FC0
E00FC0
1FFFC0
1FFFC0
1FFFC0
FC0FC0
FC0FC0
FC0FC0
FC0FC0
FC0FC0
FC0FC0
FC0FC0
FC0FC0
FC0FC0
1FFFC0
1FFFC0
1FFFC0
ENDCHAR
STARTCHAR uni00E1
ENCODING 225
SWIDTH 438 0
DWIDTH 21 0
BBX 18 33 0 0
BITMAP
000E00
000E00
000E00
007000
007000
007000
038000
038000
038000
000000
000000
000000
1FFE00
1FFE00
1FFE00
E00FC0
E00FC0
E00FC0
1FFFC0
1FFFC0
1FFFC0
FC0FC0
FC0FC0
FC0FC0
FC0FC0
FC0FC0
FC0FC0
FC0FC0
FC0FC0
FC0FC0
1FFFC0
1FFFC0
1FFFC0
ENDCHAR
STARTCHAR uni00E2
ENCODING 226
SWIDTH 438 0
DWIDTH 21 0
BBX 18 33 0 0
BITMAP
03F000
03F000
03F000
1C0E00
1C0E00
1C0E00
E001C0
E001C0
E001C0
000000
000000
000000
1FFE00
1FFE00
1FFE00
E00FC0
E00FC0
E00FC0
1FFFC0
1FFFC0
1FFFC0
FC0FC0
FC0FC0
FC0FC0
FC0FC0
FC0FC0
FC0FC0
FC0FC0
FC0FC0
FC0FC0
1FFFC0
1FFFC0
1FFFC0
ENDCHAR
STARTCHAR uni00E3
ENCODING 227
SWIDTH 438 0
DWIDTH 21 0
BBX 18 30 0 0
BITMAP
1F81C0
1F81C0
1F81C0
E07E00
E07E00
E07E00
000000
000000
000000
1FFE00
1FFE00
1FFE00
E00FC0
E00FC0
E00FC0
1FFFC0
1FFFC0
1FFFC0
FC0FC0
FC0FC0
FC0FC0
FC0FC0
FC0FC0
FC0FC0
FC0FC0
FC0FC0
FC0FC0
1FFFC0
1FFFC0
1FFFC0
ENDCHAR
STARTCHAR uni00E4
ENCODING 228
SWIDTH 438 0
DWIDTH 21 0
BBX 18 30 0 0
BITMAP
1C0E00
1C0E00
1C0E00
1C0E00
1C0E00
1C0E00
000000
000000
000000
1FFE00
1FFE00
1FFE00
E00FC0
E00FC0
E00FC0
1FFFC0
1FFFC0
1FFFC0
FC0FC0
FC0FC0
FC0FC0
FC0FC0
FC0FC0
FC0FC0
FC0FC0
FC0FC0
FC0FC0
1FFFC0
1FFFC0
1FFFC0
ENDCHAR
STARTCHAR uni00E5
ENCODING 229
SWIDTH 438 0
DWIDTH 21 0
BBX 18 36 0 0
BITMAP
03F000
03F000
03F000
1C0E00
1C0E00
1C0E00
1C0E00
1C0E00
1C0E00
03F000
03F000
03F000
000000
000000
000000
1FFE00
1FFE00
1FFE00
E00FC0
E00FC0
E00FC0
1FFFC0
1FFFC0
1FFFC0
FC0FC0
FC0FC0
FC0FC0
FC0FC0
FC0FC0
FC0FC0
FC0FC0
FC0FC0
FC0FC0
1FFFC0
1FFFC0
1FFFC0
ENDCHAR
STARTCHAR uni00E6
ENCODING 230
SWIDTH 688 0
DWIDTH 33 0
BBX 30 21 0 0
BITMAP
1FFFFFE0
1FFFFFE0
1FFFFFE0
E00FC0FC
E00FC0FC
E00FC0FC
1FFFC0FC
1FFFC0FC
1FFFC0FC
1C0FFF00
1C0FFF00
1C0FFF00
FC0FC000
FC0FC000
FC0FC000
FC0FC01C
FC0FC01C
FC0FC01C
1FFFFFE0
1FFFFFE0
1FFFFFE0
ENDCHAR
STARTCHAR uni00E7
ENCODING 231
SWIDTH 438 0
DWIDTH 21 0
BBX 18 30 0 -9
BITMAP
1FFE00
1FFE00
1FFE00
FC01C0
FC01C0
FC01C0
FC0000
FC0000
FC0000
FC0000
FC0000
FC0000
FC0000
FC0000
FC0000
FC01C0
FC01C0
FC01C0
1FFE00
1FFE00
1FFE00
03F000
03F000
03F000
007000
007000
007000
038000
038000
038000
ENDCHAR
STARTCHAR uni00E8
ENCODING 232
SWIDTH 438 0
DWIDTH 21 0
BBX 18 33 0 0
BITMAP
1C0000
1C0000
1C0000
038000
038000
038000
007000
007000
007000
000000
000000
000000
1FFE00
1FFE00
1FFE00
FC0FC0
FC0FC0
FC0FC0
FC0FC0
FC0FC0
FC0FC0
FFFFC0
FFFFC0
FFFFC0
FC0000
FC0000
FC0000
FC01C0
FC01C0
FC01C0
1FFE00
1FFE00
1FFE00
ENDCHAR
STARTCHAR uni00E9
ENCODING 233
SWIDTH 438 0
DWIDTH 21 0
BBX 18 33 0 0
BITMAP
007000
007000
007000
038000
038000
038000
1C0000
1C0000
1C0000
000000
000000
000000
1FFE00
1FFE00
1FFE00
FC0FC0
FC0FC0
FC0FC0
FC0FC0
FC0FC0
FC0FC0
FFFFC0
FFFFC0
FFFFC0
FC0000
FC0000
FC0000
FC01C0
FC01C0
FC01C0
1FFE00
1FFE00
1FFE00
ENDCHAR
STARTCHAR uni00EA
ENCODING 234
SWIDTH 438 0
DWIDTH 21 0
BBX 18 33 0 0
BITMAP
03F000
03F000
03F000
1C0E00
1C0E00
1C0E00
E001C0
E001C0
E001C0
000000
000000
000000
1FFE00
1FFE00
1FFE00
FC0FC0
FC0FC0
FC0FC0
FC0FC0
FC0FC0
FC0FC0
FFFFC0
FFFFC0
FFFFC0
FC0000
FC0000
FC0000
FC01C0
FC01C0
FC01C0
1FFE00
1FFE00
1FFE00
ENDCHAR
STARTCHAR uni00EB
ENCODING 235
SWIDTH 438 0
DWIDTH 21 0
BBX 18 30 0 0
BITMAP
1C0E00
1C0E00
1C0E00
1C0E00
1C0E00
1C0E00
000000
000000
000000
1FFE00
1FFE00
1FFE00
FC0FC0
FC0FC0
FC0FC0
FC0FC0
FC0FC0
FC0FC0
FFFFC0
FFFFC0
FFFFC0
FC0000
FC0000
FC0000
FC01C0
FC01C0
FC01C0
1FFE00
1FFE00
1FFE00
ENDCHAR
STARTCHAR uni00EC
ENCODING 236
SWIDTH 188 0
DWIDTH 9 0
BBX 6 30 0 0
BITMAP
E0
E0
E0
1C
1C
1C
00
00
00
FC
FC
FC
FC
FC
FC
FC
FC
FC
FC
FC
FC
FC
FC
FC
FC
FC
FC
FC
FC
FC
ENDCHAR
STARTCHAR uni00ED
ENCODING 237
SWIDTH 188 0
DWIDTH 9 0
BBX 6 30 0 0
BITMAP
1C
1C
1C
E0
E0
E0
00
00
00
FC
FC
FC
FC
FC
FC
FC
FC
FC
FC
FC
FC
FC
FC
FC
FC
FC
FC
FC
FC
FC
ENDCHAR
STARTCHAR uni00EE
ENCODING 238
SWIDTH 312 0
DWIDTH 15 0
BBX 12 30 0 0
BITMAP
1F80
1F80
1F80
E070
E070
E070
0000
0000
0000
1F80
1F80
1F80
1F80
1F80
1F80
1F80
1F80
1F80
1F80
1F80
1F80
1F80
1F80
1F80
1F80
1F80
1F80
1F80
1F80
1F80
ENDCHAR
STARTCHAR uni00EF
ENCODING 239
SWIDTH 312 0
DWIDTH 15 0
BBX 12 30 0 0
BITMAP
E070
E070
E070
E070
E070
E070
0000
0000
0000
1F80
1F80
1F80
1F80
1F80
1F80
1F80
1F80
1F80
1F80
1F80
1F80
1F80
1F80
1F80
1F80
1F80
1F80
1F80
1F80
1F80
ENDCHAR
STARTCHAR uni00F1
ENCODING 241
SWIDTH 438 0
DWIDTH 21 0
BBX 18 30 0 0
BITMAP
1F81C0
1F81C0
1F81C0
E07E00
E07E00
E07E00
000000
000000
000000
FFFE00
FFFE00
FFFE00
FC0FC0
FC0FC0
FC0FC0
FC0FC0
FC0FC0
FC0FC0
FC0FC0
FC0FC0
FC0FC0
FC0FC0
FC0FC0
FC0FC0
FC0FC0
FC0FC0
FC0FC0
FC0FC0
FC0FC0
FC0FC0
ENDCHAR
STARTCHAR uni00F2
ENCODING 242
SWIDTH 438 0
DWIDTH 21 0
BBX 18 33 0 0
BITMAP
1C0000
1C0000
1C0000
038000
038000
038000
007000
007000
007000
000000
000000
000000
1FFE00
1FFE00
1FFE00
FC0FC0
FC0FC0
FC0FC0
FC0FC0
FC0FC0
FC0FC0
FC0FC0
FC0FC0
FC0FC0
FC0FC0
FC0FC0
FC0FC0
FC0FC0
FC0FC0
FC0FC0
1FFE00
1FFE00
1FFE00
ENDCHAR
STARTCHAR uni00F3
ENCODING 243
SWIDTH 438 0
DWIDTH 21 0
BBX 18 33 0 0
BITMAP
007000
007000
007000
038000
038000
038000
1C0000
1C0000
1C0000
000000
000000
000000
1FFE00
1FFE00
1FFE00
FC0FC0
FC0FC0
FC0FC0
FC0FC0
FC0FC0
FC0FC0
FC0FC0
FC0FC0
FC0FC0
FC0FC0
FC0FC0
FC0FC0
FC0FC0
FC0FC0
FC0FC0
1FFE00
1FFE00
1FFE00
ENDCHAR
STARTCHAR uni00F4
ENCODING 244
SWIDTH 438 0
DWIDTH 21 0
BBX 18 33 0 0
BITMAP
03F000
03F000
03F000
1C0E00
1C0E00
1C0E00
E001C0
E001C0
E001C0
000000
000000
000000
1FFE00
1FFE00
1FFE00
FC0FC0
FC0FC0
FC0FC0
FC0FC0
FC0FC0
FC0FC0
FC0FC0
FC0FC0
FC0FC0
FC0FC0
FC0FC0
FC0FC0
FC0FC0
FC0FC0
FC0FC0
1FFE00
1FFE00
1FFE00
ENDCHAR
STARTCHAR uni00F5
ENCODING 245
SWIDTH 438 0
DWIDTH 21 0
BBX 18 30 0 0
BITMAP
1F81C0
1F81C0
1F81C0
E07E00
E07E00
E07E00
000000
000000
000000
1FFE00
1FFE00
1FFE00
FC0FC0
FC0FC0
FC0FC0
FC0FC0
FC0FC0
FC0FC0
FC0FC0
FC0FC0
FC0FC0
FC0FC0
FC0FC0
FC0FC0
FC0FC0
FC0FC0
FC0FC0
1FFE00
1FFE00
1FFE00
ENDCHAR
STARTCHAR uni00F6
ENCODING 246
SWIDTH 438 0
DWIDTH 21 0
BBX 18 30 0 0
BITMAP
1C0E00
1C0E00
1C0E00
1C0E00
1C0E00
1C0E00
000000
000000
000000
1FFE00
1FFE00
1FFE00
FC0FC0
FC0FC0
FC0FC0
FC0FC0
FC0FC0
FC0FC0
FC0FC0
FC0FC0
FC0FC0
FC0FC0
FC0FC0
FC0FC0
FC0FC0
FC0FC0
FC0FC0
1FFE00
1FFE00
1FFE00
ENDCHAR
STARTCHAR uni00F7
ENCODING 247
SWIDTH 375 0
DWIDTH 18 0
BBX 15 15 0 6
BITMAP
0380
0380
0380
0000
0000
0000
FFFE
FFFE
FFFE
0000
0000
0000
0380
0380
0380
ENDCHAR
STARTCHAR uni00F8
ENCODING 248
SWIDTH 562 0
DWIDTH 27 0
BBX 24 21 0 0
BITMAP
03FFC7
03FFC7
03FFC7
1F81F8
1F81F8
1F81F8
1F81F8
1F81F8
1F81F8
1F8FF8
1F8FF8
1F8FF8
1FF1F8
1FF1F8
1FF1F8
1F81F8
1F81F8
1F81F8
E3FFC0
E3FFC0
E3FFC0
ENDCHAR
STARTCHAR uni00FB
ENCODING 251
SWIDTH 312 0
DWIDTH 15 0
BBX 12 30 0 0
BITMAP
1F80
1F80
1F80
E070
E070
E070
0000
0000
0000
1F80
1F80
1F80
1F80
1F80
1F80
1F80
1F80
1F80
1F80
1F80
1F80
1F80
1F80
1F80
1F80
1F80
1F80
1F80
1F80
1F80
ENDCHAR
STARTCHAR uni0152
ENCODING 338
SWIDTH 625 0
DWIDTH 30 0
BBX 27 27 0 0
BITMAP
1FFFFFE0
1FFFFFE0
1FFFFFE0
FC0FC000
FC0FC000
FC0FC000
FC0FC000
FC0FC000
FC0FC000
FC0FC000
FC0FC000
FC0FC000
FC0FFF00
FC0FFF00
FC0FFF00
FC0FC000
FC0FC000
FC0FC000
FC0FC000
FC0FC000
FC0FC000
FC0FC000
FC0FC000
FC0FC000
1FFFFFE0
1FFFFFE0
1FFFFFE0
ENDCHAR
STARTCHAR uni2026
ENCODING 8230
SWIDTH 562 0
DWIDTH 27 0
BBX 24 6 0 0
BITMAP
FC7E3F
FC7E3F
FC7E3F
FC7E3F
FC7E3F
FC7E3F
ENDCHAR
STARTCHAR uni20AC
ENCODING 8364
SWIDTH 500 0
DWIDTH 24 0
BBX 21 27 0 0
BITMAP
03FFC0
03FFC0
03FFC0
1F8038
1F8038
1F8038
1F8000
1F8000
1F8000
FFFE00
FFFE00
FFFE00
1F8000
1F8000
1F8000
FFFE00
FFFE00
FFFE00
1F8000
1F8000
1F8000
1F8038
1F8038
1F8038
03FFC0
03FFC0
03FFC0
ENDCHAR
ENDFONT
