STARTFONT 2.1
FONT -pebble-chikarego2-medium-r-normal--16-160-75-75-P-0-iso10646-1
SIZE 16 75 75
FONTBOUNDINGBOX 11 16 0 -4
COMMENT "Giles Booth; BitFontMaker2 gallery 3780"
COMMENT "Creative Commons Attribution (version unspecified by source)"
COMMENT "U+2026 derived by repeating U+002E"
STARTPROPERTIES 8
FAMILY_NAME "ChiKareGo2"
WEIGHT_NAME "Medium"
SLANT "R"
PIXEL_SIZE 16
FONT_ASCENT 12
FONT_DESCENT 4
SPACING "P"
CHARSET_REGISTRY "ISO10646"
ENDPROPERTIES
CHARS 177
STARTCHAR uni0020
ENCODING 32
SWIDTH 312 0
DWIDTH 5 0
BBX 1 1 0 0
BITMAP
00
ENDCHAR
STARTCHAR uni0021
ENCODING 33
SWIDTH 188 0
DWIDTH 3 0
BBX 2 9 0 0
BITMAP
C0
C0
C0
C0
C0
C0
00
C0
C0
ENDCHAR
STARTCHAR uni0022
ENCODING 34
SWIDTH 312 0
DWIDTH 5 0
BBX 4 3 0 6
BITMAP
90
90
90
ENDCHAR
STARTCHAR uni0023
ENCODING 35
SWIDTH 562 0
DWIDTH 9 0
BBX 8 8 0 2
BITMAP
12
12
7F
24
24
FE
48
48
ENDCHAR
STARTCHAR uni0024
ENCODING 36
SWIDTH 375 0
DWIDTH 6 0
BBX 5 11 0 -1
BITMAP
20
70
A8
E0
E0
70
38
38
A8
70
20
ENDCHAR
STARTCHAR uni0025
ENCODING 37
SWIDTH 625 0
DWIDTH 10 0
BBX 9 10 0 0
BITMAP
6E00
9200
9400
6400
0800
0800
1300
1480
2480
2300
ENDCHAR
STARTCHAR uni0026
ENCODING 38
SWIDTH 562 0
DWIDTH 9 0
BBX 8 9 0 0
BITMAP
78
CC
CD
61
CE
CC
CC
CC
78
ENDCHAR
STARTCHAR uni0027
ENCODING 39
SWIDTH 125 0
DWIDTH 2 0
BBX 1 3 0 6
BITMAP
80
80
80
ENDCHAR
STARTCHAR uni0028
ENCODING 40
SWIDTH 250 0
DWIDTH 4 0
BBX 3 11 0 -1
BITMAP
20
40
C0
C0
C0
C0
C0
C0
C0
40
20
ENDCHAR
STARTCHAR uni0029
ENCODING 41
SWIDTH 250 0
DWIDTH 4 0
BBX 3 11 0 -1
BITMAP
80
40
60
60
60
60
60
60
60
40
80
ENDCHAR
STARTCHAR uni002A
ENCODING 42
SWIDTH 375 0
DWIDTH 6 0
BBX 5 5 0 4
BITMAP
20
A8
70
A8
20
ENDCHAR
STARTCHAR uni002B
ENCODING 43
SWIDTH 375 0
DWIDTH 6 0
BBX 5 5 0 2
BITMAP
20
20
F8
20
20
ENDCHAR
STARTCHAR uni002C
ENCODING 44
SWIDTH 188 0
DWIDTH 3 0
BBX 2 4 0 -2
BITMAP
C0
C0
40
80
ENDCHAR
STARTCHAR uni002D
ENCODING 45
SWIDTH 375 0
DWIDTH 6 0
BBX 5 1 0 4
BITMAP
F8
ENDCHAR
STARTCHAR uni002E
ENCODING 46
SWIDTH 188 0
DWIDTH 3 0
BBX 2 2 0 0
BITMAP
C0
C0
ENDCHAR
STARTCHAR uni002F
ENCODING 47
SWIDTH 375 0
DWIDTH 6 0
BBX 5 10 0 0
BITMAP
08
08
10
10
20
20
40
40
80
80
ENDCHAR
STARTCHAR uni0030
ENCODING 48
SWIDTH 438 0
DWIDTH 7 0
BBX 6 9 0 0
BITMAP
78
CC
CC
CC
CC
CC
CC
CC
78
ENDCHAR
STARTCHAR uni0031
ENCODING 49
SWIDTH 250 0
DWIDTH 4 0
BBX 3 9 0 0
BITMAP
60
E0
60
60
60
60
60
60
60
ENDCHAR
STARTCHAR uni0032
ENCODING 50
SWIDTH 438 0
DWIDTH 7 0
BBX 6 9 0 0
BITMAP
78
8C
0C
0C
18
30
60
C0
FC
ENDCHAR
STARTCHAR uni0033
ENCODING 51
SWIDTH 438 0
DWIDTH 7 0
BBX 6 9 0 0
BITMAP
FC
18
30
78
0C
0C
0C
8C
78
ENDCHAR
STARTCHAR uni0034
ENCODING 52
SWIDTH 500 0
DWIDTH 8 0
BBX 7 9 0 0
BITMAP
0C
1C
2C
4C
8C
FE
0C
0C
0C
ENDCHAR
STARTCHAR uni0035
ENCODING 53
SWIDTH 438 0
DWIDTH 7 0
BBX 6 9 0 0
BITMAP
FC
C0
C0
F8
0C
0C
0C
8C
78
ENDCHAR
STARTCHAR uni0036
ENCODING 54
SWIDTH 438 0
DWIDTH 7 0
BBX 6 9 0 0
BITMAP
38
60
C0
F8
CC
CC
CC
CC
78
ENDCHAR
STARTCHAR uni0037
ENCODING 55
SWIDTH 438 0
DWIDTH 7 0
BBX 6 9 0 0
BITMAP
FC
0C
0C
0C
18
30
30
30
30
ENDCHAR
STARTCHAR uni0038
ENCODING 56
SWIDTH 438 0
DWIDTH 7 0
BBX 6 9 0 0
BITMAP
78
CC
CC
78
CC
CC
CC
CC
78
ENDCHAR
STARTCHAR uni0039
ENCODING 57
SWIDTH 438 0
DWIDTH 7 0
BBX 6 9 0 0
BITMAP
78
CC
CC
CC
CC
7C
0C
18
70
ENDCHAR
STARTCHAR uni003A
ENCODING 58
SWIDTH 188 0
DWIDTH 3 0
BBX 2 5 0 0
BITMAP
C0
C0
00
C0
C0
ENDCHAR
STARTCHAR uni003B
ENCODING 59
SWIDTH 188 0
DWIDTH 3 0
BBX 2 7 0 -2
BITMAP
C0
C0
00
C0
C0
40
80
ENDCHAR
STARTCHAR uni003C
ENCODING 60
SWIDTH 375 0
DWIDTH 6 0
BBX 5 7 0 1
BITMAP
18
30
60
C0
60
30
18
ENDCHAR
STARTCHAR uni003D
ENCODING 61
SWIDTH 438 0
DWIDTH 7 0
BBX 6 3 0 3
BITMAP
FC
00
FC
ENDCHAR
STARTCHAR uni003E
ENCODING 62
SWIDTH 375 0
DWIDTH 6 0
BBX 5 7 0 1
BITMAP
C0
60
30
18
30
60
C0
ENDCHAR
STARTCHAR uni003F
ENCODING 63
SWIDTH 438 0
DWIDTH 7 0
BBX 6 9 0 0
BITMAP
78
8C
0C
18
30
30
00
30
30
ENDCHAR
STARTCHAR uni0040
ENCODING 64
SWIDTH 625 0
DWIDTH 10 0
BBX 9 8 0 0
BITMAP
3E00
4100
9C80
A480
A680
9B00
4000
3E00
ENDCHAR
STARTCHAR uni0041
ENCODING 65
SWIDTH 438 0
DWIDTH 7 0
BBX 6 9 0 0
BITMAP
78
CC
CC
CC
FC
CC
CC
CC
CC
ENDCHAR
STARTCHAR uni0042
ENCODING 66
SWIDTH 438 0
DWIDTH 7 0
BBX 6 9 0 0
BITMAP
F8
CC
CC
CC
F8
CC
CC
CC
F8
ENDCHAR
STARTCHAR uni0043
ENCODING 67
SWIDTH 438 0
DWIDTH 7 0
BBX 6 9 0 0
BITMAP
78
C4
C0
C0
C0
C0
C0
C4
78
ENDCHAR
STARTCHAR uni0044
ENCODING 68
SWIDTH 438 0
DWIDTH 7 0
BBX 6 9 0 0
BITMAP
F8
CC
CC
CC
CC
CC
CC
CC
F8
ENDCHAR
STARTCHAR uni0045
ENCODING 69
SWIDTH 438 0
DWIDTH 7 0
BBX 6 9 0 0
BITMAP
FC
C0
C0
C0
F8
C0
C0
C0
FC
ENDCHAR
STARTCHAR uni0046
ENCODING 70
SWIDTH 438 0
DWIDTH 7 0
BBX 6 9 0 0
BITMAP
FC
C0
C0
C0
F8
C0
C0
C0
C0
ENDCHAR
STARTCHAR uni0047
ENCODING 71
SWIDTH 438 0
DWIDTH 7 0
BBX 6 9 0 0
BITMAP
78
C4
C0
C0
DC
CC
CC
CC
78
ENDCHAR
STARTCHAR uni0048
ENCODING 72
SWIDTH 438 0
DWIDTH 7 0
BBX 6 9 0 0
BITMAP
CC
CC
CC
CC
FC
CC
CC
CC
CC
ENDCHAR
STARTCHAR uni0049
ENCODING 73
SWIDTH 188 0
DWIDTH 3 0
BBX 2 9 0 0
BITMAP
C0
C0
C0
C0
C0
C0
C0
C0
C0
ENDCHAR
STARTCHAR uni004A
ENCODING 74
SWIDTH 438 0
DWIDTH 7 0
BBX 6 9 0 0
BITMAP
0C
0C
0C
0C
0C
CC
CC
CC
78
ENDCHAR
STARTCHAR uni004B
ENCODING 75
SWIDTH 500 0
DWIDTH 8 0
BBX 7 9 0 0
BITMAP
C6
CC
D8
F0
E0
F0
D8
CC
C6
ENDCHAR
STARTCHAR uni004C
ENCODING 76
SWIDTH 375 0
DWIDTH 6 0
BBX 5 9 0 0
BITMAP
C0
C0
C0
C0
C0
C0
C0
C0
F8
ENDCHAR
STARTCHAR uni004D
ENCODING 77
SWIDTH 688 0
DWIDTH 11 0
BBX 10 9 0 0
BITMAP
80C0
C1C0
E3C0
F7C0
BEC0
9CC0
88C0
80C0
80C0
ENDCHAR
STARTCHAR uni004E
ENCODING 78
SWIDTH 562 0
DWIDTH 9 0
BBX 8 9 0 0
BITMAP
81
C1
E1
B1
99
8D
87
83
81
ENDCHAR
STARTCHAR uni004F
ENCODING 79
SWIDTH 438 0
DWIDTH 7 0
BBX 6 9 0 0
BITMAP
78
CC
CC
CC
CC
CC
CC
CC
78
ENDCHAR
STARTCHAR uni0050
ENCODING 80
SWIDTH 438 0
DWIDTH 7 0
BBX 6 9 0 0
BITMAP
F8
CC
CC
CC
F8
C0
C0
C0
C0
ENDCHAR
STARTCHAR uni0051
ENCODING 81
SWIDTH 438 0
DWIDTH 7 0
BBX 6 10 0 -1
BITMAP
78
CC
CC
CC
CC
CC
CC
CC
78
0C
ENDCHAR
STARTCHAR uni0052
ENCODING 82
SWIDTH 438 0
DWIDTH 7 0
BBX 6 9 0 0
BITMAP
F8
CC
CC
CC
F8
CC
CC
CC
CC
ENDCHAR
STARTCHAR uni0053
ENCODING 83
SWIDTH 375 0
DWIDTH 6 0
BBX 5 9 0 0
BITMAP
70
C8
C0
E0
70
38
18
98
70
ENDCHAR
STARTCHAR uni0054
ENCODING 84
SWIDTH 438 0
DWIDTH 7 0
BBX 6 9 0 0
BITMAP
FC
30
30
30
30
30
30
30
30
ENDCHAR
STARTCHAR uni0055
ENCODING 85
SWIDTH 438 0
DWIDTH 7 0
BBX 6 9 0 0
BITMAP
CC
CC
CC
CC
CC
CC
CC
CC
78
ENDCHAR
STARTCHAR uni0056
ENCODING 86
SWIDTH 438 0
DWIDTH 7 0
BBX 6 9 0 0
BITMAP
CC
CC
CC
CC
CC
CC
CC
C8
F8
ENDCHAR
STARTCHAR uni0057
ENCODING 87
SWIDTH 688 0
DWIDTH 11 0
BBX 10 9 0 0
BITMAP
CCC0
CCC0
CCC0
CCC0
CCC0
CCC0
CCC0
CC80
FF00
ENDCHAR
STARTCHAR uni0058
ENCODING 88
SWIDTH 438 0
DWIDTH 7 0
BBX 6 9 0 0
BITMAP
CC
CC
CC
CC
78
CC
CC
CC
CC
ENDCHAR
STARTCHAR uni0059
ENCODING 89
SWIDTH 438 0
DWIDTH 7 0
BBX 6 9 0 0
BITMAP
CC
CC
CC
CC
78
30
30
30
30
ENDCHAR
STARTCHAR uni005A
ENCODING 90
SWIDTH 438 0
DWIDTH 7 0
BBX 6 9 0 0
BITMAP
FC
0C
0C
18
30
60
C0
C0
FC
ENDCHAR
STARTCHAR uni005B
ENCODING 91
SWIDTH 250 0
DWIDTH 4 0
BBX 3 11 0 -1
BITMAP
E0
C0
C0
C0
C0
C0
C0
C0
C0
C0
E0
ENDCHAR
STARTCHAR uni005C
ENCODING 92
SWIDTH 375 0
DWIDTH 6 0
BBX 5 10 0 0
BITMAP
80
80
40
40
20
20
10
10
08
08
ENDCHAR
STARTCHAR uni005D
ENCODING 93
SWIDTH 250 0
DWIDTH 4 0
BBX 3 11 0 -1
BITMAP
E0
60
60
60
60
60
60
60
60
60
E0
ENDCHAR
STARTCHAR uni005E
ENCODING 94
SWIDTH 375 0
DWIDTH 6 0
BBX 5 3 0 7
BITMAP
20
50
88
ENDCHAR
STARTCHAR uni005F
ENCODING 95
SWIDTH 562 0
DWIDTH 9 0
BBX 8 1 0 0
BITMAP
FF
ENDCHAR
STARTCHAR uni0060
ENCODING 96
SWIDTH 250 0
DWIDTH 4 0
BBX 3 3 0 6
BITMAP
80
40
20
ENDCHAR
STARTCHAR uni0061
ENCODING 97
SWIDTH 438 0
DWIDTH 7 0
BBX 6 7 0 0
BITMAP
78
8C
7C
CC
CC
CC
7C
ENDCHAR
STARTCHAR uni0062
ENCODING 98
SWIDTH 438 0
DWIDTH 7 0
BBX 6 9 0 0
BITMAP
C0
C0
F8
CC
CC
CC
CC
CC
F8
ENDCHAR
STARTCHAR uni0063
ENCODING 99
SWIDTH 375 0
DWIDTH 6 0
BBX 5 7 0 0
BITMAP
70
C8
C0
C0
C0
C8
70
ENDCHAR
STARTCHAR uni0064
ENCODING 100
SWIDTH 438 0
DWIDTH 7 0
BBX 6 9 0 0
BITMAP
0C
0C
7C
CC
CC
CC
CC
CC
7C
ENDCHAR
STARTCHAR uni0065
ENCODING 101
SWIDTH 438 0
DWIDTH 7 0
BBX 6 7 0 0
BITMAP
78
CC
CC
FC
C0
C4
78
ENDCHAR
STARTCHAR uni0066
ENCODING 102
SWIDTH 375 0
DWIDTH 6 0
BBX 5 9 0 0
BITMAP
38
60
F0
60
60
60
60
60
60
ENDCHAR
STARTCHAR uni0067
ENCODING 103
SWIDTH 438 0
DWIDTH 7 0
BBX 6 10 0 -3
BITMAP
7C
CC
CC
CC
CC
CC
7C
0C
8C
78
ENDCHAR
STARTCHAR uni0068
ENCODING 104
SWIDTH 438 0
DWIDTH 7 0
BBX 6 9 0 0
BITMAP
C0
C0
F8
CC
CC
CC
CC
CC
CC
ENDCHAR
STARTCHAR uni0069
ENCODING 105
SWIDTH 188 0
DWIDTH 3 0
BBX 2 9 0 0
BITMAP
C0
00
C0
C0
C0
C0
C0
C0
C0
ENDCHAR
STARTCHAR uni006A
ENCODING 106
SWIDTH 375 0
DWIDTH 6 0
BBX 5 11 0 -2
BITMAP
18
00
18
18
18
18
18
18
18
98
70
ENDCHAR
STARTCHAR uni006B
ENCODING 107
SWIDTH 438 0
DWIDTH 7 0
BBX 6 9 0 0
BITMAP
C0
C0
CC
D8
F0
C0
F0
D8
CC
ENDCHAR
STARTCHAR uni006C
ENCODING 108
SWIDTH 188 0
DWIDTH 3 0
BBX 2 9 0 0
BITMAP
C0
C0
C0
C0
C0
C0
C0
C0
C0
ENDCHAR
STARTCHAR uni006D
ENCODING 109
SWIDTH 688 0
DWIDTH 11 0
BBX 10 7 0 0
BITMAP
FB80
CCC0
CCC0
CCC0
CCC0
CCC0
CCC0
ENDCHAR
STARTCHAR uni006E
ENCODING 110
SWIDTH 438 0
DWIDTH 7 0
BBX 6 7 0 0
BITMAP
F8
CC
CC
CC
CC
CC
CC
ENDCHAR
STARTCHAR uni006F
ENCODING 111
SWIDTH 438 0
DWIDTH 7 0
BBX 6 7 0 0
BITMAP
78
CC
CC
CC
CC
CC
78
ENDCHAR
STARTCHAR uni0070
ENCODING 112
SWIDTH 438 0
DWIDTH 7 0
BBX 6 9 0 -2
BITMAP
F8
CC
CC
CC
CC
CC
F8
C0
C0
ENDCHAR
STARTCHAR uni0071
ENCODING 113
SWIDTH 438 0
DWIDTH 7 0
BBX 6 9 0 -2
BITMAP
7C
CC
CC
CC
CC
CC
7C
0C
0C
ENDCHAR
STARTCHAR uni0072
ENCODING 114
SWIDTH 375 0
DWIDTH 6 0
BBX 5 7 0 0
BITMAP
D8
F8
C0
C0
C0
C0
C0
ENDCHAR
STARTCHAR uni0073
ENCODING 115
SWIDTH 375 0
DWIDTH 6 0
BBX 5 7 0 0
BITMAP
70
C8
E0
70
38
98
70
ENDCHAR
STARTCHAR uni0074
ENCODING 116
SWIDTH 312 0
DWIDTH 5 0
BBX 4 9 0 0
BITMAP
60
60
F0
60
60
60
60
60
30
ENDCHAR
STARTCHAR uni0075
ENCODING 117
SWIDTH 438 0
DWIDTH 7 0
BBX 6 7 0 0
BITMAP
CC
CC
CC
CC
CC
CC
7C
ENDCHAR
STARTCHAR uni0076
ENCODING 118
SWIDTH 438 0
DWIDTH 7 0
BBX 6 7 0 0
BITMAP
CC
CC
CC
CC
CC
C8
F0
ENDCHAR
STARTCHAR uni0077
ENCODING 119
SWIDTH 688 0
DWIDTH 11 0
BBX 10 7 0 0
BITMAP
CCC0
CCC0
CCC0
CCC0
CCC0
CC80
FF00
ENDCHAR
STARTCHAR uni0078
ENCODING 120
SWIDTH 438 0
DWIDTH 7 0
BBX 6 7 0 0
BITMAP
CC
CC
CC
30
CC
CC
CC
ENDCHAR
STARTCHAR uni0079
ENCODING 121
SWIDTH 438 0
DWIDTH 7 0
BBX 6 10 0 -3
BITMAP
CC
CC
CC
CC
CC
CC
7C
0C
8C
78
ENDCHAR
STARTCHAR uni007A
ENCODING 122
SWIDTH 438 0
DWIDTH 7 0
BBX 6 7 0 0
BITMAP
FC
08
10
20
40
C0
FC
ENDCHAR
STARTCHAR uni007B
ENCODING 123
SWIDTH 250 0
DWIDTH 4 0
BBX 3 11 0 -1
BITMAP
20
40
40
40
40
80
40
40
40
40
20
ENDCHAR
STARTCHAR uni007C
ENCODING 124
SWIDTH 125 0
DWIDTH 2 0
BBX 1 11 0 -1
BITMAP
80
80
80
80
80
80
80
80
80
80
80
ENDCHAR
STARTCHAR uni007D
ENCODING 125
SWIDTH 250 0
DWIDTH 4 0
BBX 3 11 0 -1
BITMAP
80
40
40
40
40
20
40
40
40
40
80
ENDCHAR
STARTCHAR uni007E
ENCODING 126
SWIDTH 438 0
DWIDTH 7 0
BBX 6 2 0 5
BITMAP
64
98
ENDCHAR
STARTCHAR uni00A1
ENCODING 161
SWIDTH 188 0
DWIDTH 3 0
BBX 2 9 0 0
BITMAP
C0
C0
00
C0
C0
C0
C0
C0
C0
ENDCHAR
STARTCHAR uni00A2
ENCODING 162
SWIDTH 375 0
DWIDTH 6 0
BBX 5 8 0 2
BITMAP
20
70
A8
A0
A0
A8
70
20
ENDCHAR
STARTCHAR uni00A3
ENCODING 163
SWIDTH 500 0
DWIDTH 8 0
BBX 7 9 0 0
BITMAP
38
64
60
60
F0
60
60
62
FC
ENDCHAR
STARTCHAR uni00A4
ENCODING 164
SWIDTH 625 0
DWIDTH 10 0
BBX 9 11 0 0
BITMAP
0600
0C00
0800
7700
FF80
FE00
FE00
FF80
FF80
7F00
3600
ENDCHAR
STARTCHAR uni00A5
ENCODING 165
SWIDTH 562 0
DWIDTH 9 0
BBX 8 9 0 0
BITMAP
C3
66
FF
18
FF
18
18
18
18
ENDCHAR
STARTCHAR uni00A6
ENCODING 166
SWIDTH 125 0
DWIDTH 2 0
BBX 1 9 0 0
BITMAP
80
80
80
80
00
80
80
80
80
ENDCHAR
STARTCHAR uni00A7
ENCODING 167
SWIDTH 375 0
DWIDTH 6 0
BBX 5 12 0 -2
BITMAP
70
88
C0
60
B0
98
C8
68
30
18
88
70
ENDCHAR
STARTCHAR uni00A8
ENCODING 168
SWIDTH 375 0
DWIDTH 6 0
BBX 5 2 0 8
BITMAP
D8
D8
ENDCHAR
STARTCHAR uni00A9
ENCODING 169
SWIDTH 562 0
DWIDTH 9 0
BBX 8 9 0 0
BITMAP
3C
42
99
A5
A1
A5
99
42
3C
ENDCHAR
STARTCHAR uni00AA
ENCODING 170
SWIDTH 750 0
DWIDTH 12 0
BBX 11 11 0 -1
BITMAP
FFE0
8020
8020
8020
8020
8020
8020
8020
8020
8020
FFE0
ENDCHAR
STARTCHAR uni00AB
ENCODING 171
SWIDTH 500 0
DWIDTH 8 0
BBX 7 7 0 0
BITMAP
12
24
48
90
48
24
12
ENDCHAR
STARTCHAR uni00AC
ENCODING 172
SWIDTH 438 0
DWIDTH 7 0
BBX 6 11 0 -1
BITMAP
FC
00
FC
00
FC
00
FC
00
FC
00
FC
ENDCHAR
STARTCHAR uni00AE
ENCODING 174
SWIDTH 562 0
DWIDTH 9 0
BBX 8 9 0 0
BITMAP
3C
42
B9
A5
B9
A5
A5
42
3C
ENDCHAR
STARTCHAR uni00B0
ENCODING 176
SWIDTH 312 0
DWIDTH 5 0
BBX 4 4 0 6
BITMAP
60
90
90
60
ENDCHAR
STARTCHAR uni00B1
ENCODING 177
SWIDTH 188 0
DWIDTH 3 0
BBX 2 4 0 5
BITMAP
40
80
C0
C0
ENDCHAR
STARTCHAR uni00B2
ENCODING 178
SWIDTH 375 0
DWIDTH 6 0
BBX 5 4 0 5
BITMAP
48
90
D8
D8
ENDCHAR
STARTCHAR uni00B3
ENCODING 179
SWIDTH 188 0
DWIDTH 3 0
BBX 2 4 0 5
BITMAP
C0
C0
40
80
ENDCHAR
STARTCHAR uni00B4
ENCODING 180
SWIDTH 375 0
DWIDTH 6 0
BBX 5 4 0 5
BITMAP
D8
D8
48
90
ENDCHAR
STARTCHAR uni00B5
ENCODING 181
SWIDTH 562 0
DWIDTH 9 0
BBX 8 9 0 -2
BITMAP
66
66
66
66
66
66
7D
40
80
ENDCHAR
STARTCHAR uni00B6
ENCODING 182
SWIDTH 500 0
DWIDTH 8 0
BBX 7 9 0 0
BITMAP
7E
CA
CA
CA
7A
0A
0A
0A
0A
ENDCHAR
STARTCHAR uni00B8
ENCODING 184
SWIDTH 750 0
DWIDTH 12 0
BBX 11 11 0 -1
BITMAP
AAA0
5540
AAA0
5540
AAA0
5540
AAA0
5540
AAA0
5540
AAA0
ENDCHAR
STARTCHAR uni00B9
ENCODING 185
SWIDTH 750 0
DWIDTH 12 0
BBX 11 11 0 -1
BITMAP
8880
2220
8880
2220
8880
2220
8880
2220
8880
2220
8880
ENDCHAR
STARTCHAR uni00BA
ENCODING 186
SWIDTH 312 0
DWIDTH 5 0
BBX 4 4 0 5
BITMAP
60
90
90
60
ENDCHAR
STARTCHAR uni00BB
ENCODING 187
SWIDTH 500 0
DWIDTH 8 0
BBX 7 7 0 0
BITMAP
90
48
24
12
24
48
90
ENDCHAR
STARTCHAR uni00BF
ENCODING 191
SWIDTH 438 0
DWIDTH 7 0
BBX 6 9 0 0
BITMAP
30
30
00
30
30
60
C0
C4
78
ENDCHAR
STARTCHAR uni00C0
ENCODING 192
SWIDTH 438 0
DWIDTH 7 0
BBX 6 12 0 0
BITMAP
40
20
10
78
CC
CC
CC
FC
CC
CC
CC
CC
ENDCHAR
STARTCHAR uni00C1
ENCODING 193
SWIDTH 438 0
DWIDTH 7 0
BBX 6 12 0 0
BITMAP
10
20
40
78
CC
CC
CC
FC
CC
CC
CC
CC
ENDCHAR
STARTCHAR uni00C2
ENCODING 194
SWIDTH 438 0
DWIDTH 7 0
BBX 6 12 0 0
BITMAP
30
48
84
78
CC
CC
CC
FC
CC
CC
CC
CC
ENDCHAR
STARTCHAR uni00C3
ENCODING 195
SWIDTH 438 0
DWIDTH 7 0
BBX 6 12 0 0
BITMAP
64
98
00
78
CC
CC
CC
FC
CC
CC
CC
CC
ENDCHAR
STARTCHAR uni00C4
ENCODING 196
SWIDTH 438 0
DWIDTH 7 0
BBX 6 12 0 0
BITMAP
48
48
00
78
CC
CC
CC
FC
CC
CC
CC
CC
ENDCHAR
STARTCHAR uni00C5
ENCODING 197
SWIDTH 438 0
DWIDTH 7 0
BBX 6 12 0 0
BITMAP
30
48
48
78
CC
CC
CC
FC
CC
CC
CC
CC
ENDCHAR
STARTCHAR uni00C6
ENCODING 198
SWIDTH 625 0
DWIDTH 10 0
BBX 9 9 0 0
BITMAP
7F80
CC00
CC00
CC00
FF00
CC00
CC00
CC00
CF80
ENDCHAR
STARTCHAR uni00C7
ENCODING 199
SWIDTH 438 0
DWIDTH 7 0
BBX 6 12 0 -3
BITMAP
78
C4
C0
C0
C0
C0
C0
C4
78
30
10
20
ENDCHAR
STARTCHAR uni00C8
ENCODING 200
SWIDTH 438 0
DWIDTH 7 0
BBX 6 12 0 0
BITMAP
40
20
10
FC
C0
C0
C0
F8
C0
C0
C0
FC
ENDCHAR
STARTCHAR uni00C9
ENCODING 201
SWIDTH 438 0
DWIDTH 7 0
BBX 6 12 0 0
BITMAP
08
10
20
FC
C0
C0
C0
F8
C0
C0
C0
FC
ENDCHAR
STARTCHAR uni00CA
ENCODING 202
SWIDTH 438 0
DWIDTH 7 0
BBX 6 12 0 0
BITMAP
30
48
00
FC
C0
C0
C0
F8
C0
C0
C0
FC
ENDCHAR
STARTCHAR uni00CB
ENCODING 203
SWIDTH 438 0
DWIDTH 7 0
BBX 6 12 0 0
BITMAP
48
48
00
FC
C0
C0
C0
F8
C0
C0
C0
FC
ENDCHAR
STARTCHAR uni00CC
ENCODING 204
SWIDTH 188 0
DWIDTH 3 0
BBX 2 12 0 0
BITMAP
80
40
00
C0
C0
C0
C0
C0
C0
C0
C0
C0
ENDCHAR
STARTCHAR uni00CD
ENCODING 205
SWIDTH 188 0
DWIDTH 3 0
BBX 2 12 0 0
BITMAP
40
80
00
C0
C0
C0
C0
C0
C0
C0
C0
C0
ENDCHAR
STARTCHAR uni00CE
ENCODING 206
SWIDTH 312 0
DWIDTH 5 0
BBX 4 12 0 0
BITMAP
60
90
00
60
60
60
60
60
60
60
60
60
ENDCHAR
STARTCHAR uni00CF
ENCODING 207
SWIDTH 312 0
DWIDTH 5 0
BBX 4 11 0 0
BITMAP
90
00
60
60
60
60
60
60
60
60
60
ENDCHAR
STARTCHAR uni00D1
ENCODING 209
SWIDTH 562 0
DWIDTH 9 0
BBX 8 11 0 0
BITMAP
32
4C
81
C1
E1
B1
99
8D
87
83
81
ENDCHAR
STARTCHAR uni00D2
ENCODING 210
SWIDTH 438 0
DWIDTH 7 0
BBX 6 12 0 0
BITMAP
20
10
00
78
CC
CC
CC
CC
CC
CC
CC
78
ENDCHAR
STARTCHAR uni00D3
ENCODING 211
SWIDTH 438 0
DWIDTH 7 0
BBX 6 12 0 0
BITMAP
10
20
00
78
CC
CC
CC
CC
CC
CC
CC
78
ENDCHAR
STARTCHAR uni00D4
ENCODING 212
SWIDTH 438 0
DWIDTH 7 0
BBX 6 12 0 0
BITMAP
30
48
00
78
CC
CC
CC
CC
CC
CC
CC
78
ENDCHAR
STARTCHAR uni00D5
ENCODING 213
SWIDTH 438 0
DWIDTH 7 0
BBX 6 12 0 0
BITMAP
64
98
00
78
CC
CC
CC
CC
CC
CC
CC
78
ENDCHAR
STARTCHAR uni00D6
ENCODING 214
SWIDTH 438 0
DWIDTH 7 0
BBX 6 11 0 0
BITMAP
48
00
78
CC
CC
CC
CC
CC
CC
CC
78
ENDCHAR
STARTCHAR uni00D7
ENCODING 215
SWIDTH 438 0
DWIDTH 7 0
BBX 5 5 1 2
BITMAP
88
50
20
50
88
ENDCHAR
STARTCHAR uni00D8
ENCODING 216
SWIDTH 625 0
DWIDTH 10 0
BBX 9 9 0 0
BITMAP
1E80
3300
3300
3700
3B00
3300
3300
7300
9E00
ENDCHAR
STARTCHAR uni00D9
ENCODING 217
SWIDTH 438 0
DWIDTH 7 0
BBX 6 12 0 0
BITMAP
20
10
00
CC
CC
CC
CC
CC
CC
CC
CC
78
ENDCHAR
STARTCHAR uni00DA
ENCODING 218
SWIDTH 438 0
DWIDTH 7 0
BBX 6 12 0 0
BITMAP
10
20
00
CC
CC
CC
CC
CC
CC
CC
CC
78
ENDCHAR
STARTCHAR uni00DB
ENCODING 219
SWIDTH 438 0
DWIDTH 7 0
BBX 6 12 0 0
BITMAP
30
48
00
CC
CC
CC
CC
CC
CC
CC
CC
78
ENDCHAR
STARTCHAR uni00DC
ENCODING 220
SWIDTH 438 0
DWIDTH 7 0
BBX 6 11 0 0
BITMAP
48
00
CC
CC
CC
CC
CC
CC
CC
CC
78
ENDCHAR
STARTCHAR uni00DF
ENCODING 223
SWIDTH 500 0
DWIDTH 8 0
BBX 7 9 0 0
BITMAP
3C
66
66
6C
66
66
66
66
EC
ENDCHAR
STARTCHAR uni00E0
ENCODING 224
SWIDTH 438 0
DWIDTH 7 0
BBX 6 11 0 0
BITMAP
20
10
08
00
78
8C
7C
CC
CC
CC
7C
ENDCHAR
STARTCHAR uni00E1
ENCODING 225
SWIDTH 438 0
DWIDTH 7 0
BBX 6 11 0 0
BITMAP
08
10
20
00
78
8C
7C
CC
CC
CC
7C
ENDCHAR
STARTCHAR uni00E2
ENCODING 226
SWIDTH 438 0
DWIDTH 7 0
BBX 6 11 0 0
BITMAP
30
48
84
00
78
8C
7C
CC
CC
CC
7C
ENDCHAR
STARTCHAR uni00E3
ENCODING 227
SWIDTH 438 0
DWIDTH 7 0
BBX 6 10 0 0
BITMAP
64
98
00
78
8C
7C
CC
CC
CC
7C
ENDCHAR
STARTCHAR uni00E4
ENCODING 228
SWIDTH 438 0
DWIDTH 7 0
BBX 6 10 0 0
BITMAP
48
48
00
78
8C
7C
CC
CC
CC
7C
ENDCHAR
STARTCHAR uni00E5
ENCODING 229
SWIDTH 438 0
DWIDTH 7 0
BBX 6 12 0 0
BITMAP
30
48
48
30
00
78
8C
7C
CC
CC
CC
7C
ENDCHAR
STARTCHAR uni00E6
ENCODING 230
SWIDTH 688 0
DWIDTH 11 0
BBX 10 7 0 0
BITMAP
7F80
8CC0
7CC0
4F00
CC00
CC40
7F80
ENDCHAR
STARTCHAR uni00E7
ENCODING 231
SWIDTH 438 0
DWIDTH 7 0
BBX 6 10 0 -3
BITMAP
78
C4
C0
C0
C0
C4
78
30
10
20
ENDCHAR
STARTCHAR uni00E8
ENCODING 232
SWIDTH 438 0
DWIDTH 7 0
BBX 6 11 0 0
BITMAP
40
20
10
00
78
CC
CC
FC
C0
C4
78
ENDCHAR
STARTCHAR uni00E9
ENCODING 233
SWIDTH 438 0
DWIDTH 7 0
BBX 6 11 0 0
BITMAP
10
20
40
00
78
CC
CC
FC
C0
C4
78
ENDCHAR
STARTCHAR uni00EA
ENCODING 234
SWIDTH 438 0
DWIDTH 7 0
BBX 6 11 0 0
BITMAP
30
48
84
00
78
CC
CC
FC
C0
C4
78
ENDCHAR
STARTCHAR uni00EB
ENCODING 235
SWIDTH 438 0
DWIDTH 7 0
BBX 6 10 0 0
BITMAP
48
48
00
78
CC
CC
FC
C0
C4
78
ENDCHAR
STARTCHAR uni00EC
ENCODING 236
SWIDTH 188 0
DWIDTH 3 0
BBX 2 10 0 0
BITMAP
80
40
00
C0
C0
C0
C0
C0
C0
C0
ENDCHAR
STARTCHAR uni00ED
ENCODING 237
SWIDTH 188 0
DWIDTH 3 0
BBX 2 10 0 0
BITMAP
40
80
00
C0
C0
C0
C0
C0
C0
C0
ENDCHAR
STARTCHAR uni00EE
ENCODING 238
SWIDTH 312 0
DWIDTH 5 0
BBX 4 10 0 0
BITMAP
60
90
00
60
60
60
60
60
60
60
ENDCHAR
STARTCHAR uni00EF
ENCODING 239
SWIDTH 312 0
DWIDTH 5 0
BBX 4 10 0 0
BITMAP
90
90
00
60
60
60
60
60
60
60
ENDCHAR
STARTCHAR uni00F1
ENCODING 241
SWIDTH 438 0
DWIDTH 7 0
BBX 6 10 0 0
BITMAP
64
98
00
F8
CC
CC
CC
CC
CC
CC
ENDCHAR
STARTCHAR uni00F2
ENCODING 242
SWIDTH 438 0
DWIDTH 7 0
BBX 6 11 0 0
BITMAP
40
20
10
00
78
CC
CC
CC
CC
CC
78
ENDCHAR
STARTCHAR uni00F3
ENCODING 243
SWIDTH 438 0
DWIDTH 7 0
BBX 6 11 0 0
BITMAP
10
20
40
00
78
CC
CC
CC
CC
CC
78
ENDCHAR
STARTCHAR uni00F4
ENCODING 244
SWIDTH 438 0
DWIDTH 7 0
BBX 6 11 0 0
BITMAP
30
48
84
00
78
CC
CC
CC
CC
CC
78
ENDCHAR
STARTCHAR uni00F5
ENCODING 245
SWIDTH 438 0
DWIDTH 7 0
BBX 6 10 0 0
BITMAP
64
98
00
78
CC
CC
CC
CC
CC
78
ENDCHAR
STARTCHAR uni00F6
ENCODING 246
SWIDTH 438 0
DWIDTH 7 0
BBX 6 10 0 0
BITMAP
48
48
00
78
CC
CC
CC
CC
CC
78
ENDCHAR
STARTCHAR uni00F7
ENCODING 247
SWIDTH 375 0
DWIDTH 6 0
BBX 5 5 0 2
BITMAP
20
00
F8
00
20
ENDCHAR
STARTCHAR uni00F8
ENCODING 248
SWIDTH 562 0
DWIDTH 9 0
BBX 8 7 0 0
BITMAP
3D
66
66
6E
76
66
BC
ENDCHAR
STARTCHAR uni00FB
ENCODING 251
SWIDTH 312 0
DWIDTH 5 0
BBX 4 10 0 0
BITMAP
60
90
00
60
60
60
60
60
60
60
ENDCHAR
STARTCHAR uni0152
ENCODING 338
SWIDTH 625 0
DWIDTH 10 0
BBX 9 9 0 0
BITMAP
7F80
CC00
CC00
CC00
CF00
CC00
CC00
CC00
7F80
ENDCHAR
STARTCHAR uni2026
ENCODING 8230
SWIDTH 562 0
DWIDTH 9 0
BBX 8 2 0 0
BITMAP
DB
DB
ENDCHAR
STARTCHAR uni20AC
ENCODING 8364
SWIDTH 500 0
DWIDTH 8 0
BBX 7 9 0 0
BITMAP
3C
62
60
F8
60
F8
60
62
3C
ENDCHAR
ENDFONT
