STARTFONT 2.1
FONT -pebble-chikarego2-medium-r-normal--32-320-75-75-P-0-iso10646-1
SIZE 32 75 75
FONTBOUNDINGBOX 22 32 0 -8
COMMENT "Giles Booth; BitFontMaker2 gallery 3780"
COMMENT "Creative Commons Attribution (version unspecified by source)"
COMMENT "U+2026 derived by repeating U+002E"
STARTPROPERTIES 8
FAMILY_NAME "ChiKareGo2"
WEIGHT_NAME "Medium"
SLANT "R"
PIXEL_SIZE 32
FONT_ASCENT 24
FONT_DESCENT 8
SPACING "P"
CHARSET_REGISTRY "ISO10646"
ENDPROPERTIES
CHARS 177
STARTCHAR uni0020
ENCODING 32
SWIDTH 312 0
DWIDTH 10 0
BBX 2 2 0 0
BITMAP
00
00
ENDCHAR
STARTCHAR uni0021
ENCODING 33
SWIDTH 188 0
DWIDTH 6 0
BBX 4 18 0 0
BITMAP
F0
F0
F0
F0
F0
F0
F0
F0
F0
F0
F0
F0
00
00
F0
F0
F0
F0
ENDCHAR
STARTCHAR uni0022
ENCODING 34
SWIDTH 312 0
DWIDTH 10 0
BBX 8 6 0 12
BITMAP
C3
C3
C3
C3
C3
C3
ENDCHAR
STARTCHAR uni0023
ENCODING 35
SWIDTH 562 0
DWIDTH 18 0
BBX 16 16 0 4
BITMAP
030C
030C
030C
030C
3FFF
3FFF
0C30
0C30
0C30
0C30
FFFC
FFFC
30C0
30C0
30C0
30C0
ENDCHAR
STARTCHAR uni0024
ENCODING 36
SWIDTH 375 0
DWIDTH 12 0
BBX 10 22 0 -2
BITMAP
0C00
0C00
3F00
3F00
CCC0
CCC0
FC00
FC00
FC00
FC00
3F00
3F00
0FC0
0FC0
0FC0
0FC0
CCC0
CCC0
3F00
3F00
0C00
0C00
ENDCHAR
STARTCHAR uni0025
ENCODING 37
SWIDTH 625 0
DWIDTH 20 0
BBX 18 20 0 0
BITMAP
3CFC00
3CFC00
C30C00
C30C00
C33000
C33000
3C3000
3C3000
00C000
00C000
00C000
00C000
030F00
030F00
0330C0
0330C0
0C30C0
0C30C0
0C0F00
0C0F00
ENDCHAR
STARTCHAR uni0026
ENCODING 38
SWIDTH 562 0
DWIDTH 18 0
BBX 16 18 0 0
BITMAP
3FC0
3FC0
F0F0
F0F0
F0F3
F0F3
3C03
3C03
F0FC
F0FC
F0F0
F0F0
F0F0
F0F0
F0F0
F0F0
3FC0
3FC0
ENDCHAR
STARTCHAR uni0027
ENCODING 39
SWIDTH 125 0
DWIDTH 4 0
BBX 2 6 0 12
BITMAP
C0
C0
C0
C0
C0
C0
ENDCHAR
STARTCHAR uni0028
ENCODING 40
SWIDTH 250 0
DWIDTH 8 0
BBX 6 22 0 -2
BITMAP
0C
0C
30
30
F0
F0
F0
F0
F0
F0
F0
F0
F0
F0
F0
F0
F0
F0
30
30
0C
0C
ENDCHAR
STARTCHAR uni0029
ENCODING 41
SWIDTH 250 0
DWIDTH 8 0
BBX 6 22 0 -2
BITMAP
C0
C0
30
30
3C
3C
3C
3C
3C
3C
3C
3C
3C
3C
3C
3C
3C
3C
30
30
C0
C0
ENDCHAR
STARTCHAR uni002A
ENCODING 42
SWIDTH 375 0
DWIDTH 12 0
BBX 10 10 0 8
BITMAP
0C00
0C00
CCC0
CCC0
3F00
3F00
CCC0
CCC0
0C00
0C00
ENDCHAR
STARTCHAR uni002B
ENCODING 43
SWIDTH 375 0
DWIDTH 12 0
BBX 10 10 0 4
BITMAP
0C00
0C00
0C00
0C00
FFC0
FFC0
0C00
0C00
0C00
0C00
ENDCHAR
STARTCHAR uni002C
ENCODING 44
SWIDTH 188 0
DWIDTH 6 0
BBX 4 8 0 -4
BITMAP
F0
F0
F0
F0
30
30
C0
C0
ENDCHAR
STARTCHAR uni002D
ENCODING 45
SWIDTH 375 0
DWIDTH 12 0
BBX 10 2 0 8
BITMAP
FFC0
FFC0
ENDCHAR
STARTCHAR uni002E
ENCODING 46
SWIDTH 188 0
DWIDTH 6 0
BBX 4 4 0 0
BITMAP
F0
F0
F0
F0
ENDCHAR
STARTCHAR uni002F
ENCODING 47
SWIDTH 375 0
DWIDTH 12 0
BBX 10 20 0 0
BITMAP
00C0
00C0
00C0
00C0
0300
0300
0300
0300
0C00
0C00
0C00
0C00
3000
3000
3000
3000
C000
C000
C000
C000
ENDCHAR
STARTCHAR uni0030
ENCODING 48
SWIDTH 438 0
DWIDTH 14 0
BBX 12 18 0 0
BITMAP
3FC0
3FC0
F0F0
F0F0
F0F0
F0F0
F0F0
F0F0
F0F0
F0F0
F0F0
F0F0
F0F0
F0F0
F0F0
F0F0
3FC0
3FC0
ENDCHAR
STARTCHAR uni0031
ENCODING 49
SWIDTH 250 0
DWIDTH 8 0
BBX 6 18 0 0
BITMAP
3C
3C
FC
FC
3C
3C
3C
3C
3C
3C
3C
3C
3C
3C
3C
3C
3C
3C
ENDCHAR
STARTCHAR uni0032
ENCODING 50
SWIDTH 438 0
DWIDTH 14 0
BBX 12 18 0 0
BITMAP
3FC0
3FC0
C0F0
C0F0
00F0
00F0
00F0
00F0
03C0
03C0
0F00
0F00
3C00
3C00
F000
F000
FFF0
FFF0
ENDCHAR
STARTCHAR uni0033
ENCODING 51
SWIDTH 438 0
DWIDTH 14 0
BBX 12 18 0 0
BITMAP
FFF0
FFF0
03C0
03C0
0F00
0F00
3FC0
3FC0
00F0
00F0
00F0
00F0
00F0
00F0
C0F0
C0F0
3FC0
3FC0
ENDCHAR
STARTCHAR uni0034
ENCODING 52
SWIDTH 500 0
DWIDTH 16 0
BBX 14 18 0 0
BITMAP
00F0
00F0
03F0
03F0
0CF0
0CF0
30F0
30F0
C0F0
C0F0
FFFC
FFFC
00F0
00F0
00F0
00F0
00F0
00F0
ENDCHAR
STARTCHAR uni0035
ENCODING 53
SWIDTH 438 0
DWIDTH 14 0
BBX 12 18 0 0
BITMAP
FFF0
FFF0
F000
F000
F000
F000
FFC0
FFC0
00F0
00F0
00F0
00F0
00F0
00F0
C0F0
C0F0
3FC0
3FC0
ENDCHAR
STARTCHAR uni0036
ENCODING 54
SWIDTH 438 0
DWIDTH 14 0
BBX 12 18 0 0
BITMAP
0FC0
0FC0
3C00
3C00
F000
F000
FFC0
FFC0
F0F0
F0F0
F0F0
F0F0
F0F0
F0F0
F0F0
F0F0
3FC0
3FC0
ENDCHAR
STARTCHAR uni0037
ENCODING 55
SWIDTH 438 0
DWIDTH 14 0
BBX 12 18 0 0
BITMAP
FFF0
FFF0
00F0
00F0
00F0
00F0
00F0
00F0
03C0
03C0
0F00
0F00
0F00
0F00
0F00
0F00
0F00
0F00
ENDCHAR
STARTCHAR uni0038
ENCODING 56
SWIDTH 438 0
DWIDTH 14 0
BBX 12 18 0 0
BITMAP
3FC0
3FC0
F0F0
F0F0
F0F0
F0F0
3FC0
3FC0
F0F0
F0F0
F0F0
F0F0
F0F0
F0F0
F0F0
F0F0
3FC0
3FC0
ENDCHAR
STARTCHAR uni0039
ENCODING 57
SWIDTH 438 0
DWIDTH 14 0
BBX 12 18 0 0
BITMAP
3FC0
3FC0
F0F0
F0F0
F0F0
F0F0
F0F0
F0F0
F0F0
F0F0
3FF0
3FF0
00F0
00F0
03C0
03C0
3F00
3F00
ENDCHAR
STARTCHAR uni003A
ENCODING 58
SWIDTH 188 0
DWIDTH 6 0
BBX 4 10 0 0
BITMAP
F0
F0
F0
F0
00
00
F0
F0
F0
F0
ENDCHAR
STARTCHAR uni003B
ENCODING 59
SWIDTH 188 0
DWIDTH 6 0
BBX 4 14 0 -4
BITMAP
F0
F0
F0
F0
00
00
F0
F0
F0
F0
30
30
C0
C0
ENDCHAR
STARTCHAR uni003C
ENCODING 60
SWIDTH 375 0
DWIDTH 12 0
BBX 10 14 0 2
BITMAP
03C0
03C0
0F00
0F00
3C00
3C00
F000
F000
3C00
3C00
0F00
0F00
03C0
03C0
ENDCHAR
STARTCHAR uni003D
ENCODING 61
SWIDTH 438 0
DWIDTH 14 0
BBX 12 6 0 6
BITMAP
FFF0
FFF0
0000
0000
FFF0
FFF0
ENDCHAR
STARTCHAR uni003E
ENCODING 62
SWIDTH 375 0
DWIDTH 12 0
BBX 10 14 0 2
BITMAP
F000
F000
3C00
3C00
0F00
0F00
03C0
03C0
0F00
0F00
3C00
3C00
F000
F000
ENDCHAR
STARTCHAR uni003F
ENCODING 63
SWIDTH 438 0
DWIDTH 14 0
BBX 12 18 0 0
BITMAP
3FC0
3FC0
C0F0
C0F0
00F0
00F0
03C0
03C0
0F00
0F00
0F00
0F00
0000
0000
0F00
0F00
0F00
0F00
ENDCHAR
STARTCHAR uni0040
ENCODING 64
SWIDTH 625 0
DWIDTH 20 0
BBX 18 16 0 0
BITMAP
0FFC00
0FFC00
300300
300300
C3F0C0
C3F0C0
CC30C0
CC30C0
CC3CC0
CC3CC0
C3CF00
C3CF00
300000
300000
0FFC00
0FFC00
ENDCHAR
STARTCHAR uni0041
ENCODING 65
SWIDTH 438 0
DWIDTH 14 0
BBX 12 18 0 0
BITMAP
3FC0
3FC0
F0F0
F0F0
F0F0
F0F0
F0F0
F0F0
FFF0
FFF0
F0F0
F0F0
F0F0
F0F0
F0F0
F0F0
F0F0
F0F0
ENDCHAR
STARTCHAR uni0042
ENCODING 66
SWIDTH 438 0
DWIDTH 14 0
BBX 12 18 0 0
BITMAP
FFC0
FFC0
F0F0
F0F0
F0F0
F0F0
F0F0
F0F0
FFC0
FFC0
F0F0
F0F0
F0F0
F0F0
F0F0
F0F0
FFC0
FFC0
ENDCHAR
STARTCHAR uni0043
ENCODING 67
SWIDTH 438 0
DWIDTH 14 0
BBX 12 18 0 0
BITMAP
3FC0
3FC0
F030
F030
F000
F000
F000
F000
F000
F000
F000
F000
F000
F000
F030
F030
3FC0
3FC0
ENDCHAR
STARTCHAR uni0044
ENCODING 68
SWIDTH 438 0
DWIDTH 14 0
BBX 12 18 0 0
BITMAP
FFC0
FFC0
F0F0
F0F0
F0F0
F0F0
F0F0
F0F0
F0F0
F0F0
F0F0
F0F0
F0F0
F0F0
F0F0
F0F0
FFC0
FFC0
ENDCHAR
STARTCHAR uni0045
ENCODING 69
SWIDTH 438 0
DWIDTH 14 0
BBX 12 18 0 0
BITMAP
FFF0
FFF0
F000
F000
F000
F000
F000
F000
FFC0
FFC0
F000
F000
F000
F000
F000
F000
FFF0
FFF0
ENDCHAR
STARTCHAR uni0046
ENCODING 70
SWIDTH 438 0
DWIDTH 14 0
BBX 12 18 0 0
BITMAP
FFF0
FFF0
F000
F000
F000
F000
F000
F000
FFC0
FFC0
F000
F000
F000
F000
F000
F000
F000
F000
ENDCHAR
STARTCHAR uni0047
ENCODING 71
SWIDTH 438 0
DWIDTH 14 0
BBX 12 18 0 0
BITMAP
3FC0
3FC0
F030
F030
F000
F000
F000
F000
F3F0
F3F0
F0F0
F0F0
F0F0
F0F0
F0F0
F0F0
3FC0
3FC0
ENDCHAR
STARTCHAR uni0048
ENCODING 72
SWIDTH 438 0
DWIDTH 14 0
BBX 12 18 0 0
BITMAP
F0F0
F0F0
F0F0
F0F0
F0F0
F0F0
F0F0
F0F0
FFF0
FFF0
F0F0
F0F0
F0F0
F0F0
F0F0
F0F0
F0F0
F0F0
ENDCHAR
STARTCHAR uni0049
ENCODING 73
SWIDTH 188 0
DWIDTH 6 0
BBX 4 18 0 0
BITMAP
F0
F0
F0
F0
F0
F0
F0
F0
F0
F0
F0
F0
F0
F0
F0
F0
F0
F0
ENDCHAR
STARTCHAR uni004A
ENCODING 74
SWIDTH 438 0
DWIDTH 14 0
BBX 12 18 0 0
BITMAP
00F0
00F0
00F0
00F0
00F0
00F0
00F0
00F0
00F0
00F0
F0F0
F0F0
F0F0
F0F0
F0F0
F0F0
3FC0
3FC0
ENDCHAR
STARTCHAR uni004B
ENCODING 75
SWIDTH 500 0
DWIDTH 16 0
BBX 14 18 0 0
BITMAP
F03C
F03C
F0F0
F0F0
F3C0
F3C0
FF00
FF00
FC00
FC00
FF00
FF00
F3C0
F3C0
F0F0
F0F0
F03C
F03C
ENDCHAR
STARTCHAR uni004C
ENCODING 76
SWIDTH 375 0
DWIDTH 12 0
BBX 10 18 0 0
BITMAP
F000
F000
F000
F000
F000
F000
F000
F000
F000
F000
F000
F000
F000
F000
F000
F000
FFC0
FFC0
ENDCHAR
STARTCHAR uni004D
ENCODING 77
SWIDTH 688 0
DWIDTH 22 0
BBX 20 18 0 0
BITMAP
C000F0
C000F0
F003F0
F003F0
FC0FF0
FC0FF0
FF3FF0
FF3FF0
CFFCF0
CFFCF0
C3F0F0
C3F0F0
C0C0F0
C0C0F0
C000F0
C000F0
C000F0
C000F0
ENDCHAR
STARTCHAR uni004E
ENCODING 78
SWIDTH 562 0
DWIDTH 18 0
BBX 16 18 0 0
BITMAP
C003
C003
F003
F003
FC03
FC03
CF03
CF03
C3C3
C3C3
C0F3
C0F3
C03F
C03F
C00F
C00F
C003
C003
ENDCHAR
STARTCHAR uni004F
ENCODING 79
SWIDTH 438 0
DWIDTH 14 0
BBX 12 18 0 0
BITMAP
3FC0
3FC0
F0F0
F0F0
F0F0
F0F0
F0F0
F0F0
F0F0
F0F0
F0F0
F0F0
F0F0
F0F0
F0F0
F0F0
3FC0
3FC0
ENDCHAR
STARTCHAR uni0050
ENCODING 80
SWIDTH 438 0
DWIDTH 14 0
BBX 12 18 0 0
BITMAP
FFC0
FFC0
F0F0
F0F0
F0F0
F0F0
F0F0
F0F0
FFC0
FFC0
F000
F000
F000
F000
F000
F000
F000
F000
ENDCHAR
STARTCHAR uni0051
ENCODING 81
SWIDTH 438 0
DWIDTH 14 0
BBX 12 20 0 -2
BITMAP
3FC0
3FC0
F0F0
F0F0
F0F0
F0F0
F0F0
F0F0
F0F0
F0F0
F0F0
F0F0
F0F0
F0F0
F0F0
F0F0
3FC0
3FC0
00F0
00F0
ENDCHAR
STARTCHAR uni0052
ENCODING 82
SWIDTH 438 0
DWIDTH 14 0
BBX 12 18 0 0
BITMAP
FFC0
FFC0
F0F0
F0F0
F0F0
F0F0
F0F0
F0F0
FFC0
FFC0
F0F0
F0F0
F0F0
F0F0
F0F0
F0F0
F0F0
F0F0
ENDCHAR
STARTCHAR uni0053
ENCODING 83
SWIDTH 375 0
DWIDTH 12 0
BBX 10 18 0 0
BITMAP
3F00
3F00
F0C0
F0C0
F000
F000
FC00
FC00
3F00
3F00
0FC0
0FC0
03C0
03C0
C3C0
C3C0
3F00
3F00
ENDCHAR
STARTCHAR uni0054
ENCODING 84
SWIDTH 438 0
DWIDTH 14 0
BBX 12 18 0 0
BITMAP
FFF0
FFF0
0F00
0F00
0F00
0F00
0F00
0F00
0F00
0F00
0F00
0F00
0F00
0F00
0F00
0F00
0F00
0F00
ENDCHAR
STARTCHAR uni0055
ENCODING 85
SWIDTH 438 0
DWIDTH 14 0
BBX 12 18 0 0
BITMAP
F0F0
F0F0
F0F0
F0F0
F0F0
F0F0
F0F0
F0F0
F0F0
F0F0
F0F0
F0F0
F0F0
F0F0
F0F0
F0F0
3FC0
3FC0
ENDCHAR
STARTCHAR uni0056
ENCODING 86
SWIDTH 438 0
DWIDTH 14 0
BBX 12 18 0 0
BITMAP
F0F0
F0F0
F0F0
F0F0
F0F0
F0F0
F0F0
F0F0
F0F0
F0F0
F0F0
F0F0
F0F0
F0F0
F0C0
F0C0
FFC0
FFC0
ENDCHAR
STARTCHAR uni0057
ENCODING 87
SWIDTH 688 0
DWIDTH 22 0
BBX 20 18 0 0
BITMAP
F0F0F0
F0F0F0
F0F0F0
F0F0F0
F0F0F0
F0F0F0
F0F0F0
F0F0F0
F0F0F0
F0F0F0
F0F0F0
F0F0F0
F0F0F0
F0F0F0
F0F0C0
F0F0C0
FFFF00
FFFF00
ENDCHAR
STARTCHAR uni0058
ENCODING 88
SWIDTH 438 0
DWIDTH 14 0
BBX 12 18 0 0
BITMAP
F0F0
F0F0
F0F0
F0F0
F0F0
F0F0
F0F0
F0F0
3FC0
3FC0
F0F0
F0F0
F0F0
F0F0
F0F0
F0F0
F0F0
F0F0
ENDCHAR
STARTCHAR uni0059
ENCODING 89
SWIDTH 438 0
DWIDTH 14 0
BBX 12 18 0 0
BITMAP
F0F0
F0F0
F0F0
F0F0
F0F0
F0F0
F0F0
F0F0
3FC0
3FC0
0F00
0F00
0F00
0F00
0F00
0F00
0F00
0F00
ENDCHAR
STARTCHAR uni005A
ENCODING 90
SWIDTH 438 0
DWIDTH 14 0
BBX 12 18 0 0
BITMAP
FFF0
FFF0
00F0
00F0
00F0
00F0
03C0
03C0
0F00
0F00
3C00
3C00
F000
F000
F000
F000
FFF0
FFF0
ENDCHAR
STARTCHAR uni005B
ENCODING 91
SWIDTH 250 0
DWIDTH 8 0
BBX 6 22 0 -2
BITMAP
FC
FC
F0
F0
F0
F0
F0
F0
F0
F0
F0
F0
F0
F0
F0
F0
F0
F0
F0
F0
FC
FC
ENDCHAR
STARTCHAR uni005C
ENCODING 92
SWIDTH 375 0
DWIDTH 12 0
BBX 10 20 0 0
BITMAP
C000
C000
C000
C000
3000
3000
3000
3000
0C00
0C00
0C00
0C00
0300
0300
0300
0300
00C0
00C0
00C0
00C0
ENDCHAR
STARTCHAR uni005D
ENCODING 93
SWIDTH 250 0
DWIDTH 8 0
BBX 6 22 0 -2
BITMAP
FC
FC
3C
3C
3C
3C
3C
3C
3C
3C
3C
3C
3C
3C
3C
3C
3C
3C
3C
3C
FC
FC
ENDCHAR
STARTCHAR uni005E
ENCODING 94
SWIDTH 375 0
DWIDTH 12 0
BBX 10 6 0 14
BITMAP
0C00
0C00
3300
3300
C0C0
C0C0
ENDCHAR
STARTCHAR uni005F
ENCODING 95
SWIDTH 562 0
DWIDTH 18 0
BBX 16 2 0 0
BITMAP
FFFF
FFFF
ENDCHAR
STARTCHAR uni0060
ENCODING 96
SWIDTH 250 0
DWIDTH 8 0
BBX 6 6 0 12
BITMAP
C0
C0
30
30
0C
0C
ENDCHAR
STARTCHAR uni0061
ENCODING 97
SWIDTH 438 0
DWIDTH 14 0
BBX 12 14 0 0
BITMAP
3FC0
3FC0
C0F0
C0F0
3FF0
3FF0
F0F0
F0F0
F0F0
F0F0
F0F0
F0F0
3FF0
3FF0
ENDCHAR
STARTCHAR uni0062
ENCODING 98
SWIDTH 438 0
DWIDTH 14 0
BBX 12 18 0 0
BITMAP
F000
F000
F000
F000
FFC0
FFC0
F0F0
F0F0
F0F0
F0F0
F0F0
F0F0
F0F0
F0F0
F0F0
F0F0
FFC0
FFC0
ENDCHAR
STARTCHAR uni0063
ENCODING 99
SWIDTH 375 0
DWIDTH 12 0
BBX 10 14 0 0
BITMAP
3F00
3F00
F0C0
F0C0
F000
F000
F000
F000
F000
F000
F0C0
F0C0
3F00
3F00
ENDCHAR
STARTCHAR uni0064
ENCODING 100
SWIDTH 438 0
DWIDTH 14 0
BBX 12 18 0 0
BITMAP
00F0
00F0
00F0
00F0
3FF0
3FF0
F0F0
F0F0
F0F0
F0F0
F0F0
F0F0
F0F0
F0F0
F0F0
F0F0
3FF0
3FF0
ENDCHAR
STARTCHAR uni0065
ENCODING 101
SWIDTH 438 0
DWIDTH 14 0
BBX 12 14 0 0
BITMAP
3FC0
3FC0
F0F0
F0F0
F0F0
F0F0
FFF0
FFF0
F000
F000
F030
F030
3FC0
3FC0
ENDCHAR
STARTCHAR uni0066
ENCODING 102
SWIDTH 375 0
DWIDTH 12 0
BBX 10 18 0 0
BITMAP
0FC0
0FC0
3C00
3C00
FF00
FF00
3C00
3C00
3C00
3C00
3C00
3C00
3C00
3C00
3C00
3C00
3C00
3C00
ENDCHAR
STARTCHAR uni0067
ENCODING 103
SWIDTH 438 0
DWIDTH 14 0
BBX 12 20 0 -6
BITMAP
3FF0
3FF0
F0F0
F0F0
F0F0
F0F0
F0F0
F0F0
F0F0
F0F0
F0F0
F0F0
3FF0
3FF0
00F0
00F0
C0F0
C0F0
3FC0
3FC0
ENDCHAR
STARTCHAR uni0068
ENCODING 104
SWIDTH 438 0
DWIDTH 14 0
BBX 12 18 0 0
BITMAP
F000
F000
F000
F000
FFC0
FFC0
F0F0
F0F0
F0F0
F0F0
F0F0
F0F0
F0F0
F0F0
F0F0
F0F0
F0F0
F0F0
ENDCHAR
STARTCHAR uni0069
ENCODING 105
SWIDTH 188 0
DWIDTH 6 0
BBX 4 18 0 0
BITMAP
F0
F0
00
00
F0
F0
F0
F0
F0
F0
F0
F0
F0
F0
F0
F0
F0
F0
ENDCHAR
STARTCHAR uni006A
ENCODING 106
SWIDTH 375 0
DWIDTH 12 0
BBX 10 22 0 -4
BITMAP
03C0
03C0
0000
0000
03C0
03C0
03C0
03C0
03C0
03C0
03C0
03C0
03C0
03C0
03C0
03C0
03C0
03C0
C3C0
C3C0
3F00
3F00
ENDCHAR
STARTCHAR uni006B
ENCODING 107
SWIDTH 438 0
DWIDTH 14 0
BBX 12 18 0 0
BITMAP
F000
F000
F000
F000
F0F0
F0F0
F3C0
F3C0
FF00
FF00
F000
F000
FF00
FF00
F3C0
F3C0
F0F0
F0F0
ENDCHAR
STARTCHAR uni006C
ENCODING 108
SWIDTH 188 0
DWIDTH 6 0
BBX 4 18 0 0
BITMAP
F0
F0
F0
F0
F0
F0
F0
F0
F0
F0
F0
F0
F0
F0
F0
F0
F0
F0
ENDCHAR
STARTCHAR uni006D
ENCODING 109
SWIDTH 688 0
DWIDTH 22 0
BBX 20 14 0 0
BITMAP
FFCFC0
FFCFC0
F0F0F0
F0F0F0
F0F0F0
F0F0F0
F0F0F0
F0F0F0
F0F0F0
F0F0F0
F0F0F0
F0F0F0
F0F0F0
F0F0F0
ENDCHAR
STARTCHAR uni006E
ENCODING 110
SWIDTH 438 0
DWIDTH 14 0
BBX 12 14 0 0
BITMAP
FFC0
FFC0
F0F0
F0F0
F0F0
F0F0
F0F0
F0F0
F0F0
F0F0
F0F0
F0F0
F0F0
F0F0
ENDCHAR
STARTCHAR uni006F
ENCODING 111
SWIDTH 438 0
DWIDTH 14 0
BBX 12 14 0 0
BITMAP
3FC0
3FC0
F0F0
F0F0
F0F0
F0F0
F0F0
F0F0
F0F0
F0F0
F0F0
F0F0
3FC0
3FC0
ENDCHAR
STARTCHAR uni0070
ENCODING 112
SWIDTH 438 0
DWIDTH 14 0
BBX 12 18 0 -4
BITMAP
FFC0
FFC0
F0F0
F0F0
F0F0
F0F0
F0F0
F0F0
F0F0
F0F0
F0F0
F0F0
FFC0
FFC0
F000
F000
F000
F000
ENDCHAR
STARTCHAR uni0071
ENCODING 113
SWIDTH 438 0
DWIDTH 14 0
BBX 12 18 0 -4
BITMAP
3FF0
3FF0
F0F0
F0F0
F0F0
F0F0
F0F0
F0F0
F0F0
F0F0
F0F0
F0F0
3FF0
3FF0
00F0
00F0
00F0
00F0
ENDCHAR
STARTCHAR uni0072
ENCODING 114
SWIDTH 375 0
DWIDTH 12 0
BBX 10 14 0 0
BITMAP
F3C0
F3C0
FFC0
FFC0
F000
F000
F000
F000
F000
F000
F000
F000
F000
F000
ENDCHAR
STARTCHAR uni0073
ENCODING 115
SWIDTH 375 0
DWIDTH 12 0
BBX 10 14 0 0
BITMAP
3F00
3F00
F0C0
F0C0
FC00
FC00
3F00
3F00
0FC0
0FC0
C3C0
C3C0
3F00
3F00
ENDCHAR
STARTCHAR uni0074
ENCODING 116
SWIDTH 312 0
DWIDTH 10 0
BBX 8 18 0 0
BITMAP
3C
3C
3C
3C
FF
FF
3C
3C
3C
3C
3C
3C
3C
3C
3C
3C
0F
0F
ENDCHAR
STARTCHAR uni0075
ENCODING 117
SWIDTH 438 0
DWIDTH 14 0
BBX 12 14 0 0
BITMAP
F0F0
F0F0
F0F0
F0F0
F0F0
F0F0
F0F0
F0F0
F0F0
F0F0
F0F0
F0F0
3FF0
3FF0
ENDCHAR
STARTCHAR uni0076
ENCODING 118
SWIDTH 438 0
DWIDTH 14 0
BBX 12 14 0 0
BITMAP
F0F0
F0F0
F0F0
F0F0
F0F0
F0F0
F0F0
F0F0
F0F0
F0F0
F0C0
F0C0
FF00
FF00
ENDCHAR
STARTCHAR uni0077
ENCODING 119
SWIDTH 688 0
DWIDTH 22 0
BBX 20 14 0 0
BITMAP
F0F0F0
F0F0F0
F0F0F0
F0F0F0
F0F0F0
F0F0F0
F0F0F0
F0F0F0
F0F0F0
F0F0F0
F0F0C0
F0F0C0
FFFF00
FFFF00
ENDCHAR
STARTCHAR uni0078
ENCODING 120
SWIDTH 438 0
DWIDTH 14 0
BBX 12 14 0 0
BITMAP
F0F0
F0F0
F0F0
F0F0
F0F0
F0F0
0F00
0F00
F0F0
F0F0
F0F0
F0F0
F0F0
F0F0
ENDCHAR
STARTCHAR uni0079
ENCODING 121
SWIDTH 438 0
DWIDTH 14 0
BBX 12 20 0 -6
BITMAP
F0F0
F0F0
F0F0
F0F0
F0F0
F0F0
F0F0
F0F0
F0F0
F0F0
F0F0
F0F0
3FF0
3FF0
00F0
00F0
C0F0
C0F0
3FC0
3FC0
ENDCHAR
STARTCHAR uni007A
ENCODING 122
SWIDTH 438 0
DWIDTH 14 0
BBX 12 14 0 0
BITMAP
FFF0
FFF0
00C0
00C0
0300
0300
0C00
0C00
3000
3000
F000
F000
FFF0
FFF0
ENDCHAR
STARTCHAR uni007B
ENCODING 123
SWIDTH 250 0
DWIDTH 8 0
BBX 6 22 0 -2
BITMAP
0C
0C
30
30
30
30
30
30
30
30
C0
C0
30
30
30
30
30
30
30
30
0C
0C
ENDCHAR
STARTCHAR uni007C
ENCODING 124
SWIDTH 125 0
DWIDTH 4 0
BBX 2 22 0 -2
BITMAP
C0
C0
C0
C0
C0
C0
C0
C0
C0
C0
C0
C0
C0
C0
C0
C0
C0
C0
C0
C0
C0
C0
ENDCHAR
STARTCHAR uni007D
ENCODING 125
SWIDTH 250 0
DWIDTH 8 0
BBX 6 22 0 -2
BITMAP
C0
C0
30
30
30
30
30
30
30
30
0C
0C
30
30
30
30
30
30
30
30
C0
C0
ENDCHAR
STARTCHAR uni007E
ENCODING 126
SWIDTH 438 0
DWIDTH 14 0
BBX 12 4 0 10
BITMAP
3C30
3C30
C3C0
C3C0
ENDCHAR
STARTCHAR uni00A1
ENCODING 161
SWIDTH 188 0
DWIDTH 6 0
BBX 4 18 0 0
BITMAP
F0
F0
F0
F0
00
00
F0
F0
F0
F0
F0
F0
F0
F0
F0
F0
F0
F0
ENDCHAR
STARTCHAR uni00A2
ENCODING 162
SWIDTH 375 0
DWIDTH 12 0
BBX 10 16 0 4
BITMAP
0C00
0C00
3F00
3F00
CCC0
CCC0
CC00
CC00
CC00
CC00
CCC0
CCC0
3F00
3F00
0C00
0C00
ENDCHAR
STARTCHAR uni00A3
ENCODING 163
SWIDTH 500 0
DWIDTH 16 0
BBX 14 18 0 0
BITMAP
0FC0
0FC0
3C30
3C30
3C00
3C00
3C00
3C00
FF00
FF00
3C00
3C00
3C00
3C00
3C0C
3C0C
FFF0
FFF0
ENDCHAR
STARTCHAR uni00A4
ENCODING 164
SWIDTH 625 0
DWIDTH 20 0
BBX 18 22 0 0
BITMAP
003C00
003C00
00F000
00F000
00C000
00C000
3F3F00
3F3F00
FFFFC0
FFFFC0
FFFC00
FFFC00
FFFC00
FFFC00
FFFFC0
FFFFC0
FFFFC0
FFFFC0
3FFF00
3FFF00
0F3C00
0F3C00
ENDCHAR
STARTCHAR uni00A5
ENCODING 165
SWIDTH 562 0
DWIDTH 18 0
BBX 16 18 0 0
BITMAP
F00F
F00F
3C3C
3C3C
FFFF
FFFF
03C0
03C0
FFFF
FFFF
03C0
03C0
03C0
03C0
03C0
03C0
03C0
03C0
ENDCHAR
STARTCHAR uni00A6
ENCODING 166
SWIDTH 125 0
DWIDTH 4 0
BBX 2 18 0 0
BITMAP
C0
C0
C0
C0
C0
C0
C0
C0
00
00
C0
C0
C0
C0
C0
C0
C0
C0
ENDCHAR
STARTCHAR uni00A7
ENCODING 167
SWIDTH 375 0
DWIDTH 12 0
BBX 10 24 0 -4
BITMAP
3F00
3F00
C0C0
C0C0
F000
F000
3C00
3C00
CF00
CF00
C3C0
C3C0
F0C0
F0C0
3CC0
3CC0
0F00
0F00
03C0
03C0
C0C0
C0C0
3F00
3F00
ENDCHAR
STARTCHAR uni00A8
ENCODING 168
SWIDTH 375 0
DWIDTH 12 0
BBX 10 4 0 16
BITMAP
F3C0
F3C0
F3C0
F3C0
ENDCHAR
STARTCHAR uni00A9
ENCODING 169
SWIDTH 562 0
DWIDTH 18 0
BBX 16 18 0 0
BITMAP
0FF0
0FF0
300C
300C
C3C3
C3C3
CC33
CC33
CC03
CC03
CC33
CC33
C3C3
C3C3
300C
300C
0FF0
0FF0
ENDCHAR
STARTCHAR uni00AA
ENCODING 170
SWIDTH 750 0
DWIDTH 24 0
BBX 22 22 0 -2
BITMAP
FFFFFC
FFFFFC
C0000C
C0000C
C0000C
C0000C
C0000C
C0000C
C0000C
C0000C
C0000C
C0000C
C0000C
C0000C
C0000C
C0000C
C0000C
C0000C
C0000C
C0000C
FFFFFC
FFFFFC
ENDCHAR
STARTCHAR uni00AB
ENCODING 171
SWIDTH 500 0
DWIDTH 16 0
BBX 14 14 0 0
BITMAP
030C
030C
0C30
0C30
30C0
30C0
C300
C300
30C0
30C0
0C30
0C30
030C
030C
ENDCHAR
STARTCHAR uni00AC
ENCODING 172
SWIDTH 438 0
DWIDTH 14 0
BBX 12 22 0 -2
BITMAP
FFF0
FFF0
0000
0000
FFF0
FFF0
0000
0000
FFF0
FFF0
0000
0000
FFF0
FFF0
0000
0000
FFF0
FFF0
0000
0000
FFF0
FFF0
ENDCHAR
STARTCHAR uni00AE
ENCODING 174
SWIDTH 562 0
DWIDTH 18 0
BBX 16 18 0 0
BITMAP
0FF0
0FF0
300C
300C
CFC3
CFC3
CC33
CC33
CFC3
CFC3
CC33
CC33
CC33
CC33
300C
300C
0FF0
0FF0
ENDCHAR
STARTCHAR uni00B0
ENCODING 176
SWIDTH 312 0
DWIDTH 10 0
BBX 8 8 0 12
BITMAP
3C
3C
C3
C3
C3
C3
3C
3C
ENDCHAR
STARTCHAR uni00B1
ENCODING 177
SWIDTH 188 0
DWIDTH 6 0
BBX 4 8 0 10
BITMAP
30
30
C0
C0
F0
F0
F0
F0
ENDCHAR
STARTCHAR uni00B2
ENCODING 178
SWIDTH 375 0
DWIDTH 12 0
BBX 10 8 0 10
BITMAP
30C0
30C0
C300
C300
F3C0
F3C0
F3C0
F3C0
ENDCHAR
STARTCHAR uni00B3
ENCODING 179
SWIDTH 188 0
DWIDTH 6 0
BBX 4 8 0 10
BITMAP
F0
F0
F0
F0
30
30
C0
C0
ENDCHAR
STARTCHAR uni00B4
ENCODING 180
SWIDTH 375 0
DWIDTH 12 0
BBX 10 8 0 10
BITMAP
F3C0
F3C0
F3C0
F3C0
30C0
30C0
C300
C300
ENDCHAR
STARTCHAR uni00B5
ENCODING 181
SWIDTH 562 0
DWIDTH 18 0
BBX 16 18 0 -4
BITMAP
3C3C
3C3C
3C3C
3C3C
3C3C
3C3C
3C3C
3C3C
3C3C
3C3C
3C3C
3C3C
3FF3
3FF3
3000
3000
C000
C000
ENDCHAR
STARTCHAR uni00B6
ENCODING 182
SWIDTH 500 0
DWIDTH 16 0
BBX 14 18 0 0
BITMAP
3FFC
3FFC
F0CC
F0CC
F0CC
F0CC
F0CC
F0CC
3FCC
3FCC
00CC
00CC
00CC
00CC
00CC
00CC
00CC
00CC
ENDCHAR
STARTCHAR uni00B8
ENCODING 184
SWIDTH 750 0
DWIDTH 24 0
BBX 22 22 0 -2
BITMAP
CCCCCC
CCCCCC
333330
333330
CCCCCC
CCCCCC
333330
333330
CCCCCC
CCCCCC
333330
333330
CCCCCC
CCCCCC
333330
333330
CCCCCC
CCCCCC
333330
333330
CCCCCC
CCCCCC
ENDCHAR
STARTCHAR uni00B9
ENCODING 185
SWIDTH 750 0
DWIDTH 24 0
BBX 22 22 0 -2
BITMAP
C0C0C0
C0C0C0
0C0C0C
0C0C0C
C0C0C0
C0C0C0
0C0C0C
0C0C0C
C0C0C0
C0C0C0
0C0C0C
0C0C0C
C0C0C0
C0C0C0
0C0C0C
0C0C0C
C0C0C0
C0C0C0
0C0C0C
0C0C0C
C0C0C0
C0C0C0
ENDCHAR
STARTCHAR uni00BA
ENCODING 186
SWIDTH 312 0
DWIDTH 10 0
BBX 8 8 0 10
BITMAP
3C
3C
C3
C3
C3
C3
3C
3C
ENDCHAR
STARTCHAR uni00BB
ENCODING 187
SWIDTH 500 0
DWIDTH 16 0
BBX 14 14 0 0
BITMAP
C300
C300
30C0
30C0
0C30
0C30
030C
030C
0C30
0C30
30C0
30C0
C300
C300
ENDCHAR
STARTCHAR uni00BF
ENCODING 191
SWIDTH 438 0
DWIDTH 14 0
BBX 12 18 0 0
BITMAP
0F00
0F00
0F00
0F00
0000
0000
0F00
0F00
0F00
0F00
3C00
3C00
F000
F000
F030
F030
3FC0
3FC0
ENDCHAR
STARTCHAR uni00C0
ENCODING 192
SWIDTH 438 0
DWIDTH 14 0
BBX 12 24 0 0
BITMAP
3000
3000
0C00
0C00
0300
0300
3FC0
3FC0
F0F0
F0F0
F0F0
F0F0
F0F0
F0F0
FFF0
FFF0
F0F0
F0F0
F0F0
F0F0
F0F0
F0F0
F0F0
F0F0
ENDCHAR
STARTCHAR uni00C1
ENCODING 193
SWIDTH 438 0
DWIDTH 14 0
BBX 12 24 0 0
BITMAP
0300
0300
0C00
0C00
3000
3000
3FC0
3FC0
F0F0
F0F0
F0F0
F0F0
F0F0
F0F0
FFF0
FFF0
F0F0
F0F0
F0F0
F0F0
F0F0
F0F0
F0F0
F0F0
ENDCHAR
STARTCHAR uni00C2
ENCODING 194
SWIDTH 438 0
DWIDTH 14 0
BBX 12 24 0 0
BITMAP
0F00
0F00
30C0
30C0
C030
C030
3FC0
3FC0
F0F0
F0F0
F0F0
F0F0
F0F0
F0F0
FFF0
FFF0
F0F0
F0F0
F0F0
F0F0
F0F0
F0F0
F0F0
F0F0
ENDCHAR
STARTCHAR uni00C3
ENCODING 195
SWIDTH 438 0
DWIDTH 14 0
BBX 12 24 0 0
BITMAP
3C30
3C30
C3C0
C3C0
0000
0000
3FC0
3FC0
F0F0
F0F0
F0F0
F0F0
F0F0
F0F0
FFF0
FFF0
F0F0
F0F0
F0F0
F0F0
F0F0
F0F0
F0F0
F0F0
ENDCHAR
STARTCHAR uni00C4
ENCODING 196
SWIDTH 438 0
DWIDTH 14 0
BBX 12 24 0 0
BITMAP
30C0
30C0
30C0
30C0
0000
0000
3FC0
3FC0
F0F0
F0F0
F0F0
F0F0
F0F0
F0F0
FFF0
FFF0
F0F0
F0F0
F0F0
F0F0
F0F0
F0F0
F0F0
F0F0
ENDCHAR
STARTCHAR uni00C5
ENCODING 197
SWIDTH 438 0
DWIDTH 14 0
BBX 12 24 0 0
BITMAP
0F00
0F00
30C0
30C0
30C0
30C0
3FC0
3FC0
F0F0
F0F0
F0F0
F0F0
F0F0
F0F0
FFF0
FFF0
F0F0
F0F0
F0F0
F0F0
F0F0
F0F0
F0F0
F0F0
ENDCHAR
STARTCHAR uni00C6
ENCODING 198
SWIDTH 625 0
DWIDTH 20 0
BBX 18 18 0 0
BITMAP
3FFFC0
3FFFC0
F0F000
F0F000
F0F000
F0F000
F0F000
F0F000
FFFF00
FFFF00
F0F000
F0F000
F0F000
F0F000
F0F000
F0F000
F0FFC0
F0FFC0
ENDCHAR
STARTCHAR uni00C7
ENCODING 199
SWIDTH 438 0
DWIDTH 14 0
BBX 12 24 0 -6
BITMAP
3FC0
3FC0
F030
F030
F000
F000
F000
F000
F000
F000
F000
F000
F000
F000
F030
F030
3FC0
3FC0
0F00
0F00
0300
0300
0C00
0C00
ENDCHAR
STARTCHAR uni00C8
ENCODING 200
SWIDTH 438 0
DWIDTH 14 0
BBX 12 24 0 0
BITMAP
3000
3000
0C00
0C00
0300
0300
FFF0
FFF0
F000
F000
F000
F000
F000
F000
FFC0
FFC0
F000
F000
F000
F000
F000
F000
FFF0
FFF0
ENDCHAR
STARTCHAR uni00C9
ENCODING 201
SWIDTH 438 0
DWIDTH 14 0
BBX 12 24 0 0
BITMAP
00C0
00C0
0300
0300
0C00
0C00
FFF0
FFF0
F000
F000
F000
F000
F000
F000
FFC0
FFC0
F000
F000
F000
F000
F000
F000
FFF0
FFF0
ENDCHAR
STARTCHAR uni00CA
ENCODING 202
SWIDTH 438 0
DWIDTH 14 0
BBX 12 24 0 0
BITMAP
0F00
0F00
30C0
30C0
0000
0000
FFF0
FFF0
F000
F000
F000
F000
F000
F000
FFC0
FFC0
F000
F000
F000
F000
F000
F000
FFF0
FFF0
ENDCHAR
STARTCHAR uni00CB
ENCODING 203
SWIDTH 438 0
DWIDTH 14 0
BBX 12 24 0 0
BITMAP
30C0
30C0
30C0
30C0
0000
0000
FFF0
FFF0
F000
F000
F000
F000
F000
F000
FFC0
FFC0
F000
F000
F000
F000
F000
F000
FFF0
FFF0
ENDCHAR
STARTCHAR uni00CC
ENCODING 204
SWIDTH 188 0
DWIDTH 6 0
BBX 4 24 0 0
BITMAP
C0
C0
30
30
00
00
F0
F0
F0
F0
F0
F0
F0
F0
F0
F0
F0
F0
F0
F0
F0
F0
F0
F0
ENDCHAR
STARTCHAR uni00CD
ENCODING 205
SWIDTH 188 0
DWIDTH 6 0
BBX 4 24 0 0
BITMAP
30
30
C0
C0
00
00
F0
F0
F0
F0
F0
F0
F0
F0
F0
F0
F0
F0
F0
F0
F0
F0
F0
F0
ENDCHAR
STARTCHAR uni00CE
ENCODING 206
SWIDTH 312 0
DWIDTH 10 0
BBX 8 24 0 0
BITMAP
3C
3C
C3
C3
00
00
3C
3C
3C
3C
3C
3C
3C
3C
3C
3C
3C
3C
3C
3C
3C
3C
3C
3C
ENDCHAR
STARTCHAR uni00CF
ENCODING 207
SWIDTH 312 0
DWIDTH 10 0
BBX 8 22 0 0
BITMAP
C3
C3
00
00
3C
3C
3C
3C
3C
3C
3C
3C
3C
3C
3C
3C
3C
3C
3C
3C
3C
3C
ENDCHAR
STARTCHAR uni00D1
ENCODING 209
SWIDTH 562 0
DWIDTH 18 0
BBX 16 22 0 0
BITMAP
0F0C
0F0C
30F0
30F0
C003
C003
F003
F003
FC03
FC03
CF03
CF03
C3C3
C3C3
C0F3
C0F3
C03F
C03F
C00F
C00F
C003
C003
ENDCHAR
STARTCHAR uni00D2
ENCODING 210
SWIDTH 438 0
DWIDTH 14 0
BBX 12 24 0 0
BITMAP
0C00
0C00
0300
0300
0000
0000
3FC0
3FC0
F0F0
F0F0
F0F0
F0F0
F0F0
F0F0
F0F0
F0F0
F0F0
F0F0
F0F0
F0F0
F0F0
F0F0
3FC0
3FC0
ENDCHAR
STARTCHAR uni00D3
ENCODING 211
SWIDTH 438 0
DWIDTH 14 0
BBX 12 24 0 0
BITMAP
0300
0300
0C00
0C00
0000
0000
3FC0
3FC0
F0F0
F0F0
F0F0
F0F0
F0F0
F0F0
F0F0
F0F0
F0F0
F0F0
F0F0
F0F0
F0F0
F0F0
3FC0
3FC0
ENDCHAR
STARTCHAR uni00D4
ENCODING 212
SWIDTH 438 0
DWIDTH 14 0
BBX 12 24 0 0
BITMAP
0F00
0F00
30C0
30C0
0000
0000
3FC0
3FC0
F0F0
F0F0
F0F0
F0F0
F0F0
F0F0
F0F0
F0F0
F0F0
F0F0
F0F0
F0F0
F0F0
F0F0
3FC0
3FC0
ENDCHAR
STARTCHAR uni00D5
ENCODING 213
SWIDTH 438 0
DWIDTH 14 0
BBX 12 24 0 0
BITMAP
3C30
3C30
C3C0
C3C0
0000
0000
3FC0
3FC0
F0F0
F0F0
F0F0
F0F0
F0F0
F0F0
F0F0
F0F0
F0F0
F0F0
F0F0
F0F0
F0F0
F0F0
3FC0
3FC0
ENDCHAR
STARTCHAR uni00D6
ENCODING 214
SWIDTH 438 0
DWIDTH 14 0
BBX 12 22 0 0
BITMAP
30C0
30C0
0000
0000
3FC0
3FC0
F0F0
F0F0
F0F0
F0F0
F0F0
F0F0
F0F0
F0F0
F0F0
F0F0
F0F0
F0F0
F0F0
F0F0
3FC0
3FC0
ENDCHAR
STARTCHAR uni00D7
ENCODING 215
SWIDTH 438 0
DWIDTH 14 0
BBX 10 10 2 4
BITMAP
C0C0
C0C0
3300
3300
0C00
0C00
3300
3300
C0C0
C0C0
ENDCHAR
STARTCHAR uni00D8
ENCODING 216
SWIDTH 625 0
DWIDTH 20 0
BBX 18 18 0 0
BITMAP
03FCC0
03FCC0
0F0F00
0F0F00
0F0F00
0F0F00
0F3F00
0F3F00
0FCF00
0FCF00
0F0F00
0F0F00
0F0F00
0F0F00
3F0F00
3F0F00
C3FC00
C3FC00
ENDCHAR
STARTCHAR uni00D9
ENCODING 217
SWIDTH 438 0
DWIDTH 14 0
BBX 12 24 0 0
BITMAP
0C00
0C00
0300
0300
0000
0000
F0F0
F0F0
F0F0
F0F0
F0F0
F0F0
F0F0
F0F0
F0F0
F0F0
F0F0
F0F0
F0F0
F0F0
F0F0
F0F0
3FC0
3FC0
ENDCHAR
STARTCHAR uni00DA
ENCODING 218
SWIDTH 438 0
DWIDTH 14 0
BBX 12 24 0 0
BITMAP
0300
0300
0C00
0C00
0000
0000
F0F0
F0F0
F0F0
F0F0
F0F0
F0F0
F0F0
F0F0
F0F0
F0F0
F0F0
F0F0
F0F0
F0F0
F0F0
F0F0
3FC0
3FC0
ENDCHAR
STARTCHAR uni00DB
ENCODING 219
SWIDTH 438 0
DWIDTH 14 0
BBX 12 24 0 0
BITMAP
0F00
0F00
30C0
30C0
0000
0000
F0F0
F0F0
F0F0
F0F0
F0F0
F0F0
F0F0
F0F0
F0F0
F0F0
F0F0
F0F0
F0F0
F0F0
F0F0
F0F0
3FC0
3FC0
ENDCHAR
STARTCHAR uni00DC
ENCODING 220
SWIDTH 438 0
DWIDTH 14 0
BBX 12 22 0 0
BITMAP
30C0
30C0
0000
0000
F0F0
F0F0
F0F0
F0F0
F0F0
F0F0
F0F0
F0F0
F0F0
F0F0
F0F0
F0F0
F0F0
F0F0
F0F0
F0F0
3FC0
3FC0
ENDCHAR
STARTCHAR uni00DF
ENCODING 223
SWIDTH 500 0
DWIDTH 16 0
BBX 14 18 0 0
BITMAP
0FF0
0FF0
3C3C
3C3C
3C3C
3C3C
3CF0
3CF0
3C3C
3C3C
3C3C
3C3C
3C3C
3C3C
3C3C
3C3C
FCF0
FCF0
ENDCHAR
STARTCHAR uni00E0
ENCODING 224
SWIDTH 438 0
DWIDTH 14 0
BBX 12 22 0 0
BITMAP
0C00
0C00
0300
0300
00C0
00C0
0000
0000
3FC0
3FC0
C0F0
C0F0
3FF0
3FF0
F0F0
F0F0
F0F0
F0F0
F0F0
F0F0
3FF0
3FF0
ENDCHAR
STARTCHAR uni00E1
ENCODING 225
SWIDTH 438 0
DWIDTH 14 0
BBX 12 22 0 0
BITMAP
00C0
00C0
0300
0300
0C00
0C00
0000
0000
3FC0
3FC0
C0F0
C0F0
3FF0
3FF0
F0F0
F0F0
F0F0
F0F0
F0F0
F0F0
3FF0
3FF0
ENDCHAR
STARTCHAR uni00E2
ENCODING 226
SWIDTH 438 0
DWIDTH 14 0
BBX 12 22 0 0
BITMAP
0F00
0F00
30C0
30C0
C030
C030
0000
0000
3FC0
3FC0
C0F0
C0F0
3FF0
3FF0
F0F0
F0F0
F0F0
F0F0
F0F0
F0F0
3FF0
3FF0
ENDCHAR
STARTCHAR uni00E3
ENCODING 227
SWIDTH 438 0
DWIDTH 14 0
BBX 12 20 0 0
BITMAP
3C30
3C30
C3C0
C3C0
0000
0000
3FC0
3FC0
C0F0
C0F0
3FF0
3FF0
F0F0
F0F0
F0F0
F0F0
F0F0
F0F0
3FF0
3FF0
ENDCHAR
STARTCHAR uni00E4
ENCODING 228
SWIDTH 438 0
DWIDTH 14 0
BBX 12 20 0 0
BITMAP
30C0
30C0
30C0
30C0
0000
0000
3FC0
3FC0
C0F0
C0F0
3FF0
3FF0
F0F0
F0F0
F0F0
F0F0
F0F0
F0F0
3FF0
3FF0
ENDCHAR
STARTCHAR uni00E5
ENCODING 229
SWIDTH 438 0
DWIDTH 14 0
BBX 12 24 0 0
BITMAP
0F00
0F00
30C0
30C0
30C0
30C0
0F00
0F00
0000
0000
3FC0
3FC0
C0F0
C0F0
3FF0
3FF0
F0F0
F0F0
F0F0
F0F0
F0F0
F0F0
3FF0
3FF0
ENDCHAR
STARTCHAR uni00E6
ENCODING 230
SWIDTH 688 0
DWIDTH 22 0
BBX 20 14 0 0
BITMAP
3FFFC0
3FFFC0
C0F0F0
C0F0F0
3FF0F0
3FF0F0
30FF00
30FF00
F0F000
F0F000
F0F030
F0F030
3FFFC0
3FFFC0
ENDCHAR
STARTCHAR uni00E7
ENCODING 231
SWIDTH 438 0
DWIDTH 14 0
BBX 12 20 0 -6
BITMAP
3FC0
3FC0
F030
F030
F000
F000
F000
F000
F000
F000
F030
F030
3FC0
3FC0
0F00
0F00
0300
0300
0C00
0C00
ENDCHAR
STARTCHAR uni00E8
ENCODING 232
SWIDTH 438 0
DWIDTH 14 0
BBX 12 22 0 0
BITMAP
3000
3000
0C00
0C00
0300
0300
0000
0000
3FC0
3FC0
F0F0
F0F0
F0F0
F0F0
FFF0
FFF0
F000
F000
F030
F030
3FC0
3FC0
ENDCHAR
STARTCHAR uni00E9
ENCODING 233
SWIDTH 438 0
DWIDTH 14 0
BBX 12 22 0 0
BITMAP
0300
0300
0C00
0C00
3000
3000
0000
0000
3FC0
3FC0
F0F0
F0F0
F0F0
F0F0
FFF0
FFF0
F000
F000
F030
F030
3FC0
3FC0
ENDCHAR
STARTCHAR uni00EA
ENCODING 234
SWIDTH 438 0
DWIDTH 14 0
BBX 12 22 0 0
BITMAP
0F00
0F00
30C0
30C0
C030
C030
0000
0000
3FC0
3FC0
F0F0
F0F0
F0F0
F0F0
FFF0
FFF0
F000
F000
F030
F030
3FC0
3FC0
ENDCHAR
STARTCHAR uni00EB
ENCODING 235
SWIDTH 438 0
DWIDTH 14 0
BBX 12 20 0 0
BITMAP
30C0
30C0
30C0
30C0
0000
0000
3FC0
3FC0
F0F0
F0F0
F0F0
F0F0
FFF0
FFF0
F000
F000
F030
F030
3FC0
3FC0
ENDCHAR
STARTCHAR uni00EC
ENCODING 236
SWIDTH 188 0
DWIDTH 6 0
BBX 4 20 0 0
BITMAP
C0
C0
30
30
00
00
F0
F0
F0
F0
F0
F0
F0
F0
F0
F0
F0
F0
F0
F0
ENDCHAR
STARTCHAR uni00ED
ENCODING 237
SWIDTH 188 0
DWIDTH 6 0
BBX 4 20 0 0
BITMAP
30
30
C0
C0
00
00
F0
F0
F0
F0
F0
F0
F0
F0
F0
F0
F0
F0
F0
F0
ENDCHAR
STARTCHAR uni00EE
ENCODING 238
SWIDTH 312 0
DWIDTH 10 0
BBX 8 20 0 0
BITMAP
3C
3C
C3
C3
00
00
3C
3C
3C
3C
3C
3C
3C
3C
3C
3C
3C
3C
3C
3C
ENDCHAR
STARTCHAR uni00EF
ENCODING 239
SWIDTH 312 0
DWIDTH 10 0
BBX 8 20 0 0
BITMAP
C3
C3
C3
C3
00
00
3C
3C
3C
3C
3C
3C
3C
3C
3C
3C
3C
3C
3C
3C
ENDCHAR
STARTCHAR uni00F1
ENCODING 241
SWIDTH 438 0
DWIDTH 14 0
BBX 12 20 0 0
BITMAP
3C30
3C30
C3C0
C3C0
0000
0000
FFC0
FFC0
F0F0
F0F0
F0F0
F0F0
F0F0
F0F0
F0F0
F0F0
F0F0
F0F0
F0F0
F0F0
ENDCHAR
STARTCHAR uni00F2
ENCODING 242
SWIDTH 438 0
DWIDTH 14 0
BBX 12 22 0 0
BITMAP
3000
3000
0C00
0C00
0300
0300
0000
0000
3FC0
3FC0
F0F0
F0F0
F0F0
F0F0
F0F0
F0F0
F0F0
F0F0
F0F0
F0F0
3FC0
3FC0
ENDCHAR
STARTCHAR uni00F3
ENCODING 243
SWIDTH 438 0
DWIDTH 14 0
BBX 12 22 0 0
BITMAP
0300
0300
0C00
0C00
3000
3000
0000
0000
3FC0
3FC0
F0F0
F0F0
F0F0
F0F0
F0F0
F0F0
F0F0
F0F0
F0F0
F0F0
3FC0
3FC0
ENDCHAR
STARTCHAR uni00F4
ENCODING 244
SWIDTH 438 0
DWIDTH 14 0
BBX 12 22 0 0
BITMAP
0F00
0F00
30C0
30C0
C030
C030
0000
0000
3FC0
3FC0
F0F0
F0F0
F0F0
F0F0
F0F0
F0F0
F0F0
F0F0
F0F0
F0F0
3FC0
3FC0
ENDCHAR
STARTCHAR uni00F5
ENCODING 245
SWIDTH 438 0
DWIDTH 14 0
BBX 12 20 0 0
BITMAP
3C30
3C30
C3C0
C3C0
0000
0000
3FC0
3FC0
F0F0
F0F0
F0F0
F0F0
F0F0
F0F0
F0F0
F0F0
F0F0
F0F0
3FC0
3FC0
ENDCHAR
STARTCHAR uni00F6
ENCODING 246
SWIDTH 438 0
DWIDTH 14 0
BBX 12 20 0 0
BITMAP
30C0
30C0
30C0
30C0
0000
0000
3FC0
3FC0
F0F0
F0F0
F0F0
F0F0
F0F0
F0F0
F0F0
F0F0
F0F0
F0F0
3FC0
3FC0
ENDCHAR
STARTCHAR uni00F7
ENCODING 247
SWIDTH 375 0
DWIDTH 12 0
BBX 10 10 0 4
BITMAP
0C00
0C00
0000
0000
FFC0
FFC0
0000
0000
0C00
0C00
ENDCHAR
STARTCHAR uni00F8
ENCODING 248
SWIDTH 562 0
DWIDTH 18 0
BBX 16 14 0 0
BITMAP
0FF3
0FF3
3C3C
3C3C
3C3C
3C3C
3CFC
3CFC
3F3C
3F3C
3C3C
3C3C
CFF0
CFF0
ENDCHAR
STARTCHAR uni00FB
ENCODING 251
SWIDTH 312 0
DWIDTH 10 0
BBX 8 20 0 0
BITMAP
3C
3C
C3
C3
00
00
3C
3C
3C
3C
3C
3C
3C
3C
3C
3C
3C
3C
3C
3C
ENDCHAR
STARTCHAR uni0152
ENCODING 338
SWIDTH 625 0
DWIDTH 20 0
BBX 18 18 0 0
BITMAP
3FFFC0
3FFFC0
F0F000
F0F000
F0F000
F0F000
F0F000
F0F000
F0FF00
F0FF00
F0F000
F0F000
F0F000
F0F000
F0F000
F0F000
3FFFC0
3FFFC0
ENDCHAR
STARTCHAR uni2026
ENCODING 8230
SWIDTH 562 0
DWIDTH 18 0
BBX 16 4 0 0
BITMAP
F3CF
F3CF
F3CF
F3CF
ENDCHAR
STARTCHAR uni20AC
ENCODING 8364
SWIDTH 500 0
DWIDTH 16 0
BBX 14 18 0 0
BITMAP
0FF0
0FF0
3C0C
3C0C
3C00
3C00
FFC0
FFC0
3C00
3C00
FFC0
FFC0
3C00
3C00
3C0C
3C0C
0FF0
0FF0
ENDCHAR
ENDFONT
