STARTFONT 2.1
FONT -pebble-cozette-medium-r-normal--26-260-75-75-M-0-iso10646-1
SIZE 26 75 75
FONTBOUNDINGBOX 14 26 0 -6
COMMENT "Cozette v.1.30.0 by Ines"
COMMENT "MIT License"
STARTPROPERTIES 8
FAMILY_NAME "Cozette"
WEIGHT_NAME "Medium"
SLANT "R"
PIXEL_SIZE 26
FONT_ASCENT 20
FONT_DESCENT 6
SPACING "M"
CHARSET_REGISTRY "ISO10646"
ENDPROPERTIES
CHARS 193
STARTCHAR uni0020
ENCODING 32
SWIDTH 462 0
DWIDTH 12 0
BBX 2 2 12 -2
BITMAP
00
00
ENDCHAR
STARTCHAR uni0021
ENCODING 33
SWIDTH 462 0
DWIDTH 12 0
BBX 2 16 6 0
BITMAP
C0
C0
C0
C0
C0
C0
C0
C0
C0
C0
C0
C0
00
00
C0
C0
ENDCHAR
STARTCHAR uni0022
ENCODING 34
SWIDTH 462 0
DWIDTH 12 0
BBX 6 6 4 12
BITMAP
CC
CC
CC
CC
CC
CC
ENDCHAR
STARTCHAR uni0023
ENCODING 35
SWIDTH 462 0
DWIDTH 12 0
BBX 10 16 2 0
BITMAP
3300
3300
3300
3300
FFC0
FFC0
3300
3300
3300
3300
FFC0
FFC0
3300
3300
3300
3300
ENDCHAR
STARTCHAR uni0024
ENCODING 36
SWIDTH 462 0
DWIDTH 12 0
BBX 10 20 2 -2
BITMAP
0C00
0C00
3F00
3F00
CCC0
CCC0
CC00
CC00
3F00
3F00
0CC0
0CC0
0CC0
0CC0
CCC0
CCC0
3F00
3F00
0C00
0C00
ENDCHAR
STARTCHAR uni0025
ENCODING 37
SWIDTH 462 0
DWIDTH 12 0
BBX 10 18 2 0
BITMAP
3000
3000
CC00
CC00
30C0
30C0
0300
0300
0C00
0C00
3000
3000
C300
C300
0CC0
0CC0
0300
0300
ENDCHAR
STARTCHAR uni0026
ENCODING 38
SWIDTH 462 0
DWIDTH 12 0
BBX 10 18 2 0
BITMAP
0C00
0C00
3300
3300
3300
3300
0C00
0C00
3CC0
3CC0
C300
C300
C300
C300
C300
C300
3CC0
3CC0
ENDCHAR
STARTCHAR uni0027
ENCODING 39
SWIDTH 462 0
DWIDTH 12 0
BBX 2 6 6 12
BITMAP
C0
C0
C0
C0
C0
C0
ENDCHAR
STARTCHAR uni0028
ENCODING 40
SWIDTH 462 0
DWIDTH 12 0
BBX 6 22 4 -4
BITMAP
0C
0C
30
30
30
30
C0
C0
C0
C0
C0
C0
C0
C0
C0
C0
30
30
30
30
0C
0C
ENDCHAR
STARTCHAR uni0029
ENCODING 41
SWIDTH 462 0
DWIDTH 12 0
BBX 6 22 4 -4
BITMAP
C0
C0
30
30
30
30
0C
0C
0C
0C
0C
0C
0C
0C
0C
0C
30
30
30
30
C0
C0
ENDCHAR
STARTCHAR uni002A
ENCODING 42
SWIDTH 462 0
DWIDTH 12 0
BBX 10 10 2 2
BITMAP
3300
3300
0C00
0C00
FFC0
FFC0
0C00
0C00
3300
3300
ENDCHAR
STARTCHAR uni002B
ENCODING 43
SWIDTH 462 0
DWIDTH 12 0
BBX 10 10 2 2
BITMAP
0C00
0C00
0C00
0C00
FFC0
FFC0
0C00
0C00
0C00
0C00
ENDCHAR
STARTCHAR uni002C
ENCODING 44
SWIDTH 462 0
DWIDTH 12 0
BBX 4 8 4 -4
BITMAP
F0
F0
F0
F0
30
30
C0
C0
ENDCHAR
STARTCHAR uni002D
ENCODING 45
SWIDTH 462 0
DWIDTH 12 0
BBX 10 2 2 6
BITMAP
FFC0
FFC0
ENDCHAR
STARTCHAR uni002E
ENCODING 46
SWIDTH 462 0
DWIDTH 12 0
BBX 4 4 4 0
BITMAP
F0
F0
F0
F0
ENDCHAR
STARTCHAR uni002F
ENCODING 47
SWIDTH 462 0
DWIDTH 12 0
BBX 10 20 2 -2
BITMAP
00C0
00C0
00C0
00C0
0300
0300
0300
0300
0C00
0C00
0C00
0C00
3000
3000
3000
3000
C000
C000
C000
C000
ENDCHAR
STARTCHAR uni0030
ENCODING 48
SWIDTH 462 0
DWIDTH 12 0
BBX 10 16 2 0
BITMAP
3F00
3F00
C0C0
C0C0
C0C0
C0C0
CCC0
CCC0
CCC0
CCC0
C0C0
C0C0
C0C0
C0C0
3F00
3F00
ENDCHAR
STARTCHAR uni0031
ENCODING 49
SWIDTH 462 0
DWIDTH 12 0
BBX 10 16 2 0
BITMAP
0C00
0C00
3C00
3C00
CC00
CC00
0C00
0C00
0C00
0C00
0C00
0C00
0C00
0C00
FFC0
FFC0
ENDCHAR
STARTCHAR uni0032
ENCODING 50
SWIDTH 462 0
DWIDTH 12 0
BBX 10 16 2 0
BITMAP
3F00
3F00
C0C0
C0C0
00C0
00C0
0300
0300
0C00
0C00
3000
3000
C000
C000
FFC0
FFC0
ENDCHAR
STARTCHAR uni0033
ENCODING 51
SWIDTH 462 0
DWIDTH 12 0
BBX 10 16 2 0
BITMAP
3F00
3F00
C0C0
C0C0
00C0
00C0
0F00
0F00
00C0
00C0
00C0
00C0
C0C0
C0C0
3F00
3F00
ENDCHAR
STARTCHAR uni0034
ENCODING 52
SWIDTH 462 0
DWIDTH 12 0
BBX 12 16 2 0
BITMAP
00C0
00C0
03C0
03C0
0CC0
0CC0
30C0
30C0
C0C0
C0C0
FFF0
FFF0
00C0
00C0
00C0
00C0
ENDCHAR
STARTCHAR uni0035
ENCODING 53
SWIDTH 462 0
DWIDTH 12 0
BBX 10 16 2 0
BITMAP
FFC0
FFC0
C000
C000
C000
C000
FF00
FF00
00C0
00C0
00C0
00C0
C0C0
C0C0
3F00
3F00
ENDCHAR
STARTCHAR uni0036
ENCODING 54
SWIDTH 462 0
DWIDTH 12 0
BBX 10 16 2 0
BITMAP
0F00
0F00
3000
3000
C000
C000
FF00
FF00
C0C0
C0C0
C0C0
C0C0
C0C0
C0C0
3F00
3F00
ENDCHAR
STARTCHAR uni0037
ENCODING 55
SWIDTH 462 0
DWIDTH 12 0
BBX 10 16 2 0
BITMAP
FFC0
FFC0
00C0
00C0
0300
0300
0300
0300
0C00
0C00
0C00
0C00
3000
3000
3000
3000
ENDCHAR
STARTCHAR uni0038
ENCODING 56
SWIDTH 462 0
DWIDTH 12 0
BBX 10 16 2 0
BITMAP
3F00
3F00
C0C0
C0C0
C0C0
C0C0
3F00
3F00
C0C0
C0C0
C0C0
C0C0
C0C0
C0C0
3F00
3F00
ENDCHAR
STARTCHAR uni0039
ENCODING 57
SWIDTH 462 0
DWIDTH 12 0
BBX 10 16 2 0
BITMAP
3F00
3F00
C0C0
C0C0
C0C0
C0C0
C0C0
C0C0
3FC0
3FC0
00C0
00C0
0300
0300
3C00
3C00
ENDCHAR
STARTCHAR uni003A
ENCODING 58
SWIDTH 462 0
DWIDTH 12 0
BBX 4 12 4 0
BITMAP
F0
F0
F0
F0
00
00
00
00
F0
F0
F0
F0
ENDCHAR
STARTCHAR uni003B
ENCODING 59
SWIDTH 462 0
DWIDTH 12 0
BBX 4 16 4 -4
BITMAP
F0
F0
F0
F0
00
00
00
00
F0
F0
F0
F0
30
30
C0
C0
ENDCHAR
STARTCHAR uni003C
ENCODING 60
SWIDTH 462 0
DWIDTH 12 0
BBX 8 14 4 0
BITMAP
03
03
0C
0C
30
30
C0
C0
30
30
0C
0C
03
03
ENDCHAR
STARTCHAR uni003D
ENCODING 61
SWIDTH 462 0
DWIDTH 12 0
BBX 10 6 2 4
BITMAP
FFC0
FFC0
0000
0000
FFC0
FFC0
ENDCHAR
STARTCHAR uni003E
ENCODING 62
SWIDTH 462 0
DWIDTH 12 0
BBX 8 14 2 0
BITMAP
C0
C0
30
30
0C
0C
03
03
0C
0C
30
30
C0
C0
ENDCHAR
STARTCHAR uni003F
ENCODING 63
SWIDTH 462 0
DWIDTH 12 0
BBX 10 16 2 0
BITMAP
3F00
3F00
C0C0
C0C0
00C0
00C0
0300
0300
0C00
0C00
0C00
0C00
0000
0000
0C00
0C00
ENDCHAR
STARTCHAR uni0040
ENCODING 64
SWIDTH 462 0
DWIDTH 12 0
BBX 10 16 2 0
BITMAP
3F00
3F00
C0C0
C0C0
C0C0
C0C0
CFC0
CFC0
CCC0
CCC0
CFC0
CFC0
C000
C000
3FC0
3FC0
ENDCHAR
STARTCHAR uni0041
ENCODING 65
SWIDTH 462 0
DWIDTH 12 0
BBX 10 16 2 0
BITMAP
3F00
3F00
C0C0
C0C0
C0C0
C0C0
C0C0
C0C0
FFC0
FFC0
C0C0
C0C0
C0C0
C0C0
C0C0
C0C0
ENDCHAR
STARTCHAR uni0042
ENCODING 66
SWIDTH 462 0
DWIDTH 12 0
BBX 10 16 2 0
BITMAP
FF00
FF00
C0C0
C0C0
C0C0
C0C0
FF00
FF00
C0C0
C0C0
C0C0
C0C0
C0C0
C0C0
FF00
FF00
ENDCHAR
STARTCHAR uni0043
ENCODING 67
SWIDTH 462 0
DWIDTH 12 0
BBX 10 16 2 0
BITMAP
3F00
3F00
C0C0
C0C0
C000
C000
C000
C000
C000
C000
C000
C000
C0C0
C0C0
3F00
3F00
ENDCHAR
STARTCHAR uni0044
ENCODING 68
SWIDTH 462 0
DWIDTH 12 0
BBX 10 16 2 0
BITMAP
FC00
FC00
C300
C300
C0C0
C0C0
C0C0
C0C0
C0C0
C0C0
C0C0
C0C0
C300
C300
FC00
FC00
ENDCHAR
STARTCHAR uni0045
ENCODING 69
SWIDTH 462 0
DWIDTH 12 0
BBX 10 16 2 0
BITMAP
FFC0
FFC0
C000
C000
C000
C000
FF00
FF00
C000
C000
C000
C000
C000
C000
FFC0
FFC0
ENDCHAR
STARTCHAR uni0046
ENCODING 70
SWIDTH 462 0
DWIDTH 12 0
BBX 10 16 2 0
BITMAP
FFC0
FFC0
C000
C000
C000
C000
FF00
FF00
C000
C000
C000
C000
C000
C000
C000
C000
ENDCHAR
STARTCHAR uni0047
ENCODING 71
SWIDTH 462 0
DWIDTH 12 0
BBX 10 16 2 0
BITMAP
3F00
3F00
C0C0
C0C0
C000
C000
C000
C000
C3C0
C3C0
C0C0
C0C0
C0C0
C0C0
3F00
3F00
ENDCHAR
STARTCHAR uni0048
ENCODING 72
SWIDTH 462 0
DWIDTH 12 0
BBX 10 16 2 0
BITMAP
C0C0
C0C0
C0C0
C0C0
C0C0
C0C0
FFC0
FFC0
C0C0
C0C0
C0C0
C0C0
C0C0
C0C0
C0C0
C0C0
ENDCHAR
STARTCHAR uni0049
ENCODING 73
SWIDTH 462 0
DWIDTH 12 0
BBX 6 16 4 0
BITMAP
FC
FC
30
30
30
30
30
30
30
30
30
30
30
30
FC
FC
ENDCHAR
STARTCHAR uni004A
ENCODING 74
SWIDTH 462 0
DWIDTH 12 0
BBX 10 16 2 0
BITMAP
0FC0
0FC0
00C0
00C0
00C0
00C0
00C0
00C0
00C0
00C0
C0C0
C0C0
C0C0
C0C0
3F00
3F00
ENDCHAR
STARTCHAR uni004B
ENCODING 75
SWIDTH 462 0
DWIDTH 12 0
BBX 10 16 2 0
BITMAP
C0C0
C0C0
C300
C300
CC00
CC00
FC00
FC00
C300
C300
C300
C300
C0C0
C0C0
C0C0
C0C0
ENDCHAR
STARTCHAR uni004C
ENCODING 76
SWIDTH 462 0
DWIDTH 12 0
BBX 10 16 2 0
BITMAP
C000
C000
C000
C000
C000
C000
C000
C000
C000
C000
C000
C000
C000
C000
FFC0
FFC0
ENDCHAR
STARTCHAR uni004D
ENCODING 77
SWIDTH 462 0
DWIDTH 12 0
BBX 10 16 2 0
BITMAP
C0C0
C0C0
F3C0
F3C0
CCC0
CCC0
CCC0
CCC0
C0C0
C0C0
C0C0
C0C0
C0C0
C0C0
C0C0
C0C0
ENDCHAR
STARTCHAR uni004E
ENCODING 78
SWIDTH 462 0
DWIDTH 12 0
BBX 10 16 2 0
BITMAP
C0C0
C0C0
F0C0
F0C0
F0C0
F0C0
CCC0
CCC0
CCC0
CCC0
C3C0
C3C0
C3C0
C3C0
C0C0
C0C0
ENDCHAR
STARTCHAR uni004F
ENCODING 79
SWIDTH 462 0
DWIDTH 12 0
BBX 10 16 2 0
BITMAP
3F00
3F00
C0C0
C0C0
C0C0
C0C0
C0C0
C0C0
C0C0
C0C0
C0C0
C0C0
C0C0
C0C0
3F00
3F00
ENDCHAR
STARTCHAR uni0050
ENCODING 80
SWIDTH 462 0
DWIDTH 12 0
BBX 10 16 2 0
BITMAP
FF00
FF00
C0C0
C0C0
C0C0
C0C0
C0C0
C0C0
FF00
FF00
C000
C000
C000
C000
C000
C000
ENDCHAR
STARTCHAR uni0051
ENCODING 81
SWIDTH 462 0
DWIDTH 12 0
BBX 10 18 2 -2
BITMAP
3F00
3F00
C0C0
C0C0
C0C0
C0C0
C0C0
C0C0
C0C0
C0C0
C0C0
C0C0
C300
C300
3CC0
3CC0
00C0
00C0
ENDCHAR
STARTCHAR uni0052
ENCODING 82
SWIDTH 462 0
DWIDTH 12 0
BBX 10 16 2 0
BITMAP
FF00
FF00
C0C0
C0C0
C0C0
C0C0
FF00
FF00
C300
C300
C0C0
C0C0
C0C0
C0C0
C0C0
C0C0
ENDCHAR
STARTCHAR uni0053
ENCODING 83
SWIDTH 462 0
DWIDTH 12 0
BBX 10 16 2 0
BITMAP
3F00
3F00
C0C0
C0C0
C000
C000
3F00
3F00
00C0
00C0
00C0
00C0
C0C0
C0C0
3F00
3F00
ENDCHAR
STARTCHAR uni0054
ENCODING 84
SWIDTH 462 0
DWIDTH 12 0
BBX 10 16 2 0
BITMAP
FFC0
FFC0
0C00
0C00
0C00
0C00
0C00
0C00
0C00
0C00
0C00
0C00
0C00
0C00
0C00
0C00
ENDCHAR
STARTCHAR uni0055
ENCODING 85
SWIDTH 462 0
DWIDTH 12 0
BBX 10 16 2 0
BITMAP
C0C0
C0C0
C0C0
C0C0
C0C0
C0C0
C0C0
C0C0
C0C0
C0C0
C0C0
C0C0
C0C0
C0C0
3F00
3F00
ENDCHAR
STARTCHAR uni0056
ENCODING 86
SWIDTH 462 0
DWIDTH 12 0
BBX 10 16 2 0
BITMAP
C0C0
C0C0
C0C0
C0C0
C0C0
C0C0
3300
3300
3300
3300
3300
3300
0C00
0C00
0C00
0C00
ENDCHAR
STARTCHAR uni0057
ENCODING 87
SWIDTH 462 0
DWIDTH 12 0
BBX 10 16 2 0
BITMAP
C0C0
C0C0
C0C0
C0C0
C0C0
C0C0
CCC0
CCC0
CCC0
CCC0
3F00
3F00
3300
3300
3300
3300
ENDCHAR
STARTCHAR uni0058
ENCODING 88
SWIDTH 462 0
DWIDTH 12 0
BBX 10 16 2 0
BITMAP
C0C0
C0C0
C0C0
C0C0
3300
3300
0C00
0C00
0C00
0C00
3300
3300
C0C0
C0C0
C0C0
C0C0
ENDCHAR
STARTCHAR uni0059
ENCODING 89
SWIDTH 462 0
DWIDTH 12 0
BBX 10 16 2 0
BITMAP
C0C0
C0C0
C0C0
C0C0
C0C0
C0C0
3300
3300
0C00
0C00
0C00
0C00
0C00
0C00
0C00
0C00
ENDCHAR
STARTCHAR uni005A
ENCODING 90
SWIDTH 462 0
DWIDTH 12 0
BBX 10 16 2 0
BITMAP
FFC0
FFC0
0300
0300
0C00
0C00
0C00
0C00
3000
3000
3000
3000
C000
C000
FFC0
FFC0
ENDCHAR
STARTCHAR uni005B
ENCODING 91
SWIDTH 462 0
DWIDTH 12 0
BBX 6 22 4 -4
BITMAP
FC
FC
C0
C0
C0
C0
C0
C0
C0
C0
C0
C0
C0
C0
C0
C0
C0
C0
C0
C0
FC
FC
ENDCHAR
STARTCHAR uni005C
ENCODING 92
SWIDTH 462 0
DWIDTH 12 0
BBX 10 20 2 -2
BITMAP
C000
C000
C000
C000
3000
3000
3000
3000
0C00
0C00
0C00
0C00
0300
0300
0300
0300
00C0
00C0
00C0
00C0
ENDCHAR
STARTCHAR uni005D
ENCODING 93
SWIDTH 462 0
DWIDTH 12 0
BBX 6 22 4 -4
BITMAP
FC
FC
0C
0C
0C
0C
0C
0C
0C
0C
0C
0C
0C
0C
0C
0C
0C
0C
0C
0C
FC
FC
ENDCHAR
STARTCHAR uni005E
ENCODING 94
SWIDTH 462 0
DWIDTH 12 0
BBX 10 6 2 14
BITMAP
0C00
0C00
3300
3300
C0C0
C0C0
ENDCHAR
STARTCHAR uni005F
ENCODING 95
SWIDTH 462 0
DWIDTH 12 0
BBX 10 2 2 -2
BITMAP
FFC0
FFC0
ENDCHAR
STARTCHAR uni0060
ENCODING 96
SWIDTH 462 0
DWIDTH 12 0
BBX 4 4 4 14
BITMAP
C0
C0
30
30
ENDCHAR
STARTCHAR uni0061
ENCODING 97
SWIDTH 462 0
DWIDTH 12 0
BBX 10 12 2 0
BITMAP
3FC0
3FC0
C0C0
C0C0
C0C0
C0C0
C0C0
C0C0
C3C0
C3C0
3CC0
3CC0
ENDCHAR
STARTCHAR uni0062
ENCODING 98
SWIDTH 462 0
DWIDTH 12 0
BBX 10 18 2 0
BITMAP
C000
C000
C000
C000
C000
C000
FF00
FF00
C0C0
C0C0
C0C0
C0C0
C0C0
C0C0
C0C0
C0C0
FF00
FF00
ENDCHAR
STARTCHAR uni0063
ENCODING 99
SWIDTH 462 0
DWIDTH 12 0
BBX 10 12 2 0
BITMAP
3F00
3F00
C0C0
C0C0
C000
C000
C000
C000
C0C0
C0C0
3F00
3F00
ENDCHAR
STARTCHAR uni0064
ENCODING 100
SWIDTH 462 0
DWIDTH 12 0
BBX 10 18 2 0
BITMAP
00C0
00C0
00C0
00C0
00C0
00C0
3FC0
3FC0
C0C0
C0C0
C0C0
C0C0
C0C0
C0C0
C0C0
C0C0
3FC0
3FC0
ENDCHAR
STARTCHAR uni0065
ENCODING 101
SWIDTH 462 0
DWIDTH 12 0
BBX 10 12 2 0
BITMAP
3F00
3F00
C0C0
C0C0
FFC0
FFC0
C000
C000
C0C0
C0C0
3F00
3F00
ENDCHAR
STARTCHAR uni0066
ENCODING 102
SWIDTH 462 0
DWIDTH 12 0
BBX 10 18 2 0
BITMAP
0FC0
0FC0
3000
3000
3000
3000
FF00
FF00
3000
3000
3000
3000
3000
3000
3000
3000
3000
3000
ENDCHAR
STARTCHAR uni0067
ENCODING 103
SWIDTH 462 0
DWIDTH 12 0
BBX 10 18 2 -6
BITMAP
3FC0
3FC0
C0C0
C0C0
C0C0
C0C0
C0C0
C0C0
C0C0
C0C0
3FC0
3FC0
00C0
00C0
00C0
00C0
3F00
3F00
ENDCHAR
STARTCHAR uni0068
ENCODING 104
SWIDTH 462 0
DWIDTH 12 0
BBX 10 18 2 0
BITMAP
C000
C000
C000
C000
C000
C000
FF00
FF00
C0C0
C0C0
C0C0
C0C0
C0C0
C0C0
C0C0
C0C0
C0C0
C0C0
ENDCHAR
STARTCHAR uni0069
ENCODING 105
SWIDTH 462 0
DWIDTH 12 0
BBX 8 16 4 0
BITMAP
30
30
00
00
F0
F0
30
30
30
30
30
30
30
30
0F
0F
ENDCHAR
STARTCHAR uni006A
ENCODING 106
SWIDTH 462 0
DWIDTH 12 0
BBX 6 20 4 -4
BITMAP
0C
0C
00
00
3C
3C
0C
0C
0C
0C
0C
0C
0C
0C
0C
0C
CC
CC
30
30
ENDCHAR
STARTCHAR uni006B
ENCODING 107
SWIDTH 462 0
DWIDTH 12 0
BBX 10 18 2 0
BITMAP
C000
C000
C000
C000
C000
C000
C0C0
C0C0
C300
C300
CC00
CC00
FC00
FC00
C300
C300
C0C0
C0C0
ENDCHAR
STARTCHAR uni006C
ENCODING 108
SWIDTH 462 0
DWIDTH 12 0
BBX 6 18 4 0
BITMAP
F0
F0
30
30
30
30
30
30
30
30
30
30
30
30
30
30
3C
3C
ENDCHAR
STARTCHAR uni006D
ENCODING 109
SWIDTH 462 0
DWIDTH 12 0
BBX 10 12 2 0
BITMAP
F300
F300
CCC0
CCC0
CCC0
CCC0
CCC0
CCC0
CCC0
CCC0
CCC0
CCC0
ENDCHAR
STARTCHAR uni006E
ENCODING 110
SWIDTH 462 0
DWIDTH 12 0
BBX 10 12 2 0
BITMAP
FF00
FF00
C0C0
C0C0
C0C0
C0C0
C0C0
C0C0
C0C0
C0C0
C0C0
C0C0
ENDCHAR
STARTCHAR uni006F
ENCODING 111
SWIDTH 462 0
DWIDTH 12 0
BBX 10 12 2 0
BITMAP
3F00
3F00
C0C0
C0C0
C0C0
C0C0
C0C0
C0C0
C0C0
C0C0
3F00
3F00
ENDCHAR
STARTCHAR uni0070
ENCODING 112
SWIDTH 462 0
DWIDTH 12 0
BBX 10 18 2 -6
BITMAP
FF00
FF00
C0C0
C0C0
C0C0
C0C0
C0C0
C0C0
C0C0
C0C0
FF00
FF00
C000
C000
C000
C000
C000
C000
ENDCHAR
STARTCHAR uni0071
ENCODING 113
SWIDTH 462 0
DWIDTH 12 0
BBX 12 18 2 -6
BITMAP
3FC0
3FC0
C0C0
C0C0
C0C0
C0C0
C0C0
C0C0
C0C0
C0C0
3FC0
3FC0
00C0
00C0
00C0
00C0
00F0
00F0
ENDCHAR
STARTCHAR uni0072
ENCODING 114
SWIDTH 462 0
DWIDTH 12 0
BBX 10 12 2 0
BITMAP
FF00
FF00
C0C0
C0C0
C000
C000
C000
C000
C000
C000
C000
C000
ENDCHAR
STARTCHAR uni0073
ENCODING 115
SWIDTH 462 0
DWIDTH 12 0
BBX 10 12 2 0
BITMAP
3FC0
3FC0
C000
C000
3F00
3F00
00C0
00C0
00C0
00C0
FF00
FF00
ENDCHAR
STARTCHAR uni0074
ENCODING 116
SWIDTH 462 0
DWIDTH 12 0
BBX 10 16 2 0
BITMAP
3000
3000
3000
3000
FF00
FF00
3000
3000
3000
3000
3000
3000
3000
3000
0FC0
0FC0
ENDCHAR
STARTCHAR uni0075
ENCODING 117
SWIDTH 462 0
DWIDTH 12 0
BBX 10 12 2 0
BITMAP
C0C0
C0C0
C0C0
C0C0
C0C0
C0C0
C0C0
C0C0
C0C0
C0C0
3FC0
3FC0
ENDCHAR
STARTCHAR uni0076
ENCODING 118
SWIDTH 462 0
DWIDTH 12 0
BBX 10 12 2 0
BITMAP
C0C0
C0C0
C0C0
C0C0
3300
3300
3300
3300
0C00
0C00
0C00
0C00
ENDCHAR
STARTCHAR uni0077
ENCODING 119
SWIDTH 462 0
DWIDTH 12 0
BBX 10 12 2 0
BITMAP
C0C0
C0C0
C0C0
C0C0
CCC0
CCC0
CCC0
CCC0
3300
3300
3300
3300
ENDCHAR
STARTCHAR uni0078
ENCODING 120
SWIDTH 462 0
DWIDTH 12 0
BBX 10 12 2 0
BITMAP
C0C0
C0C0
3300
3300
0C00
0C00
0C00
0C00
3300
3300
C0C0
C0C0
ENDCHAR
STARTCHAR uni0079
ENCODING 121
SWIDTH 462 0
DWIDTH 12 0
BBX 10 18 2 -6
BITMAP
C0C0
C0C0
C0C0
C0C0
C0C0
C0C0
C0C0
C0C0
C0C0
C0C0
3FC0
3FC0
00C0
00C0
00C0
00C0
3F00
3F00
ENDCHAR
STARTCHAR uni007A
ENCODING 122
SWIDTH 462 0
DWIDTH 12 0
BBX 10 12 2 0
BITMAP
FFC0
FFC0
0300
0300
0C00
0C00
3000
3000
C000
C000
FFC0
FFC0
ENDCHAR
STARTCHAR uni007B
ENCODING 123
SWIDTH 462 0
DWIDTH 12 0
BBX 10 22 2 -4
BITMAP
03C0
03C0
0C00
0C00
0C00
0C00
0C00
0C00
0C00
0C00
F000
F000
0C00
0C00
0C00
0C00
0C00
0C00
0C00
0C00
03C0
03C0
ENDCHAR
STARTCHAR uni007C
ENCODING 124
SWIDTH 462 0
DWIDTH 12 0
BBX 2 22 6 -4
BITMAP
C0
C0
C0
C0
C0
C0
C0
C0
C0
C0
C0
C0
C0
C0
C0
C0
C0
C0
C0
C0
C0
C0
ENDCHAR
STARTCHAR uni007D
ENCODING 125
SWIDTH 462 0
DWIDTH 12 0
BBX 10 22 2 -4
BITMAP
F000
F000
0C00
0C00
0C00
0C00
0C00
0C00
0C00
0C00
03C0
03C0
0C00
0C00
0C00
0C00
0C00
0C00
0C00
0C00
F000
F000
ENDCHAR
STARTCHAR uni007E
ENCODING 126
SWIDTH 462 0
DWIDTH 12 0
BBX 10 6 2 4
BITMAP
30C0
30C0
CCC0
CCC0
C300
C300
ENDCHAR
STARTCHAR uni007F
ENCODING 127
SWIDTH 462 0
DWIDTH 12 0
BBX 2 2 0 0
BITMAP
00
00
ENDCHAR
STARTCHAR uni00A0
ENCODING 160
SWIDTH 462 0
DWIDTH 12 0
BBX 2 2 12 -2
BITMAP
00
00
ENDCHAR
STARTCHAR uni00A1
ENCODING 161
SWIDTH 462 0
DWIDTH 12 0
BBX 2 16 6 -4
BITMAP
C0
C0
00
00
C0
C0
C0
C0
C0
C0
C0
C0
C0
C0
C0
C0
ENDCHAR
STARTCHAR uni00A2
ENCODING 162
SWIDTH 462 0
DWIDTH 12 0
BBX 10 16 2 -2
BITMAP
0C00
0C00
3F00
3F00
CCC0
CCC0
CC00
CC00
CC00
CC00
CCC0
CCC0
3F00
3F00
0C00
0C00
ENDCHAR
STARTCHAR uni00A3
ENCODING 163
SWIDTH 462 0
DWIDTH 12 0
BBX 10 16 2 0
BITMAP
0F00
0F00
3000
3000
3000
3000
FF00
FF00
3000
3000
3000
3000
3000
3000
CFC0
CFC0
ENDCHAR
STARTCHAR uni00A4
ENCODING 164
SWIDTH 462 0
DWIDTH 12 0
BBX 10 12 2 0
BITMAP
C0C0
C0C0
3F00
3F00
3300
3300
3300
3300
3F00
3F00
C0C0
C0C0
ENDCHAR
STARTCHAR uni00A5
ENCODING 165
SWIDTH 462 0
DWIDTH 12 0
BBX 10 18 2 0
BITMAP
C0C0
C0C0
C0C0
C0C0
C0C0
C0C0
3300
3300
0C00
0C00
FFC0
FFC0
0C00
0C00
FFC0
FFC0
0C00
0C00
ENDCHAR
STARTCHAR uni00A6
ENCODING 166
SWIDTH 462 0
DWIDTH 12 0
BBX 2 22 6 -4
BITMAP
C0
C0
C0
C0
C0
C0
C0
C0
00
00
00
00
00
00
C0
C0
C0
C0
C0
C0
C0
C0
ENDCHAR
STARTCHAR uni00A7
ENCODING 167
SWIDTH 462 0
DWIDTH 12 0
BBX 10 20 2 -2
BITMAP
3F00
3F00
C0C0
C0C0
C000
C000
3C00
3C00
3300
3300
3300
3300
0F00
0F00
00C0
00C0
C0C0
C0C0
3F00
3F00
ENDCHAR
STARTCHAR uni00A8
ENCODING 168
SWIDTH 462 0
DWIDTH 12 0
BBX 6 2 4 16
BITMAP
CC
CC
ENDCHAR
STARTCHAR uni00A9
ENCODING 169
SWIDTH 462 0
DWIDTH 12 0
BBX 14 14 0 0
BITMAP
0FC0
0FC0
3030
3030
CFCC
CFCC
CC0C
CC0C
CFCC
CFCC
3030
3030
0FC0
0FC0
ENDCHAR
STARTCHAR uni00AA
ENCODING 170
SWIDTH 462 0
DWIDTH 12 0
BBX 8 10 4 6
BITMAP
3C
3C
03
03
3F
3F
C3
C3
3F
3F
ENDCHAR
STARTCHAR uni00AB
ENCODING 171
SWIDTH 462 0
DWIDTH 12 0
BBX 10 10 2 2
BITMAP
0CC0
0CC0
3300
3300
CC00
CC00
3300
3300
0CC0
0CC0
ENDCHAR
STARTCHAR uni00AC
ENCODING 172
SWIDTH 462 0
DWIDTH 12 0
BBX 8 8 2 0
BITMAP
FF
FF
03
03
03
03
03
03
ENDCHAR
STARTCHAR uni00AD
ENCODING 173
SWIDTH 462 0
DWIDTH 12 0
BBX 6 2 4 6
BITMAP
FC
FC
ENDCHAR
STARTCHAR uni00AE
ENCODING 174
SWIDTH 462 0
DWIDTH 12 0
BBX 14 14 0 0
BITMAP
0FC0
0FC0
3030
3030
CFCC
CFCC
CC0C
CC0C
CC0C
CC0C
3030
3030
0FC0
0FC0
ENDCHAR
STARTCHAR uni00AF
ENCODING 175
SWIDTH 462 0
DWIDTH 12 0
BBX 14 2 0 18
BITMAP
FFFC
FFFC
ENDCHAR
STARTCHAR uni00B0
ENCODING 176
SWIDTH 462 0
DWIDTH 12 0
BBX 8 8 2 8
BITMAP
3C
3C
C3
C3
C3
C3
3C
3C
ENDCHAR
STARTCHAR uni00B1
ENCODING 177
SWIDTH 462 0
DWIDTH 12 0
BBX 10 14 2 0
BITMAP
0C00
0C00
0C00
0C00
FFC0
FFC0
0C00
0C00
0C00
0C00
0000
0000
FFC0
FFC0
ENDCHAR
STARTCHAR uni00B2
ENCODING 178
SWIDTH 462 0
DWIDTH 12 0
BBX 8 10 2 8
BITMAP
3C
3C
C3
C3
0C
0C
30
30
FF
FF
ENDCHAR
STARTCHAR uni00B3
ENCODING 179
SWIDTH 462 0
DWIDTH 12 0
BBX 8 10 2 8
BITMAP
FC
FC
03
03
3C
3C
03
03
FC
FC
ENDCHAR
STARTCHAR uni00B4
ENCODING 180
SWIDTH 462 0
DWIDTH 12 0
BBX 4 4 6 14
BITMAP
30
30
C0
C0
ENDCHAR
STARTCHAR uni00B5
ENCODING 181
SWIDTH 462 0
DWIDTH 12 0
BBX 10 16 2 -4
BITMAP
30C0
30C0
30C0
30C0
30C0
30C0
30C0
30C0
3CC0
3CC0
3300
3300
3000
3000
C000
C000
ENDCHAR
STARTCHAR uni00B6
ENCODING 182
SWIDTH 462 0
DWIDTH 12 0
BBX 10 18 2 -2
BITMAP
3FC0
3FC0
FCC0
FCC0
FCC0
FCC0
3CC0
3CC0
0CC0
0CC0
0CC0
0CC0
0CC0
0CC0
0CC0
0CC0
0CC0
0CC0
ENDCHAR
STARTCHAR uni00B7
ENCODING 183
SWIDTH 462 0
DWIDTH 12 0
BBX 6 6 4 4
BITMAP
30
30
FC
FC
30
30
ENDCHAR
STARTCHAR uni00B8
ENCODING 184
SWIDTH 462 0
DWIDTH 12 0
BBX 6 6 4 -4
BITMAP
30
30
0C
0C
F0
F0
ENDCHAR
STARTCHAR uni00B9
ENCODING 185
SWIDTH 462 0
DWIDTH 12 0
BBX 6 10 2 8
BITMAP
30
30
F0
F0
30
30
30
30
FC
FC
ENDCHAR
STARTCHAR uni00BA
ENCODING 186
SWIDTH 462 0
DWIDTH 12 0
BBX 6 10 6 6
BITMAP
30
30
CC
CC
30
30
00
00
FC
FC
ENDCHAR
STARTCHAR uni00BB
ENCODING 187
SWIDTH 462 0
DWIDTH 12 0
BBX 10 10 2 2
BITMAP
CC00
CC00
3300
3300
0CC0
0CC0
3300
3300
CC00
CC00
ENDCHAR
STARTCHAR uni00BC
ENCODING 188
SWIDTH 462 0
DWIDTH 12 0
BBX 10 18 2 0
BITMAP
C0C0
C0C0
C300
C300
C300
C300
CC00
CC00
0C00
0C00
30C0
30C0
33C0
33C0
CFC0
CFC0
C0C0
C0C0
ENDCHAR
STARTCHAR uni00BD
ENCODING 189
SWIDTH 462 0
DWIDTH 12 0
BBX 10 18 2 0
BITMAP
C0C0
C0C0
C300
C300
C300
C300
CC00
CC00
0C00
0C00
3300
3300
30C0
30C0
C300
C300
C3C0
C3C0
ENDCHAR
STARTCHAR uni00BE
ENCODING 190
SWIDTH 462 0
DWIDTH 12 0
BBX 10 18 2 0
BITMAP
F0C0
F0C0
3300
3300
C300
C300
3C00
3C00
FC00
FC00
30C0
30C0
33C0
33C0
CFC0
CFC0
C0C0
C0C0
ENDCHAR
STARTCHAR uni00BF
ENCODING 191
SWIDTH 462 0
DWIDTH 12 0
BBX 10 16 2 -4
BITMAP
0C00
0C00
0000
0000
0C00
0C00
0C00
0C00
3000
3000
C000
C000
C0C0
C0C0
3F00
3F00
ENDCHAR
STARTCHAR uni00C0
ENCODING 192
SWIDTH 462 0
DWIDTH 12 0
BBX 10 20 2 0
BITMAP
3000
3000
0C00
0C00
0000
0000
3F00
3F00
C0C0
C0C0
C0C0
C0C0
FFC0
FFC0
C0C0
C0C0
C0C0
C0C0
C0C0
C0C0
ENDCHAR
STARTCHAR uni00C1
ENCODING 193
SWIDTH 462 0
DWIDTH 12 0
BBX 10 20 2 0
BITMAP
0300
0300
0C00
0C00
0000
0000
3F00
3F00
C0C0
C0C0
C0C0
C0C0
FFC0
FFC0
C0C0
C0C0
C0C0
C0C0
C0C0
C0C0
ENDCHAR
STARTCHAR uni00C2
ENCODING 194
SWIDTH 462 0
DWIDTH 12 0
BBX 10 20 2 0
BITMAP
0C00
0C00
3300
3300
0000
0000
3F00
3F00
C0C0
C0C0
C0C0
C0C0
FFC0
FFC0
C0C0
C0C0
C0C0
C0C0
C0C0
C0C0
ENDCHAR
STARTCHAR uni00C3
ENCODING 195
SWIDTH 462 0
DWIDTH 12 0
BBX 10 20 2 0
BITMAP
3CC0
3CC0
CF00
CF00
0000
0000
3F00
3F00
C0C0
C0C0
C0C0
C0C0
FFC0
FFC0
C0C0
C0C0
C0C0
C0C0
C0C0
C0C0
ENDCHAR
STARTCHAR uni00C4
ENCODING 196
SWIDTH 462 0
DWIDTH 12 0
BBX 10 20 2 0
BITMAP
3300
3300
0000
0000
3F00
3F00
C0C0
C0C0
C0C0
C0C0
C0C0
C0C0
FFC0
FFC0
C0C0
C0C0
C0C0
C0C0
C0C0
C0C0
ENDCHAR
STARTCHAR uni00C5
ENCODING 197
SWIDTH 462 0
DWIDTH 12 0
BBX 10 20 2 0
BITMAP
0C00
0C00
3300
3300
0C00
0C00
0000
0000
3F00
3F00
C0C0
C0C0
C0C0
C0C0
FFC0
FFC0
C0C0
C0C0
C0C0
C0C0
ENDCHAR
STARTCHAR uni00C6
ENCODING 198
SWIDTH 462 0
DWIDTH 12 0
BBX 10 16 2 0
BITMAP
3FC0
3FC0
CC00
CC00
CC00
CC00
CFC0
CFC0
FC00
FC00
CC00
CC00
CC00
CC00
CFC0
CFC0
ENDCHAR
STARTCHAR uni00C7
ENCODING 199
SWIDTH 462 0
DWIDTH 12 0
BBX 10 22 2 -6
BITMAP
3F00
3F00
C0C0
C0C0
C000
C000
C000
C000
C000
C000
C000
C000
C0C0
C0C0
3F00
3F00
0C00
0C00
0C00
0C00
3000
3000
ENDCHAR
STARTCHAR uni00C8
ENCODING 200
SWIDTH 462 0
DWIDTH 12 0
BBX 10 20 2 0
BITMAP
3000
3000
0C00
0C00
0000
0000
FFC0
FFC0
C000
C000
C000
C000
FF00
FF00
C000
C000
C000
C000
FFC0
FFC0
ENDCHAR
STARTCHAR uni00C9
ENCODING 201
SWIDTH 462 0
DWIDTH 12 0
BBX 10 20 2 0
BITMAP
0300
0300
0C00
0C00
0000
0000
FFC0
FFC0
C000
C000
C000
C000
FF00
FF00
C000
C000
C000
C000
FFC0
FFC0
ENDCHAR
STARTCHAR uni00CA
ENCODING 202
SWIDTH 462 0
DWIDTH 12 0
BBX 10 20 2 0
BITMAP
0C00
0C00
3300
3300
0000
0000
FFC0
FFC0
C000
C000
C000
C000
FF00
FF00
C000
C000
C000
C000
FFC0
FFC0
ENDCHAR
STARTCHAR uni00CB
ENCODING 203
SWIDTH 462 0
DWIDTH 12 0
BBX 10 20 2 0
BITMAP
3300
3300
0000
0000
FFC0
FFC0
C000
C000
C000
C000
FF00
FF00
C000
C000
C000
C000
C000
C000
FFC0
FFC0
ENDCHAR
STARTCHAR uni00CC
ENCODING 204
SWIDTH 462 0
DWIDTH 12 0
BBX 6 20 4 0
BITMAP
C0
C0
30
30
00
00
FC
FC
30
30
30
30
30
30
30
30
30
30
FC
FC
ENDCHAR
STARTCHAR uni00CD
ENCODING 205
SWIDTH 462 0
DWIDTH 12 0
BBX 6 20 4 0
BITMAP
0C
0C
30
30
00
00
FC
FC
30
30
30
30
30
30
30
30
30
30
FC
FC
ENDCHAR
STARTCHAR uni00CE
ENCODING 206
SWIDTH 462 0
DWIDTH 12 0
BBX 6 20 4 0
BITMAP
30
30
CC
CC
00
00
FC
FC
30
30
30
30
30
30
30
30
30
30
FC
FC
ENDCHAR
STARTCHAR uni00CF
ENCODING 207
SWIDTH 462 0
DWIDTH 12 0
BBX 6 20 4 0
BITMAP
CC
CC
00
00
FC
FC
30
30
30
30
30
30
30
30
30
30
30
30
FC
FC
ENDCHAR
STARTCHAR uni00D0
ENCODING 208
SWIDTH 462 0
DWIDTH 12 0
BBX 10 14 2 0
BITMAP
3F00
3F00
30C0
30C0
30C0
30C0
FCC0
FCC0
30C0
30C0
30C0
30C0
3F00
3F00
ENDCHAR
STARTCHAR uni00D1
ENCODING 209
SWIDTH 462 0
DWIDTH 12 0
BBX 10 20 2 0
BITMAP
3CC0
3CC0
CF00
CF00
0000
0000
C0C0
C0C0
F0C0
F0C0
F0C0
F0C0
CCC0
CCC0
C3C0
C3C0
C3C0
C3C0
C0C0
C0C0
ENDCHAR
STARTCHAR uni00D2
ENCODING 210
SWIDTH 462 0
DWIDTH 12 0
BBX 10 20 2 0
BITMAP
3000
3000
0C00
0C00
0000
0000
3F00
3F00
C0C0
C0C0
C0C0
C0C0
C0C0
C0C0
C0C0
C0C0
C0C0
C0C0
3F00
3F00
ENDCHAR
STARTCHAR uni00D3
ENCODING 211
SWIDTH 462 0
DWIDTH 12 0
BBX 10 20 2 0
BITMAP
0300
0300
0C00
0C00
0000
0000
3F00
3F00
C0C0
C0C0
C0C0
C0C0
C0C0
C0C0
C0C0
C0C0
C0C0
C0C0
3F00
3F00
ENDCHAR
STARTCHAR uni00D4
ENCODING 212
SWIDTH 462 0
DWIDTH 12 0
BBX 10 20 2 0
BITMAP
0C00
0C00
3300
3300
0000
0000
3F00
3F00
C0C0
C0C0
C0C0
C0C0
C0C0
C0C0
C0C0
C0C0
C0C0
C0C0
3F00
3F00
ENDCHAR
STARTCHAR uni00D5
ENCODING 213
SWIDTH 462 0
DWIDTH 12 0
BBX 10 20 2 0
BITMAP
3CC0
3CC0
CF00
CF00
0000
0000
3F00
3F00
C0C0
C0C0
C0C0
C0C0
C0C0
C0C0
C0C0
C0C0
C0C0
C0C0
3F00
3F00
ENDCHAR
STARTCHAR uni00D6
ENCODING 214
SWIDTH 462 0
DWIDTH 12 0
BBX 10 20 2 0
BITMAP
3300
3300
0000
0000
3F00
3F00
C0C0
C0C0
C0C0
C0C0
C0C0
C0C0
C0C0
C0C0
C0C0
C0C0
C0C0
C0C0
3F00
3F00
ENDCHAR
STARTCHAR uni00D7
ENCODING 215
SWIDTH 462 0
DWIDTH 12 0
BBX 10 10 2 2
BITMAP
C0C0
C0C0
3300
3300
0C00
0C00
3300
3300
C0C0
C0C0
ENDCHAR
STARTCHAR uni00D8
ENCODING 216
SWIDTH 462 0
DWIDTH 12 0
BBX 10 20 2 -2
BITMAP
00C0
00C0
3F00
3F00
C3C0
C3C0
C3C0
C3C0
CCC0
CCC0
CCC0
CCC0
F0C0
F0C0
F0C0
F0C0
3F00
3F00
C000
C000
ENDCHAR
STARTCHAR uni00D9
ENCODING 217
SWIDTH 462 0
DWIDTH 12 0
BBX 10 20 2 0
BITMAP
3000
3000
0C00
0C00
0000
0000
C0C0
C0C0
C0C0
C0C0
C0C0
C0C0
C0C0
C0C0
C0C0
C0C0
C0C0
C0C0
3F00
3F00
ENDCHAR
STARTCHAR uni00DA
ENCODING 218
SWIDTH 462 0
DWIDTH 12 0
BBX 10 20 2 0
BITMAP
0300
0300
0C00
0C00
0000
0000
C0C0
C0C0
C0C0
C0C0
C0C0
C0C0
C0C0
C0C0
C0C0
C0C0
C0C0
C0C0
3F00
3F00
ENDCHAR
STARTCHAR uni00DB
ENCODING 219
SWIDTH 462 0
DWIDTH 12 0
BBX 10 20 2 0
BITMAP
0C00
0C00
3300
3300
0000
0000
C0C0
C0C0
C0C0
C0C0
C0C0
C0C0
C0C0
C0C0
C0C0
C0C0
C0C0
C0C0
3F00
3F00
ENDCHAR
STARTCHAR uni00DC
ENCODING 220
SWIDTH 462 0
DWIDTH 12 0
BBX 10 20 2 0
BITMAP
3300
3300
0000
0000
C0C0
C0C0
C0C0
C0C0
C0C0
C0C0
C0C0
C0C0
C0C0
C0C0
C0C0
C0C0
C0C0
C0C0
3F00
3F00
ENDCHAR
STARTCHAR uni00DD
ENCODING 221
SWIDTH 462 0
DWIDTH 12 0
BBX 10 20 2 0
BITMAP
0300
0300
0C00
0C00
0000
0000
C0C0
C0C0
C0C0
C0C0
C0C0
C0C0
3300
3300
0C00
0C00
0C00
0C00
0C00
0C00
ENDCHAR
STARTCHAR uni00DE
ENCODING 222
SWIDTH 462 0
DWIDTH 12 0
BBX 10 16 2 0
BITMAP
C000
C000
C000
C000
FF00
FF00
C0C0
C0C0
C0C0
C0C0
FF00
FF00
C000
C000
C000
C000
ENDCHAR
STARTCHAR uni00DF
ENCODING 223
SWIDTH 462 0
DWIDTH 12 0
BBX 10 16 2 0
BITMAP
3C00
3C00
C300
C300
C300
C300
CC00
CC00
C300
C300
C0C0
C0C0
C0C0
C0C0
CF00
CF00
ENDCHAR
STARTCHAR uni00E0
ENCODING 224
SWIDTH 462 0
DWIDTH 12 0
BBX 10 18 2 0
BITMAP
3000
3000
0C00
0C00
0000
0000
3FC0
3FC0
C0C0
C0C0
C0C0
C0C0
C0C0
C0C0
C3C0
C3C0
3CC0
3CC0
ENDCHAR
STARTCHAR uni00E1
ENCODING 225
SWIDTH 462 0
DWIDTH 12 0
BBX 10 18 2 0
BITMAP
0300
0300
0C00
0C00
0000
0000
3FC0
3FC0
C0C0
C0C0
C0C0
C0C0
C0C0
C0C0
C3C0
C3C0
3CC0
3CC0
ENDCHAR
STARTCHAR uni00E2
ENCODING 226
SWIDTH 462 0
DWIDTH 12 0
BBX 10 18 2 0
BITMAP
0C00
0C00
3300
3300
0000
0000
3FC0
3FC0
C0C0
C0C0
C0C0
C0C0
C0C0
C0C0
C3C0
C3C0
3CC0
3CC0
ENDCHAR
STARTCHAR uni00E3
ENCODING 227
SWIDTH 462 0
DWIDTH 12 0
BBX 10 18 2 0
BITMAP
3CC0
3CC0
CF00
CF00
0000
0000
3FC0
3FC0
C0C0
C0C0
C0C0
C0C0
C0C0
C0C0
C3C0
C3C0
3CC0
3CC0
ENDCHAR
STARTCHAR uni00E4
ENCODING 228
SWIDTH 462 0
DWIDTH 12 0
BBX 10 16 2 0
BITMAP
3300
3300
0000
0000
3FC0
3FC0
C0C0
C0C0
C0C0
C0C0
C0C0
C0C0
C3C0
C3C0
3CC0
3CC0
ENDCHAR
STARTCHAR uni00E5
ENCODING 229
SWIDTH 462 0
DWIDTH 12 0
BBX 10 20 2 0
BITMAP
0C00
0C00
3300
3300
0C00
0C00
0000
0000
3FC0
3FC0
C0C0
C0C0
C0C0
C0C0
C0C0
C0C0
C3C0
C3C0
3CC0
3CC0
ENDCHAR
STARTCHAR uni00E6
ENCODING 230
SWIDTH 462 0
DWIDTH 12 0
BBX 10 12 2 0
BITMAP
3F00
3F00
CCC0
CCC0
CFC0
CFC0
CC00
CC00
CCC0
CCC0
3300
3300
ENDCHAR
STARTCHAR uni00E7
ENCODING 231
SWIDTH 462 0
DWIDTH 12 0
BBX 10 18 2 -6
BITMAP
3F00
3F00
C0C0
C0C0
C000
C000
C000
C000
C0C0
C0C0
3F00
3F00
0C00
0C00
0300
0300
3C00
3C00
ENDCHAR
STARTCHAR uni00E8
ENCODING 232
SWIDTH 462 0
DWIDTH 12 0
BBX 10 18 2 0
BITMAP
3000
3000
0C00
0C00
0000
0000
3F00
3F00
C0C0
C0C0
FFC0
FFC0
C000
C000
C0C0
C0C0
3F00
3F00
ENDCHAR
STARTCHAR uni00E9
ENCODING 233
SWIDTH 462 0
DWIDTH 12 0
BBX 10 18 2 0
BITMAP
0300
0300
0C00
0C00
0000
0000
3F00
3F00
C0C0
C0C0
FFC0
FFC0
C000
C000
C0C0
C0C0
3F00
3F00
ENDCHAR
STARTCHAR uni00EA
ENCODING 234
SWIDTH 462 0
DWIDTH 12 0
BBX 10 18 2 0
BITMAP
0C00
0C00
3300
3300
0000
0000
3F00
3F00
C0C0
C0C0
FFC0
FFC0
C000
C000
C0C0
C0C0
3F00
3F00
ENDCHAR
STARTCHAR uni00EB
ENCODING 235
SWIDTH 462 0
DWIDTH 12 0
BBX 10 16 2 0
BITMAP
3300
3300
0000
0000
3F00
3F00
C0C0
C0C0
FFC0
FFC0
C000
C000
C0C0
C0C0
3F00
3F00
ENDCHAR
STARTCHAR uni00EC
ENCODING 236
SWIDTH 462 0
DWIDTH 12 0
BBX 8 18 4 0
BITMAP
C0
C0
30
30
00
00
F0
F0
30
30
30
30
30
30
30
30
0F
0F
ENDCHAR
STARTCHAR uni00ED
ENCODING 237
SWIDTH 462 0
DWIDTH 12 0
BBX 8 18 4 0
BITMAP
0C
0C
30
30
00
00
F0
F0
30
30
30
30
30
30
30
30
0F
0F
ENDCHAR
STARTCHAR uni00EE
ENCODING 238
SWIDTH 462 0
DWIDTH 12 0
BBX 8 18 4 0
BITMAP
30
30
CC
CC
00
00
F0
F0
30
30
30
30
30
30
30
30
0F
0F
ENDCHAR
STARTCHAR uni00EF
ENCODING 239
SWIDTH 462 0
DWIDTH 12 0
BBX 8 16 4 0
BITMAP
CC
CC
00
00
F0
F0
30
30
30
30
30
30
30
30
0F
0F
ENDCHAR
STARTCHAR uni00F0
ENCODING 240
SWIDTH 462 0
DWIDTH 12 0
BBX 10 18 2 0
BITMAP
3CC0
3CC0
0300
0300
0CC0
0CC0
00C0
00C0
3FC0
3FC0
C0C0
C0C0
C0C0
C0C0
C0C0
C0C0
3F00
3F00
ENDCHAR
STARTCHAR uni00F1
ENCODING 241
SWIDTH 462 0
DWIDTH 12 0
BBX 10 18 2 0
BITMAP
3CC0
3CC0
CF00
CF00
0000
0000
FF00
FF00
C0C0
C0C0
C0C0
C0C0
C0C0
C0C0
C0C0
C0C0
C0C0
C0C0
ENDCHAR
STARTCHAR uni00F2
ENCODING 242
SWIDTH 462 0
DWIDTH 12 0
BBX 10 18 2 0
BITMAP
3000
3000
0C00
0C00
0000
0000
3F00
3F00
C0C0
C0C0
C0C0
C0C0
C0C0
C0C0
C0C0
C0C0
3F00
3F00
ENDCHAR
STARTCHAR uni00F3
ENCODING 243
SWIDTH 462 0
DWIDTH 12 0
BBX 10 18 2 0
BITMAP
0300
0300
0C00
0C00
0000
0000
3F00
3F00
C0C0
C0C0
C0C0
C0C0
C0C0
C0C0
C0C0
C0C0
3F00
3F00
ENDCHAR
STARTCHAR uni00F4
ENCODING 244
SWIDTH 462 0
DWIDTH 12 0
BBX 10 18 2 0
BITMAP
0C00
0C00
3300
3300
0000
0000
3F00
3F00
C0C0
C0C0
C0C0
C0C0
C0C0
C0C0
C0C0
C0C0
3F00
3F00
ENDCHAR
STARTCHAR uni00F5
ENCODING 245
SWIDTH 462 0
DWIDTH 12 0
BBX 10 18 2 0
BITMAP
3CC0
3CC0
CF00
CF00
0000
0000
3F00
3F00
C0C0
C0C0
C0C0
C0C0
C0C0
C0C0
C0C0
C0C0
3F00
3F00
ENDCHAR
STARTCHAR uni00F6
ENCODING 246
SWIDTH 462 0
DWIDTH 12 0
BBX 10 16 2 0
BITMAP
3300
3300
0000
0000
3F00
3F00
C0C0
C0C0
C0C0
C0C0
C0C0
C0C0
C0C0
C0C0
3F00
3F00
ENDCHAR
STARTCHAR uni00F7
ENCODING 247
SWIDTH 462 0
DWIDTH 12 0
BBX 10 10 2 2
BITMAP
0C00
0C00
0000
0000
FFC0
FFC0
0000
0000
0C00
0C00
ENDCHAR
STARTCHAR uni00F8
ENCODING 248
SWIDTH 462 0
DWIDTH 12 0
BBX 10 16 2 -2
BITMAP
00C0
00C0
3F00
3F00
C3C0
C3C0
CCC0
CCC0
CCC0
CCC0
F0C0
F0C0
3F00
3F00
C000
C000
ENDCHAR
STARTCHAR uni00F9
ENCODING 249
SWIDTH 462 0
DWIDTH 12 0
BBX 10 18 2 0
BITMAP
3000
3000
0C00
0C00
0000
0000
C0C0
C0C0
C0C0
C0C0
C0C0
C0C0
C0C0
C0C0
C0C0
C0C0
3FC0
3FC0
ENDCHAR
STARTCHAR uni00FA
ENCODING 250
SWIDTH 462 0
DWIDTH 12 0
BBX 10 18 2 0
BITMAP
0300
0300
0C00
0C00
0000
0000
C0C0
C0C0
C0C0
C0C0
C0C0
C0C0
C0C0
C0C0
C0C0
C0C0
3FC0
3FC0
ENDCHAR
STARTCHAR uni00FB
ENCODING 251
SWIDTH 462 0
DWIDTH 12 0
BBX 10 18 2 0
BITMAP
0C00
0C00
3300
3300
0000
0000
C0C0
C0C0
C0C0
C0C0
C0C0
C0C0
C0C0
C0C0
C0C0
C0C0
3FC0
3FC0
ENDCHAR
STARTCHAR uni00FC
ENCODING 252
SWIDTH 462 0
DWIDTH 12 0
BBX 10 16 2 0
BITMAP
3300
3300
0000
0000
C0C0
C0C0
C0C0
C0C0
C0C0
C0C0
C0C0
C0C0
C0C0
C0C0
3FC0
3FC0
ENDCHAR
STARTCHAR uni00FD
ENCODING 253
SWIDTH 462 0
DWIDTH 12 0
BBX 10 24 2 -6
BITMAP
0300
0300
0C00
0C00
0000
0000
C0C0
C0C0
C0C0
C0C0
C0C0
C0C0
C0C0
C0C0
C0C0
C0C0
3FC0
3FC0
00C0
00C0
00C0
00C0
3F00
3F00
ENDCHAR
STARTCHAR uni00FE
ENCODING 254
SWIDTH 462 0
DWIDTH 12 0
BBX 10 20 2 -4
BITMAP
C000
C000
C000
C000
FF00
FF00
C0C0
C0C0
C0C0
C0C0
C0C0
C0C0
C0C0
C0C0
FF00
FF00
C000
C000
C000
C000
ENDCHAR
STARTCHAR uni00FF
ENCODING 255
SWIDTH 462 0
DWIDTH 12 0
BBX 10 22 2 -6
BITMAP
3300
3300
0000
0000
C0C0
C0C0
C0C0
C0C0
C0C0
C0C0
C0C0
C0C0
C0C0
C0C0
3FC0
3FC0
00C0
00C0
00C0
00C0
3F00
3F00
ENDCHAR
STARTCHAR uni2026
ENCODING 8230
SWIDTH 462 0
DWIDTH 12 0
BBX 10 2 2 0
BITMAP
CCC0
CCC0
ENDCHAR
ENDFONT
