STARTFONT 2.1
FONT -pebble-cozette-medium-r-normal--13-130-75-75-M-0-iso10646-1
SIZE 13 75 75
FONTBOUNDINGBOX 7 13 0 -3
COMMENT "Cozette v.1.30.0 by Ines"
COMMENT "MIT License"
STARTPROPERTIES 8
FAMILY_NAME "Cozette"
WEIGHT_NAME "Medium"
SLANT "R"
PIXEL_SIZE 13
FONT_ASCENT 10
FONT_DESCENT 3
SPACING "M"
CHARSET_REGISTRY "ISO10646"
ENDPROPERTIES
CHARS 193
STARTCHAR uni0020
ENCODING 32
SWIDTH 462 0
DWIDTH 6 0
BBX 1 1 6 -1
BITMAP
00
ENDCHAR
STARTCHAR uni0021
ENCODING 33
SWIDTH 462 0
DWIDTH 6 0
BBX 1 8 3 0
BITMAP
80
80
80
80
80
80
00
80
ENDCHAR
STARTCHAR uni0022
ENCODING 34
SWIDTH 462 0
DWIDTH 6 0
BBX 3 3 2 6
BITMAP
A0
A0
A0
ENDCHAR
STARTCHAR uni0023
ENCODING 35
SWIDTH 462 0
DWIDTH 6 0
BBX 5 8 1 0
BITMAP
50
50
F8
50
50
F8
50
50
ENDCHAR
STARTCHAR uni0024
ENCODING 36
SWIDTH 462 0
DWIDTH 6 0
BBX 5 10 1 -1
BITMAP
20
70
A8
A0
70
28
28
A8
70
20
ENDCHAR
STARTCHAR uni0025
ENCODING 37
SWIDTH 462 0
DWIDTH 6 0
BBX 5 9 1 0
BITMAP
40
A0
48
10
20
40
90
28
10
ENDCHAR
STARTCHAR uni0026
ENCODING 38
SWIDTH 462 0
DWIDTH 6 0
BBX 5 9 1 0
BITMAP
20
50
50
20
68
90
90
90
68
ENDCHAR
STARTCHAR uni0027
ENCODING 39
SWIDTH 462 0
DWIDTH 6 0
BBX 1 3 3 6
BITMAP
80
80
80
ENDCHAR
STARTCHAR uni0028
ENCODING 40
SWIDTH 462 0
DWIDTH 6 0
BBX 3 11 2 -2
BITMAP
20
40
40
80
80
80
80
80
40
40
20
ENDCHAR
STARTCHAR uni0029
ENCODING 41
SWIDTH 462 0
DWIDTH 6 0
BBX 3 11 2 -2
BITMAP
80
40
40
20
20
20
20
20
40
40
80
ENDCHAR
STARTCHAR uni002A
ENCODING 42
SWIDTH 462 0
DWIDTH 6 0
BBX 5 5 1 1
BITMAP
50
20
F8
20
50
ENDCHAR
STARTCHAR uni002B
ENCODING 43
SWIDTH 462 0
DWIDTH 6 0
BBX 5 5 1 1
BITMAP
20
20
F8
20
20
ENDCHAR
STARTCHAR uni002C
ENCODING 44
SWIDTH 462 0
DWIDTH 6 0
BBX 2 4 2 -2
BITMAP
C0
C0
40
80
ENDCHAR
STARTCHAR uni002D
ENCODING 45
SWIDTH 462 0
DWIDTH 6 0
BBX 5 1 1 3
BITMAP
F8
ENDCHAR
STARTCHAR uni002E
ENCODING 46
SWIDTH 462 0
DWIDTH 6 0
BBX 2 2 2 0
BITMAP
C0
C0
ENDCHAR
STARTCHAR uni002F
ENCODING 47
SWIDTH 462 0
DWIDTH 6 0
BBX 5 10 1 -1
BITMAP
08
08
10
10
20
20
40
40
80
80
ENDCHAR
STARTCHAR uni0030
ENCODING 48
SWIDTH 462 0
DWIDTH 6 0
BBX 5 8 1 0
BITMAP
70
88
88
A8
A8
88
88
70
ENDCHAR
STARTCHAR uni0031
ENCODING 49
SWIDTH 462 0
DWIDTH 6 0
BBX 5 8 1 0
BITMAP
20
60
A0
20
20
20
20
F8
ENDCHAR
STARTCHAR uni0032
ENCODING 50
SWIDTH 462 0
DWIDTH 6 0
BBX 5 8 1 0
BITMAP
70
88
08
10
20
40
80
F8
ENDCHAR
STARTCHAR uni0033
ENCODING 51
SWIDTH 462 0
DWIDTH 6 0
BBX 5 8 1 0
BITMAP
70
88
08
30
08
08
88
70
ENDCHAR
STARTCHAR uni0034
ENCODING 52
SWIDTH 462 0
DWIDTH 6 0
BBX 6 8 1 0
BITMAP
08
18
28
48
88
FC
08
08
ENDCHAR
STARTCHAR uni0035
ENCODING 53
SWIDTH 462 0
DWIDTH 6 0
BBX 5 8 1 0
BITMAP
F8
80
80
F0
08
08
88
70
ENDCHAR
STARTCHAR uni0036
ENCODING 54
SWIDTH 462 0
DWIDTH 6 0
BBX 5 8 1 0
BITMAP
30
40
80
F0
88
88
88
70
ENDCHAR
STARTCHAR uni0037
ENCODING 55
SWIDTH 462 0
DWIDTH 6 0
BBX 5 8 1 0
BITMAP
F8
08
10
10
20
20
40
40
ENDCHAR
STARTCHAR uni0038
ENCODING 56
SWIDTH 462 0
DWIDTH 6 0
BBX 5 8 1 0
BITMAP
70
88
88
70
88
88
88
70
ENDCHAR
STARTCHAR uni0039
ENCODING 57
SWIDTH 462 0
DWIDTH 6 0
BBX 5 8 1 0
BITMAP
70
88
88
88
78
08
10
60
ENDCHAR
STARTCHAR uni003A
ENCODING 58
SWIDTH 462 0
DWIDTH 6 0
BBX 2 6 2 0
BITMAP
C0
C0
00
00
C0
C0
ENDCHAR
STARTCHAR uni003B
ENCODING 59
SWIDTH 462 0
DWIDTH 6 0
BBX 2 8 2 -2
BITMAP
C0
C0
00
00
C0
C0
40
80
ENDCHAR
STARTCHAR uni003C
ENCODING 60
SWIDTH 462 0
DWIDTH 6 0
BBX 4 7 2 0
BITMAP
10
20
40
80
40
20
10
ENDCHAR
STARTCHAR uni003D
ENCODING 61
SWIDTH 462 0
DWIDTH 6 0
BBX 5 3 1 2
BITMAP
F8
00
F8
ENDCHAR
STARTCHAR uni003E
ENCODING 62
SWIDTH 462 0
DWIDTH 6 0
BBX 4 7 1 0
BITMAP
80
40
20
10
20
40
80
ENDCHAR
STARTCHAR uni003F
ENCODING 63
SWIDTH 462 0
DWIDTH 6 0
BBX 5 8 1 0
BITMAP
70
88
08
10
20
20
00
20
ENDCHAR
STARTCHAR uni0040
ENCODING 64
SWIDTH 462 0
DWIDTH 6 0
BBX 5 8 1 0
BITMAP
70
88
88
B8
A8
B8
80
78
ENDCHAR
STARTCHAR uni0041
ENCODING 65
SWIDTH 462 0
DWIDTH 6 0
BBX 5 8 1 0
BITMAP
70
88
88
88
F8
88
88
88
ENDCHAR
STARTCHAR uni0042
ENCODING 66
SWIDTH 462 0
DWIDTH 6 0
BBX 5 8 1 0
BITMAP
F0
88
88
F0
88
88
88
F0
ENDCHAR
STARTCHAR uni0043
ENCODING 67
SWIDTH 462 0
DWIDTH 6 0
BBX 5 8 1 0
BITMAP
70
88
80
80
80
80
88
70
ENDCHAR
STARTCHAR uni0044
ENCODING 68
SWIDTH 462 0
DWIDTH 6 0
BBX 5 8 1 0
BITMAP
E0
90
88
88
88
88
90
E0
ENDCHAR
STARTCHAR uni0045
ENCODING 69
SWIDTH 462 0
DWIDTH 6 0
BBX 5 8 1 0
BITMAP
F8
80
80
F0
80
80
80
F8
ENDCHAR
STARTCHAR uni0046
ENCODING 70
SWIDTH 462 0
DWIDTH 6 0
BBX 5 8 1 0
BITMAP
F8
80
80
F0
80
80
80
80
ENDCHAR
STARTCHAR uni0047
ENCODING 71
SWIDTH 462 0
DWIDTH 6 0
BBX 5 8 1 0
BITMAP
70
88
80
80
98
88
88
70
ENDCHAR
STARTCHAR uni0048
ENCODING 72
SWIDTH 462 0
DWIDTH 6 0
BBX 5 8 1 0
BITMAP
88
88
88
F8
88
88
88
88
ENDCHAR
STARTCHAR uni0049
ENCODING 73
SWIDTH 462 0
DWIDTH 6 0
BBX 3 8 2 0
BITMAP
E0
40
40
40
40
40
40
E0
ENDCHAR
STARTCHAR uni004A
ENCODING 74
SWIDTH 462 0
DWIDTH 6 0
BBX 5 8 1 0
BITMAP
38
08
08
08
08
88
88
70
ENDCHAR
STARTCHAR uni004B
ENCODING 75
SWIDTH 462 0
DWIDTH 6 0
BBX 5 8 1 0
BITMAP
88
90
A0
E0
90
90
88
88
ENDCHAR
STARTCHAR uni004C
ENCODING 76
SWIDTH 462 0
DWIDTH 6 0
BBX 5 8 1 0
BITMAP
80
80
80
80
80
80
80
F8
ENDCHAR
STARTCHAR uni004D
ENCODING 77
SWIDTH 462 0
DWIDTH 6 0
BBX 5 8 1 0
BITMAP
88
D8
A8
A8
88
88
88
88
ENDCHAR
STARTCHAR uni004E
ENCODING 78
SWIDTH 462 0
DWIDTH 6 0
BBX 5 8 1 0
BITMAP
88
C8
C8
A8
A8
98
98
88
ENDCHAR
STARTCHAR uni004F
ENCODING 79
SWIDTH 462 0
DWIDTH 6 0
BBX 5 8 1 0
BITMAP
70
88
88
88
88
88
88
70
ENDCHAR
STARTCHAR uni0050
ENCODING 80
SWIDTH 462 0
DWIDTH 6 0
BBX 5 8 1 0
BITMAP
F0
88
88
88
F0
80
80
80
ENDCHAR
STARTCHAR uni0051
ENCODING 81
SWIDTH 462 0
DWIDTH 6 0
BBX 5 9 1 -1
BITMAP
70
88
88
88
88
88
90
68
08
ENDCHAR
STARTCHAR uni0052
ENCODING 82
SWIDTH 462 0
DWIDTH 6 0
BBX 5 8 1 0
BITMAP
F0
88
88
F0
90
88
88
88
ENDCHAR
STARTCHAR uni0053
ENCODING 83
SWIDTH 462 0
DWIDTH 6 0
BBX 5 8 1 0
BITMAP
70
88
80
70
08
08
88
70
ENDCHAR
STARTCHAR uni0054
ENCODING 84
SWIDTH 462 0
DWIDTH 6 0
BBX 5 8 1 0
BITMAP
F8
20
20
20
20
20
20
20
ENDCHAR
STARTCHAR uni0055
ENCODING 85
SWIDTH 462 0
DWIDTH 6 0
BBX 5 8 1 0
BITMAP
88
88
88
88
88
88
88
70
ENDCHAR
STARTCHAR uni0056
ENCODING 86
SWIDTH 462 0
DWIDTH 6 0
BBX 5 8 1 0
BITMAP
88
88
88
50
50
50
20
20
ENDCHAR
STARTCHAR uni0057
ENCODING 87
SWIDTH 462 0
DWIDTH 6 0
BBX 5 8 1 0
BITMAP
88
88
88
A8
A8
70
50
50
ENDCHAR
STARTCHAR uni0058
ENCODING 88
SWIDTH 462 0
DWIDTH 6 0
BBX 5 8 1 0
BITMAP
88
88
50
20
20
50
88
88
ENDCHAR
STARTCHAR uni0059
ENCODING 89
SWIDTH 462 0
DWIDTH 6 0
BBX 5 8 1 0
BITMAP
88
88
88
50
20
20
20
20
ENDCHAR
STARTCHAR uni005A
ENCODING 90
SWIDTH 462 0
DWIDTH 6 0
BBX 5 8 1 0
BITMAP
F8
10
20
20
40
40
80
F8
ENDCHAR
STARTCHAR uni005B
ENCODING 91
SWIDTH 462 0
DWIDTH 6 0
BBX 3 11 2 -2
BITMAP
E0
80
80
80
80
80
80
80
80
80
E0
ENDCHAR
STARTCHAR uni005C
ENCODING 92
SWIDTH 462 0
DWIDTH 6 0
BBX 5 10 1 -1
BITMAP
80
80
40
40
20
20
10
10
08
08
ENDCHAR
STARTCHAR uni005D
ENCODING 93
SWIDTH 462 0
DWIDTH 6 0
BBX 3 11 2 -2
BITMAP
E0
20
20
20
20
20
20
20
20
20
E0
ENDCHAR
STARTCHAR uni005E
ENCODING 94
SWIDTH 462 0
DWIDTH 6 0
BBX 5 3 1 7
BITMAP
20
50
88
ENDCHAR
STARTCHAR uni005F
ENCODING 95
SWIDTH 462 0
DWIDTH 6 0
BBX 5 1 1 -1
BITMAP
F8
ENDCHAR
STARTCHAR uni0060
ENCODING 96
SWIDTH 462 0
DWIDTH 6 0
BBX 2 2 2 7
BITMAP
80
40
ENDCHAR
STARTCHAR uni0061
ENCODING 97
SWIDTH 462 0
DWIDTH 6 0
BBX 5 6 1 0
BITMAP
78
88
88
88
98
68
ENDCHAR
STARTCHAR uni0062
ENCODING 98
SWIDTH 462 0
DWIDTH 6 0
BBX 5 9 1 0
BITMAP
80
80
80
F0
88
88
88
88
F0
ENDCHAR
STARTCHAR uni0063
ENCODING 99
SWIDTH 462 0
DWIDTH 6 0
BBX 5 6 1 0
BITMAP
70
88
80
80
88
70
ENDCHAR
STARTCHAR uni0064
ENCODING 100
SWIDTH 462 0
DWIDTH 6 0
BBX 5 9 1 0
BITMAP
08
08
08
78
88
88
88
88
78
ENDCHAR
STARTCHAR uni0065
ENCODING 101
SWIDTH 462 0
DWIDTH 6 0
BBX 5 6 1 0
BITMAP
70
88
F8
80
88
70
ENDCHAR
STARTCHAR uni0066
ENCODING 102
SWIDTH 462 0
DWIDTH 6 0
BBX 5 9 1 0
BITMAP
38
40
40
F0
40
40
40
40
40
ENDCHAR
STARTCHAR uni0067
ENCODING 103
SWIDTH 462 0
DWIDTH 6 0
BBX 5 9 1 -3
BITMAP
78
88
88
88
88
78
08
08
70
ENDCHAR
STARTCHAR uni0068
ENCODING 104
SWIDTH 462 0
DWIDTH 6 0
BBX 5 9 1 0
BITMAP
80
80
80
F0
88
88
88
88
88
ENDCHAR
STARTCHAR uni0069
ENCODING 105
SWIDTH 462 0
DWIDTH 6 0
BBX 4 8 2 0
BITMAP
40
00
C0
40
40
40
40
30
ENDCHAR
STARTCHAR uni006A
ENCODING 106
SWIDTH 462 0
DWIDTH 6 0
BBX 3 10 2 -2
BITMAP
20
00
60
20
20
20
20
20
A0
40
ENDCHAR
STARTCHAR uni006B
ENCODING 107
SWIDTH 462 0
DWIDTH 6 0
BBX 5 9 1 0
BITMAP
80
80
80
88
90
A0
E0
90
88
ENDCHAR
STARTCHAR uni006C
ENCODING 108
SWIDTH 462 0
DWIDTH 6 0
BBX 3 9 2 0
BITMAP
C0
40
40
40
40
40
40
40
60
ENDCHAR
STARTCHAR uni006D
ENCODING 109
SWIDTH 462 0
DWIDTH 6 0
BBX 5 6 1 0
BITMAP
D0
A8
A8
A8
A8
A8
ENDCHAR
STARTCHAR uni006E
ENCODING 110
SWIDTH 462 0
DWIDTH 6 0
BBX 5 6 1 0
BITMAP
F0
88
88
88
88
88
ENDCHAR
STARTCHAR uni006F
ENCODING 111
SWIDTH 462 0
DWIDTH 6 0
BBX 5 6 1 0
BITMAP
70
88
88
88
88
70
ENDCHAR
STARTCHAR uni0070
ENCODING 112
SWIDTH 462 0
DWIDTH 6 0
BBX 5 9 1 -3
BITMAP
F0
88
88
88
88
F0
80
80
80
ENDCHAR
STARTCHAR uni0071
ENCODING 113
SWIDTH 462 0
DWIDTH 6 0
BBX 6 9 1 -3
BITMAP
78
88
88
88
88
78
08
08
0C
ENDCHAR
STARTCHAR uni0072
ENCODING 114
SWIDTH 462 0
DWIDTH 6 0
BBX 5 6 1 0
BITMAP
F0
88
80
80
80
80
ENDCHAR
STARTCHAR uni0073
ENCODING 115
SWIDTH 462 0
DWIDTH 6 0
BBX 5 6 1 0
BITMAP
78
80
70
08
08
F0
ENDCHAR
STARTCHAR uni0074
ENCODING 116
SWIDTH 462 0
DWIDTH 6 0
BBX 5 8 1 0
BITMAP
40
40
F0
40
40
40
40
38
ENDCHAR
STARTCHAR uni0075
ENCODING 117
SWIDTH 462 0
DWIDTH 6 0
BBX 5 6 1 0
BITMAP
88
88
88
88
88
78
ENDCHAR
STARTCHAR uni0076
ENCODING 118
SWIDTH 462 0
DWIDTH 6 0
BBX 5 6 1 0
BITMAP
88
88
50
50
20
20
ENDCHAR
STARTCHAR uni0077
ENCODING 119
SWIDTH 462 0
DWIDTH 6 0
BBX 5 6 1 0
BITMAP
88
88
A8
A8
50
50
ENDCHAR
STARTCHAR uni0078
ENCODING 120
SWIDTH 462 0
DWIDTH 6 0
BBX 5 6 1 0
BITMAP
88
50
20
20
50
88
ENDCHAR
STARTCHAR uni0079
ENCODING 121
SWIDTH 462 0
DWIDTH 6 0
BBX 5 9 1 -3
BITMAP
88
88
88
88
88
78
08
08
70
ENDCHAR
STARTCHAR uni007A
ENCODING 122
SWIDTH 462 0
DWIDTH 6 0
BBX 5 6 1 0
BITMAP
F8
10
20
40
80
F8
ENDCHAR
STARTCHAR uni007B
ENCODING 123
SWIDTH 462 0
DWIDTH 6 0
BBX 5 11 1 -2
BITMAP
18
20
20
20
20
C0
20
20
20
20
18
ENDCHAR
STARTCHAR uni007C
ENCODING 124
SWIDTH 462 0
DWIDTH 6 0
BBX 1 11 3 -2
BITMAP
80
80
80
80
80
80
80
80
80
80
80
ENDCHAR
STARTCHAR uni007D
ENCODING 125
SWIDTH 462 0
DWIDTH 6 0
BBX 5 11 1 -2
BITMAP
C0
20
20
20
20
18
20
20
20
20
C0
ENDCHAR
STARTCHAR uni007E
ENCODING 126
SWIDTH 462 0
DWIDTH 6 0
BBX 5 3 1 2
BITMAP
48
A8
90
ENDCHAR
STARTCHAR uni007F
ENCODING 127
SWIDTH 462 0
DWIDTH 6 0
BBX 1 1 0 0
BITMAP
00
ENDCHAR
STARTCHAR uni00A0
ENCODING 160
SWIDTH 462 0
DWIDTH 6 0
BBX 1 1 6 -1
BITMAP
00
ENDCHAR
STARTCHAR uni00A1
ENCODING 161
SWIDTH 462 0
DWIDTH 6 0
BBX 1 8 3 -2
BITMAP
80
00
80
80
80
80
80
80
ENDCHAR
STARTCHAR uni00A2
ENCODING 162
SWIDTH 462 0
DWIDTH 6 0
BBX 5 8 1 -1
BITMAP
20
70
A8
A0
A0
A8
70
20
ENDCHAR
STARTCHAR uni00A3
ENCODING 163
SWIDTH 462 0
DWIDTH 6 0
BBX 5 8 1 0
BITMAP
30
40
40
F0
40
40
40
B8
ENDCHAR
STARTCHAR uni00A4
ENCODING 164
SWIDTH 462 0
DWIDTH 6 0
BBX 5 6 1 0
BITMAP
88
70
50
50
70
88
ENDCHAR
STARTCHAR uni00A5
ENCODING 165
SWIDTH 462 0
DWIDTH 6 0
BBX 5 9 1 0
BITMAP
88
88
88
50
20
F8
20
F8
20
ENDCHAR
STARTCHAR uni00A6
ENCODING 166
SWIDTH 462 0
DWIDTH 6 0
BBX 1 11 3 -2
BITMAP
80
80
80
80
00
00
00
80
80
80
80
ENDCHAR
STARTCHAR uni00A7
ENCODING 167
SWIDTH 462 0
DWIDTH 6 0
BBX 5 10 1 -1
BITMAP
70
88
80
60
50
50
30
08
88
70
ENDCHAR
STARTCHAR uni00A8
ENCODING 168
SWIDTH 462 0
DWIDTH 6 0
BBX 3 1 2 8
BITMAP
A0
ENDCHAR
STARTCHAR uni00A9
ENCODING 169
SWIDTH 462 0
DWIDTH 6 0
BBX 7 7 0 0
BITMAP
38
44
BA
A2
BA
44
38
ENDCHAR
STARTCHAR uni00AA
ENCODING 170
SWIDTH 462 0
DWIDTH 6 0
BBX 4 5 2 3
BITMAP
60
10
70
90
70
ENDCHAR
STARTCHAR uni00AB
ENCODING 171
SWIDTH 462 0
DWIDTH 6 0
BBX 5 5 1 1
BITMAP
28
50
A0
50
28
ENDCHAR
STARTCHAR uni00AC
ENCODING 172
SWIDTH 462 0
DWIDTH 6 0
BBX 4 4 1 0
BITMAP
F0
10
10
10
ENDCHAR
STARTCHAR uni00AD
ENCODING 173
SWIDTH 462 0
DWIDTH 6 0
BBX 3 1 2 3
BITMAP
E0
ENDCHAR
STARTCHAR uni00AE
ENCODING 174
SWIDTH 462 0
DWIDTH 6 0
BBX 7 7 0 0
BITMAP
38
44
BA
A2
A2
44
38
ENDCHAR
STARTCHAR uni00AF
ENCODING 175
SWIDTH 462 0
DWIDTH 6 0
BBX 7 1 0 9
BITMAP
FE
ENDCHAR
STARTCHAR uni00B0
ENCODING 176
SWIDTH 462 0
DWIDTH 6 0
BBX 4 4 1 4
BITMAP
60
90
90
60
ENDCHAR
STARTCHAR uni00B1
ENCODING 177
SWIDTH 462 0
DWIDTH 6 0
BBX 5 7 1 0
BITMAP
20
20
F8
20
20
00
F8
ENDCHAR
STARTCHAR uni00B2
ENCODING 178
SWIDTH 462 0
DWIDTH 6 0
BBX 4 5 1 4
BITMAP
60
90
20
40
F0
ENDCHAR
STARTCHAR uni00B3
ENCODING 179
SWIDTH 462 0
DWIDTH 6 0
BBX 4 5 1 4
BITMAP
E0
10
60
10
E0
ENDCHAR
STARTCHAR uni00B4
ENCODING 180
SWIDTH 462 0
DWIDTH 6 0
BBX 2 2 3 7
BITMAP
40
80
ENDCHAR
STARTCHAR uni00B5
ENCODING 181
SWIDTH 462 0
DWIDTH 6 0
BBX 5 8 1 -2
BITMAP
48
48
48
48
68
50
40
80
ENDCHAR
STARTCHAR uni00B6
ENCODING 182
SWIDTH 462 0
DWIDTH 6 0
BBX 5 9 1 -1
BITMAP
78
E8
E8
68
28
28
28
28
28
ENDCHAR
STARTCHAR uni00B7
ENCODING 183
SWIDTH 462 0
DWIDTH 6 0
BBX 3 3 2 2
BITMAP
40
E0
40
ENDCHAR
STARTCHAR uni00B8
ENCODING 184
SWIDTH 462 0
DWIDTH 6 0
BBX 3 3 2 -2
BITMAP
40
20
C0
ENDCHAR
STARTCHAR uni00B9
ENCODING 185
SWIDTH 462 0
DWIDTH 6 0
BBX 3 5 1 4
BITMAP
40
C0
40
40
E0
ENDCHAR
STARTCHAR uni00BA
ENCODING 186
SWIDTH 462 0
DWIDTH 6 0
BBX 3 5 3 3
BITMAP
40
A0
40
00
E0
ENDCHAR
STARTCHAR uni00BB
ENCODING 187
SWIDTH 462 0
DWIDTH 6 0
BBX 5 5 1 1
BITMAP
A0
50
28
50
A0
ENDCHAR
STARTCHAR uni00BC
ENCODING 188
SWIDTH 462 0
DWIDTH 6 0
BBX 5 9 1 0
BITMAP
88
90
90
A0
20
48
58
B8
88
ENDCHAR
STARTCHAR uni00BD
ENCODING 189
SWIDTH 462 0
DWIDTH 6 0
BBX 5 9 1 0
BITMAP
88
90
90
A0
20
50
48
90
98
ENDCHAR
STARTCHAR uni00BE
ENCODING 190
SWIDTH 462 0
DWIDTH 6 0
BBX 5 9 1 0
BITMAP
C8
50
90
60
E0
48
58
B8
88
ENDCHAR
STARTCHAR uni00BF
ENCODING 191
SWIDTH 462 0
DWIDTH 6 0
BBX 5 8 1 -2
BITMAP
20
00
20
20
40
80
88
70
ENDCHAR
STARTCHAR uni00C0
ENCODING 192
SWIDTH 462 0
DWIDTH 6 0
BBX 5 10 1 0
BITMAP
40
20
00
70
88
88
F8
88
88
88
ENDCHAR
STARTCHAR uni00C1
ENCODING 193
SWIDTH 462 0
DWIDTH 6 0
BBX 5 10 1 0
BITMAP
10
20
00
70
88
88
F8
88
88
88
ENDCHAR
STARTCHAR uni00C2
ENCODING 194
SWIDTH 462 0
DWIDTH 6 0
BBX 5 10 1 0
BITMAP
20
50
00
70
88
88
F8
88
88
88
ENDCHAR
STARTCHAR uni00C3
ENCODING 195
SWIDTH 462 0
DWIDTH 6 0
BBX 5 10 1 0
BITMAP
68
B0
00
70
88
88
F8
88
88
88
ENDCHAR
STARTCHAR uni00C4
ENCODING 196
SWIDTH 462 0
DWIDTH 6 0
BBX 5 10 1 0
BITMAP
50
00
70
88
88
88
F8
88
88
88
ENDCHAR
STARTCHAR uni00C5
ENCODING 197
SWIDTH 462 0
DWIDTH 6 0
BBX 5 10 1 0
BITMAP
20
50
20
00
70
88
88
F8
88
88
ENDCHAR
STARTCHAR uni00C6
ENCODING 198
SWIDTH 462 0
DWIDTH 6 0
BBX 5 8 1 0
BITMAP
78
A0
A0
B8
E0
A0
A0
B8
ENDCHAR
STARTCHAR uni00C7
ENCODING 199
SWIDTH 462 0
DWIDTH 6 0
BBX 5 11 1 -3
BITMAP
70
88
80
80
80
80
88
70
20
20
40
ENDCHAR
STARTCHAR uni00C8
ENCODING 200
SWIDTH 462 0
DWIDTH 6 0
BBX 5 10 1 0
BITMAP
40
20
00
F8
80
80
F0
80
80
F8
ENDCHAR
STARTCHAR uni00C9
ENCODING 201
SWIDTH 462 0
DWIDTH 6 0
BBX 5 10 1 0
BITMAP
10
20
00
F8
80
80
F0
80
80
F8
ENDCHAR
STARTCHAR uni00CA
ENCODING 202
SWIDTH 462 0
DWIDTH 6 0
BBX 5 10 1 0
BITMAP
20
50
00
F8
80
80
F0
80
80
F8
ENDCHAR
STARTCHAR uni00CB
ENCODING 203
SWIDTH 462 0
DWIDTH 6 0
BBX 5 10 1 0
BITMAP
50
00
F8
80
80
F0
80
80
80
F8
ENDCHAR
STARTCHAR uni00CC
ENCODING 204
SWIDTH 462 0
DWIDTH 6 0
BBX 3 10 2 0
BITMAP
80
40
00
E0
40
40
40
40
40
E0
ENDCHAR
STARTCHAR uni00CD
ENCODING 205
SWIDTH 462 0
DWIDTH 6 0
BBX 3 10 2 0
BITMAP
20
40
00
E0
40
40
40
40
40
E0
ENDCHAR
STARTCHAR uni00CE
ENCODING 206
SWIDTH 462 0
DWIDTH 6 0
BBX 3 10 2 0
BITMAP
40
A0
00
E0
40
40
40
40
40
E0
ENDCHAR
STARTCHAR uni00CF
ENCODING 207
SWIDTH 462 0
DWIDTH 6 0
BBX 3 10 2 0
BITMAP
A0
00
E0
40
40
40
40
40
40
E0
ENDCHAR
STARTCHAR uni00D0
ENCODING 208
SWIDTH 462 0
DWIDTH 6 0
BBX 5 7 1 0
BITMAP
70
48
48
E8
48
48
70
ENDCHAR
STARTCHAR uni00D1
ENCODING 209
SWIDTH 462 0
DWIDTH 6 0
BBX 5 10 1 0
BITMAP
68
B0
00
88
C8
C8
A8
98
98
88
ENDCHAR
STARTCHAR uni00D2
ENCODING 210
SWIDTH 462 0
DWIDTH 6 0
BBX 5 10 1 0
BITMAP
40
20
00
70
88
88
88
88
88
70
ENDCHAR
STARTCHAR uni00D3
ENCODING 211
SWIDTH 462 0
DWIDTH 6 0
BBX 5 10 1 0
BITMAP
10
20
00
70
88
88
88
88
88
70
ENDCHAR
STARTCHAR uni00D4
ENCODING 212
SWIDTH 462 0
DWIDTH 6 0
BBX 5 10 1 0
BITMAP
20
50
00
70
88
88
88
88
88
70
ENDCHAR
STARTCHAR uni00D5
ENCODING 213
SWIDTH 462 0
DWIDTH 6 0
BBX 5 10 1 0
BITMAP
68
B0
00
70
88
88
88
88
88
70
ENDCHAR
STARTCHAR uni00D6
ENCODING 214
SWIDTH 462 0
DWIDTH 6 0
BBX 5 10 1 0
BITMAP
50
00
70
88
88
88
88
88
88
70
ENDCHAR
STARTCHAR uni00D7
ENCODING 215
SWIDTH 462 0
DWIDTH 6 0
BBX 5 5 1 1
BITMAP
88
50
20
50
88
ENDCHAR
STARTCHAR uni00D8
ENCODING 216
SWIDTH 462 0
DWIDTH 6 0
BBX 5 10 1 -1
BITMAP
08
70
98
98
A8
A8
C8
C8
70
80
ENDCHAR
STARTCHAR uni00D9
ENCODING 217
SWIDTH 462 0
DWIDTH 6 0
BBX 5 10 1 0
BITMAP
40
20
00
88
88
88
88
88
88
70
ENDCHAR
STARTCHAR uni00DA
ENCODING 218
SWIDTH 462 0
DWIDTH 6 0
BBX 5 10 1 0
BITMAP
10
20
00
88
88
88
88
88
88
70
ENDCHAR
STARTCHAR uni00DB
ENCODING 219
SWIDTH 462 0
DWIDTH 6 0
BBX 5 10 1 0
BITMAP
20
50
00
88
88
88
88
88
88
70
ENDCHAR
STARTCHAR uni00DC
ENCODING 220
SWIDTH 462 0
DWIDTH 6 0
BBX 5 10 1 0
BITMAP
50
00
88
88
88
88
88
88
88
70
ENDCHAR
STARTCHAR uni00DD
ENCODING 221
SWIDTH 462 0
DWIDTH 6 0
BBX 5 10 1 0
BITMAP
10
20
00
88
88
88
50
20
20
20
ENDCHAR
STARTCHAR uni00DE
ENCODING 222
SWIDTH 462 0
DWIDTH 6 0
BBX 5 8 1 0
BITMAP
80
80
F0
88
88
F0
80
80
ENDCHAR
STARTCHAR uni00DF
ENCODING 223
SWIDTH 462 0
DWIDTH 6 0
BBX 5 8 1 0
BITMAP
60
90
90
A0
90
88
88
B0
ENDCHAR
STARTCHAR uni00E0
ENCODING 224
SWIDTH 462 0
DWIDTH 6 0
BBX 5 9 1 0
BITMAP
40
20
00
78
88
88
88
98
68
ENDCHAR
STARTCHAR uni00E1
ENCODING 225
SWIDTH 462 0
DWIDTH 6 0
BBX 5 9 1 0
BITMAP
10
20
00
78
88
88
88
98
68
ENDCHAR
STARTCHAR uni00E2
ENCODING 226
SWIDTH 462 0
DWIDTH 6 0
BBX 5 9 1 0
BITMAP
20
50
00
78
88
88
88
98
68
ENDCHAR
STARTCHAR uni00E3
ENCODING 227
SWIDTH 462 0
DWIDTH 6 0
BBX 5 9 1 0
BITMAP
68
B0
00
78
88
88
88
98
68
ENDCHAR
STARTCHAR uni00E4
ENCODING 228
SWIDTH 462 0
DWIDTH 6 0
BBX 5 8 1 0
BITMAP
50
00
78
88
88
88
98
68
ENDCHAR
STARTCHAR uni00E5
ENCODING 229
SWIDTH 462 0
DWIDTH 6 0
BBX 5 10 1 0
BITMAP
20
50
20
00
78
88
88
88
98
68
ENDCHAR
STARTCHAR uni00E6
ENCODING 230
SWIDTH 462 0
DWIDTH 6 0
BBX 5 6 1 0
BITMAP
70
A8
B8
A0
A8
50
ENDCHAR
STARTCHAR uni00E7
ENCODING 231
SWIDTH 462 0
DWIDTH 6 0
BBX 5 9 1 -3
BITMAP
70
88
80
80
88
70
20
10
60
ENDCHAR
STARTCHAR uni00E8
ENCODING 232
SWIDTH 462 0
DWIDTH 6 0
BBX 5 9 1 0
BITMAP
40
20
00
70
88
F8
80
88
70
ENDCHAR
STARTCHAR uni00E9
ENCODING 233
SWIDTH 462 0
DWIDTH 6 0
BBX 5 9 1 0
BITMAP
10
20
00
70
88
F8
80
88
70
ENDCHAR
STARTCHAR uni00EA
ENCODING 234
SWIDTH 462 0
DWIDTH 6 0
BBX 5 9 1 0
BITMAP
20
50
00
70
88
F8
80
88
70
ENDCHAR
STARTCHAR uni00EB
ENCODING 235
SWIDTH 462 0
DWIDTH 6 0
BBX 5 8 1 0
BITMAP
50
00
70
88
F8
80
88
70
ENDCHAR
STARTCHAR uni00EC
ENCODING 236
SWIDTH 462 0
DWIDTH 6 0
BBX 4 9 2 0
BITMAP
80
40
00
C0
40
40
40
40
30
ENDCHAR
STARTCHAR uni00ED
ENCODING 237
SWIDTH 462 0
DWIDTH 6 0
BBX 4 9 2 0
BITMAP
20
40
00
C0
40
40
40
40
30
ENDCHAR
STARTCHAR uni00EE
ENCODING 238
SWIDTH 462 0
DWIDTH 6 0
BBX 4 9 2 0
BITMAP
40
A0
00
C0
40
40
40
40
30
ENDCHAR
STARTCHAR uni00EF
ENCODING 239
SWIDTH 462 0
DWIDTH 6 0
BBX 4 8 2 0
BITMAP
A0
00
C0
40
40
40
40
30
ENDCHAR
STARTCHAR uni00F0
ENCODING 240
SWIDTH 462 0
DWIDTH 6 0
BBX 5 9 1 0
BITMAP
68
10
28
08
78
88
88
88
70
ENDCHAR
STARTCHAR uni00F1
ENCODING 241
SWIDTH 462 0
DWIDTH 6 0
BBX 5 9 1 0
BITMAP
68
B0
00
F0
88
88
88
88
88
ENDCHAR
STARTCHAR uni00F2
ENCODING 242
SWIDTH 462 0
DWIDTH 6 0
BBX 5 9 1 0
BITMAP
40
20
00
70
88
88
88
88
70
ENDCHAR
STARTCHAR uni00F3
ENCODING 243
SWIDTH 462 0
DWIDTH 6 0
BBX 5 9 1 0
BITMAP
10
20
00
70
88
88
88
88
70
ENDCHAR
STARTCHAR uni00F4
ENCODING 244
SWIDTH 462 0
DWIDTH 6 0
BBX 5 9 1 0
BITMAP
20
50
00
70
88
88
88
88
70
ENDCHAR
STARTCHAR uni00F5
ENCODING 245
SWIDTH 462 0
DWIDTH 6 0
BBX 5 9 1 0
BITMAP
68
B0
00
70
88
88
88
88
70
ENDCHAR
STARTCHAR uni00F6
ENCODING 246
SWIDTH 462 0
DWIDTH 6 0
BBX 5 8 1 0
BITMAP
50
00
70
88
88
88
88
70
ENDCHAR
STARTCHAR uni00F7
ENCODING 247
SWIDTH 462 0
DWIDTH 6 0
BBX 5 5 1 1
BITMAP
20
00
F8
00
20
ENDCHAR
STARTCHAR uni00F8
ENCODING 248
SWIDTH 462 0
DWIDTH 6 0
BBX 5 8 1 -1
BITMAP
08
70
98
A8
A8
C8
70
80
ENDCHAR
STARTCHAR uni00F9
ENCODING 249
SWIDTH 462 0
DWIDTH 6 0
BBX 5 9 1 0
BITMAP
40
20
00
88
88
88
88
88
78
ENDCHAR
STARTCHAR uni00FA
ENCODING 250
SWIDTH 462 0
DWIDTH 6 0
BBX 5 9 1 0
BITMAP
10
20
00
88
88
88
88
88
78
ENDCHAR
STARTCHAR uni00FB
ENCODING 251
SWIDTH 462 0
DWIDTH 6 0
BBX 5 9 1 0
BITMAP
20
50
00
88
88
88
88
88
78
ENDCHAR
STARTCHAR uni00FC
ENCODING 252
SWIDTH 462 0
DWIDTH 6 0
BBX 5 8 1 0
BITMAP
50
00
88
88
88
88
88
78
ENDCHAR
STARTCHAR uni00FD
ENCODING 253
SWIDTH 462 0
DWIDTH 6 0
BBX 5 12 1 -3
BITMAP
10
20
00
88
88
88
88
88
78
08
08
70
ENDCHAR
STARTCHAR uni00FE
ENCODING 254
SWIDTH 462 0
DWIDTH 6 0
BBX 5 10 1 -2
BITMAP
80
80
F0
88
88
88
88
F0
80
80
ENDCHAR
STARTCHAR uni00FF
ENCODING 255
SWIDTH 462 0
DWIDTH 6 0
BBX 5 11 1 -3
BITMAP
50
00
88
88
88
88
88
78
08
08
70
ENDCHAR
STARTCHAR uni2026
ENCODING 8230
SWIDTH 462 0
DWIDTH 6 0
BBX 5 1 1 0
BITMAP
A8
ENDCHAR
ENDFONT
