STARTFONT 2.1
FONT -pebble-cozette-medium-r-normal--39-390-75-75-M-0-iso10646-1
SIZE 39 75 75
FONTBOUNDINGBOX 21 39 0 -9
COMMENT "Cozette v.1.30.0 by Ines"
COMMENT "MIT License"
STARTPROPERTIES 8
FAMILY_NAME "Cozette"
WEIGHT_NAME "Medium"
SLANT "R"
PIXEL_SIZE 39
FONT_ASCENT 30
FONT_DESCENT 9
SPACING "M"
CHARSET_REGISTRY "ISO10646"
ENDPROPERTIES
CHARS 193
STARTCHAR uni0020
ENCODING 32
SWIDTH 462 0
DWIDTH 18 0
BBX 3 3 18 -3
BITMAP
00
00
00
ENDCHAR
STARTCHAR uni0021
ENCODING 33
SWIDTH 462 0
DWIDTH 18 0
BBX 3 24 9 0
BITMAP
E0
E0
E0
E0
E0
E0
E0
E0
E0
E0
E0
E0
E0
E0
E0
E0
E0
E0
00
00
00
E0
E0
E0
ENDCHAR
STARTCHAR uni0022
ENCODING 34
SWIDTH 462 0
DWIDTH 18 0
BBX 9 9 6 18
BITMAP
E380
E380
E380
E380
E380
E380
E380
E380
E380
ENDCHAR
STARTCHAR uni0023
ENCODING 35
SWIDTH 462 0
DWIDTH 18 0
BBX 15 24 3 0
BITMAP
1C70
1C70
1C70
1C70
1C70
1C70
FFFE
FFFE
FFFE
1C70
1C70
1C70
1C70
1C70
1C70
FFFE
FFFE
FFFE
1C70
1C70
1C70
1C70
1C70
1C70
ENDCHAR
STARTCHAR uni0024
ENCODING 36
SWIDTH 462 0
DWIDTH 18 0
BBX 15 30 3 -3
BITMAP
0380
0380
0380
1FF0
1FF0
1FF0
E38E
E38E
E38E
E380
E380
E380
1FF0
1FF0
1FF0
038E
038E
038E
038E
038E
038E
E38E
E38E
E38E
1FF0
1FF0
1FF0
0380
0380
0380
ENDCHAR
STARTCHAR uni0025
ENCODING 37
SWIDTH 462 0
DWIDTH 18 0
BBX 15 27 3 0
BITMAP
1C00
1C00
1C00
E380
E380
E380
1C0E
1C0E
1C0E
0070
0070
0070
0380
0380
0380
1C00
1C00
1C00
E070
E070
E070
038E
038E
038E
0070
0070
0070
ENDCHAR
STARTCHAR uni0026
ENCODING 38
SWIDTH 462 0
DWIDTH 18 0
BBX 15 27 3 0
BITMAP
0380
0380
0380
1C70
1C70
1C70
1C70
1C70
1C70
0380
0380
0380
1F8E
1F8E
1F8E
E070
E070
E070
E070
E070
E070
E070
E070
E070
1F8E
1F8E
1F8E
ENDCHAR
STARTCHAR uni0027
ENCODING 39
SWIDTH 462 0
DWIDTH 18 0
BBX 3 9 9 18
BITMAP
E0
E0
E0
E0
E0
E0
E0
E0
E0
ENDCHAR
STARTCHAR uni0028
ENCODING 40
SWIDTH 462 0
DWIDTH 18 0
BBX 9 33 6 -6
BITMAP
0380
0380
0380
1C00
1C00
1C00
1C00
1C00
1C00
E000
E000
E000
E000
E000
E000
E000
E000
E000
E000
E000
E000
E000
E000
E000
1C00
1C00
1C00
1C00
1C00
1C00
0380
0380
0380
ENDCHAR
STARTCHAR uni0029
ENCODING 41
SWIDTH 462 0
DWIDTH 18 0
BBX 9 33 6 -6
BITMAP
E000
E000
E000
1C00
1C00
1C00
1C00
1C00
1C00
0380
0380
0380
0380
0380
0380
0380
0380
0380
0380
0380
0380
0380
0380
0380
1C00
1C00
1C00
1C00
1C00
1C00
E000
E000
E000
ENDCHAR
STARTCHAR uni002A
ENCODING 42
SWIDTH 462 0
DWIDTH 18 0
BBX 15 15 3 3
BITMAP
1C70
1C70
1C70
0380
0380
0380
FFFE
FFFE
FFFE
0380
0380
0380
1C70
1C70
1C70
ENDCHAR
STARTCHAR uni002B
ENCODING 43
SWIDTH 462 0
DWIDTH 18 0
BBX 15 15 3 3
BITMAP
0380
0380
0380
0380
0380
0380
FFFE
FFFE
FFFE
0380
0380
0380
0380
0380
0380
ENDCHAR
STARTCHAR uni002C
ENCODING 44
SWIDTH 462 0
DWIDTH 18 0
BBX 6 12 6 -6
BITMAP
FC
FC
FC
FC
FC
FC
1C
1C
1C
E0
E0
E0
ENDCHAR
STARTCHAR uni002D
ENCODING 45
SWIDTH 462 0
DWIDTH 18 0
BBX 15 3 3 9
BITMAP
FFFE
FFFE
FFFE
ENDCHAR
STARTCHAR uni002E
ENCODING 46
SWIDTH 462 0
DWIDTH 18 0
BBX 6 6 6 0
BITMAP
FC
FC
FC
FC
FC
FC
ENDCHAR
STARTCHAR uni002F
ENCODING 47
SWIDTH 462 0
DWIDTH 18 0
BBX 15 30 3 -3
BITMAP
000E
000E
000E
000E
000E
000E
0070
0070
0070
0070
0070
0070
0380
0380
0380
0380
0380
0380
1C00
1C00
1C00
1C00
1C00
1C00
E000
E000
E000
E000
E000
E000
ENDCHAR
STARTCHAR uni0030
ENCODING 48
SWIDTH 462 0
DWIDTH 18 0
BBX 15 24 3 0
BITMAP
1FF0
1FF0
1FF0
E00E
E00E
E00E
E00E
E00E
E00E
E38E
E38E
E38E
E38E
E38E
E38E
E00E
E00E
E00E
E00E
E00E
E00E
1FF0
1FF0
1FF0
ENDCHAR
STARTCHAR uni0031
ENCODING 49
SWIDTH 462 0
DWIDTH 18 0
BBX 15 24 3 0
BITMAP
0380
0380
0380
1F80
1F80
1F80
E380
E380
E380
0380
0380
0380
0380
0380
0380
0380
0380
0380
0380
0380
0380
FFFE
FFFE
FFFE
ENDCHAR
STARTCHAR uni0032
ENCODING 50
SWIDTH 462 0
DWIDTH 18 0
BBX 15 24 3 0
BITMAP
1FF0
1FF0
1FF0
E00E
E00E
E00E
000E
000E
000E
0070
0070
0070
0380
0380
0380
1C00
1C00
1C00
E000
E000
E000
FFFE
FFFE
FFFE
ENDCHAR
STARTCHAR uni0033
ENCODING 51
SWIDTH 462 0
DWIDTH 18 0
BBX 15 24 3 0
BITMAP
1FF0
1FF0
1FF0
E00E
E00E
E00E
000E
000E
000E
03F0
03F0
03F0
000E
000E
000E
000E
000E
000E
E00E
E00E
E00E
1FF0
1FF0
1FF0
ENDCHAR
STARTCHAR uni0034
ENCODING 52
SWIDTH 462 0
DWIDTH 18 0
BBX 18 24 3 0
BITMAP
000E00
000E00
000E00
007E00
007E00
007E00
038E00
038E00
038E00
1C0E00
1C0E00
1C0E00
E00E00
E00E00
E00E00
FFFFC0
FFFFC0
FFFFC0
000E00
000E00
000E00
000E00
000E00
000E00
ENDCHAR
STARTCHAR uni0035
ENCODING 53
SWIDTH 462 0
DWIDTH 18 0
BBX 15 24 3 0
BITMAP
FFFE
FFFE
FFFE
E000
E000
E000
E000
E000
E000
FFF0
FFF0
FFF0
000E
000E
000E
000E
000E
000E
E00E
E00E
E00E
1FF0
1FF0
1FF0
ENDCHAR
STARTCHAR uni0036
ENCODING 54
SWIDTH 462 0
DWIDTH 18 0
BBX 15 24 3 0
BITMAP
03F0
03F0
03F0
1C00
1C00
1C00
E000
E000
E000
FFF0
FFF0
FFF0
E00E
E00E
E00E
E00E
E00E
E00E
E00E
E00E
E00E
1FF0
1FF0
1FF0
ENDCHAR
STARTCHAR uni0037
ENCODING 55
SWIDTH 462 0
DWIDTH 18 0
BBX 15 24 3 0
BITMAP
FFFE
FFFE
FFFE
000E
000E
000E
0070
0070
0070
0070
0070
0070
0380
0380
0380
0380
0380
0380
1C00
1C00
1C00
1C00
1C00
1C00
ENDCHAR
STARTCHAR uni0038
ENCODING 56
SWIDTH 462 0
DWIDTH 18 0
BBX 15 24 3 0
BITMAP
1FF0
1FF0
1FF0
E00E
E00E
E00E
E00E
E00E
E00E
1FF0
1FF0
1FF0
E00E
E00E
E00E
E00E
E00E
E00E
E00E
E00E
E00E
1FF0
1FF0
1FF0
ENDCHAR
STARTCHAR uni0039
ENCODING 57
SWIDTH 462 0
DWIDTH 18 0
BBX 15 24 3 0
BITMAP
1FF0
1FF0
1FF0
E00E
E00E
E00E
E00E
E00E
E00E
E00E
E00E
E00E
1FFE
1FFE
1FFE
000E
000E
000E
0070
0070
0070
1F80
1F80
1F80
ENDCHAR
STARTCHAR uni003A
ENCODING 58
SWIDTH 462 0
DWIDTH 18 0
BBX 6 18 6 0
BITMAP
FC
FC
FC
FC
FC
FC
00
00
00
00
00
00
FC
FC
FC
FC
FC
FC
ENDCHAR
STARTCHAR uni003B
ENCODING 59
SWIDTH 462 0
DWIDTH 18 0
BBX 6 24 6 -6
BITMAP
FC
FC
FC
FC
FC
FC
00
00
00
00
00
00
FC
FC
FC
FC
FC
FC
1C
1C
1C
E0
E0
E0
ENDCHAR
STARTCHAR uni003C
ENCODING 60
SWIDTH 462 0
DWIDTH 18 0
BBX 12 21 6 0
BITMAP
0070
0070
0070
0380
0380
0380
1C00
1C00
1C00
E000
E000
E000
1C00
1C00
1C00
0380
0380
0380
0070
0070
0070
ENDCHAR
STARTCHAR uni003D
ENCODING 61
SWIDTH 462 0
DWIDTH 18 0
BBX 15 9 3 6
BITMAP
FFFE
FFFE
FFFE
0000
0000
0000
FFFE
FFFE
FFFE
ENDCHAR
STARTCHAR uni003E
ENCODING 62
SWIDTH 462 0
DWIDTH 18 0
BBX 12 21 3 0
BITMAP
E000
E000
E000
1C00
1C00
1C00
0380
0380
0380
0070
0070
0070
0380
0380
0380
1C00
1C00
1C00
E000
E000
E000
ENDCHAR
STARTCHAR uni003F
ENCODING 63
SWIDTH 462 0
DWIDTH 18 0
BBX 15 24 3 0
BITMAP
1FF0
1FF0
1FF0
E00E
E00E
E00E
000E
000E
000E
0070
0070
0070
0380
0380
0380
0380
0380
0380
0000
0000
0000
0380
0380
0380
ENDCHAR
STARTCHAR uni0040
ENCODING 64
SWIDTH 462 0
DWIDTH 18 0
BBX 15 24 3 0
BITMAP
1FF0
1FF0
1FF0
E00E
E00E
E00E
E00E
E00E
E00E
E3FE
E3FE
E3FE
E38E
E38E
E38E
E3FE
E3FE
E3FE
E000
E000
E000
1FFE
1FFE
1FFE
ENDCHAR
STARTCHAR uni0041
ENCODING 65
SWIDTH 462 0
DWIDTH 18 0
BBX 15 24 3 0
BITMAP
1FF0
1FF0
1FF0
E00E
E00E
E00E
E00E
E00E
E00E
E00E
E00E
E00E
FFFE
FFFE
FFFE
E00E
E00E
E00E
E00E
E00E
E00E
E00E
E00E
E00E
ENDCHAR
STARTCHAR uni0042
ENCODING 66
SWIDTH 462 0
DWIDTH 18 0
BBX 15 24 3 0
BITMAP
FFF0
FFF0
FFF0
E00E
E00E
E00E
E00E
E00E
E00E
FFF0
FFF0
FFF0
E00E
E00E
E00E
E00E
E00E
E00E
E00E
E00E
E00E
FFF0
FFF0
FFF0
ENDCHAR
STARTCHAR uni0043
ENCODING 67
SWIDTH 462 0
DWIDTH 18 0
BBX 15 24 3 0
BITMAP
1FF0
1FF0
1FF0
E00E
E00E
E00E
E000
E000
E000
E000
E000
E000
E000
E000
E000
E000
E000
E000
E00E
E00E
E00E
1FF0
1FF0
1FF0
ENDCHAR
STARTCHAR uni0044
ENCODING 68
SWIDTH 462 0
DWIDTH 18 0
BBX 15 24 3 0
BITMAP
FF80
FF80
FF80
E070
E070
E070
E00E
E00E
E00E
E00E
E00E
E00E
E00E
E00E
E00E
E00E
E00E
E00E
E070
E070
E070
FF80
FF80
FF80
ENDCHAR
STARTCHAR uni0045
ENCODING 69
SWIDTH 462 0
DWIDTH 18 0
BBX 15 24 3 0
BITMAP
FFFE
FFFE
FFFE
E000
E000
E000
E000
E000
E000
FFF0
FFF0
FFF0
E000
E000
E000
E000
E000
E000
E000
E000
E000
FFFE
FFFE
FFFE
ENDCHAR
STARTCHAR uni0046
ENCODING 70
SWIDTH 462 0
DWIDTH 18 0
BBX 15 24 3 0
BITMAP
FFFE
FFFE
FFFE
E000
E000
E000
E000
E000
E000
FFF0
FFF0
FFF0
E000
E000
E000
E000
E000
E000
E000
E000
E000
E000
E000
E000
ENDCHAR
STARTCHAR uni0047
ENCODING 71
SWIDTH 462 0
DWIDTH 18 0
BBX 15 24 3 0
BITMAP
1FF0
1FF0
1FF0
E00E
E00E
E00E
E000
E000
E000
E000
E000
E000
E07E
E07E
E07E
E00E
E00E
E00E
E00E
E00E
E00E
1FF0
1FF0
1FF0
ENDCHAR
STARTCHAR uni0048
ENCODING 72
SWIDTH 462 0
DWIDTH 18 0
BBX 15 24 3 0
BITMAP
E00E
E00E
E00E
E00E
E00E
E00E
E00E
E00E
E00E
FFFE
FFFE
FFFE
E00E
E00E
E00E
E00E
E00E
E00E
E00E
E00E
E00E
E00E
E00E
E00E
ENDCHAR
STARTCHAR uni0049
ENCODING 73
SWIDTH 462 0
DWIDTH 18 0
BBX 9 24 6 0
BITMAP
FF80
FF80
FF80
1C00
1C00
1C00
1C00
1C00
1C00
1C00
1C00
1C00
1C00
1C00
1C00
1C00
1C00
1C00
1C00
1C00
1C00
FF80
FF80
FF80
ENDCHAR
STARTCHAR uni004A
ENCODING 74
SWIDTH 462 0
DWIDTH 18 0
BBX 15 24 3 0
BITMAP
03FE
03FE
03FE
000E
000E
000E
000E
000E
000E
000E
000E
000E
000E
000E
000E
E00E
E00E
E00E
E00E
E00E
E00E
1FF0
1FF0
1FF0
ENDCHAR
STARTCHAR uni004B
ENCODING 75
SWIDTH 462 0
DWIDTH 18 0
BBX 15 24 3 0
BITMAP
E00E
E00E
E00E
E070
E070
E070
E380
E380
E380
FF80
FF80
FF80
E070
E070
E070
E070
E070
E070
E00E
E00E
E00E
E00E
E00E
E00E
ENDCHAR
STARTCHAR uni004C
ENCODING 76
SWIDTH 462 0
DWIDTH 18 0
BBX 15 24 3 0
BITMAP
E000
E000
E000
E000
E000
E000
E000
E000
E000
E000
E000
E000
E000
E000
E000
E000
E000
E000
E000
E000
E000
FFFE
FFFE
FFFE
ENDCHAR
STARTCHAR uni004D
ENCODING 77
SWIDTH 462 0
DWIDTH 18 0
BBX 15 24 3 0
BITMAP
E00E
E00E
E00E
FC7E
FC7E
FC7E
E38E
E38E
E38E
E38E
E38E
E38E
E00E
E00E
E00E
E00E
E00E
E00E
E00E
E00E
E00E
E00E
E00E
E00E
ENDCHAR
STARTCHAR uni004E
ENCODING 78
SWIDTH 462 0
DWIDTH 18 0
BBX 15 24 3 0
BITMAP
E00E
E00E
E00E
FC0E
FC0E
FC0E
FC0E
FC0E
FC0E
E38E
E38E
E38E
E38E
E38E
E38E
E07E
E07E
E07E
E07E
E07E
E07E
E00E
E00E
E00E
ENDCHAR
STARTCHAR uni004F
ENCODING 79
SWIDTH 462 0
DWIDTH 18 0
BBX 15 24 3 0
BITMAP
1FF0
1FF0
1FF0
E00E
E00E
E00E
E00E
E00E
E00E
E00E
E00E
E00E
E00E
E00E
E00E
E00E
E00E
E00E
E00E
E00E
E00E
1FF0
1FF0
1FF0
ENDCHAR
STARTCHAR uni0050
ENCODING 80
SWIDTH 462 0
DWIDTH 18 0
BBX 15 24 3 0
BITMAP
FFF0
FFF0
FFF0
E00E
E00E
E00E
E00E
E00E
E00E
E00E
E00E
E00E
FFF0
FFF0
FFF0
E000
E000
E000
E000
E000
E000
E000
E000
E000
ENDCHAR
STARTCHAR uni0051
ENCODING 81
SWIDTH 462 0
DWIDTH 18 0
BBX 15 27 3 -3
BITMAP
1FF0
1FF0
1FF0
E00E
E00E
E00E
E00E
E00E
E00E
E00E
E00E
E00E
E00E
E00E
E00E
E00E
E00E
E00E
E070
E070
E070
1F8E
1F8E
1F8E
000E
000E
000E
ENDCHAR
STARTCHAR uni0052
ENCODING 82
SWIDTH 462 0
DWIDTH 18 0
BBX 15 24 3 0
BITMAP
FFF0
FFF0
FFF0
E00E
E00E
E00E
E00E
E00E
E00E
FFF0
FFF0
FFF0
E070
E070
E070
E00E
E00E
E00E
E00E
E00E
E00E
E00E
E00E
E00E
ENDCHAR
STARTCHAR uni0053
ENCODING 83
SWIDTH 462 0
DWIDTH 18 0
BBX 15 24 3 0
BITMAP
1FF0
1FF0
1FF0
E00E
E00E
E00E
E000
E000
E000
1FF0
1FF0
1FF0
000E
000E
000E
000E
000E
000E
E00E
E00E
E00E
1FF0
1FF0
1FF0
ENDCHAR
STARTCHAR uni0054
ENCODING 84
SWIDTH 462 0
DWIDTH 18 0
BBX 15 24 3 0
BITMAP
FFFE
FFFE
FFFE
0380
0380
0380
0380
0380
0380
0380
0380
0380
0380
0380
0380
0380
0380
0380
0380
0380
0380
0380
0380
0380
ENDCHAR
STARTCHAR uni0055
ENCODING 85
SWIDTH 462 0
DWIDTH 18 0
BBX 15 24 3 0
BITMAP
E00E
E00E
E00E
E00E
E00E
E00E
E00E
E00E
E00E
E00E
E00E
E00E
E00E
E00E
E00E
E00E
E00E
E00E
E00E
E00E
E00E
1FF0
1FF0
1FF0
ENDCHAR
STARTCHAR uni0056
ENCODING 86
SWIDTH 462 0
DWIDTH 18 0
BBX 15 24 3 0
BITMAP
E00E
E00E
E00E
E00E
E00E
E00E
E00E
E00E
E00E
1C70
1C70
1C70
1C70
1C70
1C70
1C70
1C70
1C70
0380
0380
0380
0380
0380
0380
ENDCHAR
STARTCHAR uni0057
ENCODING 87
SWIDTH 462 0
DWIDTH 18 0
BBX 15 24 3 0
BITMAP
E00E
E00E
E00E
E00E
E00E
E00E
E00E
E00E
E00E
E38E
E38E
E38E
E38E
E38E
E38E
1FF0
1FF0
1FF0
1C70
1C70
1C70
1C70
1C70
1C70
ENDCHAR
STARTCHAR uni0058
ENCODING 88
SWIDTH 462 0
DWIDTH 18 0
BBX 15 24 3 0
BITMAP
E00E
E00E
E00E
E00E
E00E
E00E
1C70
1C70
1C70
0380
0380
0380
0380
0380
0380
1C70
1C70
1C70
E00E
E00E
E00E
E00E
E00E
E00E
ENDCHAR
STARTCHAR uni0059
ENCODING 89
SWIDTH 462 0
DWIDTH 18 0
BBX 15 24 3 0
BITMAP
E00E
E00E
E00E
E00E
E00E
E00E
E00E
E00E
E00E
1C70
1C70
1C70
0380
0380
0380
0380
0380
0380
0380
0380
0380
0380
0380
0380
ENDCHAR
STARTCHAR uni005A
ENCODING 90
SWIDTH 462 0
DWIDTH 18 0
BBX 15 24 3 0
BITMAP
FFFE
FFFE
FFFE
0070
0070
0070
0380
0380
0380
0380
0380
0380
1C00
1C00
1C00
1C00
1C00
1C00
E000
E000
E000
FFFE
FFFE
FFFE
ENDCHAR
STARTCHAR uni005B
ENCODING 91
SWIDTH 462 0
DWIDTH 18 0
BBX 9 33 6 -6
BITMAP
FF80
FF80
FF80
E000
E000
E000
E000
E000
E000
E000
E000
E000
E000
E000
E000
E000
E000
E000
E000
E000
E000
E000
E000
E000
E000
E000
E000
E000
E000
E000
FF80
FF80
FF80
ENDCHAR
STARTCHAR uni005C
ENCODING 92
SWIDTH 462 0
DWIDTH 18 0
BBX 15 30 3 -3
BITMAP
E000
E000
E000
E000
E000
E000
1C00
1C00
1C00
1C00
1C00
1C00
0380
0380
0380
0380
0380
0380
0070
0070
0070
0070
0070
0070
000E
000E
000E
000E
000E
000E
ENDCHAR
STARTCHAR uni005D
ENCODING 93
SWIDTH 462 0
DWIDTH 18 0
BBX 9 33 6 -6
BITMAP
FF80
FF80
FF80
0380
0380
0380
0380
0380
0380
0380
0380
0380
0380
0380
0380
0380
0380
0380
0380
0380
0380
0380
0380
0380
0380
0380
0380
0380
0380
0380
FF80
FF80
FF80
ENDCHAR
STARTCHAR uni005E
ENCODING 94
SWIDTH 462 0
DWIDTH 18 0
BBX 15 9 3 21
BITMAP
0380
0380
0380
1C70
1C70
1C70
E00E
E00E
E00E
ENDCHAR
STARTCHAR uni005F
ENCODING 95
SWIDTH 462 0
DWIDTH 18 0
BBX 15 3 3 -3
BITMAP
FFFE
FFFE
FFFE
ENDCHAR
STARTCHAR uni0060
ENCODING 96
SWIDTH 462 0
DWIDTH 18 0
BBX 6 6 6 21
BITMAP
E0
E0
E0
1C
1C
1C
ENDCHAR
STARTCHAR uni0061
ENCODING 97
SWIDTH 462 0
DWIDTH 18 0
BBX 15 18 3 0
BITMAP
1FFE
1FFE
1FFE
E00E
E00E
E00E
E00E
E00E
E00E
E00E
E00E
E00E
E07E
E07E
E07E
1F8E
1F8E
1F8E
ENDCHAR
STARTCHAR uni0062
ENCODING 98
SWIDTH 462 0
DWIDTH 18 0
BBX 15 27 3 0
BITMAP
E000
E000
E000
E000
E000
E000
E000
E000
E000
FFF0
FFF0
FFF0
E00E
E00E
E00E
E00E
E00E
E00E
E00E
E00E
E00E
E00E
E00E
E00E
FFF0
FFF0
FFF0
ENDCHAR
STARTCHAR uni0063
ENCODING 99
SWIDTH 462 0
DWIDTH 18 0
BBX 15 18 3 0
BITMAP
1FF0
1FF0
1FF0
E00E
E00E
E00E
E000
E000
E000
E000
E000
E000
E00E
E00E
E00E
1FF0
1FF0
1FF0
ENDCHAR
STARTCHAR uni0064
ENCODING 100
SWIDTH 462 0
DWIDTH 18 0
BBX 15 27 3 0
BITMAP
000E
000E
000E
000E
000E
000E
000E
000E
000E
1FFE
1FFE
1FFE
E00E
E00E
E00E
E00E
E00E
E00E
E00E
E00E
E00E
E00E
E00E
E00E
1FFE
1FFE
1FFE
ENDCHAR
STARTCHAR uni0065
ENCODING 101
SWIDTH 462 0
DWIDTH 18 0
BBX 15 18 3 0
BITMAP
1FF0
1FF0
1FF0
E00E
E00E
E00E
FFFE
FFFE
FFFE
E000
E000
E000
E00E
E00E
E00E
1FF0
1FF0
1FF0
ENDCHAR
STARTCHAR uni0066
ENCODING 102
SWIDTH 462 0
DWIDTH 18 0
BBX 15 27 3 0
BITMAP
03FE
03FE
03FE
1C00
1C00
1C00
1C00
1C00
1C00
FFF0
FFF0
FFF0
1C00
1C00
1C00
1C00
1C00
1C00
1C00
1C00
1C00
1C00
1C00
1C00
1C00
1C00
1C00
ENDCHAR
STARTCHAR uni0067
ENCODING 103
SWIDTH 462 0
DWIDTH 18 0
BBX 15 27 3 -9
BITMAP
1FFE
1FFE
1FFE
E00E
E00E
E00E
E00E
E00E
E00E
E00E
E00E
E00E
E00E
E00E
E00E
1FFE
1FFE
1FFE
000E
000E
000E
000E
000E
000E
1FF0
1FF0
1FF0
ENDCHAR
STARTCHAR uni0068
ENCODING 104
SWIDTH 462 0
DWIDTH 18 0
BBX 15 27 3 0
BITMAP
E000
E000
E000
E000
E000
E000
E000
E000
E000
FFF0
FFF0
FFF0
E00E
E00E
E00E
E00E
E00E
E00E
E00E
E00E
E00E
E00E
E00E
E00E
E00E
E00E
E00E
ENDCHAR
STARTCHAR uni0069
ENCODING 105
SWIDTH 462 0
DWIDTH 18 0
BBX 12 24 6 0
BITMAP
1C00
1C00
1C00
0000
0000
0000
FC00
FC00
FC00
1C00
1C00
1C00
1C00
1C00
1C00
1C00
1C00
1C00
1C00
1C00
1C00
03F0
03F0
03F0
ENDCHAR
STARTCHAR uni006A
ENCODING 106
SWIDTH 462 0
DWIDTH 18 0
BBX 9 30 6 -6
BITMAP
0380
0380
0380
0000
0000
0000
1F80
1F80
1F80
0380
0380
0380
0380
0380
0380
0380
0380
0380
0380
0380
0380
0380
0380
0380
E380
E380
E380
1C00
1C00
1C00
ENDCHAR
STARTCHAR uni006B
ENCODING 107
SWIDTH 462 0
DWIDTH 18 0
BBX 15 27 3 0
BITMAP
E000
E000
E000
E000
E000
E000
E000
E000
E000
E00E
E00E
E00E
E070
E070
E070
E380
E380
E380
FF80
FF80
FF80
E070
E070
E070
E00E
E00E
E00E
ENDCHAR
STARTCHAR uni006C
ENCODING 108
SWIDTH 462 0
DWIDTH 18 0
BBX 9 27 6 0
BITMAP
FC00
FC00
FC00
1C00
1C00
1C00
1C00
1C00
1C00
1C00
1C00
1C00
1C00
1C00
1C00
1C00
1C00
1C00
1C00
1C00
1C00
1C00
1C00
1C00
1F80
1F80
1F80
ENDCHAR
STARTCHAR uni006D
ENCODING 109
SWIDTH 462 0
DWIDTH 18 0
BBX 15 18 3 0
BITMAP
FC70
FC70
FC70
E38E
E38E
E38E
E38E
E38E
E38E
E38E
E38E
E38E
E38E
E38E
E38E
E38E
E38E
E38E
ENDCHAR
STARTCHAR uni006E
ENCODING 110
SWIDTH 462 0
DWIDTH 18 0
BBX 15 18 3 0
BITMAP
FFF0
FFF0
FFF0
E00E
E00E
E00E
E00E
E00E
E00E
E00E
E00E
E00E
E00E
E00E
E00E
E00E
E00E
E00E
ENDCHAR
STARTCHAR uni006F
ENCODING 111
SWIDTH 462 0
DWIDTH 18 0
BBX 15 18 3 0
BITMAP
1FF0
1FF0
1FF0
E00E
E00E
E00E
E00E
E00E
E00E
E00E
E00E
E00E
E00E
E00E
E00E
1FF0
1FF0
1FF0
ENDCHAR
STARTCHAR uni0070
ENCODING 112
SWIDTH 462 0
DWIDTH 18 0
BBX 15 27 3 -9
BITMAP
FFF0
FFF0
FFF0
E00E
E00E
E00E
E00E
E00E
E00E
E00E
E00E
E00E
E00E
E00E
E00E
FFF0
FFF0
FFF0
E000
E000
E000
E000
E000
E000
E000
E000
E000
ENDCHAR
STARTCHAR uni0071
ENCODING 113
SWIDTH 462 0
DWIDTH 18 0
BBX 18 27 3 -9
BITMAP
1FFE00
1FFE00
1FFE00
E00E00
E00E00
E00E00
E00E00
E00E00
E00E00
E00E00
E00E00
E00E00
E00E00
E00E00
E00E00
1FFE00
1FFE00
1FFE00
000E00
000E00
000E00
000E00
000E00
000E00
000FC0
000FC0
000FC0
ENDCHAR
STARTCHAR uni0072
ENCODING 114
SWIDTH 462 0
DWIDTH 18 0
BBX 15 18 3 0
BITMAP
FFF0
FFF0
FFF0
E00E
E00E
E00E
E000
E000
E000
E000
E000
E000
E000
E000
E000
E000
E000
E000
ENDCHAR
STARTCHAR uni0073
ENCODING 115
SWIDTH 462 0
DWIDTH 18 0
BBX 15 18 3 0
BITMAP
1FFE
1FFE
1FFE
E000
E000
E000
1FF0
1FF0
1FF0
000E
000E
000E
000E
000E
000E
FFF0
FFF0
FFF0
ENDCHAR
STARTCHAR uni0074
ENCODING 116
SWIDTH 462 0
DWIDTH 18 0
BBX 15 24 3 0
BITMAP
1C00
1C00
1C00
1C00
1C00
1C00
FFF0
FFF0
FFF0
1C00
1C00
1C00
1C00
1C00
1C00
1C00
1C00
1C00
1C00
1C00
1C00
03FE
03FE
03FE
ENDCHAR
STARTCHAR uni0075
ENCODING 117
SWIDTH 462 0
DWIDTH 18 0
BBX 15 18 3 0
BITMAP
E00E
E00E
E00E
E00E
E00E
E00E
E00E
E00E
E00E
E00E
E00E
E00E
E00E
E00E
E00E
1FFE
1FFE
1FFE
ENDCHAR
STARTCHAR uni0076
ENCODING 118
SWIDTH 462 0
DWIDTH 18 0
BBX 15 18 3 0
BITMAP
E00E
E00E
E00E
E00E
E00E
E00E
1C70
1C70
1C70
1C70
1C70
1C70
0380
0380
0380
0380
0380
0380
ENDCHAR
STARTCHAR uni0077
ENCODING 119
SWIDTH 462 0
DWIDTH 18 0
BBX 15 18 3 0
BITMAP
E00E
E00E
E00E
E00E
E00E
E00E
E38E
E38E
E38E
E38E
E38E
E38E
1C70
1C70
1C70
1C70
1C70
1C70
ENDCHAR
STARTCHAR uni0078
ENCODING 120
SWIDTH 462 0
DWIDTH 18 0
BBX 15 18 3 0
BITMAP
E00E
E00E
E00E
1C70
1C70
1C70
0380
0380
0380
0380
0380
0380
1C70
1C70
1C70
E00E
E00E
E00E
ENDCHAR
STARTCHAR uni0079
ENCODING 121
SWIDTH 462 0
DWIDTH 18 0
BBX 15 27 3 -9
BITMAP
E00E
E00E
E00E
E00E
E00E
E00E
E00E
E00E
E00E
E00E
E00E
E00E
E00E
E00E
E00E
1FFE
1FFE
1FFE
000E
000E
000E
000E
000E
000E
1FF0
1FF0
1FF0
ENDCHAR
STARTCHAR uni007A
ENCODING 122
SWIDTH 462 0
DWIDTH 18 0
BBX 15 18 3 0
BITMAP
FFFE
FFFE
FFFE
0070
0070
0070
0380
0380
0380
1C00
1C00
1C00
E000
E000
E000
FFFE
FFFE
FFFE
ENDCHAR
STARTCHAR uni007B
ENCODING 123
SWIDTH 462 0
DWIDTH 18 0
BBX 15 33 3 -6
BITMAP
007E
007E
007E
0380
0380
0380
0380
0380
0380
0380
0380
0380
0380
0380
0380
FC00
FC00
FC00
0380
0380
0380
0380
0380
0380
0380
0380
0380
0380
0380
0380
007E
007E
007E
ENDCHAR
STARTCHAR uni007C
ENCODING 124
SWIDTH 462 0
DWIDTH 18 0
BBX 3 33 9 -6
BITMAP
E0
E0
E0
E0
E0
E0
E0
E0
E0
E0
E0
E0
E0
E0
E0
E0
E0
E0
E0
E0
E0
E0
E0
E0
E0
E0
E0
E0
E0
E0
E0
E0
E0
ENDCHAR
STARTCHAR uni007D
ENCODING 125
SWIDTH 462 0
DWIDTH 18 0
BBX 15 33 3 -6
BITMAP
FC00
FC00
FC00
0380
0380
0380
0380
0380
0380
0380
0380
0380
0380
0380
0380
007E
007E
007E
0380
0380
0380
0380
0380
0380
0380
0380
0380
0380
0380
0380
FC00
FC00
FC00
ENDCHAR
STARTCHAR uni007E
ENCODING 126
SWIDTH 462 0
DWIDTH 18 0
BBX 15 9 3 6
BITMAP
1C0E
1C0E
1C0E
E38E
E38E
E38E
E070
E070
E070
ENDCHAR
STARTCHAR uni007F
ENCODING 127
SWIDTH 462 0
DWIDTH 18 0
BBX 3 3 0 0
BITMAP
00
00
00
ENDCHAR
STARTCHAR uni00A0
ENCODING 160
SWIDTH 462 0
DWIDTH 18 0
BBX 3 3 18 -3
BITMAP
00
00
00
ENDCHAR
STARTCHAR uni00A1
ENCODING 161
SWIDTH 462 0
DWIDTH 18 0
BBX 3 24 9 -6
BITMAP
E0
E0
E0
00
00
00
E0
E0
E0
E0
E0
E0
E0
E0
E0
E0
E0
E0
E0
E0
E0
E0
E0
E0
ENDCHAR
STARTCHAR uni00A2
ENCODING 162
SWIDTH 462 0
DWIDTH 18 0
BBX 15 24 3 -3
BITMAP
0380
0380
0380
1FF0
1FF0
1FF0
E38E
E38E
E38E
E380
E380
E380
E380
E380
E380
E38E
E38E
E38E
1FF0
1FF0
1FF0
0380
0380
0380
ENDCHAR
STARTCHAR uni00A3
ENCODING 163
SWIDTH 462 0
DWIDTH 18 0
BBX 15 24 3 0
BITMAP
03F0
03F0
03F0
1C00
1C00
1C00
1C00
1C00
1C00
FFF0
FFF0
FFF0
1C00
1C00
1C00
1C00
1C00
1C00
1C00
1C00
1C00
E3FE
E3FE
E3FE
ENDCHAR
STARTCHAR uni00A4
ENCODING 164
SWIDTH 462 0
DWIDTH 18 0
BBX 15 18 3 0
BITMAP
E00E
E00E
E00E
1FF0
1FF0
1FF0
1C70
1C70
1C70
1C70
1C70
1C70
1FF0
1FF0
1FF0
E00E
E00E
E00E
ENDCHAR
STARTCHAR uni00A5
ENCODING 165
SWIDTH 462 0
DWIDTH 18 0
BBX 15 27 3 0
BITMAP
E00E
E00E
E00E
E00E
E00E
E00E
E00E
E00E
E00E
1C70
1C70
1C70
0380
0380
0380
FFFE
FFFE
FFFE
0380
0380
0380
FFFE
FFFE
FFFE
0380
0380
0380
ENDCHAR
STARTCHAR uni00A6
ENCODING 166
SWIDTH 462 0
DWIDTH 18 0
BBX 3 33 9 -6
BITMAP
E0
E0
E0
E0
E0
E0
E0
E0
E0
E0
E0
E0
00
00
00
00
00
00
00
00
00
E0
E0
E0
E0
E0
E0
E0
E0
E0
E0
E0
E0
ENDCHAR
STARTCHAR uni00A7
ENCODING 167
SWIDTH 462 0
DWIDTH 18 0
BBX 15 30 3 -3
BITMAP
1FF0
1FF0
1FF0
E00E
E00E
E00E
E000
E000
E000
1F80
1F80
1F80
1C70
1C70
1C70
1C70
1C70
1C70
03F0
03F0
03F0
000E
000E
000E
E00E
E00E
E00E
1FF0
1FF0
1FF0
ENDCHAR
STARTCHAR uni00A8
ENCODING 168
SWIDTH 462 0
DWIDTH 18 0
BBX 9 3 6 24
BITMAP
E380
E380
E380
ENDCHAR
STARTCHAR uni00A9
ENCODING 169
SWIDTH 462 0
DWIDTH 18 0
BBX 21 21 0 0
BITMAP
03FE00
03FE00
03FE00
1C01C0
1C01C0
1C01C0
E3FE38
E3FE38
E3FE38
E38038
E38038
E38038
E3FE38
E3FE38
E3FE38
1C01C0
1C01C0
1C01C0
03FE00
03FE00
03FE00
ENDCHAR
STARTCHAR uni00AA
ENCODING 170
SWIDTH 462 0
DWIDTH 18 0
BBX 12 15 6 9
BITMAP
1F80
1F80
1F80
0070
0070
0070
1FF0
1FF0
1FF0
E070
E070
E070
1FF0
1FF0
1FF0
ENDCHAR
STARTCHAR uni00AB
ENCODING 171
SWIDTH 462 0
DWIDTH 18 0
BBX 15 15 3 3
BITMAP
038E
038E
038E
1C70
1C70
1C70
E380
E380
E380
1C70
1C70
1C70
038E
038E
038E
ENDCHAR
STARTCHAR uni00AC
ENCODING 172
SWIDTH 462 0
DWIDTH 18 0
BBX 12 12 3 0
BITMAP
FFF0
FFF0
FFF0
0070
0070
0070
0070
0070
0070
0070
0070
0070
ENDCHAR
STARTCHAR uni00AD
ENCODING 173
SWIDTH 462 0
DWIDTH 18 0
BBX 9 3 6 9
BITMAP
FF80
FF80
FF80
ENDCHAR
STARTCHAR uni00AE
ENCODING 174
SWIDTH 462 0
DWIDTH 18 0
BBX 21 21 0 0
BITMAP
03FE00
03FE00
03FE00
1C01C0
1C01C0
1C01C0
E3FE38
E3FE38
E3FE38
E38038
E38038
E38038
E38038
E38038
E38038
1C01C0
1C01C0
1C01C0
03FE00
03FE00
03FE00
ENDCHAR
STARTCHAR uni00AF
ENCODING 175
SWIDTH 462 0
DWIDTH 18 0
BBX 21 3 0 27
BITMAP
FFFFF8
FFFFF8
FFFFF8
ENDCHAR
STARTCHAR uni00B0
ENCODING 176
SWIDTH 462 0
DWIDTH 18 0
BBX 12 12 3 12
BITMAP
1F80
1F80
1F80
E070
E070
E070
E070
E070
E070
1F80
1F80
1F80
ENDCHAR
STARTCHAR uni00B1
ENCODING 177
SWIDTH 462 0
DWIDTH 18 0
BBX 15 21 3 0
BITMAP
0380
0380
0380
0380
0380
0380
FFFE
FFFE
FFFE
0380
0380
0380
0380
0380
0380
0000
0000
0000
FFFE
FFFE
FFFE
ENDCHAR
STARTCHAR uni00B2
ENCODING 178
SWIDTH 462 0
DWIDTH 18 0
BBX 12 15 3 12
BITMAP
1F80
1F80
1F80
E070
E070
E070
0380
0380
0380
1C00
1C00
1C00
FFF0
FFF0
FFF0
ENDCHAR
STARTCHAR uni00B3
ENCODING 179
SWIDTH 462 0
DWIDTH 18 0
BBX 12 15 3 12
BITMAP
FF80
FF80
FF80
0070
0070
0070
1F80
1F80
1F80
0070
0070
0070
FF80
FF80
FF80
ENDCHAR
STARTCHAR uni00B4
ENCODING 180
SWIDTH 462 0
DWIDTH 18 0
BBX 6 6 9 21
BITMAP
1C
1C
1C
E0
E0
E0
ENDCHAR
STARTCHAR uni00B5
ENCODING 181
SWIDTH 462 0
DWIDTH 18 0
BBX 15 24 3 -6
BITMAP
1C0E
1C0E
1C0E
1C0E
1C0E
1C0E
1C0E
1C0E
1C0E
1C0E
1C0E
1C0E
1F8E
1F8E
1F8E
1C70
1C70
1C70
1C00
1C00
1C00
E000
E000
E000
ENDCHAR
STARTCHAR uni00B6
ENCODING 182
SWIDTH 462 0
DWIDTH 18 0
BBX 15 27 3 -3
BITMAP
1FFE
1FFE
1FFE
FF8E
FF8E
FF8E
FF8E
FF8E
FF8E
1F8E
1F8E
1F8E
038E
038E
038E
038E
038E
038E
038E
038E
038E
038E
038E
038E
038E
038E
038E
ENDCHAR
STARTCHAR uni00B7
ENCODING 183
SWIDTH 462 0
DWIDTH 18 0
BBX 9 9 6 6
BITMAP
1C00
1C00
1C00
FF80
FF80
FF80
1C00
1C00
1C00
ENDCHAR
STARTCHAR uni00B8
ENCODING 184
SWIDTH 462 0
DWIDTH 18 0
BBX 9 9 6 -6
BITMAP
1C00
1C00
1C00
0380
0380
0380
FC00
FC00
FC00
ENDCHAR
STARTCHAR uni00B9
ENCODING 185
SWIDTH 462 0
DWIDTH 18 0
BBX 9 15 3 12
BITMAP
1C00
1C00
1C00
FC00
FC00
FC00
1C00
1C00
1C00
1C00
1C00
1C00
FF80
FF80
FF80
ENDCHAR
STARTCHAR uni00BA
ENCODING 186
SWIDTH 462 0
DWIDTH 18 0
BBX 9 15 9 9
BITMAP
1C00
1C00
1C00
E380
E380
E380
1C00
1C00
1C00
0000
0000
0000
FF80
FF80
FF80
ENDCHAR
STARTCHAR uni00BB
ENCODING 187
SWIDTH 462 0
DWIDTH 18 0
BBX 15 15 3 3
BITMAP
E380
E380
E380
1C70
1C70
1C70
038E
038E
038E
1C70
1C70
1C70
E380
E380
E380
ENDCHAR
STARTCHAR uni00BC
ENCODING 188
SWIDTH 462 0
DWIDTH 18 0
BBX 15 27 3 0
BITMAP
E00E
E00E
E00E
E070
E070
E070
E070
E070
E070
E380
E380
E380
0380
0380
0380
1C0E
1C0E
1C0E
1C7E
1C7E
1C7E
E3FE
E3FE
E3FE
E00E
E00E
E00E
ENDCHAR
STARTCHAR uni00BD
ENCODING 189
SWIDTH 462 0
DWIDTH 18 0
BBX 15 27 3 0
BITMAP
E00E
E00E
E00E
E070
E070
E070
E070
E070
E070
E380
E380
E380
0380
0380
0380
1C70
1C70
1C70
1C0E
1C0E
1C0E
E070
E070
E070
E07E
E07E
E07E
ENDCHAR
STARTCHAR uni00BE
ENCODING 190
SWIDTH 462 0
DWIDTH 18 0
BBX 15 27 3 0
BITMAP
FC0E
FC0E
FC0E
1C70
1C70
1C70
E070
E070
E070
1F80
1F80
1F80
FF80
FF80
FF80
1C0E
1C0E
1C0E
1C7E
1C7E
1C7E
E3FE
E3FE
E3FE
E00E
E00E
E00E
ENDCHAR
STARTCHAR uni00BF
ENCODING 191
SWIDTH 462 0
DWIDTH 18 0
BBX 15 24 3 -6
BITMAP
0380
0380
0380
0000
0000
0000
0380
0380
0380
0380
0380
0380
1C00
1C00
1C00
E000
E000
E000
E00E
E00E
E00E
1FF0
1FF0
1FF0
ENDCHAR
STARTCHAR uni00C0
ENCODING 192
SWIDTH 462 0
DWIDTH 18 0
BBX 15 30 3 0
BITMAP
1C00
1C00
1C00
0380
0380
0380
0000
0000
0000
1FF0
1FF0
1FF0
E00E
E00E
E00E
E00E
E00E
E00E
FFFE
FFFE
FFFE
E00E
E00E
E00E
E00E
E00E
E00E
E00E
E00E
E00E
ENDCHAR
STARTCHAR uni00C1
ENCODING 193
SWIDTH 462 0
DWIDTH 18 0
BBX 15 30 3 0
BITMAP
0070
0070
0070
0380
0380
0380
0000
0000
0000
1FF0
1FF0
1FF0
E00E
E00E
E00E
E00E
E00E
E00E
FFFE
FFFE
FFFE
E00E
E00E
E00E
E00E
E00E
E00E
E00E
E00E
E00E
ENDCHAR
STARTCHAR uni00C2
ENCODING 194
SWIDTH 462 0
DWIDTH 18 0
BBX 15 30 3 0
BITMAP
0380
0380
0380
1C70
1C70
1C70
0000
0000
0000
1FF0
1FF0
1FF0
E00E
E00E
E00E
E00E
E00E
E00E
FFFE
FFFE
FFFE
E00E
E00E
E00E
E00E
E00E
E00E
E00E
E00E
E00E
ENDCHAR
STARTCHAR uni00C3
ENCODING 195
SWIDTH 462 0
DWIDTH 18 0
BBX 15 30 3 0
BITMAP
1F8E
1F8E
1F8E
E3F0
E3F0
E3F0
0000
0000
0000
1FF0
1FF0
1FF0
E00E
E00E
E00E
E00E
E00E
E00E
FFFE
FFFE
FFFE
E00E
E00E
E00E
E00E
E00E
E00E
E00E
E00E
E00E
ENDCHAR
STARTCHAR uni00C4
ENCODING 196
SWIDTH 462 0
DWIDTH 18 0
BBX 15 30 3 0
BITMAP
1C70
1C70
1C70
0000
0000
0000
1FF0
1FF0
1FF0
E00E
E00E
E00E
E00E
E00E
E00E
E00E
E00E
E00E
FFFE
FFFE
FFFE
E00E
E00E
E00E
E00E
E00E
E00E
E00E
E00E
E00E
ENDCHAR
STARTCHAR uni00C5
ENCODING 197
SWIDTH 462 0
DWIDTH 18 0
BBX 15 30 3 0
BITMAP
0380
0380
0380
1C70
1C70
1C70
0380
0380
0380
0000
0000
0000
1FF0
1FF0
1FF0
E00E
E00E
E00E
E00E
E00E
E00E
FFFE
FFFE
FFFE
E00E
E00E
E00E
E00E
E00E
E00E
ENDCHAR
STARTCHAR uni00C6
ENCODING 198
SWIDTH 462 0
DWIDTH 18 0
BBX 15 24 3 0
BITMAP
1FFE
1FFE
1FFE
E380
E380
E380
E380
E380
E380
E3FE
E3FE
E3FE
FF80
FF80
FF80
E380
E380
E380
E380
E380
E380
E3FE
E3FE
E3FE
ENDCHAR
STARTCHAR uni00C7
ENCODING 199
SWIDTH 462 0
DWIDTH 18 0
BBX 15 33 3 -9
BITMAP
1FF0
1FF0
1FF0
E00E
E00E
E00E
E000
E000
E000
E000
E000
E000
E000
E000
E000
E000
E000
E000
E00E
E00E
E00E
1FF0
1FF0
1FF0
0380
0380
0380
0380
0380
0380
1C00
1C00
1C00
ENDCHAR
STARTCHAR uni00C8
ENCODING 200
SWIDTH 462 0
DWIDTH 18 0
BBX 15 30 3 0
BITMAP
1C00
1C00
1C00
0380
0380
0380
0000
0000
0000
FFFE
FFFE
FFFE
E000
E000
E000
E000
E000
E000
FFF0
FFF0
FFF0
E000
E000
E000
E000
E000
E000
FFFE
FFFE
FFFE
ENDCHAR
STARTCHAR uni00C9
ENCODING 201
SWIDTH 462 0
DWIDTH 18 0
BBX 15 30 3 0
BITMAP
0070
0070
0070
0380
0380
0380
0000
0000
0000
FFFE
FFFE
FFFE
E000
E000
E000
E000
E000
E000
FFF0
FFF0
FFF0
E000
E000
E000
E000
E000
E000
FFFE
FFFE
FFFE
ENDCHAR
STARTCHAR uni00CA
ENCODING 202
SWIDTH 462 0
DWIDTH 18 0
BBX 15 30 3 0
BITMAP
0380
0380
0380
1C70
1C70
1C70
0000
0000
0000
FFFE
FFFE
FFFE
E000
E000
E000
E000
E000
E000
FFF0
FFF0
FFF0
E000
E000
E000
E000
E000
E000
FFFE
FFFE
FFFE
ENDCHAR
STARTCHAR uni00CB
ENCODING 203
SWIDTH 462 0
DWIDTH 18 0
BBX 15 30 3 0
BITMAP
1C70
1C70
1C70
0000
0000
0000
FFFE
FFFE
FFFE
E000
E000
E000
E000
E000
E000
FFF0
FFF0
FFF0
E000
E000
E000
E000
E000
E000
E000
E000
E000
FFFE
FFFE
FFFE
ENDCHAR
STARTCHAR uni00CC
ENCODING 204
SWIDTH 462 0
DWIDTH 18 0
BBX 9 30 6 0
BITMAP
E000
E000
E000
1C00
1C00
1C00
0000
0000
0000
FF80
FF80
FF80
1C00
1C00
1C00
1C00
1C00
1C00
1C00
1C00
1C00
1C00
1C00
1C00
1C00
1C00
1C00
FF80
FF80
FF80
ENDCHAR
STARTCHAR uni00CD
ENCODING 205
SWIDTH 462 0
DWIDTH 18 0
BBX 9 30 6 0
BITMAP
0380
0380
0380
1C00
1C00
1C00
0000
0000
0000
FF80
FF80
FF80
1C00
1C00
1C00
1C00
1C00
1C00
1C00
1C00
1C00
1C00
1C00
1C00
1C00
1C00
1C00
FF80
FF80
FF80
ENDCHAR
STARTCHAR uni00CE
ENCODING 206
SWIDTH 462 0
DWIDTH 18 0
BBX 9 30 6 0
BITMAP
1C00
1C00
1C00
E380
E380
E380
0000
0000
0000
FF80
FF80
FF80
1C00
1C00
1C00
1C00
1C00
1C00
1C00
1C00
1C00
1C00
1C00
1C00
1C00
1C00
1C00
FF80
FF80
FF80
ENDCHAR
STARTCHAR uni00CF
ENCODING 207
SWIDTH 462 0
DWIDTH 18 0
BBX 9 30 6 0
BITMAP
E380
E380
E380
0000
0000
0000
FF80
FF80
FF80
1C00
1C00
1C00
1C00
1C00
1C00
1C00
1C00
1C00
1C00
1C00
1C00
1C00
1C00
1C00
1C00
1C00
1C00
FF80
FF80
FF80
ENDCHAR
STARTCHAR uni00D0
ENCODING 208
SWIDTH 462 0
DWIDTH 18 0
BBX 15 21 3 0
BITMAP
1FF0
1FF0
1FF0
1C0E
1C0E
1C0E
1C0E
1C0E
1C0E
FF8E
FF8E
FF8E
1C0E
1C0E
1C0E
1C0E
1C0E
1C0E
1FF0
1FF0
1FF0
ENDCHAR
STARTCHAR uni00D1
ENCODING 209
SWIDTH 462 0
DWIDTH 18 0
BBX 15 30 3 0
BITMAP
1F8E
1F8E
1F8E
E3F0
E3F0
E3F0
0000
0000
0000
E00E
E00E
E00E
FC0E
FC0E
FC0E
FC0E
FC0E
FC0E
E38E
E38E
E38E
E07E
E07E
E07E
E07E
E07E
E07E
E00E
E00E
E00E
ENDCHAR
STARTCHAR uni00D2
ENCODING 210
SWIDTH 462 0
DWIDTH 18 0
BBX 15 30 3 0
BITMAP
1C00
1C00
1C00
0380
0380
0380
0000
0000
0000
1FF0
1FF0
1FF0
E00E
E00E
E00E
E00E
E00E
E00E
E00E
E00E
E00E
E00E
E00E
E00E
E00E
E00E
E00E
1FF0
1FF0
1FF0
ENDCHAR
STARTCHAR uni00D3
ENCODING 211
SWIDTH 462 0
DWIDTH 18 0
BBX 15 30 3 0
BITMAP
0070
0070
0070
0380
0380
0380
0000
0000
0000
1FF0
1FF0
1FF0
E00E
E00E
E00E
E00E
E00E
E00E
E00E
E00E
E00E
E00E
E00E
E00E
E00E
E00E
E00E
1FF0
1FF0
1FF0
ENDCHAR
STARTCHAR uni00D4
ENCODING 212
SWIDTH 462 0
DWIDTH 18 0
BBX 15 30 3 0
BITMAP
0380
0380
0380
1C70
1C70
1C70
0000
0000
0000
1FF0
1FF0
1FF0
E00E
E00E
E00E
E00E
E00E
E00E
E00E
E00E
E00E
E00E
E00E
E00E
E00E
E00E
E00E
1FF0
1FF0
1FF0
ENDCHAR
STARTCHAR uni00D5
ENCODING 213
SWIDTH 462 0
DWIDTH 18 0
BBX 15 30 3 0
BITMAP
1F8E
1F8E
1F8E
E3F0
E3F0
E3F0
0000
0000
0000
1FF0
1FF0
1FF0
E00E
E00E
E00E
E00E
E00E
E00E
E00E
E00E
E00E
E00E
E00E
E00E
E00E
E00E
E00E
1FF0
1FF0
1FF0
ENDCHAR
STARTCHAR uni00D6
ENCODING 214
SWIDTH 462 0
DWIDTH 18 0
BBX 15 30 3 0
BITMAP
1C70
1C70
1C70
0000
0000
0000
1FF0
1FF0
1FF0
E00E
E00E
E00E
E00E
E00E
E00E
E00E
E00E
E00E
E00E
E00E
E00E
E00E
E00E
E00E
E00E
E00E
E00E
1FF0
1FF0
1FF0
ENDCHAR
STARTCHAR uni00D7
ENCODING 215
SWIDTH 462 0
DWIDTH 18 0
BBX 15 15 3 3
BITMAP
E00E
E00E
E00E
1C70
1C70
1C70
0380
0380
0380
1C70
1C70
1C70
E00E
E00E
E00E
ENDCHAR
STARTCHAR uni00D8
ENCODING 216
SWIDTH 462 0
DWIDTH 18 0
BBX 15 30 3 -3
BITMAP
000E
000E
000E
1FF0
1FF0
1FF0
E07E
E07E
E07E
E07E
E07E
E07E
E38E
E38E
E38E
E38E
E38E
E38E
FC0E
FC0E
FC0E
FC0E
FC0E
FC0E
1FF0
1FF0
1FF0
E000
E000
E000
ENDCHAR
STARTCHAR uni00D9
ENCODING 217
SWIDTH 462 0
DWIDTH 18 0
BBX 15 30 3 0
BITMAP
1C00
1C00
1C00
0380
0380
0380
0000
0000
0000
E00E
E00E
E00E
E00E
E00E
E00E
E00E
E00E
E00E
E00E
E00E
E00E
E00E
E00E
E00E
E00E
E00E
E00E
1FF0
1FF0
1FF0
ENDCHAR
STARTCHAR uni00DA
ENCODING 218
SWIDTH 462 0
DWIDTH 18 0
BBX 15 30 3 0
BITMAP
0070
0070
0070
0380
0380
0380
0000
0000
0000
E00E
E00E
E00E
E00E
E00E
E00E
E00E
E00E
E00E
E00E
E00E
E00E
E00E
E00E
E00E
E00E
E00E
E00E
1FF0
1FF0
1FF0
ENDCHAR
STARTCHAR uni00DB
ENCODING 219
SWIDTH 462 0
DWIDTH 18 0
BBX 15 30 3 0
BITMAP
0380
0380
0380
1C70
1C70
1C70
0000
0000
0000
E00E
E00E
E00E
E00E
E00E
E00E
E00E
E00E
E00E
E00E
E00E
E00E
E00E
E00E
E00E
E00E
E00E
E00E
1FF0
1FF0
1FF0
ENDCHAR
STARTCHAR uni00DC
ENCODING 220
SWIDTH 462 0
DWIDTH 18 0
BBX 15 30 3 0
BITMAP
1C70
1C70
1C70
0000
0000
0000
E00E
E00E
E00E
E00E
E00E
E00E
E00E
E00E
E00E
E00E
E00E
E00E
E00E
E00E
E00E
E00E
E00E
E00E
E00E
E00E
E00E
1FF0
1FF0
1FF0
ENDCHAR
STARTCHAR uni00DD
ENCODING 221
SWIDTH 462 0
DWIDTH 18 0
BBX 15 30 3 0
BITMAP
0070
0070
0070
0380
0380
0380
0000
0000
0000
E00E
E00E
E00E
E00E
E00E
E00E
E00E
E00E
E00E
1C70
1C70
1C70
0380
0380
0380
0380
0380
0380
0380
0380
0380
ENDCHAR
STARTCHAR uni00DE
ENCODING 222
SWIDTH 462 0
DWIDTH 18 0
BBX 15 24 3 0
BITMAP
E000
E000
E000
E000
E000
E000
FFF0
FFF0
FFF0
E00E
E00E
E00E
E00E
E00E
E00E
FFF0
FFF0
FFF0
E000
E000
E000
E000
E000
E000
ENDCHAR
STARTCHAR uni00DF
ENCODING 223
SWIDTH 462 0
DWIDTH 18 0
BBX 15 24 3 0
BITMAP
1F80
1F80
1F80
E070
E070
E070
E070
E070
E070
E380
E380
E380
E070
E070
E070
E00E
E00E
E00E
E00E
E00E
E00E
E3F0
E3F0
E3F0
ENDCHAR
STARTCHAR uni00E0
ENCODING 224
SWIDTH 462 0
DWIDTH 18 0
BBX 15 27 3 0
BITMAP
1C00
1C00
1C00
0380
0380
0380
0000
0000
0000
1FFE
1FFE
1FFE
E00E
E00E
E00E
E00E
E00E
E00E
E00E
E00E
E00E
E07E
E07E
E07E
1F8E
1F8E
1F8E
ENDCHAR
STARTCHAR uni00E1
ENCODING 225
SWIDTH 462 0
DWIDTH 18 0
BBX 15 27 3 0
BITMAP
0070
0070
0070
0380
0380
0380
0000
0000
0000
1FFE
1FFE
1FFE
E00E
E00E
E00E
E00E
E00E
E00E
E00E
E00E
E00E
E07E
E07E
E07E
1F8E
1F8E
1F8E
ENDCHAR
STARTCHAR uni00E2
ENCODING 226
SWIDTH 462 0
DWIDTH 18 0
BBX 15 27 3 0
BITMAP
0380
0380
0380
1C70
1C70
1C70
0000
0000
0000
1FFE
1FFE
1FFE
E00E
E00E
E00E
E00E
E00E
E00E
E00E
E00E
E00E
E07E
E07E
E07E
1F8E
1F8E
1F8E
ENDCHAR
STARTCHAR uni00E3
ENCODING 227
SWIDTH 462 0
DWIDTH 18 0
BBX 15 27 3 0
BITMAP
1F8E
1F8E
1F8E
E3F0
E3F0
E3F0
0000
0000
0000
1FFE
1FFE
1FFE
E00E
E00E
E00E
E00E
E00E
E00E
E00E
E00E
E00E
E07E
E07E
E07E
1F8E
1F8E
1F8E
ENDCHAR
STARTCHAR uni00E4
ENCODING 228
SWIDTH 462 0
DWIDTH 18 0
BBX 15 24 3 0
BITMAP
1C70
1C70
1C70
0000
0000
0000
1FFE
1FFE
1FFE
E00E
E00E
E00E
E00E
E00E
E00E
E00E
E00E
E00E
E07E
E07E
E07E
1F8E
1F8E
1F8E
ENDCHAR
STARTCHAR uni00E5
ENCODING 229
SWIDTH 462 0
DWIDTH 18 0
BBX 15 30 3 0
BITMAP
0380
0380
0380
1C70
1C70
1C70
0380
0380
0380
0000
0000
0000
1FFE
1FFE
1FFE
E00E
E00E
E00E
E00E
E00E
E00E
E00E
E00E
E00E
E07E
E07E
E07E
1F8E
1F8E
1F8E
ENDCHAR
STARTCHAR uni00E6
ENCODING 230
SWIDTH 462 0
DWIDTH 18 0
BBX 15 18 3 0
BITMAP
1FF0
1FF0
1FF0
E38E
E38E
E38E
E3FE
E3FE
E3FE
E380
E380
E380
E38E
E38E
E38E
1C70
1C70
1C70
ENDCHAR
STARTCHAR uni00E7
ENCODING 231
SWIDTH 462 0
DWIDTH 18 0
BBX 15 27 3 -9
BITMAP
1FF0
1FF0
1FF0
E00E
E00E
E00E
E000
E000
E000
E000
E000
E000
E00E
E00E
E00E
1FF0
1FF0
1FF0
0380
0380
0380
0070
0070
0070
1F80
1F80
1F80
ENDCHAR
STARTCHAR uni00E8
ENCODING 232
SWIDTH 462 0
DWIDTH 18 0
BBX 15 27 3 0
BITMAP
1C00
1C00
1C00
0380
0380
0380
0000
0000
0000
1FF0
1FF0
1FF0
E00E
E00E
E00E
FFFE
FFFE
FFFE
E000
E000
E000
E00E
E00E
E00E
1FF0
1FF0
1FF0
ENDCHAR
STARTCHAR uni00E9
ENCODING 233
SWIDTH 462 0
DWIDTH 18 0
BBX 15 27 3 0
BITMAP
0070
0070
0070
0380
0380
0380
0000
0000
0000
1FF0
1FF0
1FF0
E00E
E00E
E00E
FFFE
FFFE
FFFE
E000
E000
E000
E00E
E00E
E00E
1FF0
1FF0
1FF0
ENDCHAR
STARTCHAR uni00EA
ENCODING 234
SWIDTH 462 0
DWIDTH 18 0
BBX 15 27 3 0
BITMAP
0380
0380
0380
1C70
1C70
1C70
0000
0000
0000
1FF0
1FF0
1FF0
E00E
E00E
E00E
FFFE
FFFE
FFFE
E000
E000
E000
E00E
E00E
E00E
1FF0
1FF0
1FF0
ENDCHAR
STARTCHAR uni00EB
ENCODING 235
SWIDTH 462 0
DWIDTH 18 0
BBX 15 24 3 0
BITMAP
1C70
1C70
1C70
0000
0000
0000
1FF0
1FF0
1FF0
E00E
E00E
E00E
FFFE
FFFE
FFFE
E000
E000
E000
E00E
E00E
E00E
1FF0
1FF0
1FF0
ENDCHAR
STARTCHAR uni00EC
ENCODING 236
SWIDTH 462 0
DWIDTH 18 0
BBX 12 27 6 0
BITMAP
E000
E000
E000
1C00
1C00
1C00
0000
0000
0000
FC00
FC00
FC00
1C00
1C00
1C00
1C00
1C00
1C00
1C00
1C00
1C00
1C00
1C00
1C00
03F0
03F0
03F0
ENDCHAR
STARTCHAR uni00ED
ENCODING 237
SWIDTH 462 0
DWIDTH 18 0
BBX 12 27 6 0
BITMAP
0380
0380
0380
1C00
1C00
1C00
0000
0000
0000
FC00
FC00
FC00
1C00
1C00
1C00
1C00
1C00
1C00
1C00
1C00
1C00
1C00
1C00
1C00
03F0
03F0
03F0
ENDCHAR
STARTCHAR uni00EE
ENCODING 238
SWIDTH 462 0
DWIDTH 18 0
BBX 12 27 6 0
BITMAP
1C00
1C00
1C00
E380
E380
E380
0000
0000
0000
FC00
FC00
FC00
1C00
1C00
1C00
1C00
1C00
1C00
1C00
1C00
1C00
1C00
1C00
1C00
03F0
03F0
03F0
ENDCHAR
STARTCHAR uni00EF
ENCODING 239
SWIDTH 462 0
DWIDTH 18 0
BBX 12 24 6 0
BITMAP
E380
E380
E380
0000
0000
0000
FC00
FC00
FC00
1C00
1C00
1C00
1C00
1C00
1C00
1C00
1C00
1C00
1C00
1C00
1C00
03F0
03F0
03F0
ENDCHAR
STARTCHAR uni00F0
ENCODING 240
SWIDTH 462 0
DWIDTH 18 0
BBX 15 27 3 0
BITMAP
1F8E
1F8E
1F8E
0070
0070
0070
038E
038E
038E
000E
000E
000E
1FFE
1FFE
1FFE
E00E
E00E
E00E
E00E
E00E
E00E
E00E
E00E
E00E
1FF0
1FF0
1FF0
ENDCHAR
STARTCHAR uni00F1
ENCODING 241
SWIDTH 462 0
DWIDTH 18 0
BBX 15 27 3 0
BITMAP
1F8E
1F8E
1F8E
E3F0
E3F0
E3F0
0000
0000
0000
FFF0
FFF0
FFF0
E00E
E00E
E00E
E00E
E00E
E00E
E00E
E00E
E00E
E00E
E00E
E00E
E00E
E00E
E00E
ENDCHAR
STARTCHAR uni00F2
ENCODING 242
SWIDTH 462 0
DWIDTH 18 0
BBX 15 27 3 0
BITMAP
1C00
1C00
1C00
0380
0380
0380
0000
0000
0000
1FF0
1FF0
1FF0
E00E
E00E
E00E
E00E
E00E
E00E
E00E
E00E
E00E
E00E
E00E
E00E
1FF0
1FF0
1FF0
ENDCHAR
STARTCHAR uni00F3
ENCODING 243
SWIDTH 462 0
DWIDTH 18 0
BBX 15 27 3 0
BITMAP
0070
0070
0070
0380
0380
0380
0000
0000
0000
1FF0
1FF0
1FF0
E00E
E00E
E00E
E00E
E00E
E00E
E00E
E00E
E00E
E00E
E00E
E00E
1FF0
1FF0
1FF0
ENDCHAR
STARTCHAR uni00F4
ENCODING 244
SWIDTH 462 0
DWIDTH 18 0
BBX 15 27 3 0
BITMAP
0380
0380
0380
1C70
1C70
1C70
0000
0000
0000
1FF0
1FF0
1FF0
E00E
E00E
E00E
E00E
E00E
E00E
E00E
E00E
E00E
E00E
E00E
E00E
1FF0
1FF0
1FF0
ENDCHAR
STARTCHAR uni00F5
ENCODING 245
SWIDTH 462 0
DWIDTH 18 0
BBX 15 27 3 0
BITMAP
1F8E
1F8E
1F8E
E3F0
E3F0
E3F0
0000
0000
0000
1FF0
1FF0
1FF0
E00E
E00E
E00E
E00E
E00E
E00E
E00E
E00E
E00E
E00E
E00E
E00E
1FF0
1FF0
1FF0
ENDCHAR
STARTCHAR uni00F6
ENCODING 246
SWIDTH 462 0
DWIDTH 18 0
BBX 15 24 3 0
BITMAP
1C70
1C70
1C70
0000
0000
0000
1FF0
1FF0
1FF0
E00E
E00E
E00E
E00E
E00E
E00E
E00E
E00E
E00E
E00E
E00E
E00E
1FF0
1FF0
1FF0
ENDCHAR
STARTCHAR uni00F7
ENCODING 247
SWIDTH 462 0
DWIDTH 18 0
BBX 15 15 3 3
BITMAP
0380
0380
0380
0000
0000
0000
FFFE
FFFE
FFFE
0000
0000
0000
0380
0380
0380
ENDCHAR
STARTCHAR uni00F8
ENCODING 248
SWIDTH 462 0
DWIDTH 18 0
BBX 15 24 3 -3
BITMAP
000E
000E
000E
1FF0
1FF0
1FF0
E07E
E07E
E07E
E38E
E38E
E38E
E38E
E38E
E38E
FC0E
FC0E
FC0E
1FF0
1FF0
1FF0
E000
E000
E000
ENDCHAR
STARTCHAR uni00F9
ENCODING 249
SWIDTH 462 0
DWIDTH 18 0
BBX 15 27 3 0
BITMAP
1C00
1C00
1C00
0380
0380
0380
0000
0000
0000
E00E
E00E
E00E
E00E
E00E
E00E
E00E
E00E
E00E
E00E
E00E
E00E
E00E
E00E
E00E
1FFE
1FFE
1FFE
ENDCHAR
STARTCHAR uni00FA
ENCODING 250
SWIDTH 462 0
DWIDTH 18 0
BBX 15 27 3 0
BITMAP
0070
0070
0070
0380
0380
0380
0000
0000
0000
E00E
E00E
E00E
E00E
E00E
E00E
E00E
E00E
E00E
E00E
E00E
E00E
E00E
E00E
E00E
1FFE
1FFE
1FFE
ENDCHAR
STARTCHAR uni00FB
ENCODING 251
SWIDTH 462 0
DWIDTH 18 0
BBX 15 27 3 0
BITMAP
0380
0380
0380
1C70
1C70
1C70
0000
0000
0000
E00E
E00E
E00E
E00E
E00E
E00E
E00E
E00E
E00E
E00E
E00E
E00E
E00E
E00E
E00E
1FFE
1FFE
1FFE
ENDCHAR
STARTCHAR uni00FC
ENCODING 252
SWIDTH 462 0
DWIDTH 18 0
BBX 15 24 3 0
BITMAP
1C70
1C70
1C70
0000
0000
0000
E00E
E00E
E00E
E00E
E00E
E00E
E00E
E00E
E00E
E00E
E00E
E00E
E00E
E00E
E00E
1FFE
1FFE
1FFE
ENDCHAR
STARTCHAR uni00FD
ENCODING 253
SWIDTH 462 0
DWIDTH 18 0
BBX 15 36 3 -9
BITMAP
0070
0070
0070
0380
0380
0380
0000
0000
0000
E00E
E00E
E00E
E00E
E00E
E00E
E00E
E00E
E00E
E00E
E00E
E00E
E00E
E00E
E00E
1FFE
1FFE
1FFE
000E
000E
000E
000E
000E
000E
1FF0
1FF0
1FF0
ENDCHAR
STARTCHAR uni00FE
ENCODING 254
SWIDTH 462 0
DWIDTH 18 0
BBX 15 30 3 -6
BITMAP
E000
E000
E000
E000
E000
E000
FFF0
FFF0
FFF0
E00E
E00E
E00E
E00E
E00E
E00E
E00E
E00E
E00E
E00E
E00E
E00E
FFF0
FFF0
FFF0
E000
E000
E000
E000
E000
E000
ENDCHAR
STARTCHAR uni00FF
ENCODING 255
SWIDTH 462 0
DWIDTH 18 0
BBX 15 33 3 -9
BITMAP
1C70
1C70
1C70
0000
0000
0000
E00E
E00E
E00E
E00E
E00E
E00E
E00E
E00E
E00E
E00E
E00E
E00E
E00E
E00E
E00E
1FFE
1FFE
1FFE
000E
000E
000E
000E
000E
000E
1FF0
1FF0
1FF0
ENDCHAR
STARTCHAR uni2026
ENCODING 8230
SWIDTH 462 0
DWIDTH 18 0
BBX 15 3 3 0
BITMAP
E38E
E38E
E38E
ENDCHAR
ENDFONT
