STARTFONT 2.1
FONT -pebble-pixelva-medium-r-normal--36-360-75-75-P-0-iso10646-1
SIZE 36 75 75
FONTBOUNDINGBOX 30 36 0 -9
COMMENT "HomeStarRunnerTron; BitFontMaker2 gallery 5892"
COMMENT "Public Domain"
COMMENT "U+2026 derived by repeating U+002E"
STARTPROPERTIES 8
FAMILY_NAME "Pixelva"
WEIGHT_NAME "Medium"
SLANT "R"
PIXEL_SIZE 36
FONT_ASCENT 27
FONT_DESCENT 9
SPACING "P"
CHARSET_REGISTRY "ISO10646"
ENDPROPERTIES
CHARS 93
STARTCHAR uni0020
ENCODING 32
SWIDTH 417 0
DWIDTH 15 0
BBX 3 3 0 0
BITMAP
00
00
00
ENDCHAR
STARTCHAR uni0021
ENCODING 33
SWIDTH 250 0
DWIDTH 9 0
BBX 3 27 3 0
BITMAP
E0
E0
E0
E0
E0
E0
E0
E0
E0
E0
E0
E0
E0
E0
E0
E0
E0
E0
E0
E0
E0
00
00
00
E0
E0
E0
ENDCHAR
STARTCHAR uni0022
ENCODING 34
SWIDTH 417 0
DWIDTH 15 0
BBX 9 6 3 21
BITMAP
E380
E380
E380
E380
E380
E380
ENDCHAR
STARTCHAR uni0023
ENCODING 35
SWIDTH 750 0
DWIDTH 27 0
BBX 21 15 3 12
BITMAP
0071C0
0071C0
0071C0
1FFFF8
1FFFF8
1FFFF8
038E00
038E00
038E00
FFFFC0
FFFFC0
FFFFC0
1C7000
1C7000
1C7000
ENDCHAR
STARTCHAR uni0024
ENCODING 36
SWIDTH 583 0
DWIDTH 21 0
BBX 15 33 3 0
BITMAP
0380
0380
0380
1FF0
1FF0
1FF0
E38E
E38E
E38E
E380
E380
E380
1F80
1F80
1F80
03F0
03F0
03F0
038E
038E
038E
038E
038E
038E
E38E
E38E
E38E
1FF0
1FF0
1FF0
0380
0380
0380
ENDCHAR
STARTCHAR uni0025
ENCODING 37
SWIDTH 750 0
DWIDTH 27 0
BBX 21 27 3 0
BITMAP
1FFFF8
1FFFF8
1FFFF8
E07038
E07038
E07038
E071C0
E071C0
E071C0
1F8E00
1F8E00
1F8E00
007000
007000
007000
038FC0
038FC0
038FC0
1C7038
1C7038
1C7038
E07038
E07038
E07038
E00FC0
E00FC0
E00FC0
ENDCHAR
STARTCHAR uni0026
ENCODING 38
SWIDTH 833 0
DWIDTH 30 0
BBX 24 27 3 0
BITMAP
03F000
03F000
03F000
1C0E00
1C0E00
1C0E00
1C7000
1C7000
1C7000
038000
038000
038000
1C7000
1C7000
1C7000
E00E38
E00E38
E00E38
E001C0
E001C0
E001C0
E00E38
E00E38
E00E38
1FF007
1FF007
1FF007
ENDCHAR
STARTCHAR uni0027
ENCODING 39
SWIDTH 250 0
DWIDTH 9 0
BBX 3 6 3 21
BITMAP
E0
E0
E0
E0
E0
E0
ENDCHAR
STARTCHAR uni0028
ENCODING 40
SWIDTH 417 0
DWIDTH 15 0
BBX 9 33 3 -3
BITMAP
0380
0380
0380
1C00
1C00
1C00
1C00
1C00
1C00
E000
E000
E000
E000
E000
E000
E000
E000
E000
E000
E000
E000
E000
E000
E000
1C00
1C00
1C00
1C00
1C00
1C00
0380
0380
0380
ENDCHAR
STARTCHAR uni0029
ENCODING 41
SWIDTH 417 0
DWIDTH 15 0
BBX 9 33 3 -3
BITMAP
E000
E000
E000
1C00
1C00
1C00
1C00
1C00
1C00
0380
0380
0380
0380
0380
0380
0380
0380
0380
0380
0380
0380
0380
0380
0380
1C00
1C00
1C00
1C00
1C00
1C00
E000
E000
E000
ENDCHAR
STARTCHAR uni002A
ENCODING 42
SWIDTH 667 0
DWIDTH 24 0
BBX 18 15 3 12
BITMAP
1C0E00
1C0E00
1C0E00
03F000
03F000
03F000
FFFFC0
FFFFC0
FFFFC0
03F000
03F000
03F000
1C0E00
1C0E00
1C0E00
ENDCHAR
STARTCHAR uni002B
ENCODING 43
SWIDTH 583 0
DWIDTH 21 0
BBX 15 15 3 6
BITMAP
0380
0380
0380
0380
0380
0380
FFFE
FFFE
FFFE
0380
0380
0380
0380
0380
0380
ENDCHAR
STARTCHAR uni002C
ENCODING 44
SWIDTH 333 0
DWIDTH 12 0
BBX 6 9 3 -6
BITMAP
1C
1C
1C
1C
1C
1C
E0
E0
E0
ENDCHAR
STARTCHAR uni002D
ENCODING 45
SWIDTH 583 0
DWIDTH 21 0
BBX 15 3 3 12
BITMAP
FFFE
FFFE
FFFE
ENDCHAR
STARTCHAR uni002E
ENCODING 46
SWIDTH 250 0
DWIDTH 9 0
BBX 3 3 3 0
BITMAP
E0
E0
E0
ENDCHAR
STARTCHAR uni002F
ENCODING 47
SWIDTH 583 0
DWIDTH 21 0
BBX 15 30 3 0
BITMAP
000E
000E
000E
000E
000E
000E
0070
0070
0070
0070
0070
0070
0380
0380
0380
0380
0380
0380
1C00
1C00
1C00
1C00
1C00
1C00
E000
E000
E000
E000
E000
E000
ENDCHAR
STARTCHAR uni0030
ENCODING 48
SWIDTH 667 0
DWIDTH 24 0
BBX 18 27 3 0
BITMAP
03F000
03F000
03F000
1C0E00
1C0E00
1C0E00
E001C0
E001C0
E001C0
E001C0
E001C0
E001C0
E001C0
E001C0
E001C0
E001C0
E001C0
E001C0
E001C0
E001C0
E001C0
1C0E00
1C0E00
1C0E00
03F000
03F000
03F000
ENDCHAR
STARTCHAR uni0031
ENCODING 49
SWIDTH 333 0
DWIDTH 12 0
BBX 6 27 3 0
BITMAP
1C
1C
1C
FC
FC
FC
1C
1C
1C
1C
1C
1C
1C
1C
1C
1C
1C
1C
1C
1C
1C
1C
1C
1C
1C
1C
1C
ENDCHAR
STARTCHAR uni0032
ENCODING 50
SWIDTH 667 0
DWIDTH 24 0
BBX 18 27 3 0
BITMAP
03FE00
03FE00
03FE00
1C01C0
1C01C0
1C01C0
E001C0
E001C0
E001C0
0001C0
0001C0
0001C0
000E00
000E00
000E00
007000
007000
007000
038000
038000
038000
1C0000
1C0000
1C0000
FFFFC0
FFFFC0
FFFFC0
ENDCHAR
STARTCHAR uni0033
ENCODING 51
SWIDTH 667 0
DWIDTH 24 0
BBX 18 27 3 0
BITMAP
FFFFC0
FFFFC0
FFFFC0
000E00
000E00
000E00
007000
007000
007000
03F000
03F000
03F000
000E00
000E00
000E00
0001C0
0001C0
0001C0
0001C0
0001C0
0001C0
E00E00
E00E00
E00E00
1FF000
1FF000
1FF000
ENDCHAR
STARTCHAR uni0034
ENCODING 52
SWIDTH 750 0
DWIDTH 27 0
BBX 21 27 3 0
BITMAP
0001C0
0001C0
0001C0
000FC0
000FC0
000FC0
0071C0
0071C0
0071C0
0381C0
0381C0
0381C0
1C01C0
1C01C0
1C01C0
E001C0
E001C0
E001C0
FFFFF8
FFFFF8
FFFFF8
0001C0
0001C0
0001C0
0001C0
0001C0
0001C0
ENDCHAR
STARTCHAR uni0035
ENCODING 53
SWIDTH 667 0
DWIDTH 24 0
BBX 18 27 3 0
BITMAP
FFFFC0
FFFFC0
FFFFC0
E00000
E00000
E00000
E00000
E00000
E00000
FFFE00
FFFE00
FFFE00
0001C0
0001C0
0001C0
0001C0
0001C0
0001C0
0001C0
0001C0
0001C0
E001C0
E001C0
E001C0
1FFE00
1FFE00
1FFE00
ENDCHAR
STARTCHAR uni0036
ENCODING 54
SWIDTH 667 0
DWIDTH 24 0
BBX 18 27 3 0
BITMAP
03FE00
03FE00
03FE00
1C0000
1C0000
1C0000
E00000
E00000
E00000
FFFE00
FFFE00
FFFE00
E001C0
E001C0
E001C0
E001C0
E001C0
E001C0
E001C0
E001C0
E001C0
E001C0
E001C0
E001C0
1FFE00
1FFE00
1FFE00
ENDCHAR
STARTCHAR uni0037
ENCODING 55
SWIDTH 667 0
DWIDTH 24 0
BBX 18 27 3 0
BITMAP
FFFFC0
FFFFC0
FFFFC0
0001C0
0001C0
0001C0
000E00
000E00
000E00
000E00
000E00
000E00
007000
007000
007000
007000
007000
007000
038000
038000
038000
038000
038000
038000
038000
038000
038000
ENDCHAR
STARTCHAR uni0038
ENCODING 56
SWIDTH 667 0
DWIDTH 24 0
BBX 18 27 3 0
BITMAP
1FFE00
1FFE00
1FFE00
E001C0
E001C0
E001C0
E001C0
E001C0
E001C0
1FFE00
1FFE00
1FFE00
E001C0
E001C0
E001C0
E001C0
E001C0
E001C0
E001C0
E001C0
E001C0
E001C0
E001C0
E001C0
1FFE00
1FFE00
1FFE00
ENDCHAR
STARTCHAR uni0039
ENCODING 57
SWIDTH 667 0
DWIDTH 24 0
BBX 18 27 3 0
BITMAP
1FFE00
1FFE00
1FFE00
E001C0
E001C0
E001C0
E001C0
E001C0
E001C0
E001C0
E001C0
E001C0
E001C0
E001C0
E001C0
1FFFC0
1FFFC0
1FFFC0
0001C0
0001C0
0001C0
000E00
000E00
000E00
1FF000
1FF000
1FF000
ENDCHAR
STARTCHAR uni003A
ENCODING 58
SWIDTH 250 0
DWIDTH 9 0
BBX 3 18 3 0
BITMAP
E0
E0
E0
00
00
00
00
00
00
00
00
00
00
00
00
E0
E0
E0
ENDCHAR
STARTCHAR uni003B
ENCODING 59
SWIDTH 250 0
DWIDTH 9 0
BBX 6 24 0 -6
BITMAP
1C
1C
1C
00
00
00
00
00
00
00
00
00
00
00
00
1C
1C
1C
1C
1C
1C
E0
E0
E0
ENDCHAR
STARTCHAR uni003C
ENCODING 60
SWIDTH 500 0
DWIDTH 18 0
BBX 12 21 3 0
BITMAP
0070
0070
0070
0380
0380
0380
1C00
1C00
1C00
E000
E000
E000
1C00
1C00
1C00
0380
0380
0380
0070
0070
0070
ENDCHAR
STARTCHAR uni003D
ENCODING 61
SWIDTH 583 0
DWIDTH 21 0
BBX 15 12 3 3
BITMAP
FFFE
FFFE
FFFE
0000
0000
0000
0000
0000
0000
FFFE
FFFE
FFFE
ENDCHAR
STARTCHAR uni003E
ENCODING 62
SWIDTH 500 0
DWIDTH 18 0
BBX 12 21 3 0
BITMAP
E000
E000
E000
1C00
1C00
1C00
0380
0380
0380
0070
0070
0070
0380
0380
0380
1C00
1C00
1C00
E000
E000
E000
ENDCHAR
STARTCHAR uni003F
ENCODING 63
SWIDTH 667 0
DWIDTH 24 0
BBX 18 27 3 0
BITMAP
1FFE00
1FFE00
1FFE00
E001C0
E001C0
E001C0
E001C0
E001C0
E001C0
000E00
000E00
000E00
007000
007000
007000
038000
038000
038000
038000
038000
038000
000000
000000
000000
038000
038000
038000
ENDCHAR
STARTCHAR uni0040
ENCODING 64
SWIDTH 833 0
DWIDTH 30 0
BBX 24 24 3 0
BITMAP
03FFC0
03FFC0
03FFC0
1C0038
1C0038
1C0038
E07FC7
E07FC7
E07FC7
E381C7
E381C7
E381C7
E381C7
E381C7
E381C7
E07FF8
E07FF8
E07FF8
1C0000
1C0000
1C0000
03FE00
03FE00
03FE00
ENDCHAR
STARTCHAR uni0041
ENCODING 65
SWIDTH 750 0
DWIDTH 27 0
BBX 21 27 3 0
BITMAP
007000
007000
007000
007000
007000
007000
038E00
038E00
038E00
038E00
038E00
038E00
1C01C0
1C01C0
1C01C0
1C01C0
1C01C0
1C01C0
FFFFF8
FFFFF8
FFFFF8
E00038
E00038
E00038
E00038
E00038
E00038
ENDCHAR
STARTCHAR uni0042
ENCODING 66
SWIDTH 667 0
DWIDTH 24 0
BBX 18 27 3 0
BITMAP
FFFE00
FFFE00
FFFE00
E001C0
E001C0
E001C0
E001C0
E001C0
E001C0
FFFE00
FFFE00
FFFE00
E001C0
E001C0
E001C0
E001C0
E001C0
E001C0
E001C0
E001C0
E001C0
E001C0
E001C0
E001C0
FFFE00
FFFE00
FFFE00
ENDCHAR
STARTCHAR uni0043
ENCODING 67
SWIDTH 667 0
DWIDTH 24 0
BBX 18 27 3 0
BITMAP
1FFE00
1FFE00
1FFE00
E001C0
E001C0
E001C0
E00000
E00000
E00000
E00000
E00000
E00000
E00000
E00000
E00000
E00000
E00000
E00000
E00000
E00000
E00000
E001C0
E001C0
E001C0
1FFE00
1FFE00
1FFE00
ENDCHAR
STARTCHAR uni0044
ENCODING 68
SWIDTH 667 0
DWIDTH 24 0
BBX 18 27 3 0
BITMAP
FFF000
FFF000
FFF000
E00E00
E00E00
E00E00
E001C0
E001C0
E001C0
E001C0
E001C0
E001C0
E001C0
E001C0
E001C0
E001C0
E001C0
E001C0
E001C0
E001C0
E001C0
E00E00
E00E00
E00E00
FFF000
FFF000
FFF000
ENDCHAR
STARTCHAR uni0045
ENCODING 69
SWIDTH 583 0
DWIDTH 21 0
BBX 15 27 3 0
BITMAP
FFFE
FFFE
FFFE
E000
E000
E000
E000
E000
E000
E000
E000
E000
FFF0
FFF0
FFF0
E000
E000
E000
E000
E000
E000
E000
E000
E000
FFFE
FFFE
FFFE
ENDCHAR
STARTCHAR uni0046
ENCODING 70
SWIDTH 583 0
DWIDTH 21 0
BBX 15 27 3 0
BITMAP
FFFE
FFFE
FFFE
E000
E000
E000
E000
E000
E000
E000
E000
E000
FFF0
FFF0
FFF0
E000
E000
E000
E000
E000
E000
E000
E000
E000
E000
E000
E000
ENDCHAR
STARTCHAR uni0047
ENCODING 71
SWIDTH 667 0
DWIDTH 24 0
BBX 18 27 3 0
BITMAP
1FFE00
1FFE00
1FFE00
E001C0
E001C0
E001C0
E00000
E00000
E00000
E00000
E00000
E00000
E07FC0
E07FC0
E07FC0
E001C0
E001C0
E001C0
E001C0
E001C0
E001C0
E001C0
E001C0
E001C0
1FFE00
1FFE00
1FFE00
ENDCHAR
STARTCHAR uni0048
ENCODING 72
SWIDTH 667 0
DWIDTH 24 0
BBX 18 27 3 0
BITMAP
E001C0
E001C0
E001C0
E001C0
E001C0
E001C0
E001C0
E001C0
E001C0
E001C0
E001C0
E001C0
FFFFC0
FFFFC0
FFFFC0
E001C0
E001C0
E001C0
E001C0
E001C0
E001C0
E001C0
E001C0
E001C0
E001C0
E001C0
E001C0
ENDCHAR
STARTCHAR uni0049
ENCODING 73
SWIDTH 333 0
DWIDTH 12 0
BBX 3 27 6 0
BITMAP
E0
E0
E0
E0
E0
E0
E0
E0
E0
E0
E0
E0
E0
E0
E0
E0
E0
E0
E0
E0
E0
E0
E0
E0
E0
E0
E0
ENDCHAR
STARTCHAR uni004A
ENCODING 74
SWIDTH 583 0
DWIDTH 21 0
BBX 18 27 0 0
BITMAP
0001C0
0001C0
0001C0
0001C0
0001C0
0001C0
0001C0
0001C0
0001C0
0001C0
0001C0
0001C0
0001C0
0001C0
0001C0
0001C0
0001C0
0001C0
E001C0
E001C0
E001C0
E001C0
E001C0
E001C0
1FFE00
1FFE00
1FFE00
ENDCHAR
STARTCHAR uni004B
ENCODING 75
SWIDTH 667 0
DWIDTH 24 0
BBX 18 27 3 0
BITMAP
E001C0
E001C0
E001C0
E00E00
E00E00
E00E00
E07000
E07000
E07000
E38000
E38000
E38000
FC0000
FC0000
FC0000
E38000
E38000
E38000
E07000
E07000
E07000
E00E00
E00E00
E00E00
E001C0
E001C0
E001C0
ENDCHAR
STARTCHAR uni004C
ENCODING 76
SWIDTH 583 0
DWIDTH 21 0
BBX 15 27 3 0
BITMAP
E000
E000
E000
E000
E000
E000
E000
E000
E000
E000
E000
E000
E000
E000
E000
E000
E000
E000
E000
E000
E000
E000
E000
E000
FFFE
FFFE
FFFE
ENDCHAR
STARTCHAR uni004D
ENCODING 77
SWIDTH 750 0
DWIDTH 27 0
BBX 21 27 3 0
BITMAP
E00038
E00038
E00038
FC01F8
FC01F8
FC01F8
E38E38
E38E38
E38E38
E07038
E07038
E07038
E00038
E00038
E00038
E00038
E00038
E00038
E00038
E00038
E00038
E00038
E00038
E00038
E00038
E00038
E00038
ENDCHAR
STARTCHAR uni004E
ENCODING 78
SWIDTH 667 0
DWIDTH 24 0
BBX 18 27 3 0
BITMAP
FC01C0
FC01C0
FC01C0
FC01C0
FC01C0
FC01C0
E381C0
E381C0
E381C0
E381C0
E381C0
E381C0
E071C0
E071C0
E071C0
E071C0
E071C0
E071C0
E00FC0
E00FC0
E00FC0
E00FC0
E00FC0
E00FC0
E001C0
E001C0
E001C0
ENDCHAR
STARTCHAR uni004F
ENCODING 79
SWIDTH 667 0
DWIDTH 24 0
BBX 18 27 3 0
BITMAP
1FFE00
1FFE00
1FFE00
E001C0
E001C0
E001C0
E001C0
E001C0
E001C0
E001C0
E001C0
E001C0
E001C0
E001C0
E001C0
E001C0
E001C0
E001C0
E001C0
E001C0
E001C0
E001C0
E001C0
E001C0
1FFE00
1FFE00
1FFE00
ENDCHAR
STARTCHAR uni0050
ENCODING 80
SWIDTH 667 0
DWIDTH 24 0
BBX 18 27 3 0
BITMAP
FFFE00
FFFE00
FFFE00
E001C0
E001C0
E001C0
E001C0
E001C0
E001C0
E001C0
E001C0
E001C0
FFFE00
FFFE00
FFFE00
E00000
E00000
E00000
E00000
E00000
E00000
E00000
E00000
E00000
E00000
E00000
E00000
ENDCHAR
STARTCHAR uni0051
ENCODING 81
SWIDTH 667 0
DWIDTH 24 0
BBX 18 30 3 -3
BITMAP
1FFE00
1FFE00
1FFE00
E001C0
E001C0
E001C0
E001C0
E001C0
E001C0
E001C0
E001C0
E001C0
E001C0
E001C0
E001C0
E001C0
E001C0
E001C0
E001C0
E001C0
E001C0
E071C0
E071C0
E071C0
1FFE00
1FFE00
1FFE00
0001C0
0001C0
0001C0
ENDCHAR
STARTCHAR uni0052
ENCODING 82
SWIDTH 667 0
DWIDTH 24 0
BBX 18 27 3 0
BITMAP
FFFE00
FFFE00
FFFE00
E001C0
E001C0
E001C0
E001C0
E001C0
E001C0
E001C0
E001C0
E001C0
FFFE00
FFFE00
FFFE00
E38000
E38000
E38000
E07000
E07000
E07000
E00E00
E00E00
E00E00
E001C0
E001C0
E001C0
ENDCHAR
STARTCHAR uni0053
ENCODING 83
SWIDTH 667 0
DWIDTH 24 0
BBX 18 27 3 0
BITMAP
1FFE00
1FFE00
1FFE00
E001C0
E001C0
E001C0
E00000
E00000
E00000
E00000
E00000
E00000
1FFE00
1FFE00
1FFE00
0001C0
0001C0
0001C0
0001C0
0001C0
0001C0
E001C0
E001C0
E001C0
1FFE00
1FFE00
1FFE00
ENDCHAR
STARTCHAR uni0054
ENCODING 84
SWIDTH 667 0
DWIDTH 24 0
BBX 21 27 0 0
BITMAP
FFFFF8
FFFFF8
FFFFF8
007000
007000
007000
007000
007000
007000
007000
007000
007000
007000
007000
007000
007000
007000
007000
007000
007000
007000
007000
007000
007000
007000
007000
007000
ENDCHAR
STARTCHAR uni0055
ENCODING 85
SWIDTH 667 0
DWIDTH 24 0
BBX 18 27 3 0
BITMAP
E001C0
E001C0
E001C0
E001C0
E001C0
E001C0
E001C0
E001C0
E001C0
E001C0
E001C0
E001C0
E001C0
E001C0
E001C0
E001C0
E001C0
E001C0
E001C0
E001C0
E001C0
E001C0
E001C0
E001C0
1FFE00
1FFE00
1FFE00
ENDCHAR
STARTCHAR uni0056
ENCODING 86
SWIDTH 750 0
DWIDTH 27 0
BBX 21 27 3 0
BITMAP
E00038
E00038
E00038
E00038
E00038
E00038
E00038
E00038
E00038
1C01C0
1C01C0
1C01C0
1C01C0
1C01C0
1C01C0
038E00
038E00
038E00
038E00
038E00
038E00
007000
007000
007000
007000
007000
007000
ENDCHAR
STARTCHAR uni0057
ENCODING 87
SWIDTH 917 0
DWIDTH 33 0
BBX 27 27 3 0
BITMAP
E00000E0
E00000E0
E00000E0
E00000E0
E00000E0
E00000E0
E00E00E0
E00E00E0
E00E00E0
1C0E0700
1C0E0700
1C0E0700
1C71C700
1C71C700
1C71C700
1C71C700
1C71C700
1C71C700
03803800
03803800
03803800
03803800
03803800
03803800
03803800
03803800
03803800
ENDCHAR
STARTCHAR uni0058
ENCODING 88
SWIDTH 583 0
DWIDTH 21 0
BBX 15 27 3 0
BITMAP
E00E
E00E
E00E
E00E
E00E
E00E
1C70
1C70
1C70
1C70
1C70
1C70
0380
0380
0380
1C70
1C70
1C70
1C70
1C70
1C70
E00E
E00E
E00E
E00E
E00E
E00E
ENDCHAR
STARTCHAR uni0059
ENCODING 89
SWIDTH 583 0
DWIDTH 21 0
BBX 15 27 3 0
BITMAP
E00E
E00E
E00E
E00E
E00E
E00E
E00E
E00E
E00E
1C70
1C70
1C70
1C70
1C70
1C70
0380
0380
0380
0380
0380
0380
0380
0380
0380
0380
0380
0380
ENDCHAR
STARTCHAR uni005A
ENCODING 90
SWIDTH 583 0
DWIDTH 21 0
BBX 15 27 3 0
BITMAP
FFFE
FFFE
FFFE
000E
000E
000E
0070
0070
0070
0070
0070
0070
0380
0380
0380
1C00
1C00
1C00
1C00
1C00
1C00
E000
E000
E000
FFFE
FFFE
FFFE
ENDCHAR
STARTCHAR uni005B
ENCODING 91
SWIDTH 333 0
DWIDTH 12 0
BBX 6 33 3 -3
BITMAP
FC
FC
FC
E0
E0
E0
E0
E0
E0
E0
E0
E0
E0
E0
E0
E0
E0
E0
E0
E0
E0
E0
E0
E0
E0
E0
E0
E0
E0
E0
FC
FC
FC
ENDCHAR
STARTCHAR uni005C
ENCODING 92
SWIDTH 583 0
DWIDTH 21 0
BBX 15 30 3 0
BITMAP
E000
E000
E000
E000
E000
E000
1C00
1C00
1C00
1C00
1C00
1C00
0380
0380
0380
0380
0380
0380
0070
0070
0070
0070
0070
0070
000E
000E
000E
000E
000E
000E
ENDCHAR
STARTCHAR uni005D
ENCODING 93
SWIDTH 333 0
DWIDTH 12 0
BBX 6 33 3 -3
BITMAP
FC
FC
FC
1C
1C
1C
1C
1C
1C
1C
1C
1C
1C
1C
1C
1C
1C
1C
1C
1C
1C
1C
1C
1C
1C
1C
1C
1C
1C
1C
FC
FC
FC
ENDCHAR
STARTCHAR uni005E
ENCODING 94
SWIDTH 417 0
DWIDTH 15 0
BBX 9 6 3 21
BITMAP
1C00
1C00
1C00
E380
E380
E380
ENDCHAR
STARTCHAR uni005F
ENCODING 95
SWIDTH 833 0
DWIDTH 30 0
BBX 24 3 3 0
BITMAP
FFFFFF
FFFFFF
FFFFFF
ENDCHAR
STARTCHAR uni0061
ENCODING 97
SWIDTH 583 0
DWIDTH 21 0
BBX 15 21 3 0
BITMAP
1FF0
1FF0
1FF0
E00E
E00E
E00E
1FFE
1FFE
1FFE
E00E
E00E
E00E
E00E
E00E
E00E
E00E
E00E
E00E
1FFE
1FFE
1FFE
ENDCHAR
STARTCHAR uni0062
ENCODING 98
SWIDTH 583 0
DWIDTH 21 0
BBX 15 27 3 0
BITMAP
E000
E000
E000
E000
E000
E000
FFF0
FFF0
FFF0
E00E
E00E
E00E
E00E
E00E
E00E
E00E
E00E
E00E
E00E
E00E
E00E
E00E
E00E
E00E
FFF0
FFF0
FFF0
ENDCHAR
STARTCHAR uni0063
ENCODING 99
SWIDTH 583 0
DWIDTH 21 0
BBX 15 21 3 0
BITMAP
1FF0
1FF0
1FF0
E00E
E00E
E00E
E000
E000
E000
E000
E000
E000
E000
E000
E000
E00E
E00E
E00E
1FF0
1FF0
1FF0
ENDCHAR
STARTCHAR uni0064
ENCODING 100
SWIDTH 583 0
DWIDTH 21 0
BBX 15 27 3 0
BITMAP
000E
000E
000E
000E
000E
000E
1FFE
1FFE
1FFE
E00E
E00E
E00E
E00E
E00E
E00E
E00E
E00E
E00E
E00E
E00E
E00E
E00E
E00E
E00E
1FFE
1FFE
1FFE
ENDCHAR
STARTCHAR uni0065
ENCODING 101
SWIDTH 583 0
DWIDTH 21 0
BBX 15 21 3 0
BITMAP
1FF0
1FF0
1FF0
E00E
E00E
E00E
E00E
E00E
E00E
FFFE
FFFE
FFFE
E000
E000
E000
E00E
E00E
E00E
1FF0
1FF0
1FF0
ENDCHAR
STARTCHAR uni0066
ENCODING 102
SWIDTH 500 0
DWIDTH 18 0
BBX 12 27 3 0
BITMAP
03F0
03F0
03F0
1C00
1C00
1C00
FF80
FF80
FF80
1C00
1C00
1C00
1C00
1C00
1C00
1C00
1C00
1C00
1C00
1C00
1C00
1C00
1C00
1C00
1C00
1C00
1C00
ENDCHAR
STARTCHAR uni0067
ENCODING 103
SWIDTH 583 0
DWIDTH 21 0
BBX 15 30 3 -9
BITMAP
1FFE
1FFE
1FFE
E00E
E00E
E00E
E00E
E00E
E00E
E00E
E00E
E00E
E00E
E00E
E00E
E00E
E00E
E00E
1FFE
1FFE
1FFE
000E
000E
000E
E00E
E00E
E00E
1FF0
1FF0
1FF0
ENDCHAR
STARTCHAR uni0068
ENCODING 104
SWIDTH 583 0
DWIDTH 21 0
BBX 15 27 3 0
BITMAP
E000
E000
E000
E000
E000
E000
E3F0
E3F0
E3F0
FC0E
FC0E
FC0E
E00E
E00E
E00E
E00E
E00E
E00E
E00E
E00E
E00E
E00E
E00E
E00E
E00E
E00E
E00E
ENDCHAR
STARTCHAR uni0069
ENCODING 105
SWIDTH 333 0
DWIDTH 12 0
BBX 6 27 3 0
BITMAP
1C
1C
1C
00
00
00
FC
FC
FC
1C
1C
1C
1C
1C
1C
1C
1C
1C
1C
1C
1C
1C
1C
1C
1C
1C
1C
ENDCHAR
STARTCHAR uni006A
ENCODING 106
SWIDTH 417 0
DWIDTH 15 0
BBX 9 36 3 -9
BITMAP
0380
0380
0380
0000
0000
0000
1F80
1F80
1F80
0380
0380
0380
0380
0380
0380
0380
0380
0380
0380
0380
0380
0380
0380
0380
0380
0380
0380
0380
0380
0380
0380
0380
0380
FC00
FC00
FC00
ENDCHAR
STARTCHAR uni006B
ENCODING 107
SWIDTH 667 0
DWIDTH 24 0
BBX 15 27 6 0
BITMAP
E000
E000
E000
E000
E000
E000
E00E
E00E
E00E
E070
E070
E070
E380
E380
E380
FC00
FC00
FC00
E380
E380
E380
E070
E070
E070
E00E
E00E
E00E
ENDCHAR
STARTCHAR uni006C
ENCODING 108
SWIDTH 333 0
DWIDTH 12 0
BBX 6 27 3 0
BITMAP
FC
FC
FC
1C
1C
1C
1C
1C
1C
1C
1C
1C
1C
1C
1C
1C
1C
1C
1C
1C
1C
1C
1C
1C
1C
1C
1C
ENDCHAR
STARTCHAR uni006D
ENCODING 109
SWIDTH 917 0
DWIDTH 33 0
BBX 27 21 3 0
BITMAP
E3F03F00
E3F03F00
E3F03F00
FC0FC0E0
FC0FC0E0
FC0FC0E0
E00E00E0
E00E00E0
E00E00E0
E00E00E0
E00E00E0
E00E00E0
E00E00E0
E00E00E0
E00E00E0
E00E00E0
E00E00E0
E00E00E0
E00E00E0
E00E00E0
E00E00E0
ENDCHAR
STARTCHAR uni006E
ENCODING 110
SWIDTH 583 0
DWIDTH 21 0
BBX 15 21 3 0
BITMAP
E3F0
E3F0
E3F0
FC0E
FC0E
FC0E
E00E
E00E
E00E
E00E
E00E
E00E
E00E
E00E
E00E
E00E
E00E
E00E
E00E
E00E
E00E
ENDCHAR
STARTCHAR uni006F
ENCODING 111
SWIDTH 583 0
DWIDTH 21 0
BBX 15 21 3 0
BITMAP
1FF0
1FF0
1FF0
E00E
E00E
E00E
E00E
E00E
E00E
E00E
E00E
E00E
E00E
E00E
E00E
E00E
E00E
E00E
1FF0
1FF0
1FF0
ENDCHAR
STARTCHAR uni0070
ENCODING 112
SWIDTH 583 0
DWIDTH 21 0
BBX 15 27 3 -6
BITMAP
FFF0
FFF0
FFF0
E00E
E00E
E00E
E00E
E00E
E00E
E00E
E00E
E00E
E00E
E00E
E00E
E00E
E00E
E00E
FFF0
FFF0
FFF0
E000
E000
E000
E000
E000
E000
ENDCHAR
STARTCHAR uni0071
ENCODING 113
SWIDTH 583 0
DWIDTH 21 0
BBX 15 27 3 -6
BITMAP
1FFE
1FFE
1FFE
E00E
E00E
E00E
E00E
E00E
E00E
E00E
E00E
E00E
E00E
E00E
E00E
E00E
E00E
E00E
1FFE
1FFE
1FFE
000E
000E
000E
000E
000E
000E
ENDCHAR
STARTCHAR uni0072
ENCODING 114
SWIDTH 500 0
DWIDTH 18 0
BBX 12 21 3 0
BITMAP
E3F0
E3F0
E3F0
FC00
FC00
FC00
E000
E000
E000
E000
E000
E000
E000
E000
E000
E000
E000
E000
E000
E000
E000
ENDCHAR
STARTCHAR uni0073
ENCODING 115
SWIDTH 583 0
DWIDTH 21 0
BBX 15 21 3 0
BITMAP
1FF0
1FF0
1FF0
E00E
E00E
E00E
E000
E000
E000
1FF0
1FF0
1FF0
000E
000E
000E
E00E
E00E
E00E
1FF0
1FF0
1FF0
ENDCHAR
STARTCHAR uni0074
ENCODING 116
SWIDTH 417 0
DWIDTH 15 0
BBX 12 27 0 0
BITMAP
1C00
1C00
1C00
1C00
1C00
1C00
FF80
FF80
FF80
1C00
1C00
1C00
1C00
1C00
1C00
1C00
1C00
1C00
1C00
1C00
1C00
1C00
1C00
1C00
03F0
03F0
03F0
ENDCHAR
STARTCHAR uni0075
ENCODING 117
SWIDTH 583 0
DWIDTH 21 0
BBX 15 21 3 0
BITMAP
E00E
E00E
E00E
E00E
E00E
E00E
E00E
E00E
E00E
E00E
E00E
E00E
E00E
E00E
E00E
E07E
E07E
E07E
1F8E
1F8E
1F8E
ENDCHAR
STARTCHAR uni0076
ENCODING 118
SWIDTH 583 0
DWIDTH 21 0
BBX 15 21 3 0
BITMAP
E00E
E00E
E00E
E00E
E00E
E00E
E00E
E00E
E00E
1C70
1C70
1C70
1C70
1C70
1C70
0380
0380
0380
0380
0380
0380
ENDCHAR
STARTCHAR uni0077
ENCODING 119
SWIDTH 917 0
DWIDTH 33 0
BBX 27 21 3 0
BITMAP
E00E00E0
E00E00E0
E00E00E0
E00E00E0
E00E00E0
E00E00E0
1C71C700
1C71C700
1C71C700
1C71C700
1C71C700
1C71C700
03803800
03803800
03803800
03803800
03803800
03803800
03803800
03803800
03803800
ENDCHAR
STARTCHAR uni0078
ENCODING 120
SWIDTH 583 0
DWIDTH 21 0
BBX 15 21 3 0
BITMAP
E00E
E00E
E00E
E00E
E00E
E00E
1C70
1C70
1C70
0380
0380
0380
1C70
1C70
1C70
E00E
E00E
E00E
E00E
E00E
E00E
ENDCHAR
STARTCHAR uni0079
ENCODING 121
SWIDTH 583 0
DWIDTH 21 0
BBX 15 30 3 -9
BITMAP
E00E
E00E
E00E
E00E
E00E
E00E
E00E
E00E
E00E
E00E
E00E
E00E
E00E
E00E
E00E
E00E
E00E
E00E
1FFE
1FFE
1FFE
000E
000E
000E
E00E
E00E
E00E
1FF0
1FF0
1FF0
ENDCHAR
STARTCHAR uni007A
ENCODING 122
SWIDTH 583 0
DWIDTH 21 0
BBX 15 21 3 0
BITMAP
FFFE
FFFE
FFFE
000E
000E
000E
0070
0070
0070
0380
0380
0380
1C00
1C00
1C00
E000
E000
E000
FFFE
FFFE
FFFE
ENDCHAR
STARTCHAR uni007B
ENCODING 123
SWIDTH 417 0
DWIDTH 15 0
BBX 9 33 3 -3
BITMAP
0380
0380
0380
1C00
1C00
1C00
1C00
1C00
1C00
1C00
1C00
1C00
1C00
1C00
1C00
E000
E000
E000
1C00
1C00
1C00
1C00
1C00
1C00
1C00
1C00
1C00
1C00
1C00
1C00
0380
0380
0380
ENDCHAR
STARTCHAR uni007D
ENCODING 125
SWIDTH 417 0
DWIDTH 15 0
BBX 9 33 3 -3
BITMAP
E000
E000
E000
1C00
1C00
1C00
1C00
1C00
1C00
1C00
1C00
1C00
1C00
1C00
1C00
0380
0380
0380
1C00
1C00
1C00
1C00
1C00
1C00
1C00
1C00
1C00
1C00
1C00
1C00
E000
E000
E000
ENDCHAR
STARTCHAR uni2026
ENCODING 8230
SWIDTH 750 0
DWIDTH 27 0
BBX 21 3 3 0
BITMAP
E07038
E07038
E07038
ENDCHAR
ENDFONT
