STARTFONT 2.1
FONT -pebble-pixelva-medium-r-normal--24-240-75-75-P-0-iso10646-1
SIZE 24 75 75
FONTBOUNDINGBOX 20 24 0 -6
COMMENT "HomeStarRunnerTron; BitFontMaker2 gallery 5892"
COMMENT "Public Domain"
COMMENT "U+2026 derived by repeating U+002E"
STARTPROPERTIES 8
FAMILY_NAME "Pixelva"
WEIGHT_NAME "Medium"
SLANT "R"
PIXEL_SIZE 24
FONT_ASCENT 18
FONT_DESCENT 6
SPACING "P"
CHARSET_REGISTRY "ISO10646"
ENDPROPERTIES
CHARS 93
STARTCHAR uni0020
ENCODING 32
SWIDTH 417 0
DWIDTH 10 0
BBX 2 2 0 0
BITMAP
00
00
ENDCHAR
STARTCHAR uni0021
ENCODING 33
SWIDTH 250 0
DWIDTH 6 0
BBX 2 18 2 0
BITMAP
C0
C0
C0
C0
C0
C0
C0
C0
C0
C0
C0
C0
C0
C0
00
00
C0
C0
ENDCHAR
STARTCHAR uni0022
ENCODING 34
SWIDTH 417 0
DWIDTH 10 0
BBX 6 4 2 14
BITMAP
CC
CC
CC
CC
ENDCHAR
STARTCHAR uni0023
ENCODING 35
SWIDTH 750 0
DWIDTH 18 0
BBX 14 10 2 8
BITMAP
0330
0330
3FFC
3FFC
0CC0
0CC0
FFF0
FFF0
3300
3300
ENDCHAR
STARTCHAR uni0024
ENCODING 36
SWIDTH 583 0
DWIDTH 14 0
BBX 10 22 2 0
BITMAP
0C00
0C00
3F00
3F00
CCC0
CCC0
CC00
CC00
3C00
3C00
0F00
0F00
0CC0
0CC0
0CC0
0CC0
CCC0
CCC0
3F00
3F00
0C00
0C00
ENDCHAR
STARTCHAR uni0025
ENCODING 37
SWIDTH 750 0
DWIDTH 18 0
BBX 14 18 2 0
BITMAP
3FFC
3FFC
C30C
C30C
C330
C330
3CC0
3CC0
0300
0300
0CF0
0CF0
330C
330C
C30C
C30C
C0F0
C0F0
ENDCHAR
STARTCHAR uni0026
ENCODING 38
SWIDTH 833 0
DWIDTH 20 0
BBX 16 18 2 0
BITMAP
0F00
0F00
30C0
30C0
3300
3300
0C00
0C00
3300
3300
C0CC
C0CC
C030
C030
C0CC
C0CC
3F03
3F03
ENDCHAR
STARTCHAR uni0027
ENCODING 39
SWIDTH 250 0
DWIDTH 6 0
BBX 2 4 2 14
BITMAP
C0
C0
C0
C0
ENDCHAR
STARTCHAR uni0028
ENCODING 40
SWIDTH 417 0
DWIDTH 10 0
BBX 6 22 2 -2
BITMAP
0C
0C
30
30
30
30
C0
C0
C0
C0
C0
C0
C0
C0
C0
C0
30
30
30
30
0C
0C
ENDCHAR
STARTCHAR uni0029
ENCODING 41
SWIDTH 417 0
DWIDTH 10 0
BBX 6 22 2 -2
BITMAP
C0
C0
30
30
30
30
0C
0C
0C
0C
0C
0C
0C
0C
0C
0C
30
30
30
30
C0
C0
ENDCHAR
STARTCHAR uni002A
ENCODING 42
SWIDTH 667 0
DWIDTH 16 0
BBX 12 10 2 8
BITMAP
30C0
30C0
0F00
0F00
FFF0
FFF0
0F00
0F00
30C0
30C0
ENDCHAR
STARTCHAR uni002B
ENCODING 43
SWIDTH 583 0
DWIDTH 14 0
BBX 10 10 2 4
BITMAP
0C00
0C00
0C00
0C00
FFC0
FFC0
0C00
0C00
0C00
0C00
ENDCHAR
STARTCHAR uni002C
ENCODING 44
SWIDTH 333 0
DWIDTH 8 0
BBX 4 6 2 -4
BITMAP
30
30
30
30
C0
C0
ENDCHAR
STARTCHAR uni002D
ENCODING 45
SWIDTH 583 0
DWIDTH 14 0
BBX 10 2 2 8
BITMAP
FFC0
FFC0
ENDCHAR
STARTCHAR uni002E
ENCODING 46
SWIDTH 250 0
DWIDTH 6 0
BBX 2 2 2 0
BITMAP
C0
C0
ENDCHAR
STARTCHAR uni002F
ENCODING 47
SWIDTH 583 0
DWIDTH 14 0
BBX 10 20 2 0
BITMAP
00C0
00C0
00C0
00C0
0300
0300
0300
0300
0C00
0C00
0C00
0C00
3000
3000
3000
3000
C000
C000
C000
C000
ENDCHAR
STARTCHAR uni0030
ENCODING 48
SWIDTH 667 0
DWIDTH 16 0
BBX 12 18 2 0
BITMAP
0F00
0F00
30C0
30C0
C030
C030
C030
C030
C030
C030
C030
C030
C030
C030
30C0
30C0
0F00
0F00
ENDCHAR
STARTCHAR uni0031
ENCODING 49
SWIDTH 333 0
DWIDTH 8 0
BBX 4 18 2 0
BITMAP
30
30
F0
F0
30
30
30
30
30
30
30
30
30
30
30
30
30
30
ENDCHAR
STARTCHAR uni0032
ENCODING 50
SWIDTH 667 0
DWIDTH 16 0
BBX 12 18 2 0
BITMAP
0FC0
0FC0
3030
3030
C030
C030
0030
0030
00C0
00C0
0300
0300
0C00
0C00
3000
3000
FFF0
FFF0
ENDCHAR
STARTCHAR uni0033
ENCODING 51
SWIDTH 667 0
DWIDTH 16 0
BBX 12 18 2 0
BITMAP
FFF0
FFF0
00C0
00C0
0300
0300
0F00
0F00
00C0
00C0
0030
0030
0030
0030
C0C0
C0C0
3F00
3F00
ENDCHAR
STARTCHAR uni0034
ENCODING 52
SWIDTH 750 0
DWIDTH 18 0
BBX 14 18 2 0
BITMAP
0030
0030
00F0
00F0
0330
0330
0C30
0C30
3030
3030
C030
C030
FFFC
FFFC
0030
0030
0030
0030
ENDCHAR
STARTCHAR uni0035
ENCODING 53
SWIDTH 667 0
DWIDTH 16 0
BBX 12 18 2 0
BITMAP
FFF0
FFF0
C000
C000
C000
C000
FFC0
FFC0
0030
0030
0030
0030
0030
0030
C030
C030
3FC0
3FC0
ENDCHAR
STARTCHAR uni0036
ENCODING 54
SWIDTH 667 0
DWIDTH 16 0
BBX 12 18 2 0
BITMAP
0FC0
0FC0
3000
3000
C000
C000
FFC0
FFC0
C030
C030
C030
C030
C030
C030
C030
C030
3FC0
3FC0
ENDCHAR
STARTCHAR uni0037
ENCODING 55
SWIDTH 667 0
DWIDTH 16 0
BBX 12 18 2 0
BITMAP
FFF0
FFF0
0030
0030
00C0
00C0
00C0
00C0
0300
0300
0300
0300
0C00
0C00
0C00
0C00
0C00
0C00
ENDCHAR
STARTCHAR uni0038
ENCODING 56
SWIDTH 667 0
DWIDTH 16 0
BBX 12 18 2 0
BITMAP
3FC0
3FC0
C030
C030
C030
C030
3FC0
3FC0
C030
C030
C030
C030
C030
C030
C030
C030
3FC0
3FC0
ENDCHAR
STARTCHAR uni0039
ENCODING 57
SWIDTH 667 0
DWIDTH 16 0
BBX 12 18 2 0
BITMAP
3FC0
3FC0
C030
C030
C030
C030
C030
C030
C030
C030
3FF0
3FF0
0030
0030
00C0
00C0
3F00
3F00
ENDCHAR
STARTCHAR uni003A
ENCODING 58
SWIDTH 250 0
DWIDTH 6 0
BBX 2 12 2 0
BITMAP
C0
C0
00
00
00
00
00
00
00
00
C0
C0
ENDCHAR
STARTCHAR uni003B
ENCODING 59
SWIDTH 250 0
DWIDTH 6 0
BBX 4 16 0 -4
BITMAP
30
30
00
00
00
00
00
00
00
00
30
30
30
30
C0
C0
ENDCHAR
STARTCHAR uni003C
ENCODING 60
SWIDTH 500 0
DWIDTH 12 0
BBX 8 14 2 0
BITMAP
03
03
0C
0C
30
30
C0
C0
30
30
0C
0C
03
03
ENDCHAR
STARTCHAR uni003D
ENCODING 61
SWIDTH 583 0
DWIDTH 14 0
BBX 10 8 2 2
BITMAP
FFC0
FFC0
0000
0000
0000
0000
FFC0
FFC0
ENDCHAR
STARTCHAR uni003E
ENCODING 62
SWIDTH 500 0
DWIDTH 12 0
BBX 8 14 2 0
BITMAP
C0
C0
30
30
0C
0C
03
03
0C
0C
30
30
C0
C0
ENDCHAR
STARTCHAR uni003F
ENCODING 63
SWIDTH 667 0
DWIDTH 16 0
BBX 12 18 2 0
BITMAP
3FC0
3FC0
C030
C030
C030
C030
00C0
00C0
0300
0300
0C00
0C00
0C00
0C00
0000
0000
0C00
0C00
ENDCHAR
STARTCHAR uni0040
ENCODING 64
SWIDTH 833 0
DWIDTH 20 0
BBX 16 16 2 0
BITMAP
0FF0
0FF0
300C
300C
C3F3
C3F3
CC33
CC33
CC33
CC33
C3FC
C3FC
3000
3000
0FC0
0FC0
ENDCHAR
STARTCHAR uni0041
ENCODING 65
SWIDTH 750 0
DWIDTH 18 0
BBX 14 18 2 0
BITMAP
0300
0300
0300
0300
0CC0
0CC0
0CC0
0CC0
3030
3030
3030
3030
FFFC
FFFC
C00C
C00C
C00C
C00C
ENDCHAR
STARTCHAR uni0042
ENCODING 66
SWIDTH 667 0
DWIDTH 16 0
BBX 12 18 2 0
BITMAP
FFC0
FFC0
C030
C030
C030
C030
FFC0
FFC0
C030
C030
C030
C030
C030
C030
C030
C030
FFC0
FFC0
ENDCHAR
STARTCHAR uni0043
ENCODING 67
SWIDTH 667 0
DWIDTH 16 0
BBX 12 18 2 0
BITMAP
3FC0
3FC0
C030
C030
C000
C000
C000
C000
C000
C000
C000
C000
C000
C000
C030
C030
3FC0
3FC0
ENDCHAR
STARTCHAR uni0044
ENCODING 68
SWIDTH 667 0
DWIDTH 16 0
BBX 12 18 2 0
BITMAP
FF00
FF00
C0C0
C0C0
C030
C030
C030
C030
C030
C030
C030
C030
C030
C030
C0C0
C0C0
FF00
FF00
ENDCHAR
STARTCHAR uni0045
ENCODING 69
SWIDTH 583 0
DWIDTH 14 0
BBX 10 18 2 0
BITMAP
FFC0
FFC0
C000
C000
C000
C000
C000
C000
FF00
FF00
C000
C000
C000
C000
C000
C000
FFC0
FFC0
ENDCHAR
STARTCHAR uni0046
ENCODING 70
SWIDTH 583 0
DWIDTH 14 0
BBX 10 18 2 0
BITMAP
FFC0
FFC0
C000
C000
C000
C000
C000
C000
FF00
FF00
C000
C000
C000
C000
C000
C000
C000
C000
ENDCHAR
STARTCHAR uni0047
ENCODING 71
SWIDTH 667 0
DWIDTH 16 0
BBX 12 18 2 0
BITMAP
3FC0
3FC0
C030
C030
C000
C000
C000
C000
C3F0
C3F0
C030
C030
C030
C030
C030
C030
3FC0
3FC0
ENDCHAR
STARTCHAR uni0048
ENCODING 72
SWIDTH 667 0
DWIDTH 16 0
BBX 12 18 2 0
BITMAP
C030
C030
C030
C030
C030
C030
C030
C030
FFF0
FFF0
C030
C030
C030
C030
C030
C030
C030
C030
ENDCHAR
STARTCHAR uni0049
ENCODING 73
SWIDTH 333 0
DWIDTH 8 0
BBX 2 18 4 0
BITMAP
C0
C0
C0
C0
C0
C0
C0
C0
C0
C0
C0
C0
C0
C0
C0
C0
C0
C0
ENDCHAR
STARTCHAR uni004A
ENCODING 74
SWIDTH 583 0
DWIDTH 14 0
BBX 12 18 0 0
BITMAP
0030
0030
0030
0030
0030
0030
0030
0030
0030
0030
0030
0030
C030
C030
C030
C030
3FC0
3FC0
ENDCHAR
STARTCHAR uni004B
ENCODING 75
SWIDTH 667 0
DWIDTH 16 0
BBX 12 18 2 0
BITMAP
C030
C030
C0C0
C0C0
C300
C300
CC00
CC00
F000
F000
CC00
CC00
C300
C300
C0C0
C0C0
C030
C030
ENDCHAR
STARTCHAR uni004C
ENCODING 76
SWIDTH 583 0
DWIDTH 14 0
BBX 10 18 2 0
BITMAP
C000
C000
C000
C000
C000
C000
C000
C000
C000
C000
C000
C000
C000
C000
C000
C000
FFC0
FFC0
ENDCHAR
STARTCHAR uni004D
ENCODING 77
SWIDTH 750 0
DWIDTH 18 0
BBX 14 18 2 0
BITMAP
C00C
C00C
F03C
F03C
CCCC
CCCC
C30C
C30C
C00C
C00C
C00C
C00C
C00C
C00C
C00C
C00C
C00C
C00C
ENDCHAR
STARTCHAR uni004E
ENCODING 78
SWIDTH 667 0
DWIDTH 16 0
BBX 12 18 2 0
BITMAP
F030
F030
F030
F030
CC30
CC30
CC30
CC30
C330
C330
C330
C330
C0F0
C0F0
C0F0
C0F0
C030
C030
ENDCHAR
STARTCHAR uni004F
ENCODING 79
SWIDTH 667 0
DWIDTH 16 0
BBX 12 18 2 0
BITMAP
3FC0
3FC0
C030
C030
C030
C030
C030
C030
C030
C030
C030
C030
C030
C030
C030
C030
3FC0
3FC0
ENDCHAR
STARTCHAR uni0050
ENCODING 80
SWIDTH 667 0
DWIDTH 16 0
BBX 12 18 2 0
BITMAP
FFC0
FFC0
C030
C030
C030
C030
C030
C030
FFC0
FFC0
C000
C000
C000
C000
C000
C000
C000
C000
ENDCHAR
STARTCHAR uni0051
ENCODING 81
SWIDTH 667 0
DWIDTH 16 0
BBX 12 20 2 -2
BITMAP
3FC0
3FC0
C030
C030
C030
C030
C030
C030
C030
C030
C030
C030
C030
C030
C330
C330
3FC0
3FC0
0030
0030
ENDCHAR
STARTCHAR uni0052
ENCODING 82
SWIDTH 667 0
DWIDTH 16 0
BBX 12 18 2 0
BITMAP
FFC0
FFC0
C030
C030
C030
C030
C030
C030
FFC0
FFC0
CC00
CC00
C300
C300
C0C0
C0C0
C030
C030
ENDCHAR
STARTCHAR uni0053
ENCODING 83
SWIDTH 667 0
DWIDTH 16 0
BBX 12 18 2 0
BITMAP
3FC0
3FC0
C030
C030
C000
C000
C000
C000
3FC0
3FC0
0030
0030
0030
0030
C030
C030
3FC0
3FC0
ENDCHAR
STARTCHAR uni0054
ENCODING 84
SWIDTH 667 0
DWIDTH 16 0
BBX 14 18 0 0
BITMAP
FFFC
FFFC
0300
0300
0300
0300
0300
0300
0300
0300
0300
0300
0300
0300
0300
0300
0300
0300
ENDCHAR
STARTCHAR uni0055
ENCODING 85
SWIDTH 667 0
DWIDTH 16 0
BBX 12 18 2 0
BITMAP
C030
C030
C030
C030
C030
C030
C030
C030
C030
C030
C030
C030
C030
C030
C030
C030
3FC0
3FC0
ENDCHAR
STARTCHAR uni0056
ENCODING 86
SWIDTH 750 0
DWIDTH 18 0
BBX 14 18 2 0
BITMAP
C00C
C00C
C00C
C00C
C00C
C00C
3030
3030
3030
3030
0CC0
0CC0
0CC0
0CC0
0300
0300
0300
0300
ENDCHAR
STARTCHAR uni0057
ENCODING 87
SWIDTH 917 0
DWIDTH 22 0
BBX 18 18 2 0
BITMAP
C000C0
C000C0
C000C0
C000C0
C0C0C0
C0C0C0
30C300
30C300
333300
333300
333300
333300
0C0C00
0C0C00
0C0C00
0C0C00
0C0C00
0C0C00
ENDCHAR
STARTCHAR uni0058
ENCODING 88
SWIDTH 583 0
DWIDTH 14 0
BBX 10 18 2 0
BITMAP
C0C0
C0C0
C0C0
C0C0
3300
3300
3300
3300
0C00
0C00
3300
3300
3300
3300
C0C0
C0C0
C0C0
C0C0
ENDCHAR
STARTCHAR uni0059
ENCODING 89
SWIDTH 583 0
DWIDTH 14 0
BBX 10 18 2 0
BITMAP
C0C0
C0C0
C0C0
C0C0
C0C0
C0C0
3300
3300
3300
3300
0C00
0C00
0C00
0C00
0C00
0C00
0C00
0C00
ENDCHAR
STARTCHAR uni005A
ENCODING 90
SWIDTH 583 0
DWIDTH 14 0
BBX 10 18 2 0
BITMAP
FFC0
FFC0
00C0
00C0
0300
0300
0300
0300
0C00
0C00
3000
3000
3000
3000
C000
C000
FFC0
FFC0
ENDCHAR
STARTCHAR uni005B
ENCODING 91
SWIDTH 333 0
DWIDTH 8 0
BBX 4 22 2 -2
BITMAP
F0
F0
C0
C0
C0
C0
C0
C0
C0
C0
C0
C0
C0
C0
C0
C0
C0
C0
C0
C0
F0
F0
ENDCHAR
STARTCHAR uni005C
ENCODING 92
SWIDTH 583 0
DWIDTH 14 0
BBX 10 20 2 0
BITMAP
C000
C000
C000
C000
3000
3000
3000
3000
0C00
0C00
0C00
0C00
0300
0300
0300
0300
00C0
00C0
00C0
00C0
ENDCHAR
STARTCHAR uni005D
ENCODING 93
SWIDTH 333 0
DWIDTH 8 0
BBX 4 22 2 -2
BITMAP
F0
F0
30
30
30
30
30
30
30
30
30
30
30
30
30
30
30
30
30
30
F0
F0
ENDCHAR
STARTCHAR uni005E
ENCODING 94
SWIDTH 417 0
DWIDTH 10 0
BBX 6 4 2 14
BITMAP
30
30
CC
CC
ENDCHAR
STARTCHAR uni005F
ENCODING 95
SWIDTH 833 0
DWIDTH 20 0
BBX 16 2 2 0
BITMAP
FFFF
FFFF
ENDCHAR
STARTCHAR uni0061
ENCODING 97
SWIDTH 583 0
DWIDTH 14 0
BBX 10 14 2 0
BITMAP
3F00
3F00
C0C0
C0C0
3FC0
3FC0
C0C0
C0C0
C0C0
C0C0
C0C0
C0C0
3FC0
3FC0
ENDCHAR
STARTCHAR uni0062
ENCODING 98
SWIDTH 583 0
DWIDTH 14 0
BBX 10 18 2 0
BITMAP
C000
C000
C000
C000
FF00
FF00
C0C0
C0C0
C0C0
C0C0
C0C0
C0C0
C0C0
C0C0
C0C0
C0C0
FF00
FF00
ENDCHAR
STARTCHAR uni0063
ENCODING 99
SWIDTH 583 0
DWIDTH 14 0
BBX 10 14 2 0
BITMAP
3F00
3F00
C0C0
C0C0
C000
C000
C000
C000
C000
C000
C0C0
C0C0
3F00
3F00
ENDCHAR
STARTCHAR uni0064
ENCODING 100
SWIDTH 583 0
DWIDTH 14 0
BBX 10 18 2 0
BITMAP
00C0
00C0
00C0
00C0
3FC0
3FC0
C0C0
C0C0
C0C0
C0C0
C0C0
C0C0
C0C0
C0C0
C0C0
C0C0
3FC0
3FC0
ENDCHAR
STARTCHAR uni0065
ENCODING 101
SWIDTH 583 0
DWIDTH 14 0
BBX 10 14 2 0
BITMAP
3F00
3F00
C0C0
C0C0
C0C0
C0C0
FFC0
FFC0
C000
C000
C0C0
C0C0
3F00
3F00
ENDCHAR
STARTCHAR uni0066
ENCODING 102
SWIDTH 500 0
DWIDTH 12 0
BBX 8 18 2 0
BITMAP
0F
0F
30
30
FC
FC
30
30
30
30
30
30
30
30
30
30
30
30
ENDCHAR
STARTCHAR uni0067
ENCODING 103
SWIDTH 583 0
DWIDTH 14 0
BBX 10 20 2 -6
BITMAP
3FC0
3FC0
C0C0
C0C0
C0C0
C0C0
C0C0
C0C0
C0C0
C0C0
C0C0
C0C0
3FC0
3FC0
00C0
00C0
C0C0
C0C0
3F00
3F00
ENDCHAR
STARTCHAR uni0068
ENCODING 104
SWIDTH 583 0
DWIDTH 14 0
BBX 10 18 2 0
BITMAP
C000
C000
C000
C000
CF00
CF00
F0C0
F0C0
C0C0
C0C0
C0C0
C0C0
C0C0
C0C0
C0C0
C0C0
C0C0
C0C0
ENDCHAR
STARTCHAR uni0069
ENCODING 105
SWIDTH 333 0
DWIDTH 8 0
BBX 4 18 2 0
BITMAP
30
30
00
00
F0
F0
30
30
30
30
30
30
30
30
30
30
30
30
ENDCHAR
STARTCHAR uni006A
ENCODING 106
SWIDTH 417 0
DWIDTH 10 0
BBX 6 24 2 -6
BITMAP
0C
0C
00
00
3C
3C
0C
0C
0C
0C
0C
0C
0C
0C
0C
0C
0C
0C
0C
0C
0C
0C
F0
F0
ENDCHAR
STARTCHAR uni006B
ENCODING 107
SWIDTH 667 0
DWIDTH 16 0
BBX 10 18 4 0
BITMAP
C000
C000
C000
C000
C0C0
C0C0
C300
C300
CC00
CC00
F000
F000
CC00
CC00
C300
C300
C0C0
C0C0
ENDCHAR
STARTCHAR uni006C
ENCODING 108
SWIDTH 333 0
DWIDTH 8 0
BBX 4 18 2 0
BITMAP
F0
F0
30
30
30
30
30
30
30
30
30
30
30
30
30
30
30
30
ENDCHAR
STARTCHAR uni006D
ENCODING 109
SWIDTH 917 0
DWIDTH 22 0
BBX 18 14 2 0
BITMAP
CF0F00
CF0F00
F0F0C0
F0F0C0
C0C0C0
C0C0C0
C0C0C0
C0C0C0
C0C0C0
C0C0C0
C0C0C0
C0C0C0
C0C0C0
C0C0C0
ENDCHAR
STARTCHAR uni006E
ENCODING 110
SWIDTH 583 0
DWIDTH 14 0
BBX 10 14 2 0
BITMAP
CF00
CF00
F0C0
F0C0
C0C0
C0C0
C0C0
C0C0
C0C0
C0C0
C0C0
C0C0
C0C0
C0C0
ENDCHAR
STARTCHAR uni006F
ENCODING 111
SWIDTH 583 0
DWIDTH 14 0
BBX 10 14 2 0
BITMAP
3F00
3F00
C0C0
C0C0
C0C0
C0C0
C0C0
C0C0
C0C0
C0C0
C0C0
C0C0
3F00
3F00
ENDCHAR
STARTCHAR uni0070
ENCODING 112
SWIDTH 583 0
DWIDTH 14 0
BBX 10 18 2 -4
BITMAP
FF00
FF00
C0C0
C0C0
C0C0
C0C0
C0C0
C0C0
C0C0
C0C0
C0C0
C0C0
FF00
FF00
C000
C000
C000
C000
ENDCHAR
STARTCHAR uni0071
ENCODING 113
SWIDTH 583 0
DWIDTH 14 0
BBX 10 18 2 -4
BITMAP
3FC0
3FC0
C0C0
C0C0
C0C0
C0C0
C0C0
C0C0
C0C0
C0C0
C0C0
C0C0
3FC0
3FC0
00C0
00C0
00C0
00C0
ENDCHAR
STARTCHAR uni0072
ENCODING 114
SWIDTH 500 0
DWIDTH 12 0
BBX 8 14 2 0
BITMAP
CF
CF
F0
F0
C0
C0
C0
C0
C0
C0
C0
C0
C0
C0
ENDCHAR
STARTCHAR uni0073
ENCODING 115
SWIDTH 583 0
DWIDTH 14 0
BBX 10 14 2 0
BITMAP
3F00
3F00
C0C0
C0C0
C000
C000
3F00
3F00
00C0
00C0
C0C0
C0C0
3F00
3F00
ENDCHAR
STARTCHAR uni0074
ENCODING 116
SWIDTH 417 0
DWIDTH 10 0
BBX 8 18 0 0
BITMAP
30
30
30
30
FC
FC
30
30
30
30
30
30
30
30
30
30
0F
0F
ENDCHAR
STARTCHAR uni0075
ENCODING 117
SWIDTH 583 0
DWIDTH 14 0
BBX 10 14 2 0
BITMAP
C0C0
C0C0
C0C0
C0C0
C0C0
C0C0
C0C0
C0C0
C0C0
C0C0
C3C0
C3C0
3CC0
3CC0
ENDCHAR
STARTCHAR uni0076
ENCODING 118
SWIDTH 583 0
DWIDTH 14 0
BBX 10 14 2 0
BITMAP
C0C0
C0C0
C0C0
C0C0
C0C0
C0C0
3300
3300
3300
3300
0C00
0C00
0C00
0C00
ENDCHAR
STARTCHAR uni0077
ENCODING 119
SWIDTH 917 0
DWIDTH 22 0
BBX 18 14 2 0
BITMAP
C0C0C0
C0C0C0
C0C0C0
C0C0C0
333300
333300
333300
333300
0C0C00
0C0C00
0C0C00
0C0C00
0C0C00
0C0C00
ENDCHAR
STARTCHAR uni0078
ENCODING 120
SWIDTH 583 0
DWIDTH 14 0
BBX 10 14 2 0
BITMAP
C0C0
C0C0
C0C0
C0C0
3300
3300
0C00
0C00
3300
3300
C0C0
C0C0
C0C0
C0C0
ENDCHAR
STARTCHAR uni0079
ENCODING 121
SWIDTH 583 0
DWIDTH 14 0
BBX 10 20 2 -6
BITMAP
C0C0
C0C0
C0C0
C0C0
C0C0
C0C0
C0C0
C0C0
C0C0
C0C0
C0C0
C0C0
3FC0
3FC0
00C0
00C0
C0C0
C0C0
3F00
3F00
ENDCHAR
STARTCHAR uni007A
ENCODING 122
SWIDTH 583 0
DWIDTH 14 0
BBX 10 14 2 0
BITMAP
FFC0
FFC0
00C0
00C0
0300
0300
0C00
0C00
3000
3000
C000
C000
FFC0
FFC0
ENDCHAR
STARTCHAR uni007B
ENCODING 123
SWIDTH 417 0
DWIDTH 10 0
BBX 6 22 2 -2
BITMAP
0C
0C
30
30
30
30
30
30
30
30
C0
C0
30
30
30
30
30
30
30
30
0C
0C
ENDCHAR
STARTCHAR uni007D
ENCODING 125
SWIDTH 417 0
DWIDTH 10 0
BBX 6 22 2 -2
BITMAP
C0
C0
30
30
30
30
30
30
30
30
0C
0C
30
30
30
30
30
30
30
30
C0
C0
ENDCHAR
STARTCHAR uni2026
ENCODING 8230
SWIDTH 750 0
DWIDTH 18 0
BBX 14 2 2 0
BITMAP
C30C
C30C
ENDCHAR
ENDFONT
