STARTFONT 2.1
FONT -pebble-pixelva-medium-r-normal--12-120-75-75-P-0-iso10646-1
SIZE 12 75 75
FONTBOUNDINGBOX 10 12 0 -3
COMMENT "HomeStarRunnerTron; BitFontMaker2 gallery 5892"
COMMENT "Public Domain"
COMMENT "U+2026 derived by repeating U+002E"
STARTPROPERTIES 8
FAMILY_NAME "Pixelva"
WEIGHT_NAME "Medium"
SLANT "R"
PIXEL_SIZE 12
FONT_ASCENT 9
FONT_DESCENT 3
SPACING "P"
CHARSET_REGISTRY "ISO10646"
ENDPROPERTIES
CHARS 93
STARTCHAR uni0020
ENCODING 32
SWIDTH 417 0
DWIDTH 5 0
BBX 1 1 0 0
BITMAP
00
ENDCHAR
STARTCHAR uni0021
ENCODING 33
SWIDTH 250 0
DWIDTH 3 0
BBX 1 9 1 0
BITMAP
80
80
80
80
80
80
80
00
80
ENDCHAR
STARTCHAR uni0022
ENCODING 34
SWIDTH 417 0
DWIDTH 5 0
BBX 3 2 1 7
BITMAP
A0
A0
ENDCHAR
STARTCHAR uni0023
ENCODING 35
SWIDTH 750 0
DWIDTH 9 0
BBX 7 5 1 4
BITMAP
14
7E
28
FC
50
ENDCHAR
STARTCHAR uni0024
ENCODING 36
SWIDTH 583 0
DWIDTH 7 0
BBX 5 11 1 0
BITMAP
20
70
A8
A0
60
30
28
28
A8
70
20
ENDCHAR
STARTCHAR uni0025
ENCODING 37
SWIDTH 750 0
DWIDTH 9 0
BBX 7 9 1 0
BITMAP
7E
92
94
68
10
2C
52
92
8C
ENDCHAR
STARTCHAR uni0026
ENCODING 38
SWIDTH 833 0
DWIDTH 10 0
BBX 8 9 1 0
BITMAP
30
48
50
20
50
8A
84
8A
71
ENDCHAR
STARTCHAR uni0027
ENCODING 39
SWIDTH 250 0
DWIDTH 3 0
BBX 1 2 1 7
BITMAP
80
80
ENDCHAR
STARTCHAR uni0028
ENCODING 40
SWIDTH 417 0
DWIDTH 5 0
BBX 3 11 1 -1
BITMAP
20
40
40
80
80
80
80
80
40
40
20
ENDCHAR
STARTCHAR uni0029
ENCODING 41
SWIDTH 417 0
DWIDTH 5 0
BBX 3 11 1 -1
BITMAP
80
40
40
20
20
20
20
20
40
40
80
ENDCHAR
STARTCHAR uni002A
ENCODING 42
SWIDTH 667 0
DWIDTH 8 0
BBX 6 5 1 4
BITMAP
48
30
FC
30
48
ENDCHAR
STARTCHAR uni002B
ENCODING 43
SWIDTH 583 0
DWIDTH 7 0
BBX 5 5 1 2
BITMAP
20
20
F8
20
20
ENDCHAR
STARTCHAR uni002C
ENCODING 44
SWIDTH 333 0
DWIDTH 4 0
BBX 2 3 1 -2
BITMAP
40
40
80
ENDCHAR
STARTCHAR uni002D
ENCODING 45
SWIDTH 583 0
DWIDTH 7 0
BBX 5 1 1 4
BITMAP
F8
ENDCHAR
STARTCHAR uni002E
ENCODING 46
SWIDTH 250 0
DWIDTH 3 0
BBX 1 1 1 0
BITMAP
80
ENDCHAR
STARTCHAR uni002F
ENCODING 47
SWIDTH 583 0
DWIDTH 7 0
BBX 5 10 1 0
BITMAP
08
08
10
10
20
20
40
40
80
80
ENDCHAR
STARTCHAR uni0030
ENCODING 48
SWIDTH 667 0
DWIDTH 8 0
BBX 6 9 1 0
BITMAP
30
48
84
84
84
84
84
48
30
ENDCHAR
STARTCHAR uni0031
ENCODING 49
SWIDTH 333 0
DWIDTH 4 0
BBX 2 9 1 0
BITMAP
40
C0
40
40
40
40
40
40
40
ENDCHAR
STARTCHAR uni0032
ENCODING 50
SWIDTH 667 0
DWIDTH 8 0
BBX 6 9 1 0
BITMAP
38
44
84
04
08
10
20
40
FC
ENDCHAR
STARTCHAR uni0033
ENCODING 51
SWIDTH 667 0
DWIDTH 8 0
BBX 6 9 1 0
BITMAP
FC
08
10
30
08
04
04
88
70
ENDCHAR
STARTCHAR uni0034
ENCODING 52
SWIDTH 750 0
DWIDTH 9 0
BBX 7 9 1 0
BITMAP
04
0C
14
24
44
84
FE
04
04
ENDCHAR
STARTCHAR uni0035
ENCODING 53
SWIDTH 667 0
DWIDTH 8 0
BBX 6 9 1 0
BITMAP
FC
80
80
F8
04
04
04
84
78
ENDCHAR
STARTCHAR uni0036
ENCODING 54
SWIDTH 667 0
DWIDTH 8 0
BBX 6 9 1 0
BITMAP
38
40
80
F8
84
84
84
84
78
ENDCHAR
STARTCHAR uni0037
ENCODING 55
SWIDTH 667 0
DWIDTH 8 0
BBX 6 9 1 0
BITMAP
FC
04
08
08
10
10
20
20
20
ENDCHAR
STARTCHAR uni0038
ENCODING 56
SWIDTH 667 0
DWIDTH 8 0
BBX 6 9 1 0
BITMAP
78
84
84
78
84
84
84
84
78
ENDCHAR
STARTCHAR uni0039
ENCODING 57
SWIDTH 667 0
DWIDTH 8 0
BBX 6 9 1 0
BITMAP
78
84
84
84
84
7C
04
08
70
ENDCHAR
STARTCHAR uni003A
ENCODING 58
SWIDTH 250 0
DWIDTH 3 0
BBX 1 6 1 0
BITMAP
80
00
00
00
00
80
ENDCHAR
STARTCHAR uni003B
ENCODING 59
SWIDTH 250 0
DWIDTH 3 0
BBX 2 8 0 -2
BITMAP
40
00
00
00
00
40
40
80
ENDCHAR
STARTCHAR uni003C
ENCODING 60
SWIDTH 500 0
DWIDTH 6 0
BBX 4 7 1 0
BITMAP
10
20
40
80
40
20
10
ENDCHAR
STARTCHAR uni003D
ENCODING 61
SWIDTH 583 0
DWIDTH 7 0
BBX 5 4 1 1
BITMAP
F8
00
00
F8
ENDCHAR
STARTCHAR uni003E
ENCODING 62
SWIDTH 500 0
DWIDTH 6 0
BBX 4 7 1 0
BITMAP
80
40
20
10
20
40
80
ENDCHAR
STARTCHAR uni003F
ENCODING 63
SWIDTH 667 0
DWIDTH 8 0
BBX 6 9 1 0
BITMAP
78
84
84
08
10
20
20
00
20
ENDCHAR
STARTCHAR uni0040
ENCODING 64
SWIDTH 833 0
DWIDTH 10 0
BBX 8 8 1 0
BITMAP
3C
42
9D
A5
A5
9E
40
38
ENDCHAR
STARTCHAR uni0041
ENCODING 65
SWIDTH 750 0
DWIDTH 9 0
BBX 7 9 1 0
BITMAP
10
10
28
28
44
44
FE
82
82
ENDCHAR
STARTCHAR uni0042
ENCODING 66
SWIDTH 667 0
DWIDTH 8 0
BBX 6 9 1 0
BITMAP
F8
84
84
F8
84
84
84
84
F8
ENDCHAR
STARTCHAR uni0043
ENCODING 67
SWIDTH 667 0
DWIDTH 8 0
BBX 6 9 1 0
BITMAP
78
84
80
80
80
80
80
84
78
ENDCHAR
STARTCHAR uni0044
ENCODING 68
SWIDTH 667 0
DWIDTH 8 0
BBX 6 9 1 0
BITMAP
F0
88
84
84
84
84
84
88
F0
ENDCHAR
STARTCHAR uni0045
ENCODING 69
SWIDTH 583 0
DWIDTH 7 0
BBX 5 9 1 0
BITMAP
F8
80
80
80
F0
80
80
80
F8
ENDCHAR
STARTCHAR uni0046
ENCODING 70
SWIDTH 583 0
DWIDTH 7 0
BBX 5 9 1 0
BITMAP
F8
80
80
80
F0
80
80
80
80
ENDCHAR
STARTCHAR uni0047
ENCODING 71
SWIDTH 667 0
DWIDTH 8 0
BBX 6 9 1 0
BITMAP
78
84
80
80
9C
84
84
84
78
ENDCHAR
STARTCHAR uni0048
ENCODING 72
SWIDTH 667 0
DWIDTH 8 0
BBX 6 9 1 0
BITMAP
84
84
84
84
FC
84
84
84
84
ENDCHAR
STARTCHAR uni0049
ENCODING 73
SWIDTH 333 0
DWIDTH 4 0
BBX 1 9 2 0
BITMAP
80
80
80
80
80
80
80
80
80
ENDCHAR
STARTCHAR uni004A
ENCODING 74
SWIDTH 583 0
DWIDTH 7 0
BBX 6 9 0 0
BITMAP
04
04
04
04
04
04
84
84
78
ENDCHAR
STARTCHAR uni004B
ENCODING 75
SWIDTH 667 0
DWIDTH 8 0
BBX 6 9 1 0
BITMAP
84
88
90
A0
C0
A0
90
88
84
ENDCHAR
STARTCHAR uni004C
ENCODING 76
SWIDTH 583 0
DWIDTH 7 0
BBX 5 9 1 0
BITMAP
80
80
80
80
80
80
80
80
F8
ENDCHAR
STARTCHAR uni004D
ENCODING 77
SWIDTH 750 0
DWIDTH 9 0
BBX 7 9 1 0
BITMAP
82
C6
AA
92
82
82
82
82
82
ENDCHAR
STARTCHAR uni004E
ENCODING 78
SWIDTH 667 0
DWIDTH 8 0
BBX 6 9 1 0
BITMAP
C4
C4
A4
A4
94
94
8C
8C
84
ENDCHAR
STARTCHAR uni004F
ENCODING 79
SWIDTH 667 0
DWIDTH 8 0
BBX 6 9 1 0
BITMAP
78
84
84
84
84
84
84
84
78
ENDCHAR
STARTCHAR uni0050
ENCODING 80
SWIDTH 667 0
DWIDTH 8 0
BBX 6 9 1 0
BITMAP
F8
84
84
84
F8
80
80
80
80
ENDCHAR
STARTCHAR uni0051
ENCODING 81
SWIDTH 667 0
DWIDTH 8 0
BBX 6 10 1 -1
BITMAP
78
84
84
84
84
84
84
94
78
04
ENDCHAR
STARTCHAR uni0052
ENCODING 82
SWIDTH 667 0
DWIDTH 8 0
BBX 6 9 1 0
BITMAP
F8
84
84
84
F8
A0
90
88
84
ENDCHAR
STARTCHAR uni0053
ENCODING 83
SWIDTH 667 0
DWIDTH 8 0
BBX 6 9 1 0
BITMAP
78
84
80
80
78
04
04
84
78
ENDCHAR
STARTCHAR uni0054
ENCODING 84
SWIDTH 667 0
DWIDTH 8 0
BBX 7 9 0 0
BITMAP
FE
10
10
10
10
10
10
10
10
ENDCHAR
STARTCHAR uni0055
ENCODING 85
SWIDTH 667 0
DWIDTH 8 0
BBX 6 9 1 0
BITMAP
84
84
84
84
84
84
84
84
78
ENDCHAR
STARTCHAR uni0056
ENCODING 86
SWIDTH 750 0
DWIDTH 9 0
BBX 7 9 1 0
BITMAP
82
82
82
44
44
28
28
10
10
ENDCHAR
STARTCHAR uni0057
ENCODING 87
SWIDTH 917 0
DWIDTH 11 0
BBX 9 9 1 0
BITMAP
8080
8080
8880
4900
5500
5500
2200
2200
2200
ENDCHAR
STARTCHAR uni0058
ENCODING 88
SWIDTH 583 0
DWIDTH 7 0
BBX 5 9 1 0
BITMAP
88
88
50
50
20
50
50
88
88
ENDCHAR
STARTCHAR uni0059
ENCODING 89
SWIDTH 583 0
DWIDTH 7 0
BBX 5 9 1 0
BITMAP
88
88
88
50
50
20
20
20
20
ENDCHAR
STARTCHAR uni005A
ENCODING 90
SWIDTH 583 0
DWIDTH 7 0
BBX 5 9 1 0
BITMAP
F8
08
10
10
20
40
40
80
F8
ENDCHAR
STARTCHAR uni005B
ENCODING 91
SWIDTH 333 0
DWIDTH 4 0
BBX 2 11 1 -1
BITMAP
C0
80
80
80
80
80
80
80
80
80
C0
ENDCHAR
STARTCHAR uni005C
ENCODING 92
SWIDTH 583 0
DWIDTH 7 0
BBX 5 10 1 0
BITMAP
80
80
40
40
20
20
10
10
08
08
ENDCHAR
STARTCHAR uni005D
ENCODING 93
SWIDTH 333 0
DWIDTH 4 0
BBX 2 11 1 -1
BITMAP
C0
40
40
40
40
40
40
40
40
40
C0
ENDCHAR
STARTCHAR uni005E
ENCODING 94
SWIDTH 417 0
DWIDTH 5 0
BBX 3 2 1 7
BITMAP
40
A0
ENDCHAR
STARTCHAR uni005F
ENCODING 95
SWIDTH 833 0
DWIDTH 10 0
BBX 8 1 1 0
BITMAP
FF
ENDCHAR
STARTCHAR uni0061
ENCODING 97
SWIDTH 583 0
DWIDTH 7 0
BBX 5 7 1 0
BITMAP
70
88
78
88
88
88
78
ENDCHAR
STARTCHAR uni0062
ENCODING 98
SWIDTH 583 0
DWIDTH 7 0
BBX 5 9 1 0
BITMAP
80
80
F0
88
88
88
88
88
F0
ENDCHAR
STARTCHAR uni0063
ENCODING 99
SWIDTH 583 0
DWIDTH 7 0
BBX 5 7 1 0
BITMAP
70
88
80
80
80
88
70
ENDCHAR
STARTCHAR uni0064
ENCODING 100
SWIDTH 583 0
DWIDTH 7 0
BBX 5 9 1 0
BITMAP
08
08
78
88
88
88
88
88
78
ENDCHAR
STARTCHAR uni0065
ENCODING 101
SWIDTH 583 0
DWIDTH 7 0
BBX 5 7 1 0
BITMAP
70
88
88
F8
80
88
70
ENDCHAR
STARTCHAR uni0066
ENCODING 102
SWIDTH 500 0
DWIDTH 6 0
BBX 4 9 1 0
BITMAP
30
40
E0
40
40
40
40
40
40
ENDCHAR
STARTCHAR uni0067
ENCODING 103
SWIDTH 583 0
DWIDTH 7 0
BBX 5 10 1 -3
BITMAP
78
88
88
88
88
88
78
08
88
70
ENDCHAR
STARTCHAR uni0068
ENCODING 104
SWIDTH 583 0
DWIDTH 7 0
BBX 5 9 1 0
BITMAP
80
80
B0
C8
88
88
88
88
88
ENDCHAR
STARTCHAR uni0069
ENCODING 105
SWIDTH 333 0
DWIDTH 4 0
BBX 2 9 1 0
BITMAP
40
00
C0
40
40
40
40
40
40
ENDCHAR
STARTCHAR uni006A
ENCODING 106
SWIDTH 417 0
DWIDTH 5 0
BBX 3 12 1 -3
BITMAP
20
00
60
20
20
20
20
20
20
20
20
C0
ENDCHAR
STARTCHAR uni006B
ENCODING 107
SWIDTH 667 0
DWIDTH 8 0
BBX 5 9 2 0
BITMAP
80
80
88
90
A0
C0
A0
90
88
ENDCHAR
STARTCHAR uni006C
ENCODING 108
SWIDTH 333 0
DWIDTH 4 0
BBX 2 9 1 0
BITMAP
C0
40
40
40
40
40
40
40
40
ENDCHAR
STARTCHAR uni006D
ENCODING 109
SWIDTH 917 0
DWIDTH 11 0
BBX 9 7 1 0
BITMAP
B300
CC80
8880
8880
8880
8880
8880
ENDCHAR
STARTCHAR uni006E
ENCODING 110
SWIDTH 583 0
DWIDTH 7 0
BBX 5 7 1 0
BITMAP
B0
C8
88
88
88
88
88
ENDCHAR
STARTCHAR uni006F
ENCODING 111
SWIDTH 583 0
DWIDTH 7 0
BBX 5 7 1 0
BITMAP
70
88
88
88
88
88
70
ENDCHAR
STARTCHAR uni0070
ENCODING 112
SWIDTH 583 0
DWIDTH 7 0
BBX 5 9 1 -2
BITMAP
F0
88
88
88
88
88
F0
80
80
ENDCHAR
STARTCHAR uni0071
ENCODING 113
SWIDTH 583 0
DWIDTH 7 0
BBX 5 9 1 -2
BITMAP
78
88
88
88
88
88
78
08
08
ENDCHAR
STARTCHAR uni0072
ENCODING 114
SWIDTH 500 0
DWIDTH 6 0
BBX 4 7 1 0
BITMAP
B0
C0
80
80
80
80
80
ENDCHAR
STARTCHAR uni0073
ENCODING 115
SWIDTH 583 0
DWIDTH 7 0
BBX 5 7 1 0
BITMAP
70
88
80
70
08
88
70
ENDCHAR
STARTCHAR uni0074
ENCODING 116
SWIDTH 417 0
DWIDTH 5 0
BBX 4 9 0 0
BITMAP
40
40
E0
40
40
40
40
40
30
ENDCHAR
STARTCHAR uni0075
ENCODING 117
SWIDTH 583 0
DWIDTH 7 0
BBX 5 7 1 0
BITMAP
88
88
88
88
88
98
68
ENDCHAR
STARTCHAR uni0076
ENCODING 118
SWIDTH 583 0
DWIDTH 7 0
BBX 5 7 1 0
BITMAP
88
88
88
50
50
20
20
ENDCHAR
STARTCHAR uni0077
ENCODING 119
SWIDTH 917 0
DWIDTH 11 0
BBX 9 7 1 0
BITMAP
8880
8880
5500
5500
2200
2200
2200
ENDCHAR
STARTCHAR uni0078
ENCODING 120
SWIDTH 583 0
DWIDTH 7 0
BBX 5 7 1 0
BITMAP
88
88
50
20
50
88
88
ENDCHAR
STARTCHAR uni0079
ENCODING 121
SWIDTH 583 0
DWIDTH 7 0
BBX 5 10 1 -3
BITMAP
88
88
88
88
88
88
78
08
88
70
ENDCHAR
STARTCHAR uni007A
ENCODING 122
SWIDTH 583 0
DWIDTH 7 0
BBX 5 7 1 0
BITMAP
F8
08
10
20
40
80
F8
ENDCHAR
STARTCHAR uni007B
ENCODING 123
SWIDTH 417 0
DWIDTH 5 0
BBX 3 11 1 -1
BITMAP
20
40
40
40
40
80
40
40
40
40
20
ENDCHAR
STARTCHAR uni007D
ENCODING 125
SWIDTH 417 0
DWIDTH 5 0
BBX 3 11 1 -1
BITMAP
80
40
40
40
40
20
40
40
40
40
80
ENDCHAR
STARTCHAR uni2026
ENCODING 8230
SWIDTH 750 0
DWIDTH 9 0
BBX 7 1 1 0
BITMAP
92
ENDCHAR
ENDFONT
